<?xml version="1.0" encoding="utf-8"?>
<!-- Generator: Adobe Illustrator 21.0.2, SVG Export Plug-In . SVG Version: 6.00 Build 0)  -->
<svg version="1.1" id="Layer_1" xmlns="http://www.w3.org/2000/svg" xmlns:xlink="http://www.w3.org/1999/xlink" x="0px" y="0px"
	 viewBox="0 0 402 401" style="enable-background:new 0 0 402 401;" xml:space="preserve">
<style type="text/css">
	.st0{fill:#7F507B;}
	.st1{opacity:0.2;fill:#FFFFFF;enable-background:new    ;}
	.st2{opacity:0.4;fill:#FFFFFF;enable-background:new    ;}
	.st3{opacity:0.6;fill:#FFFFFF;enable-background:new    ;}
	.st4{opacity:0.8;fill:#FFFFFF;enable-background:new    ;}
	.st5{fill:#FFFFFF;}
</style>
<title>colour2_2</title>
<g id="Layer_2">
	<g id="Layer_1-2">
		<rect x="2" y="1" class="st0" width="400" height="400"/>
		<rect x="2" y="350.8" class="st1" width="80" height="50.2"/>
		<rect x="82" y="350.8" class="st2" width="80" height="50.2"/>
		<rect x="162" y="350.8" class="st3" width="80" height="50.2"/>
		<rect x="242" y="350.8" class="st4" width="80" height="50.2"/>
		<rect x="322" y="350.7" class="st5" width="80.5" height="50.5"/>
		<path class="st5" d="M7.9,19.3v11.7H1.4V0.4h8.9c4.2,0,7.2,0.8,9.2,2.3s3,3.8,3,6.9c0,1.7-0.5,3.4-1.5,4.8
			c-1.1,1.5-2.5,2.6-4.2,3.3l9,13.3h-7.2l-7.3-11.7H7.9z M7.9,14h2.1c1.6,0.1,3.2-0.2,4.5-1c1-0.8,1.6-2,1.5-3.2
			c0.1-1.2-0.5-2.4-1.5-3.1c-1.4-0.7-3-1-4.6-0.9h-2V14z"/>
		<path class="st5" d="M13,78.2h12.1v15.9c-1.8,0.6-3.7,1.1-5.6,1.4c-1.8,0.3-3.5,0.4-5.3,0.4c-4.6,0-8.1-1.4-10.6-4.1
			C1.2,89,0,85.1,0,80c0-4.9,1.4-8.8,4.2-11.6S11,64.3,16,64.3c3.1,0,6.2,0.6,9.1,1.9l-2.2,5.2c-2.2-1.1-4.5-1.7-7-1.7
			c-2.6-0.1-5,0.9-6.7,2.8c-1.8,2.1-2.7,4.8-2.5,7.6c0,3.3,0.7,5.9,2,7.6c1.4,1.8,3.6,2.8,5.9,2.6c1.4,0,2.8-0.1,4.1-0.4v-6.4H13
			L13,78.2z"/>
		<path class="st5" d="M1.4,129.1h9.5c4.3,0,7.5,0.6,9.5,1.9c2,1.3,3.1,3.5,2.9,5.9c0.1,1.6-0.4,3.2-1.3,4.5c-0.8,1.1-2,1.9-3.4,2.1
			v0.2c1.7,0.3,3.1,1.1,4.2,2.4c0.9,1.4,1.4,3.1,1.3,4.7c0.1,2.5-1,5-3,6.5c-2,1.6-4.8,2.3-8.2,2.3H1.4V129.1z M7.9,141.2h3.8
			c1.3,0.1,2.7-0.2,3.8-0.8c0.8-0.6,1.3-1.7,1.2-2.7c0.1-1-0.4-2-1.3-2.5c-1.3-0.6-2.7-0.9-4.1-0.8H7.9V141.2z M7.9,146.4v8h4.2
			c1.4,0.1,2.8-0.3,4-1c0.9-0.8,1.4-2,1.3-3.1c0-2.5-1.8-3.8-5.4-3.8H7.9z"/>
		<path class="st5" d="M61.1,31.1h-6.5V13.3c0-0.4,0-0.8,0-1.3s0-1,0-1.6c0-0.6,0-1.1,0.1-1.7c0-0.6,0-1.1,0.1-1.5
			c-0.1,0.1-0.2,0.2-0.4,0.4S54.1,8,53.8,8.2c-0.2,0.2-0.4,0.4-0.6,0.6s-0.4,0.4-0.6,0.6L49,12.2l-3.1-3.9l9.9-7.9h5.3L61.1,31.1z"
			/>
		<path class="st5" d="M94.1,31.1H73.6v-4.5l7.2-7.8c0.9-1,1.7-1.9,2.5-2.7c0.7-0.8,1.3-1.6,1.9-2.4c0.5-0.7,0.9-1.5,1.2-2.4
			c0.3-0.8,0.4-1.7,0.4-2.6c0.1-0.9-0.3-1.8-0.9-2.4c-0.7-0.6-1.6-0.9-2.5-0.9c-1.1,0-2.2,0.3-3.2,0.8C79.1,6.9,78,7.6,77,8.5
			l-3.5-4.2c0.6-0.6,1.3-1.1,2-1.6c1.5-1.1,3.2-1.9,5-2.4C81.5,0.1,82.7,0,83.8,0c1.3,0,2.7,0.2,3.9,0.6c1.1,0.4,2.1,1,3,1.7
			C91.5,3.1,92.2,4,92.6,5c0.5,1.1,0.7,2.4,0.7,3.6c0,1.2-0.2,2.3-0.6,3.4c-0.4,1.1-1,2.2-1.7,3.2c-0.8,1.1-1.6,2.2-2.5,3.1
			c-1,1-2,2.1-3.1,3.2l-3.7,3.7v0.3h12.5V31.1z"/>
		<path class="st5" d="M104.1,31.1L115,5.9h-14.1V0.5H122v4.1l-11.2,26.5L104.1,31.1z"/>
		<path class="st5" d="M55.8,64.4c1.2,0,2.4,0.1,3.6,0.5c1.1,0.3,2.1,0.7,3,1.4c0.8,0.6,1.5,1.4,2,2.3c0.5,1,0.8,2.1,0.8,3.2
			c0,0.9-0.1,1.7-0.4,2.5c-0.3,0.7-0.7,1.4-1.2,2c-0.5,0.6-1.1,1.2-1.7,1.6c-0.7,0.5-1.4,0.9-2.2,1.3c0.8,0.4,1.6,0.9,2.4,1.4
			c0.8,0.5,1.4,1.1,2.1,1.8c0.6,0.7,1.1,1.4,1.4,2.2c0.4,0.9,0.6,1.8,0.5,2.8c0,1.2-0.2,2.4-0.8,3.5c-0.5,1-1.2,1.9-2.1,2.6
			c-1,0.8-2.1,1.3-3.3,1.7c-1.4,0.4-2.8,0.6-4.2,0.6c-1.5,0-3-0.2-4.4-0.6c-1.2-0.3-2.3-0.9-3.2-1.6c-0.9-0.7-1.6-1.6-2-2.6
			c-0.5-1.1-0.7-2.3-0.7-3.4c0-1.8,0.6-3.6,1.7-5.1c0.5-0.7,1.2-1.3,1.9-1.8c0.7-0.5,1.5-1,2.3-1.4C50.7,79,50,78.5,49.4,78
			c-0.6-0.5-1.1-1.1-1.6-1.7c-0.4-0.6-0.8-1.3-1-2.1c-0.3-0.8-0.4-1.6-0.4-2.5c0-1.1,0.2-2.2,0.8-3.2c0.5-0.9,1.2-1.7,2.1-2.3
			c0.9-0.6,1.9-1.1,3-1.4C53.4,64.5,54.6,64.4,55.8,64.4z M51.5,87.2c0,0.5,0.1,1,0.3,1.5c0.2,0.5,0.4,0.9,0.8,1.2
			c0.4,0.4,0.8,0.6,1.3,0.8c0.6,0.2,1.2,0.3,1.8,0.3c1.2,0.1,2.4-0.3,3.3-1c0.7-0.7,1.1-1.7,1.1-2.7c0-0.5-0.1-1.1-0.4-1.6
			c-0.3-0.5-0.6-0.9-0.9-1.3c-0.4-0.4-0.8-0.8-1.3-1.1c-0.5-0.3-1-0.7-1.5-1L55.5,82c-0.6,0.3-1.1,0.6-1.7,1
			c-0.5,0.3-0.9,0.7-1.3,1.2c-0.4,0.4-0.6,0.9-0.8,1.4C51.6,86.1,51.5,86.7,51.5,87.2z M55.8,69.1c-0.4,0-0.9,0.1-1.3,0.2
			c-0.4,0.1-0.7,0.3-1,0.6c-0.3,0.3-0.5,0.6-0.7,1c-0.2,0.4-0.3,0.9-0.3,1.3c0,0.5,0.1,1,0.3,1.5c0.2,0.4,0.4,0.8,0.7,1.1
			c0.3,0.3,0.7,0.6,1,0.9c0.4,0.3,0.8,0.5,1.3,0.8c0.4-0.2,0.8-0.5,1.2-0.7c0.4-0.3,0.7-0.6,1-0.9c0.3-0.3,0.5-0.7,0.7-1.2
			c0.2-0.5,0.3-1,0.3-1.5c0-0.5-0.1-0.9-0.3-1.3c-0.2-0.4-0.4-0.7-0.7-1c-0.3-0.3-0.7-0.5-1-0.6C56.6,69.2,56.2,69.1,55.8,69.1z"/>
		<path class="st5" d="M94.2,80.1c0,2.2-0.2,4.4-0.6,6.6c-0.3,1.7-0.9,3.4-1.8,4.9c-0.8,1.3-1.9,2.4-3.3,3.1
			c-1.5,0.7-3.2,1.1-4.8,1.1c-1.6,0-3.2-0.3-4.6-1.1c-1.3-0.7-2.5-1.8-3.3-3.1c-0.9-1.5-1.6-3.2-1.9-4.9c-0.4-2.2-0.7-4.4-0.6-6.6
			c0-2.2,0.2-4.4,0.6-6.6c0.3-1.8,0.9-3.4,1.8-5c0.8-1.3,1.9-2.4,3.2-3.1c1.5-0.8,3.1-1.1,4.8-1.1c1.6,0,3.2,0.3,4.6,1.1
			c1.3,0.7,2.5,1.8,3.3,3.1c0.9,1.5,1.6,3.2,2,5C94,75.6,94.2,77.8,94.2,80.1z M79.6,80.1c-0.1,2.7,0.2,5.3,0.9,7.9
			c0.6,1.8,1.6,2.6,3.1,2.6c1.5,0,2.5-0.9,3.1-2.6c0.7-2.6,1.1-5.2,1-7.9c0.1-2.7-0.2-5.3-1-7.9c-0.6-1.8-1.7-2.6-3.1-2.6
			c-0.7,0-1.4,0.2-1.9,0.7c-0.6,0.5-1,1.2-1.2,2c-0.4,1.1-0.6,2.2-0.7,3.3C79.7,77,79.6,78.5,79.6,80.1z"/>
		<path class="st5" d="M61.1,159.7h-6.5V142c0-0.4,0-0.8,0-1.3s0-1,0-1.6c0-0.6,0-1.1,0.1-1.7c0-0.6,0-1.1,0.1-1.5
			c-0.1,0.1-0.2,0.2-0.4,0.4s-0.4,0.4-0.6,0.6c-0.2,0.2-0.4,0.4-0.6,0.6s-0.4,0.4-0.6,0.6l-3.5,2.8l-3.1-3.9l9.9-7.9h5.3L61.1,159.7
			z"/>
		<path class="st5" d="M94.1,159.7H73.6v-4.5l7.2-7.8c0.9-1,1.7-1.9,2.5-2.7c0.7-0.8,1.3-1.6,1.9-2.4c0.5-0.7,0.9-1.5,1.2-2.4
			c0.3-0.8,0.4-1.7,0.4-2.6c0.1-0.9-0.3-1.8-0.9-2.4c-0.7-0.6-1.6-0.9-2.5-0.9c-1.1,0-2.2,0.3-3.2,0.8c-1.2,0.6-2.2,1.4-3.2,2.3
			l-3.5-4.2c0.6-0.6,1.3-1.1,2-1.6c1.5-1.1,3.2-1.9,5-2.4c1.1-0.3,2.2-0.4,3.3-0.4c1.3,0,2.7,0.2,3.9,0.6c1.1,0.4,2.1,1,3,1.7
			c0.8,0.8,1.5,1.7,1.9,2.7c0.5,1.1,0.7,2.4,0.7,3.6c0,1.2-0.2,2.3-0.6,3.4c-0.4,1.1-1,2.2-1.7,3.2c-0.8,1.1-1.6,2.2-2.5,3.1
			c-1,1-2,2.1-3.1,3.2l-3.7,3.7v0.3h12.5V159.7z"/>
		<path class="st5" d="M120.8,135.9c0,1-0.2,1.9-0.5,2.9c-0.3,0.8-0.8,1.6-1.4,2.2c-0.6,0.6-1.3,1.2-2.1,1.6c-0.8,0.4-1.7,0.8-2.6,1
			v0.1c2.1,0.1,4,0.9,5.6,2.3c1.3,1.3,2,3,1.9,4.8c0,1.3-0.2,2.5-0.7,3.7c-0.5,1.2-1.3,2.2-2.2,3c-1.1,0.9-2.4,1.6-3.8,2
			c-1.7,0.5-3.5,0.7-5.3,0.7c-1.6,0-3.1-0.1-4.6-0.4c-1.4-0.3-2.8-0.7-4.1-1.2V153c0.6,0.3,1.3,0.6,2,0.9c0.7,0.2,1.4,0.5,2.1,0.6
			c0.7,0.2,1.4,0.3,2.1,0.4c0.6,0.1,1.3,0.1,1.9,0.1c1,0,2-0.1,3-0.3c0.7-0.2,1.3-0.5,1.9-0.9c0.5-0.4,0.8-0.9,1-1.5
			c0.2-0.6,0.3-1.2,0.3-1.9c0-0.6-0.1-1.2-0.4-1.7c-0.3-0.5-0.7-1-1.3-1.3c-0.7-0.4-1.5-0.7-2.3-0.8c-1.1-0.2-2.3-0.3-3.5-0.3h-2.2
			v-4.5h2.1c1.1,0,2.2-0.1,3.2-0.3c0.7-0.2,1.4-0.5,2-0.9c0.5-0.4,0.9-0.8,1.1-1.4c0.2-0.5,0.3-1.1,0.3-1.7c0.1-1-0.3-1.9-1-2.6
			c-0.9-0.7-2.1-1-3.2-0.9c-0.6,0-1.3,0.1-1.9,0.2c-1,0.2-2,0.6-3,1.2c-0.4,0.2-0.8,0.5-1.1,0.7l-3.3-4.3c0.6-0.4,1.2-0.8,1.9-1.2
			c0.7-0.4,1.5-0.7,2.3-1c0.9-0.3,1.7-0.5,2.6-0.6c1-0.2,2-0.2,3-0.2c1.4,0,2.8,0.2,4.1,0.5c1.1,0.3,2.2,0.8,3.2,1.4
			c0.9,0.6,1.6,1.4,2,2.3C120.6,133.8,120.9,134.9,120.8,135.9z"/>
		<path class="st5" d="M180.1,31.1h-6.5V17.8h-12.1v13.2H155V0.4h6.5v12h12.1v-12h6.5L180.1,31.1z"/>
		<path class="st5" d="M209.8,31.1h-17.6V0.4h17.6v5.3h-11.1v6.7H209v5.3h-10.4v7.9h11.1V31.1z"/>
		<path class="st5" d="M245.2,31.1h-7.4l-7.1-11.6l-7.1,11.6h-7l10.2-15.8l-9.5-14.8h7.2l6.6,11l6.5-11h7l-9.6,15.2L245.2,31.1z"/>
		<path class="st5" d="M172.5,79.3l-1,4.9h5.1v4.3h-5.9l-1.3,6.9h-4.6l1.3-6.9h-4.1l-1.3,6.9h-4.5l1.2-6.9h-4.7v-4.3h5.5l1-4.9h-5
			v-4.4h5.8l1.3-6.7h4.6l-1.3,6.7h4.1l1.3-6.7h4.5l-1.3,6.7h4.8v4.4H172.5z M162.9,84.2h4.1l1-4.9h-4.1L162.9,84.2z"/>
		<path class="st5" d="M188.3,95.4l10.9-25.1h-14.1v-5.4h21.1v4.1l-11.2,26.5H188.3z"/>
		<path class="st5" d="M222.1,95.4h-6.4V64.8h17.5v5.3h-11.2V78h10.4v5.3h-10.4V95.4z"/>
		<path class="st5" d="M252.3,75.8c1.2,0,2.5,0.2,3.7,0.6c1.1,0.4,2.1,1,3,1.8c0.9,0.8,1.5,1.8,2,2.9c0.5,1.3,0.7,2.6,0.7,4
			c0,1.5-0.2,3-0.8,4.5c-0.5,1.3-1.3,2.4-2.3,3.3c-1.1,1-2.4,1.7-3.7,2.1c-1.7,0.5-3.4,0.8-5.1,0.7c-0.8,0-1.5,0-2.3-0.1
			c-0.8-0.1-1.5-0.2-2.2-0.3c-0.7-0.1-1.3-0.3-2-0.5c-0.6-0.2-1.1-0.4-1.7-0.7v-5.6c0.5,0.3,1.1,0.6,1.7,0.8c0.7,0.2,1.3,0.5,2,0.6
			c0.7,0.2,1.4,0.3,2.1,0.4c0.7,0.1,1.3,0.2,2,0.2c1.5,0.1,3-0.3,4.3-1.2c1-0.9,1.6-2.3,1.5-3.7c0.1-1.3-0.4-2.6-1.4-3.4
			c-1.3-0.9-2.9-1.3-4.4-1.2c-0.4,0-0.8,0-1.2,0.1c-0.4,0-0.8,0.1-1.2,0.2c-0.4,0.1-0.8,0.1-1.1,0.2c-0.4,0.1-0.7,0.2-0.9,0.2
			l-2.6-1.4l1.2-15.6h16.2v5.5h-10.6l-0.5,6c0.4-0.1,1-0.2,1.6-0.3C250.7,75.9,251.5,75.8,252.3,75.8z"/>
		<path class="st5" d="M289.9,80.1c0,2.2-0.2,4.4-0.6,6.6c-0.3,1.7-0.9,3.4-1.8,4.9c-0.8,1.3-1.9,2.4-3.3,3.1
			c-1.5,0.7-3.2,1.1-4.8,1.1c-1.6,0-3.2-0.3-4.6-1.1c-1.3-0.7-2.5-1.8-3.3-3.1c-0.9-1.5-1.6-3.2-1.9-4.9c-0.4-2.2-0.7-4.4-0.6-6.6
			c0-2.2,0.2-4.4,0.6-6.6c0.3-1.8,0.9-3.4,1.8-5c0.8-1.3,1.9-2.4,3.2-3.1c1.5-0.8,3.1-1.1,4.8-1.1c1.6,0,3.2,0.3,4.6,1.1
			c1.3,0.7,2.5,1.8,3.3,3.1c0.9,1.5,1.6,3.2,2,5C289.7,75.6,290,77.8,289.9,80.1z M275.4,80.1c-0.1,2.7,0.2,5.3,0.9,7.9
			c0.6,1.8,1.6,2.6,3.1,2.6c1.5,0,2.5-0.9,3.1-2.6c0.7-2.6,1.1-5.2,1-7.9c0.1-2.7-0.2-5.3-1-7.9c-0.6-1.8-1.7-2.6-3.1-2.6
			c-0.7,0-1.4,0.2-1.9,0.7c-0.6,0.5-1,1.2-1.2,2c-0.4,1.1-0.6,2.2-0.7,3.3C275.5,77,275.4,78.5,275.4,80.1z"/>
		<path class="st5" d="M299.9,95.4l10.9-25.1h-14.1v-5.4h21.1v4.1l-11.2,26.5L299.9,95.4z"/>
		<path class="st5" d="M327.3,64.8h9.5c4.3,0,7.5,0.6,9.5,1.9c2,1.3,3.1,3.5,2.9,5.9c0.1,1.6-0.4,3.2-1.3,4.5
			c-0.8,1.1-2,1.9-3.4,2.1v0.2c1.7,0.3,3.1,1.1,4.2,2.4c0.9,1.4,1.4,3.1,1.3,4.7c0.1,2.5-1,5-3,6.5c-2,1.6-4.8,2.3-8.2,2.3h-11.5
			V64.8z M333.8,76.9h3.8c1.3,0.1,2.7-0.2,3.8-0.8c0.8-0.6,1.3-1.7,1.2-2.7c0.1-1-0.4-2-1.3-2.5c-1.3-0.6-2.7-0.9-4.1-0.8h-3.4V76.9
			z M333.8,82v8h4.2c1.4,0.1,2.8-0.3,4-1c0.9-0.8,1.4-2,1.3-3.1c0-2.5-1.8-3.8-5.4-3.8H333.8z"/>
	</g>
</g>
</svg>
