<svg xmlns="http://www.w3.org/2000/svg" width="980" height="410" viewBox="0 0 980 410"><title>colour3_1</title><g id="Layer_2" data-name="Layer 2"><g id="Layer_1-2" data-name="Layer 1"><rect width="980" height="410" fill="#ededed"/><path d="M195.5428,61.5332a8.2708,8.2708,0,0,1,6.1758-2.48q5.0156,0,7.335,3.3252a7.25,7.25,0,0,1,1.376,3.748h-4.1982a5.72,5.72,0,0,0-1.0283-2.1807,4.5585,4.5585,0,0,0-6.8633.5386,9.0213,9.0213,0,0,0-1.2949,5.2271,7.9153,7.9153,0,0,0,1.3672,5.063,4.2814,4.2814,0,0,0,3.4727,1.6836,3.9347,3.9347,0,0,0,3.293-1.4448,6.3358,6.3358,0,0,0,1.04-2.3306h4.1709a9.056,9.056,0,0,1-2.7578,5.3428,8.024,8.024,0,0,1-5.6826,2.0576,8.5272,8.5272,0,0,1-6.7422-2.78,11.2076,11.2076,0,0,1-2.4541-7.66Q192.7518,64.3816,195.5428,61.5332Z" fill="#1e1e1e"/><path d="M206.951,104.4052h6.04v20.09H209.08V110.9067q0-.5859.0137-1.6426t.0137-1.6289l-3.8076,16.86h-4.0791l-3.78-16.86q0,.5728.0137,1.6289t.0137,1.6426v13.5884h-3.9121v-20.09h6.1094l3.6563,15.7964Z" fill="#1e1e1e"/><path d="M205.0868,149.3764h4.7568l-6.72,12.5571v7.5327h-4.1982v-7.5327l-6.9512-12.5571h4.9482l4.17,8.75Z" fill="#1e1e1e"/><path d="M193.6922,194.3476h4.13v8.2773l7.7617-8.2773h5.4248l-8.2441,8.2627,8.666,11.8271H206.033l-6.1895-8.77-2.0215,2.05v6.7192h-4.13Z" fill="#1e1e1e"/><path d="M256.0125,64.7358a1.9819,1.9819,0,0,0-.3672-1.0493,2.1348,2.1348,0,0,0-1.8945-.9268,2.8009,2.8009,0,0,0-2.6992,2.126,13.2021,13.2021,0,0,0-.6,3.4619,4.3581,4.3581,0,0,1,1.6768-1.2539,6.1382,6.1382,0,0,1,6.4941,1.39,6.39,6.39,0,0,1,1.6836,4.5659,7.7056,7.7056,0,0,1-1.6494,4.8794,6.097,6.097,0,0,1-5.125,2.1128,5.8975,5.8975,0,0,1-5.5059-3.1211,12.7245,12.7245,0,0,1-1.377-6.2969,28.4948,28.4948,0,0,1,.1914-3.68,11.2427,11.2427,0,0,1,1.3213-4.1978,6.7658,6.7658,0,0,1,2.2148-2.3032,5.9741,5.9741,0,0,1,3.2783-.8726,6.49,6.49,0,0,1,4.3887,1.4106,5.3682,5.3682,0,0,1,1.84,3.7549Zm-4.6064,11.1353a2.7384,2.7384,0,0,0,2.1807,1.0088,2.4234,2.4234,0,0,0,2.0381-.9746,4.0563,4.0563,0,0,0,.7422-2.5283,3.7828,3.7828,0,0,0-.8447-2.6509,2.7047,2.7047,0,0,0-2.0713-.92,2.7655,2.7655,0,0,0-1.7588.6,3.3962,3.3962,0,0,0-1.1445,2.8623A3.8763,3.8763,0,0,0,251.4061,75.8711Z" fill="#1e1e1e"/><path d="M270.6864,68.5112a5.0736,5.0736,0,1,1,1.4795-3.5845A4.8754,4.8754,0,0,1,270.6864,68.5112ZM268.6287,66.46a2.1714,2.1714,0,1,0-1.5332.6338A2.087,2.087,0,0,0,268.6287,66.46Zm9.5469-6.6987h2.0635L269.2323,80.042h-2.1094Zm5.752,18.6724a5.0677,5.0677,0,1,1,1.4854-3.5845A4.885,4.885,0,0,1,283.9276,78.4336Zm-2.0508-5.1177a2.1714,2.1714,0,1,0,.6338,1.5332A2.0878,2.0878,0,0,0,281.8768,73.3159Z" fill="#1e1e1e"/><path d="M260.3739,120.2426h-2.2344v4.2524h-3.8027v-4.2524h-7.8232v-3.3936l7.2637-11.9941h4.3623v12.3481h2.2344Zm-6.0371-3.04v-8.5122l-4.9326,8.5122Z" fill="#1e1e1e"/><path d="M270.6864,113.4824a5.0736,5.0736,0,1,1,1.4795-3.5845A4.8754,4.8754,0,0,1,270.6864,113.4824Zm-2.0576-2.0513a2.1714,2.1714,0,1,0-1.5332.6338A2.087,2.087,0,0,0,268.6287,111.4311Zm9.5469-6.6987h2.0635l-11.0068,20.2808h-2.1094Zm5.752,18.6724a5.0677,5.0677,0,1,1,1.4854-3.5845A4.885,4.885,0,0,1,283.9276,123.4048Zm-2.0508-5.1177a2.1714,2.1714,0,1,0,.6338,1.5332A2.0878,2.0878,0,0,0,281.8768,118.2871Z" fill="#1e1e1e"/><path d="M260.3739,165.2138h-2.2344v4.2524h-3.8027v-4.2524h-7.8232V161.82l7.2637-11.9941h4.3623v12.3481h2.2344Zm-6.0371-3.04v-8.5122l-4.9326,8.5122Z" fill="#1e1e1e"/><path d="M270.6864,158.4536a5.0736,5.0736,0,1,1,1.4795-3.5845A4.8754,4.8754,0,0,1,270.6864,158.4536Zm-2.0576-2.0513a2.1714,2.1714,0,1,0-1.5332.6338A2.087,2.087,0,0,0,268.6287,156.4023Zm9.5469-6.6987h2.0635l-11.0068,20.2808h-2.1094Zm5.752,18.6724a5.0677,5.0677,0,1,1,1.4854-3.5845A4.885,4.885,0,0,1,283.9276,168.3759Zm-2.0508-5.1177a2.1714,2.1714,0,1,0,.6338,1.5332A2.0878,2.0878,0,0,0,281.8768,163.2583Z" fill="#1e1e1e"/><path d="M258.76,197.1963a19.4863,19.4863,0,0,1,0,15.0879q-1.5205,2.644-5.2959,2.644t-5.2949-2.644a19.4863,19.4863,0,0,1,0-15.0879q1.5205-2.658,5.2949-2.6577Q257.24,194.5385,258.76,197.1963Zm-7.585,12.7642a2.2492,2.2492,0,0,0,2.2891,1.8057,2.2185,2.2185,0,0,0,2.27-1.8057,19.2669,19.2669,0,0,0,.5391-5.2134,19.0547,19.0547,0,0,0-.5391-5.2886,2.1992,2.1992,0,0,0-2.27-1.7173,2.2309,2.2309,0,0,0-2.2891,1.7173,18.3957,18.3957,0,0,0-.5586,5.2886A18.6,18.6,0,0,0,251.1746,209.96Z" fill="#1e1e1e"/><path d="M270.6864,203.4248a5.0736,5.0736,0,1,1,1.4795-3.5845A4.8754,4.8754,0,0,1,270.6864,203.4248Zm-2.0576-2.0513a2.1714,2.1714,0,1,0-1.5332.6338A2.087,2.087,0,0,0,268.6287,201.3735Zm9.5469-6.6987h2.0635l-11.0068,20.2808h-2.1094Zm5.752,18.6724a5.0677,5.0677,0,1,1,1.4854-3.5845A4.885,4.885,0,0,1,283.9276,213.3471Zm-2.0508-5.1177a2.1714,2.1714,0,1,0,.6338,1.5332A2.0878,2.0878,0,0,0,281.8768,208.2295Z" fill="#1e1e1e"/><path d="M462.3836,59.9521a4.9566,4.9566,0,0,1,1.8809,1.4038,6.24,6.24,0,0,1,1.0107,1.69,5.6359,5.6359,0,0,1,.3721,2.1128,6.0209,6.0209,0,0,1-.7227,2.8145,4.0346,4.0346,0,0,1-2.3848,1.9556,3.7479,3.7479,0,0,1,1.9688,1.5879,6.6023,6.6023,0,0,1,.58,3.1416v1.3491a10.1437,10.1437,0,0,0,.11,1.8677,1.6746,1.6746,0,0,0,.7754,1.1445v.5044h-4.6338q-.1919-.668-.2734-1.0767a9.9246,9.9246,0,0,1-.1768-1.731l-.0273-1.8672a3.7956,3.7956,0,0,0-.6641-2.5625,3.3868,3.3868,0,0,0-2.3916-.6406h-4.1v7.8779h-4.1025v-20.09h9.6094A8.75,8.75,0,0,1,462.3836,59.9521Zm-8.6758,2.9712V68.32h4.5176a4.8159,4.8159,0,0,0,2.02-.3267,2.26,2.26,0,0,0,1.19-2.2627,2.5347,2.5347,0,0,0-1.1523-2.4531,4.1572,4.1572,0,0,0-1.9414-.3545Z" fill="#1e1e1e"/><path d="M463.0164,110.6748a3.9348,3.9348,0,0,0-2.33-2.876,5.73,5.73,0,0,0-2.3037-.45,5.0046,5.0046,0,0,0-3.9863,1.83,8.3,8.3,0,0,0-1.5605,5.502q0,3.7009,1.6895,5.2373a5.5561,5.5561,0,0,0,3.8438,1.5371,4.9838,4.9838,0,0,0,3.4619-1.2119,5.2366,5.2366,0,0,0,1.6631-3.1768h-4.6484v-3.3525h8.3691v10.7808h-2.78l-.4229-2.5078a9.6291,9.6291,0,0,1-2.1807,2.0083,7.6987,7.6987,0,0,1-4.0889,1.0176,8.4986,8.4986,0,0,1-6.542-2.7651,10.5385,10.5385,0,0,1-2.6582-7.6006,11.1484,11.1484,0,0,1,2.6855-7.8179,9.1519,9.1519,0,0,1,7.1006-2.9424,9.279,9.279,0,0,1,6.1533,1.9424,7.221,7.221,0,0,1,2.665,4.8452Z" fill="#1e1e1e"/><path d="M464.493,151.5161a5.1078,5.1078,0,0,1,.9229,3.0669,4.4737,4.4737,0,0,1-.9307,2.9575,4.8015,4.8015,0,0,1-1.5322,1.145,4.4717,4.4717,0,0,1,2.32,1.7715,5.32,5.32,0,0,1,.7822,2.9443,5.8782,5.8782,0,0,1-.8936,3.2026,5.5324,5.5324,0,0,1-3.6934,2.59,13.9173,13.9173,0,0,1-2.8389.2725H449.578v-20.09h9.709Q462.9608,149.4314,464.493,151.5161Zm-10.9082,1.35v4.43h4.8828a4.043,4.043,0,0,0,2.125-.4976,1.897,1.897,0,0,0,.8154-1.7651,1.799,1.799,0,0,0-1.0791-1.8535,7.5588,7.5588,0,0,0-2.374-.3135Zm0,7.7549v5.3564h4.8779a4.7388,4.7388,0,0,0,2.0342-.354,2.5309,2.5309,0,0,0,1.32-2.5083,2.1576,2.1576,0,0,0-1.28-2.1533,5.0789,5.0789,0,0,0-2.0068-.3408Z" fill="#1e1e1e"/><path d="M503.4481,75.64a10.9908,10.9908,0,0,1,3.9258-4.1846,28.7843,28.7843,0,0,0,3.4756-2.7529,4.0691,4.0691,0,0,0,1.2129-2.835,3.1394,3.1394,0,0,0-.6953-2.0854,2.8345,2.8345,0,0,0-4.4023.4907,6.5736,6.5736,0,0,0-.4365,2.4263h-3.7744a9.5482,9.5482,0,0,1,.9131-4.0752q1.5557-2.9575,5.5264-2.9575a7.01,7.01,0,0,1,4.9932,1.7378,6.0032,6.0032,0,0,1,1.8555,4.6,6.2186,6.2186,0,0,1-1.3105,3.8979,13.051,13.051,0,0,1-2.8271,2.5215l-1.5566,1.104q-1.46,1.0364-1.999,1.5a4.3753,4.3753,0,0,0-.9062,1.0767h8.627v3.4209H502.535A9.2842,9.2842,0,0,1,503.4481,75.64Z" fill="#1e1e1e"/><path d="M521.8221,73.459a4.45,4.45,0,0,0,.3809,1.9624,2.6083,2.6083,0,0,0,2.57,1.4312,2.8438,2.8438,0,0,0,1.9922-.7837,2.9164,2.9164,0,0,0,.85-2.2559,2.5418,2.5418,0,0,0-1.5762-2.603,7.982,7.982,0,0,0-2.8262-.3682v-2.78a7.2927,7.2927,0,0,0,2.6348-.3682,2.2742,2.2742,0,0,0,1.291-2.3169,2.5948,2.5948,0,0,0-.66-1.84,2.41,2.41,0,0,0-1.8555-.709,2.346,2.346,0,0,0-2.0186.8726,3.704,3.704,0,0,0-.6182,2.3306h-3.625a9.7735,9.7735,0,0,1,.5029-2.7939,6.3017,6.3017,0,0,1,1.498-2.14,5.2123,5.2123,0,0,1,1.8105-1.063,7.8363,7.8363,0,0,1,2.5732-.3677,6.8462,6.8462,0,0,1,4.5684,1.4648A4.8825,4.8825,0,0,1,531.05,65.063a4.347,4.347,0,0,1-1.0361,2.9438,3.5345,3.5345,0,0,1-1.3623,1.0225,2.8043,2.8043,0,0,1,1.5264.9131,4.8779,4.8779,0,0,1,1.4854,3.7617,6.34,6.34,0,0,1-1.7363,4.4092,6.6126,6.6126,0,0,1-5.14,1.9014q-4.1938,0-5.8271-2.74a8.1306,8.1306,0,0,1-.9531-3.8159Z" fill="#1e1e1e"/><path d="M547.5975,63.06a24.53,24.53,0,0,0-2.4307,3.06,25.162,25.162,0,0,0-4.11,9.0435,18.6307,18.6307,0,0,0-.6689,4.3613h-4.0342A23.7379,23.7379,0,0,1,539.8455,68.47a26.1318,26.1318,0,0,1,3.5869-4.9609h-9.8457l.0547-3.4893h13.9561Z" fill="#1e1e1e"/><path d="M503.4481,120.6108a10.9908,10.9908,0,0,1,3.9258-4.1846,28.7843,28.7843,0,0,0,3.4756-2.7529,4.0691,4.0691,0,0,0,1.2129-2.835,3.1394,3.1394,0,0,0-.6953-2.0854,2.8345,2.8345,0,0,0-4.4023.4907,6.5736,6.5736,0,0,0-.4365,2.4263h-3.7744a9.5482,9.5482,0,0,1,.9131-4.0752q1.5557-2.9575,5.5264-2.9575a7.01,7.01,0,0,1,4.9932,1.7378,6.0032,6.0032,0,0,1,1.8555,4.6,6.2186,6.2186,0,0,1-1.3105,3.8979,13.051,13.051,0,0,1-2.8271,2.5215l-1.5566,1.104q-1.46,1.0364-1.999,1.5a4.3753,4.3753,0,0,0-.9062,1.0767h8.627v3.4209H502.535A9.2842,9.2842,0,0,1,503.4481,120.6108Z" fill="#1e1e1e"/><path d="M521.8221,118.43a4.45,4.45,0,0,0,.3809,1.9624,2.6083,2.6083,0,0,0,2.57,1.4312,2.8438,2.8438,0,0,0,1.9922-.7837,2.9164,2.9164,0,0,0,.85-2.2559,2.5418,2.5418,0,0,0-1.5762-2.603,7.982,7.982,0,0,0-2.8262-.3682v-2.78a7.2927,7.2927,0,0,0,2.6348-.3682,2.2742,2.2742,0,0,0,1.291-2.3169,2.5948,2.5948,0,0,0-.66-1.84,2.41,2.41,0,0,0-1.8555-.709,2.346,2.346,0,0,0-2.0186.8726,3.704,3.704,0,0,0-.6182,2.3306h-3.625a9.7735,9.7735,0,0,1,.5029-2.7939,6.3017,6.3017,0,0,1,1.498-2.14,5.2123,5.2123,0,0,1,1.8105-1.063,7.8363,7.8363,0,0,1,2.5732-.3677,6.8462,6.8462,0,0,1,4.5684,1.4648,4.8825,4.8825,0,0,1,1.7354,3.9321,4.347,4.347,0,0,1-1.0361,2.9438A3.5345,3.5345,0,0,1,528.6512,114a2.8043,2.8043,0,0,1,1.5264.9131,4.8779,4.8779,0,0,1,1.4854,3.7617,6.34,6.34,0,0,1-1.7363,4.4092,6.6126,6.6126,0,0,1-5.14,1.9014q-4.1938,0-5.8271-2.74a8.1306,8.1306,0,0,1-.9531-3.8159Z" fill="#1e1e1e"/><path d="M547.5975,108.0307a24.53,24.53,0,0,0-2.4307,3.06,25.162,25.162,0,0,0-4.11,9.0435,18.6307,18.6307,0,0,0-.6689,4.3613h-4.0342a23.7379,23.7379,0,0,1,3.4922-11.0537,26.1318,26.1318,0,0,1,3.5869-4.9609h-9.8457l.0547-3.4893h13.9561Z" fill="#1e1e1e"/><path d="M503.4481,165.582a10.9908,10.9908,0,0,1,3.9258-4.1846,28.7843,28.7843,0,0,0,3.4756-2.7529,4.0691,4.0691,0,0,0,1.2129-2.835,3.1394,3.1394,0,0,0-.6953-2.0854,2.8345,2.8345,0,0,0-4.4023.4907,6.5736,6.5736,0,0,0-.4365,2.4263h-3.7744a9.5482,9.5482,0,0,1,.9131-4.0752q1.5557-2.9575,5.5264-2.9575a7.01,7.01,0,0,1,4.9932,1.7378,6.0032,6.0032,0,0,1,1.8555,4.6,6.2186,6.2186,0,0,1-1.3105,3.8979,13.051,13.051,0,0,1-2.8271,2.5215l-1.5566,1.104q-1.46,1.0364-1.999,1.5a4.3753,4.3753,0,0,0-.9062,1.0767h8.627v3.4209H502.535A9.2842,9.2842,0,0,1,503.4481,165.582Z" fill="#1e1e1e"/><path d="M521.8221,163.4013a4.45,4.45,0,0,0,.3809,1.9624,2.6083,2.6083,0,0,0,2.57,1.4312,2.8438,2.8438,0,0,0,1.9922-.7837,2.9164,2.9164,0,0,0,.85-2.2559,2.5418,2.5418,0,0,0-1.5762-2.603,7.982,7.982,0,0,0-2.8262-.3682v-2.78a7.2927,7.2927,0,0,0,2.6348-.3682,2.2742,2.2742,0,0,0,1.291-2.3169,2.5948,2.5948,0,0,0-.66-1.84,2.41,2.41,0,0,0-1.8555-.709,2.346,2.346,0,0,0-2.0186.8726,3.704,3.704,0,0,0-.6182,2.3306h-3.625a9.7735,9.7735,0,0,1,.5029-2.7939,6.3017,6.3017,0,0,1,1.498-2.14,5.2123,5.2123,0,0,1,1.8105-1.063,7.8363,7.8363,0,0,1,2.5732-.3677,6.8462,6.8462,0,0,1,4.5684,1.4648,4.8825,4.8825,0,0,1,1.7354,3.9321,4.347,4.347,0,0,1-1.0361,2.9438,3.5345,3.5345,0,0,1-1.3623,1.0225,2.8043,2.8043,0,0,1,1.5264.9131,4.8779,4.8779,0,0,1,1.4854,3.7617,6.34,6.34,0,0,1-1.7363,4.4092,6.6126,6.6126,0,0,1-5.14,1.9014q-4.1938,0-5.8271-2.74a8.1306,8.1306,0,0,1-.9531-3.8159Z" fill="#1e1e1e"/><path d="M547.5975,153.0019a24.53,24.53,0,0,0-2.4307,3.06,25.162,25.162,0,0,0-4.11,9.0435,18.6307,18.6307,0,0,0-.6689,4.3613h-4.0342a23.7379,23.7379,0,0,1,3.4922-11.0537,26.1318,26.1318,0,0,1,3.5869-4.9609h-9.8457l.0547-3.4893h13.9561Z" fill="#1e1e1e"/><path d="M661.16,79.5239v-20.09h4.1709v7.66h7.81v-7.66h4.1709v20.09H673.14V70.5556h-7.81v8.9683Z" fill="#1e1e1e"/><path d="M704.1248,62.9912H693.494v4.2661h9.7588v3.4893H693.494v5.1655h11.1211v3.6118H689.3914v-20.09h14.7334Z" fill="#1e1e1e"/><path d="M719.0184,79.5239h-4.8789l6.46-10.2358-6.1465-9.854h5.0156l3.583,6.5425,3.6807-6.5425h4.8525l-6.1465,9.69,6.5283,10.3994H726.869l-3.8174-6.85Z" fill="#1e1e1e"/><path d="M659.6707,116.7671H662.43l1.0791-3.9932H660.74l.6094-2.2764h2.7744l1.4873-5.5063h2.7109l-1.4883,5.5063h2.23l1.4766-5.5063h2.709l-1.4756,5.5063h2.7705l-.61,2.2764h-2.7705l-1.0713,3.9932h2.7734l-.6094,2.2764h-2.7744l-1.4619,5.4517h-2.709l1.4619-5.4517h-2.248l-1.4736,5.4517h-2.71l1.4727-5.4517h-2.7529Zm7.7129,0,1.07-3.9932h-2.2354l-1.0791,3.9932Z" fill="#1e1e1e"/><path d="M691.6512,107.9624H681.02v4.2661h9.7588v3.4893H681.02v5.1655h11.1211v3.6118H676.9178v-20.09h14.7334Z" fill="#1e1e1e"/><path d="M707.2684,104.8413a6.637,6.637,0,0,1,3.4238,2.5488,8.9448,8.9448,0,0,1,1.4326,3.2437,15.55,15.55,0,0,1,.3818,3.3257,13.3525,13.3525,0,0,1-1.6094,6.7876,7.2633,7.2633,0,0,1-6.7383,3.748h-8.6621v-20.09h8.6621A10.5849,10.5849,0,0,1,707.2684,104.8413Zm-7.6963,3.0532v13.1113h3.877a4.187,4.187,0,0,0,4.15-2.93,10.3407,10.3407,0,0,0,.6416-3.83,9.4164,9.4164,0,0,0-.9629-4.709q-.9624-1.6421-3.8291-1.6421Z" fill="#1e1e1e"/><path d="M730.5946,107.9624H719.9637v4.2661h9.7588v3.4893h-9.7588v5.1655h11.1211v3.6118H715.8612v-20.09h14.7334Z" fill="#1e1e1e"/><path d="M746.2118,104.8413a6.637,6.637,0,0,1,3.4238,2.5488,8.9448,8.9448,0,0,1,1.4326,3.2437,15.55,15.55,0,0,1,.3818,3.3257,13.3525,13.3525,0,0,1-1.6094,6.7876,7.2633,7.2633,0,0,1-6.7383,3.748H734.44v-20.09h8.6621A10.5849,10.5849,0,0,1,746.2118,104.8413Zm-7.6963,3.0532v13.1113h3.877a4.187,4.187,0,0,0,4.15-2.93,10.3407,10.3407,0,0,0,.6416-3.83,9.4164,9.4164,0,0,0-.9629-4.709q-.9624-1.6421-3.8291-1.6421Z" fill="#1e1e1e"/><path d="M769.5379,107.9624H758.9071v4.2661h9.7588v3.4893h-9.7588v5.1655h11.1211v3.6118H754.8045v-20.09h14.7334Z" fill="#1e1e1e"/><path d="M785.1541,104.8413a6.637,6.637,0,0,1,3.4238,2.5488,8.9448,8.9448,0,0,1,1.4326,3.2437,15.55,15.55,0,0,1,.3818,3.3257,13.3525,13.3525,0,0,1-1.6094,6.7876,7.2633,7.2633,0,0,1-6.7383,3.748h-8.6621v-20.09h8.6621A10.5849,10.5849,0,0,1,785.1541,104.8413Zm-7.6963,3.0532v13.1113h3.877a4.187,4.187,0,0,0,4.15-2.93,10.3407,10.3407,0,0,0,.6416-3.83,9.4164,9.4164,0,0,0-.9629-4.709q-.9624-1.6421-3.8291-1.6421Z" fill="#1e1e1e"/><rect y="358.5718" width="196" height="51.4282" fill="#fff" opacity="0.2"/><rect x="196" y="358.5718" width="196" height="51.4282" fill="#fff" opacity="0.4"/><rect x="392" y="358.5718" width="196" height="51.4282" fill="#fff" opacity="0.6"/><rect x="588" y="358.5718" width="196" height="51.4282" fill="#fff" opacity="0.8"/><rect x="784" y="358.5718" width="196" height="51.4282" fill="#fff"/></g></g></svg>