<?xml version="1.0" encoding="utf-8"?>
<!-- Generator: Adobe Illustrator 21.0.2, SVG Export Plug-In . SVG Version: 6.00 Build 0)  -->
<svg version="1.1" id="Layer_1" xmlns="http://www.w3.org/2000/svg" xmlns:xlink="http://www.w3.org/1999/xlink" x="0px" y="0px"
	 viewBox="0 0 402 401" style="enable-background:new 0 0 402 401;" xml:space="preserve">
<style type="text/css">
	.st0{fill:#1E1E1E;}
	.st1{opacity:0.2;fill:#FFFFFF;enable-background:new    ;}
	.st2{opacity:0.4;fill:#FFFFFF;enable-background:new    ;}
	.st3{opacity:0.6;fill:#FFFFFF;enable-background:new    ;}
	.st4{opacity:0.8;fill:#FFFFFF;enable-background:new    ;}
	.st5{fill:#FFFFFF;}
</style>
<title>colour3_2</title>
<g id="Layer_2">
	<g id="Layer_1-2">
		<rect x="2" y="1" class="st0" width="400" height="400"/>
		<rect x="2" y="350.8" class="st1" width="80" height="50.2"/>
		<rect x="82" y="350.8" class="st2" width="80" height="50.2"/>
		<rect x="162" y="350.8" class="st3" width="80" height="50.2"/>
		<rect x="242" y="350.8" class="st4" width="80" height="50.2"/>
		<rect x="322" y="350.8" class="st5" width="80.5" height="50.2"/>
		<path class="st5" d="M7.4,18.2v11.1H1.3V0.4h8.4c3.9,0,6.8,0.7,8.7,2.1s2.8,3.6,2.8,6.5c0,1.6-0.5,3.2-1.4,4.5
			c-1,1.4-2.4,2.5-4,3.1l8.5,12.6h-6.8l-6.9-11.1H7.4z M7.4,13.3h2c1.5,0.1,3-0.2,4.3-1c1-0.7,1.5-1.9,1.4-3
			c0.1-1.2-0.4-2.3-1.4-2.9c-1.4-0.7-2.9-1-4.4-0.9H7.4V13.3z"/>
		<path class="st5" d="M12.3,73.9h11.5v15c-1.7,0.6-3.5,1-5.3,1.3c-1.7,0.2-3.4,0.4-5,0.4c-4.4,0-7.7-1.3-10-3.8S0,80.5,0,75.7
			c0-4.7,1.3-8.3,4-10.9c2.7-2.6,6.4-3.9,11.1-3.9c3,0,5.9,0.6,8.6,1.8l-2,4.9c-2-1-4.3-1.6-6.6-1.6c-2.4-0.1-4.8,0.9-6.4,2.7
			c-1.7,2-2.5,4.6-2.4,7.2c0,3.1,0.6,5.5,1.9,7.2c1.4,1.7,3.4,2.6,5.6,2.5c1.3,0,2.6-0.1,3.9-0.4v-6h-5.5L12.3,73.9z"/>
		<path class="st5" d="M1.3,122h9c4.1,0,7.1,0.6,8.9,1.8c1.9,1.2,2.9,3.3,2.8,5.6c0.1,1.5-0.4,3-1.2,4.3c-0.8,1.1-1.9,1.8-3.2,2v0.2
			c1.6,0.2,3,1.1,4,2.3c0.9,1.3,1.3,2.9,1.2,4.5c0.1,2.4-1,4.7-2.9,6.2c-2.3,1.6-5,2.4-7.8,2.2H1.3V122z M7.4,133.5H11
			c1.3,0.1,2.5-0.2,3.6-0.8c0.8-0.6,1.2-1.6,1.1-2.6c0.1-1-0.4-1.9-1.2-2.4c-1.2-0.6-2.5-0.8-3.9-0.7H7.4L7.4,133.5z M7.4,138.4v7.5
			h4c1.3,0.1,2.6-0.2,3.7-1c0.8-0.7,1.3-1.8,1.2-3c0-2.4-1.7-3.6-5.1-3.6L7.4,138.4z"/>
		<path class="st5" d="M62.6,29.4H43.2v-4.3l6.8-7.3c0.9-0.9,1.6-1.8,2.3-2.6c0.7-0.7,1.3-1.5,1.8-2.3c0.5-0.7,0.9-1.5,1.2-2.3
			c0.3-0.8,0.4-1.6,0.4-2.5c0.1-0.9-0.3-1.7-0.9-2.3c-0.7-0.6-1.5-0.9-2.4-0.8c-1.1,0-2.1,0.3-3,0.8c-1.1,0.6-2.1,1.3-3,2.2
			l-3.3-3.9c0.6-0.5,1.2-1.1,1.9-1.6c1.4-1.1,3-1.8,4.7-2.2c1-0.2,2.1-0.4,3.1-0.3c1.3,0,2.5,0.2,3.7,0.6c1,0.3,2,0.9,2.8,1.6
			c0.8,0.7,1.4,1.6,1.8,2.6c0.4,1.1,0.6,2.2,0.6,3.4c0,1.1-0.2,2.2-0.6,3.3c-0.4,1.1-1,2.1-1.6,3c-0.7,1-1.5,2-2.4,3
			c-0.9,1-1.9,2-2.9,3l-3.5,3.5v0.3h11.8V29.4z"/>
		<path class="st5" d="M87.9,6.9c0,0.9-0.2,1.8-0.5,2.7c-0.3,0.8-0.8,1.5-1.3,2.1c-0.6,0.6-1.2,1.1-2,1.5c-0.8,0.4-1.6,0.7-2.5,0.9
			v0.1c1.9,0.1,3.8,0.9,5.3,2.1c1.2,1.2,1.9,2.9,1.8,4.6c0,1.2-0.2,2.4-0.7,3.5c-0.5,1.1-1.2,2-2.1,2.8c-1.1,0.8-2.3,1.5-3.6,1.9
			c-1.6,0.5-3.3,0.7-5.1,0.7c-1.5,0-2.9-0.1-4.4-0.4c-1.3-0.2-2.6-0.6-3.8-1.2V23c0.6,0.3,1.2,0.6,1.9,0.8c0.6,0.2,1.3,0.4,2,0.6
			c0.6,0.2,1.3,0.3,1.9,0.4c0.6,0.1,1.2,0.1,1.8,0.1c1,0,1.9-0.1,2.8-0.3c0.7-0.2,1.3-0.5,1.8-0.9c0.4-0.4,0.8-0.8,1-1.4
			c0.2-0.6,0.3-1.2,0.3-1.8c0-0.6-0.1-1.1-0.4-1.6c-0.3-0.5-0.7-0.9-1.2-1.2c-0.7-0.4-1.4-0.6-2.1-0.8c-1.1-0.2-2.2-0.3-3.3-0.3
			h-2.1v-4.3h2c1,0,2-0.1,3-0.3c0.7-0.2,1.4-0.5,1.9-0.9c0.5-0.3,0.8-0.8,1-1.3c0.2-0.5,0.3-1.1,0.3-1.6c0-0.9-0.3-1.8-1-2.4
			c-0.9-0.7-2-1-3-0.9c-0.6,0-1.2,0.1-1.8,0.2c-1,0.2-1.9,0.6-2.8,1.1c-0.4,0.2-0.7,0.5-1.1,0.7l-3.1-4.1c0.6-0.4,1.2-0.8,1.8-1.1
			c0.7-0.4,1.4-0.7,2.1-0.9c0.8-0.3,1.6-0.5,2.5-0.6C76.5,0.1,77.4,0,78.4,0c1.3,0,2.6,0.1,3.9,0.5c1.1,0.3,2.1,0.7,3,1.3
			c0.8,0.6,1.5,1.3,1.9,2.2C87.6,4.9,87.9,5.9,87.9,6.9z"/>
		<path class="st5" d="M98.4,29.4l10.3-23.8H95.4V0.5h20v3.8l-10.6,25.1L98.4,29.4z"/>
		<path class="st5" d="M62.6,90.2H43.2v-4.3l6.8-7.3c0.9-0.9,1.6-1.8,2.3-2.6c0.7-0.7,1.3-1.5,1.8-2.3c0.5-0.7,0.9-1.5,1.2-2.3
			c0.3-0.8,0.4-1.6,0.4-2.5c0.1-0.9-0.3-1.7-0.9-2.3c-0.7-0.6-1.5-0.9-2.4-0.8c-1.1,0-2.1,0.3-3,0.8c-1.1,0.6-2.1,1.3-3,2.2
			l-3.3-3.9c0.6-0.5,1.2-1.1,1.9-1.6c1.4-1.1,3-1.8,4.7-2.2c1-0.2,2.1-0.4,3.1-0.3c1.3,0,2.5,0.2,3.7,0.6c1,0.3,2,0.9,2.8,1.6
			c0.8,0.7,1.4,1.6,1.8,2.6c0.4,1.1,0.6,2.2,0.6,3.4c0,1.1-0.2,2.2-0.6,3.3c-0.4,1.1-1,2.1-1.6,3c-0.7,1-1.5,2-2.4,3
			c-0.9,1-1.9,2-2.9,3l-3.5,3.5V85h11.8V90.2z"/>
		<path class="st5" d="M87.9,67.7c0,0.9-0.2,1.8-0.5,2.7c-0.3,0.8-0.8,1.5-1.3,2.1c-0.6,0.6-1.2,1.1-2,1.5c-0.8,0.4-1.6,0.7-2.5,0.9
			V75c1.9,0.1,3.8,0.9,5.3,2.1c1.2,1.2,1.9,2.9,1.8,4.6c0,1.2-0.2,2.4-0.7,3.5c-0.5,1.1-1.2,2-2.1,2.8c-1.1,0.8-2.3,1.5-3.6,1.9
			c-1.6,0.5-3.3,0.7-5.1,0.7c-1.5,0-2.9-0.1-4.4-0.4c-1.3-0.2-2.6-0.6-3.8-1.2v-5.2c0.6,0.3,1.2,0.6,1.9,0.8c0.6,0.2,1.3,0.4,2,0.6
			c0.6,0.2,1.3,0.3,1.9,0.4c0.6,0.1,1.2,0.1,1.8,0.1c1,0,1.9-0.1,2.8-0.3c0.7-0.2,1.3-0.5,1.8-0.9c0.4-0.4,0.8-0.8,1-1.4
			c0.2-0.6,0.3-1.2,0.3-1.8c0-0.6-0.1-1.1-0.4-1.6c-0.3-0.5-0.7-0.9-1.2-1.2c-0.7-0.4-1.4-0.6-2.1-0.8c-1.1-0.2-2.2-0.3-3.3-0.3
			h-2.1v-4.3h2c1,0,2-0.1,3-0.3c0.7-0.2,1.4-0.5,1.9-0.9c0.5-0.3,0.8-0.8,1-1.3c0.2-0.5,0.3-1.1,0.3-1.6c0-0.9-0.3-1.8-1-2.4
			c-0.9-0.7-2-1-3-0.9c-0.6,0-1.2,0.1-1.8,0.2c-1,0.2-1.9,0.6-2.8,1.1c-0.4,0.2-0.7,0.5-1.1,0.7l-3.1-4.1c0.6-0.4,1.2-0.8,1.8-1.1
			c0.7-0.4,1.4-0.7,2.1-0.9c0.8-0.3,1.6-0.5,2.5-0.6c0.9-0.1,1.9-0.2,2.8-0.2c1.3,0,2.6,0.1,3.9,0.5c1.1,0.3,2.1,0.7,3,1.3
			c0.8,0.6,1.5,1.3,1.9,2.2C87.6,65.7,87.9,66.7,87.9,67.7z"/>
		<path class="st5" d="M98.4,90.2l10.3-23.8H95.4v-5.1h20v3.8l-10.6,25.1L98.4,90.2z"/>
		<path class="st5" d="M62.6,151H43.2v-4.3l6.8-7.3c0.9-0.9,1.6-1.8,2.3-2.6c0.7-0.7,1.3-1.5,1.8-2.3c0.5-0.7,0.9-1.5,1.2-2.3
			c0.3-0.8,0.4-1.6,0.4-2.5c0.1-0.9-0.3-1.7-0.9-2.3c-0.7-0.6-1.5-0.9-2.4-0.8c-1.1,0-2.1,0.3-3,0.8c-1.1,0.6-2.1,1.3-3,2.2
			l-3.3-3.9c0.6-0.5,1.2-1.1,1.9-1.6c1.4-1.1,3-1.8,4.7-2.2c1-0.2,2.1-0.4,3.1-0.3c1.3,0,2.5,0.2,3.7,0.6c1,0.3,2,0.9,2.8,1.6
			c0.8,0.7,1.4,1.6,1.8,2.6c0.4,1.1,0.6,2.2,0.6,3.4c0,1.1-0.2,2.2-0.6,3.3c-0.4,1.1-1,2.1-1.6,3c-0.7,1-1.5,2-2.4,3
			c-0.9,1-1.9,2-2.9,3l-3.5,3.5v0.3h11.8V151z"/>
		<path class="st5" d="M87.9,128.5c0,0.9-0.2,1.8-0.5,2.7c-0.3,0.8-0.8,1.5-1.3,2.1c-0.6,0.6-1.2,1.1-2,1.5
			c-0.8,0.4-1.6,0.7-2.5,0.9v0.1c1.9,0.1,3.8,0.9,5.3,2.1c1.2,1.2,1.9,2.9,1.8,4.6c0,1.2-0.2,2.4-0.7,3.5c-0.5,1.1-1.2,2-2.1,2.8
			c-1.1,0.8-2.3,1.5-3.6,1.9c-1.6,0.5-3.3,0.7-5.1,0.7c-1.5,0-2.9-0.1-4.4-0.4c-1.3-0.2-2.6-0.6-3.8-1.2v-5.2
			c0.6,0.3,1.2,0.6,1.9,0.8c0.6,0.2,1.3,0.4,2,0.6c0.6,0.2,1.3,0.3,1.9,0.4c0.6,0.1,1.2,0.1,1.8,0.1c1,0,1.9-0.1,2.8-0.3
			c0.7-0.2,1.3-0.5,1.8-0.9c0.4-0.4,0.8-0.8,1-1.4c0.2-0.6,0.3-1.2,0.3-1.8c0-0.6-0.1-1.1-0.4-1.6c-0.3-0.5-0.7-0.9-1.2-1.2
			c-0.7-0.4-1.4-0.6-2.1-0.8c-1.1-0.2-2.2-0.3-3.3-0.3h-2.1V134h2c1,0,2-0.1,3-0.3c0.7-0.2,1.4-0.5,1.9-0.9c0.5-0.3,0.8-0.8,1-1.3
			c0.2-0.5,0.3-1.1,0.3-1.6c0-0.9-0.3-1.8-1-2.4c-0.9-0.7-2-1-3-0.9c-0.6,0-1.2,0.1-1.8,0.2c-1,0.2-1.9,0.6-2.8,1.1
			c-0.4,0.2-0.7,0.5-1.1,0.7l-3.1-4.1c0.6-0.4,1.2-0.8,1.8-1.1c0.7-0.4,1.4-0.7,2.1-0.9c0.8-0.3,1.6-0.5,2.5-0.6
			c0.9-0.1,1.9-0.2,2.8-0.2c1.3,0,2.6,0.1,3.9,0.5c1.1,0.3,2.1,0.7,3,1.3c0.8,0.6,1.5,1.3,1.9,2.2C87.6,126.5,87.9,127.5,87.9,128.5
			z"/>
		<path class="st5" d="M98.4,151l10.3-23.8H95.4v-5.1h20v3.8L104.8,151L98.4,151z"/>
		<path class="st5" d="M170.3,29.4h-6.1V16.9h-11.5v12.5h-6.1V0.4h6.1v11.3h11.5V0.4h6.1V29.4z"/>
		<path class="st5" d="M198.3,29.4h-16.7V0.4h16.7v5h-10.5v6.4h9.8v5h-9.8v7.5h10.5V29.4z"/>
		<path class="st5" d="M231.8,29.4h-7L218,18.4l-6.7,10.9h-6.6l9.6-14.9l-9-14h6.8l6.2,10.4l6.1-10.4h6.6L222,14.8L231.8,29.4z"/>
		<path class="st5" d="M163.1,75l-0.9,4.6h4.9v4.1h-5.6l-1.2,6.5h-4.4l1.2-6.5h-3.8l-1.2,6.5h-4.3l1.2-6.5h-4.4v-4.1h5.2l0.9-4.6
			h-4.7v-4.1h5.4l1.2-6.3h4.3l-1.2,6.3h3.9l1.2-6.3h4.3l-1.2,6.3h4.5V75L163.1,75z M154,79.6h3.9l0.9-4.6h-3.9L154,79.6z"/>
		<path class="st5" d="M194.3,90.2h-16.7V61.2h16.7v5h-10.5v6.4h9.8v5h-9.8v7.5h10.5V90.2z"/>
		<path class="st5" d="M228.4,75.4c0,4.8-1.4,8.4-4.1,10.9c-2.7,2.5-6.6,3.8-11.7,3.8h-8.2V61.2h9.1c4.7,0,8.4,1.2,11,3.7
			C227.1,67.5,228.4,70.9,228.4,75.4z M222,75.6c0-6.2-2.7-9.3-8.2-9.3h-3.3v18.8h2.6C219,85.1,222,81.9,222,75.6L222,75.6z"/>
		<path class="st5" d="M255.1,90.2h-16.7V61.2h16.7v5h-10.5v6.4h9.8v5h-9.8v7.5h10.5V90.2z"/>
		<path class="st5" d="M289.2,75.4c0,4.8-1.4,8.4-4.1,10.9c-2.7,2.5-6.6,3.8-11.7,3.8h-8.2V61.2h9.1c4.7,0,8.4,1.2,11,3.7
			C287.9,67.5,289.2,70.9,289.2,75.4z M282.8,75.6c0-6.2-2.7-9.3-8.2-9.3h-3.3v18.8h2.6C279.9,85.1,282.8,81.9,282.8,75.6
			L282.8,75.6z"/>
		<path class="st5" d="M315.9,90.2h-16.7V61.2h16.7v5h-10.5v6.4h9.8v5h-9.8v7.5h10.5L315.9,90.2z"/>
		<path class="st5" d="M350,75.4c0,4.8-1.4,8.4-4.1,10.9c-2.7,2.5-6.6,3.8-11.7,3.8H326V61.2h9.1c4.7,0,8.4,1.2,11,3.7
			C348.7,67.5,350,70.9,350,75.4z M343.6,75.6c0-6.2-2.7-9.3-8.2-9.3h-3.3v18.8h2.6C340.7,85.1,343.6,81.9,343.6,75.6L343.6,75.6z"
			/>
	</g>
</g>
</svg>
