<svg xmlns="http://www.w3.org/2000/svg" width="980" height="410" viewBox="0 0 980 410"><title>colour2_1</title><g id="Layer_2" data-name="Layer 2"><g id="Layer_1-2" data-name="Layer 1"><rect width="980" height="410" fill="#7f507b"/><path d="M190.1723,61.7089a8.5126,8.5126,0,0,1,6.356-2.5532q5.1628,0,7.5493,3.4229a7.4623,7.4623,0,0,1,1.4155,3.8574h-4.32a5.89,5.89,0,0,0-1.0581-2.2441,4.6907,4.6907,0,0,0-7.0635.5542,9.2813,9.2813,0,0,0-1.333,5.3794,8.144,8.144,0,0,0,1.4067,5.2109,4.4062,4.4062,0,0,0,3.5742,1.7324,4.0466,4.0466,0,0,0,3.3892-1.4873,6.5045,6.5045,0,0,0,1.07-2.3984h4.2925a9.3133,9.3133,0,0,1-2.8379,5.499A8.26,8.26,0,0,1,196.7641,80.8a8.7794,8.7794,0,0,1-6.939-2.8613Q187.3,75.0634,187.3,70.0551,187.3,64.641,190.1723,61.7089Z" fill="#fff"/><path d="M201.9135,105.8324H208.13v20.6768h-4.0259V112.5238q0-.6035.0142-1.69t.0142-1.6758l-3.9185,17.3516h-4.1987l-3.8906-17.3516q0,.5889.0142,1.6758t.0142,1.69v13.9854h-4.0259V105.8324h6.2871l3.7637,16.2578Z" fill="#fff"/><path d="M199.9946,152.1166H204.89L197.9745,165.04v7.7529h-4.32V165.04L186.5,152.1166h5.0923l4.2925,9.0059Z" fill="#fff"/><path d="M188.2675,198.4008h4.25v8.52l7.9883-8.52h5.583l-8.4849,8.5039,8.92,12.1729h-5.5552l-6.3706-9.0254-2.0806,2.11v6.915h-4.25Z" fill="#fff"/><path d="M246.6142,74.7826a3.8588,3.8588,0,0,0,.91,2.0127,2.5715,2.5715,0,0,0,1.959.708,2.64,2.64,0,0,0,2.26-1.0449,4.2889,4.2889,0,0,0,.7769-2.63,4.5735,4.5735,0,0,0-.728-2.63,2.5453,2.5453,0,0,0-2.2671-1.0732,3.876,3.876,0,0,0-1.2593.1826,2.5045,2.5045,0,0,0-1.4136,1.248l-3.5835-.168,1.4272-11.2363h11.19v3.3945H247.58l-.728,4.4473a8.3162,8.3162,0,0,1,1.4429-.8,6.1066,6.1066,0,0,1,2.1152-.3232,6.137,6.137,0,0,1,6.2759,6.6357,7.7536,7.7536,0,0,1-1.8076,5.0352,6.5711,6.5711,0,0,1-5.4092,2.2168,7.1791,7.1791,0,0,1-4.7646-1.5576,6.0506,6.0506,0,0,1-2.0742-4.418Z" fill="#fff"/><path d="M262.6777,74.7826a3.8588,3.8588,0,0,0,.91,2.0127,2.5715,2.5715,0,0,0,1.959.708,2.64,2.64,0,0,0,2.26-1.0449,4.2889,4.2889,0,0,0,.7769-2.63,4.5735,4.5735,0,0,0-.728-2.63,2.5453,2.5453,0,0,0-2.2671-1.0732,3.876,3.876,0,0,0-1.2593.1826,2.5045,2.5045,0,0,0-1.4136,1.248l-3.5835-.168,1.4272-11.2363h11.19v3.3945h-8.3062l-.728,4.4473a8.3162,8.3162,0,0,1,1.4429-.8,6.1066,6.1066,0,0,1,2.1152-.3232,6.137,6.137,0,0,1,6.2759,6.6357,7.7536,7.7536,0,0,1-1.8076,5.0352,6.5711,6.5711,0,0,1-5.4092,2.2168,7.1791,7.1791,0,0,1-4.7646-1.5576,6.0506,6.0506,0,0,1-2.0742-4.418Z" fill="#fff"/><path d="M283.5737,68.891a5.2239,5.2239,0,1,1,1.522-3.6895A5.0207,5.0207,0,0,1,283.5737,68.891ZM281.4555,66.78a2.235,2.235,0,1,0-1.5781.6523A2.1486,2.1486,0,0,0,281.4555,66.78Zm9.8262-6.8945h2.1235l-11.3286,20.873h-2.1709Zm5.9194,19.2178a5.2151,5.2151,0,1,1,1.5293-3.6895A5.0262,5.0262,0,0,1,297.2011,79.1029ZM295.09,73.8353a2.235,2.235,0,1,0,.6523,1.5781A2.1512,2.1512,0,0,0,295.09,73.8353Z" fill="#fff"/><path d="M257.0224,109.5639a25.35,25.35,0,0,0-2.5015,3.1494,25.8775,25.8775,0,0,0-4.23,9.3076,19.1647,19.1647,0,0,0-.689,4.4883H245.45a24.4241,24.4241,0,0,1,3.5938-11.376,26.8651,26.8651,0,0,1,3.6924-5.1064H242.6025l.0562-3.5908h14.3638Z" fill="#fff"/><path d="M259.4672,117.77a4.9138,4.9138,0,0,1,2.2656-2.09,4.7535,4.7535,0,0,1-1.9224-2.125,5.9447,5.9447,0,0,1-.4434-2.14,4.9878,4.9878,0,0,1,1.6729-3.78,7.9173,7.9173,0,0,1,9.4473,0,4.9878,4.9878,0,0,1,1.6729,3.78,5.9513,5.9513,0,0,1-.4419,2.14,4.0829,4.0829,0,0,1-1.9146,1.9844,5.6531,5.6531,0,0,1,2.269,2.23,6.3485,6.3485,0,0,1,.7607,3.1006,5.7967,5.7967,0,0,1-1.9023,4.3691,7.419,7.419,0,0,1-5.3149,1.8027,6.8929,6.8929,0,0,1-5.167-1.8027,6.03,6.03,0,0,1-1.7554-4.3691A6.2619,6.2619,0,0,1,259.4672,117.77Zm4.1572,5.1621a3.2136,3.2136,0,0,0,4.3066,0,3.8971,3.8971,0,0,0-.0142-4.6924,3.24,3.24,0,0,0-4.2783,0,3.8971,3.8971,0,0,0-.0142,4.6924Zm.2544-9.2578a2.516,2.516,0,0,0,1.8921.7012,2.4876,2.4876,0,0,0,1.8916-.7012,2.5163,2.5163,0,0,0,.6685-1.81,2.5778,2.5778,0,0,0-.6685-1.8867,2.5335,2.5335,0,0,0-1.8916-.6807,2.3614,2.3614,0,0,0-2.5742,2.5674A2.4869,2.4869,0,0,0,263.8788,113.6742Z" fill="#fff"/><path d="M283.5737,115.1752a5.2245,5.2245,0,1,1,1.522-3.6895A5.0207,5.0207,0,0,1,283.5737,115.1752Zm-2.1182-2.1113a2.235,2.235,0,1,0-1.5781.6523A2.1486,2.1486,0,0,0,281.4555,113.0639Zm9.8262-6.8945h2.1235l-11.3286,20.873h-2.1709Zm5.9194,19.2178a5.2151,5.2151,0,1,1,1.5293-3.6895A5.0262,5.0262,0,0,1,297.2011,125.3871ZM295.09,120.12a2.235,2.235,0,1,0,.6523,1.5781A2.1512,2.1512,0,0,0,295.09,120.12Z" fill="#fff"/><path d="M243.71,168.7953a11.3088,11.3088,0,0,1,4.04-4.3066,29.643,29.643,0,0,0,3.5771-2.833,4.19,4.19,0,0,0,1.2485-2.918,3.23,3.23,0,0,0-.7158-2.1455,2.9154,2.9154,0,0,0-4.5308.5049,6.7476,6.7476,0,0,0-.4487,2.4961H242.995a9.8071,9.8071,0,0,1,.9409-4.1934q1.6-3.0439,5.687-3.0439a7.215,7.215,0,0,1,5.1392,1.7881,6.1819,6.1819,0,0,1,1.91,4.7344,6.4006,6.4006,0,0,1-1.3491,4.0117,13.4117,13.4117,0,0,1-2.9092,2.5947l-1.6021,1.1367q-1.5044,1.0664-2.0581,1.543a4.5218,4.5218,0,0,0-.9326,1.1084H256.7v3.5205H242.7709A9.56,9.56,0,0,1,243.71,168.7953Z" fill="#fff"/><path d="M259.4672,164.0541a4.9138,4.9138,0,0,1,2.2656-2.09,4.7535,4.7535,0,0,1-1.9224-2.125,5.9447,5.9447,0,0,1-.4434-2.14,4.9878,4.9878,0,0,1,1.6729-3.78,7.9173,7.9173,0,0,1,9.4473,0,4.9878,4.9878,0,0,1,1.6729,3.78,5.9513,5.9513,0,0,1-.4419,2.14,4.0829,4.0829,0,0,1-1.9146,1.9844,5.6531,5.6531,0,0,1,2.269,2.23,6.3485,6.3485,0,0,1,.7607,3.1006,5.7967,5.7967,0,0,1-1.9023,4.3691,7.419,7.419,0,0,1-5.3149,1.8027,6.8929,6.8929,0,0,1-5.167-1.8027,6.03,6.03,0,0,1-1.7554-4.3691A6.2619,6.2619,0,0,1,259.4672,164.0541Zm4.1572,5.1621a3.2136,3.2136,0,0,0,4.3066,0,3.8971,3.8971,0,0,0-.0142-4.6924,3.24,3.24,0,0,0-4.2783,0,3.8971,3.8971,0,0,0-.0142,4.6924Zm.2544-9.2578a2.516,2.516,0,0,0,1.8921.7012,2.4876,2.4876,0,0,0,1.8916-.7012,2.5163,2.5163,0,0,0,.6685-1.81,2.5778,2.5778,0,0,0-.6685-1.8867,2.5335,2.5335,0,0,0-1.8916-.6807,2.3614,2.3614,0,0,0-2.5742,2.5674A2.4869,2.4869,0,0,0,263.8788,159.9584Z" fill="#fff"/><path d="M283.5737,161.4594a5.2245,5.2245,0,1,1,1.522-3.6895A5.0207,5.0207,0,0,1,283.5737,161.4594Zm-2.1182-2.1113a2.235,2.235,0,1,0-1.5781.6523A2.1486,2.1486,0,0,0,281.4555,159.348Zm9.8262-6.8945h2.1235l-11.3286,20.873h-2.1709Zm5.9194,19.2178a5.2151,5.2151,0,1,1,1.5293-3.6895A5.0262,5.0262,0,0,1,297.2011,171.6713Zm-2.1108-5.2676a2.235,2.235,0,1,0,.6523,1.5781A2.1512,2.1512,0,0,0,295.09,166.4037Z" fill="#fff"/><path d="M243.4037,210.3383a4.9138,4.9138,0,0,1,2.2656-2.09,4.7535,4.7535,0,0,1-1.9224-2.125,5.9447,5.9447,0,0,1-.4434-2.14,4.9878,4.9878,0,0,1,1.6729-3.78,7.9173,7.9173,0,0,1,9.4473,0,4.9878,4.9878,0,0,1,1.6729,3.78,5.9513,5.9513,0,0,1-.4419,2.14,4.0829,4.0829,0,0,1-1.9146,1.9844,5.6531,5.6531,0,0,1,2.269,2.23,6.3485,6.3485,0,0,1,.7607,3.1006,5.7967,5.7967,0,0,1-1.9023,4.3691,7.419,7.419,0,0,1-5.3149,1.8027,6.8929,6.8929,0,0,1-5.167-1.8027,6.03,6.03,0,0,1-1.7554-4.3691A6.2619,6.2619,0,0,1,243.4037,210.3383ZM247.561,215.5a3.2136,3.2136,0,0,0,4.3066,0,3.8971,3.8971,0,0,0-.0142-4.6924,3.24,3.24,0,0,0-4.2783,0,3.8971,3.8971,0,0,0-.0142,4.6924Zm.2544-9.2578a2.516,2.516,0,0,0,1.8921.7012,2.4876,2.4876,0,0,0,1.8916-.7012,2.5163,2.5163,0,0,0,.6685-1.81,2.5778,2.5778,0,0,0-.6685-1.8867,2.5335,2.5335,0,0,0-1.8916-.6807,2.3614,2.3614,0,0,0-2.5742,2.5674A2.4869,2.4869,0,0,0,247.8154,206.2426Z" fill="#fff"/><path d="M267.51,207.7435a5.2245,5.2245,0,1,1,1.522-3.6895A5.0207,5.0207,0,0,1,267.51,207.7435Zm-2.1182-2.1113a2.235,2.235,0,1,0-1.5781.6523A2.1486,2.1486,0,0,0,265.392,205.6322Zm9.8262-6.8945h2.1235l-11.3286,20.873h-2.1709Zm5.9194,19.2178a5.2151,5.2151,0,1,1,1.5293-3.6895A5.0262,5.0262,0,0,1,281.1376,217.9555Zm-2.1108-5.2676a2.235,2.235,0,1,0,.6523,1.5781A2.1512,2.1512,0,0,0,279.0268,212.6879Z" fill="#fff"/><path d="M464.8051,60.0814a5.1111,5.1111,0,0,1,1.9355,1.4448,6.4469,6.4469,0,0,1,1.04,1.74,5.794,5.794,0,0,1,.3833,2.1738,6.19,6.19,0,0,1-.7437,2.8965,4.1521,4.1521,0,0,1-2.4546,2.0137,3.858,3.858,0,0,1,2.0269,1.6338,6.8037,6.8037,0,0,1,.5962,3.2334v1.3887a10.4546,10.4546,0,0,0,.1138,1.9219,1.7277,1.7277,0,0,0,.7979,1.1787v.5186h-4.769q-.197-.687-.2808-1.1084a10.105,10.105,0,0,1-.1821-1.7812l-.0283-1.9219a3.9029,3.9029,0,0,0-.6836-2.6367,3.4827,3.4827,0,0,0-2.4609-.6592h-4.22V80.225h-4.2222V59.5487h9.89A9.0064,9.0064,0,0,1,464.8051,60.0814Zm-8.93,3.0581v5.5552h4.6494a4.9474,4.9474,0,0,0,2.0786-.3369A2.3264,2.3264,0,0,0,463.829,66.03a2.61,2.61,0,0,0-1.186-2.5254,4.2819,4.2819,0,0,0-1.998-.3647Z" fill="#fff"/><path d="M465.456,112.2855a4.0492,4.0492,0,0,0-2.3984-2.96,5.8922,5.8922,0,0,0-2.3706-.4629,5.1526,5.1526,0,0,0-4.103,1.8828q-1.6069,1.8838-1.6064,5.6631,0,3.8086,1.74,5.3906a5.7167,5.7167,0,0,0,3.9556,1.582,5.1286,5.1286,0,0,0,3.563-1.248,5.381,5.381,0,0,0,1.7114-3.2686h-4.7837v-3.4512h8.6128v11.0957H466.915l-.4351-2.5811a9.8789,9.8789,0,0,1-2.2441,2.0664,7.923,7.923,0,0,1-4.2085,1.0479,8.7482,8.7482,0,0,1-6.7329-2.8457,10.8471,10.8471,0,0,1-2.7354-7.8223,11.4748,11.4748,0,0,1,2.7632-8.0469,9.42,9.42,0,0,1,7.3086-3.0273,9.5552,9.5552,0,0,1,6.333,1.998,7.4335,7.4335,0,0,1,2.7427,4.9873Z" fill="#fff"/><path d="M466.976,154.32a5.2587,5.2587,0,0,1,.9487,3.1553,4.6035,4.6035,0,0,1-.9575,3.0439,4.9363,4.9363,0,0,1-1.5771,1.1787,4.6088,4.6088,0,0,1,2.3887,1.8232,5.4731,5.4731,0,0,1,.8057,3.03,6.0471,6.0471,0,0,1-.9209,3.2969,5.6946,5.6946,0,0,1-3.8,2.665,14.3582,14.3582,0,0,1-2.9219.28h-9.3164V152.1166h9.9922Q465.3986,152.1737,466.976,154.32Zm-11.2271,1.3887v4.5586h5.0254a4.16,4.16,0,0,0,2.1865-.5117,1.9538,1.9538,0,0,0,.84-1.8174,1.8514,1.8514,0,0,0-1.11-1.9072,7.7931,7.7931,0,0,0-2.4434-.3223Zm0,7.9814v5.5127h5.02a4.8776,4.8776,0,0,0,2.0938-.3652,2.6024,2.6024,0,0,0,1.3589-2.5811,2.22,2.22,0,0,0-1.3174-2.2158,5.21,5.21,0,0,0-2.0659-.3506Z" fill="#fff"/><path d="M507.2216,66.1976V63.4765a17.6918,17.6918,0,0,0,2.6445-.2524,3.7259,3.7259,0,0,0,1.959-1.0664,3.51,3.51,0,0,0,.7837-1.459,3.3535,3.3535,0,0,0,.1538-.8135h3.3384v20.34h-4.0957V66.1976Z" fill="#fff"/><path d="M523.1308,76.2269a11.3088,11.3088,0,0,1,4.04-4.3066,29.643,29.643,0,0,0,3.5771-2.833,4.19,4.19,0,0,0,1.2485-2.918,3.2311,3.2311,0,0,0-.7158-2.146,2.917,2.917,0,0,0-4.5308.5049,6.7528,6.7528,0,0,0-.4487,2.4966h-3.8857a9.8112,9.8112,0,0,1,.9409-4.1938q1.6-3.0439,5.687-3.0439a7.2153,7.2153,0,0,1,5.1392,1.7886,6.1819,6.1819,0,0,1,1.91,4.7344,6.4006,6.4006,0,0,1-1.3491,4.0117,13.4117,13.4117,0,0,1-2.9092,2.5947l-1.6021,1.1367q-1.5044,1.0664-2.0581,1.543a4.5218,4.5218,0,0,0-.9326,1.1084h8.8794V80.225H522.1913A9.56,9.56,0,0,1,523.1308,76.2269Z" fill="#fff"/><path d="M552.5063,63.28a25.2739,25.2739,0,0,0-2.5015,3.1494,25.8775,25.8775,0,0,0-4.23,9.3076,19.1647,19.1647,0,0,0-.689,4.4883H540.934a24.4241,24.4241,0,0,1,3.5938-11.376,26.8487,26.8487,0,0,1,3.6924-5.1064H538.0864l.0562-3.5908h14.3638Z" fill="#fff"/><path d="M506.7607,117.77a4.9138,4.9138,0,0,1,2.2656-2.09,4.7535,4.7535,0,0,1-1.9224-2.125,5.9447,5.9447,0,0,1-.4434-2.14,4.9878,4.9878,0,0,1,1.6729-3.78,7.9173,7.9173,0,0,1,9.4473,0,4.9878,4.9878,0,0,1,1.6729,3.78,5.9513,5.9513,0,0,1-.4419,2.14,4.0829,4.0829,0,0,1-1.9146,1.9844,5.6531,5.6531,0,0,1,2.269,2.23,6.3485,6.3485,0,0,1,.7607,3.1006,5.7967,5.7967,0,0,1-1.9023,4.3691,7.419,7.419,0,0,1-5.3149,1.8027,6.8929,6.8929,0,0,1-5.167-1.8027,6.03,6.03,0,0,1-1.7554-4.3691A6.2619,6.2619,0,0,1,506.7607,117.77Zm4.1572,5.1621a3.2136,3.2136,0,0,0,4.3066,0,3.8971,3.8971,0,0,0-.0142-4.6924,3.24,3.24,0,0,0-4.2783,0,3.8971,3.8971,0,0,0-.0142,4.6924Zm.2544-9.2578a2.516,2.516,0,0,0,1.8921.7012,2.4876,2.4876,0,0,0,1.8916-.7012,2.5163,2.5163,0,0,0,.6685-1.81,2.5778,2.5778,0,0,0-.6685-1.8867,2.5335,2.5335,0,0,0-1.8916-.6807,2.3614,2.3614,0,0,0-2.5742,2.5674A2.4869,2.4869,0,0,0,511.1723,113.6742Z" fill="#fff"/><path d="M534.6547,108.7641q1.5637,2.7363,1.564,7.7715t-1.564,7.7568q-1.5645,2.7217-5.45,2.7217t-5.45-2.7217q-1.5645-2.72-1.564-7.7568t1.564-7.7715q1.5637-2.7349,5.45-2.7354T534.6547,108.7641Zm-7.8066,13.1367a2.3159,2.3159,0,0,0,2.3569,1.8594,2.2842,2.2842,0,0,0,2.3354-1.8594,19.8549,19.8549,0,0,0,.5542-5.3652,19.634,19.634,0,0,0-.5542-5.4424,2.2633,2.2633,0,0,0-2.3354-1.7676,2.2961,2.2961,0,0,0-2.3569,1.7676,18.9441,18.9441,0,0,0-.5752,5.4424A19.1567,19.1567,0,0,0,526.8481,121.9008Z" fill="#fff"/><path d="M507.2216,158.766v-2.7217a17.5762,17.5762,0,0,0,2.6445-.252,3.7259,3.7259,0,0,0,1.959-1.0664,3.5064,3.5064,0,0,0,.7837-1.459,3.3535,3.3535,0,0,0,.1538-.8135h3.3384v20.34h-4.0957V158.766Z" fill="#fff"/><path d="M523.1308,168.7953a11.3088,11.3088,0,0,1,4.04-4.3066,29.643,29.643,0,0,0,3.5771-2.833,4.19,4.19,0,0,0,1.2485-2.918,3.23,3.23,0,0,0-.7158-2.1455,2.9154,2.9154,0,0,0-4.5308.5049,6.7476,6.7476,0,0,0-.4487,2.4961h-3.8857a9.8071,9.8071,0,0,1,.9409-4.1934q1.6-3.0439,5.687-3.0439a7.215,7.215,0,0,1,5.1392,1.7881,6.1819,6.1819,0,0,1,1.91,4.7344,6.4006,6.4006,0,0,1-1.3491,4.0117,13.4117,13.4117,0,0,1-2.9092,2.5947l-1.6021,1.1367q-1.5044,1.0664-2.0581,1.543a4.5218,4.5218,0,0,0-.9326,1.1084h8.8794v3.5205H522.1913A9.56,9.56,0,0,1,523.1308,168.7953Z" fill="#fff"/><path d="M542.0419,166.5512a4.5781,4.5781,0,0,0,.3921,2.02,2.683,2.683,0,0,0,2.6445,1.4736,2.9291,2.9291,0,0,0,2.05-.8066,3.0024,3.0024,0,0,0,.875-2.3223,2.616,2.616,0,0,0-1.6226-2.6787,8.1983,8.1983,0,0,0-2.9087-.3789v-2.8613a7.525,7.525,0,0,0,2.7119-.3789,2.3408,2.3408,0,0,0,1.3281-2.3848,2.6676,2.6676,0,0,0-.6787-1.8936,2.479,2.479,0,0,0-1.91-.7295,2.4167,2.4167,0,0,0-2.0776.8975,3.8166,3.8166,0,0,0-.6362,2.3994h-3.7314a10.0546,10.0546,0,0,1,.5186-2.876,6.47,6.47,0,0,1,1.5415-2.2021,5.3645,5.3645,0,0,1,1.8633-1.0947,8.073,8.073,0,0,1,2.6484-.3779,7.0393,7.0393,0,0,1,4.7012,1.5078,5.0235,5.0235,0,0,1,1.7866,4.0469,4.4719,4.4719,0,0,1-1.0659,3.0293,3.6468,3.6468,0,0,1-1.4028,1.0527,2.8894,2.8894,0,0,1,1.5713.9395,5.0206,5.0206,0,0,1,1.5288,3.8721,6.5237,6.5237,0,0,1-1.7866,4.5371,6.8072,6.8072,0,0,1-5.29,1.957q-4.3162,0-5.998-2.8193a8.3778,8.3778,0,0,1-.981-3.9277Z" fill="#fff"/><path d="M669.3847,80.225V59.5487h4.2925V67.432h8.0376V59.5487h4.2925V80.225h-4.2925v-9.23h-8.0376v9.23Z" fill="#fff"/><path d="M713.603,63.21H702.6615V67.6h10.0439v3.5918H702.6615v5.3164h11.4463V80.225H698.4394V59.5487H713.603Z" fill="#fff"/><path d="M728.9321,80.225H723.91l6.6494-10.5342-6.3267-10.1421h5.1621l3.6875,6.7339,3.7891-6.7339h4.9937l-6.3262,9.9731,6.7192,10.7031h-5.2466l-3.9287-7.05Z" fill="#fff"/><path d="M667.8515,118.556h2.8394l1.1108-4.11h-2.85l.627-2.3428h2.8555l1.5313-5.667h2.79l-1.5312,5.667H677.52l1.52-5.667h2.7881l-1.52,5.667H683.16l-.6274,2.3428H679.68l-1.1021,4.11h2.854l-.627,2.3418H677.95l-1.5044,5.6113h-2.7881l1.5044-5.6113h-2.3145l-1.5161,5.6113h-2.79l1.5161-5.6113h-2.8335Zm7.9385,0,1.1021-4.11h-2.3008l-1.1108,4.11Z" fill="#fff"/><path d="M698.4374,109.5639a25.35,25.35,0,0,0-2.5015,3.1494,25.8775,25.8775,0,0,0-4.23,9.3076,19.1647,19.1647,0,0,0-.689,4.4883h-4.1519a24.4241,24.4241,0,0,1,3.5938-11.376,26.865,26.865,0,0,1,3.6924-5.1064H684.0175l.0562-3.5908h14.3638Z" fill="#fff"/><path d="M701.54,105.8607h14.7427v3.6328H705.832v4.7559h9.16V117.84h-9.16v8.6689H701.54Z" fill="#fff"/><path d="M721.727,121.0668a3.8588,3.8588,0,0,0,.91,2.0127,2.5715,2.5715,0,0,0,1.959.708,2.64,2.64,0,0,0,2.26-1.0449,4.2889,4.2889,0,0,0,.7769-2.63,4.5735,4.5735,0,0,0-.728-2.63,2.5453,2.5453,0,0,0-2.2671-1.0732,3.876,3.876,0,0,0-1.2593.1826,2.5045,2.5045,0,0,0-1.4136,1.248l-3.5835-.168,1.4272-11.2363h11.19V109.83h-8.3062l-.728,4.4473a8.3162,8.3162,0,0,1,1.4429-.8,6.1066,6.1066,0,0,1,2.1152-.3232,6.137,6.137,0,0,1,6.2759,6.6357,7.7536,7.7536,0,0,1-1.8076,5.0352,6.5711,6.5711,0,0,1-5.4092,2.2168,7.1791,7.1791,0,0,1-4.7646-1.5576,6.0506,6.0506,0,0,1-2.0742-4.418Z" fill="#fff"/><path d="M746.4106,108.7641q1.5637,2.7363,1.564,7.7715t-1.564,7.7568q-1.5645,2.7217-5.45,2.7217t-5.45-2.7217q-1.5645-2.72-1.564-7.7568t1.564-7.7715q1.5637-2.7349,5.45-2.7354T746.4106,108.7641Zm-7.8066,13.1367a2.3159,2.3159,0,0,0,2.3569,1.8594,2.2842,2.2842,0,0,0,2.3354-1.8594,19.8549,19.8549,0,0,0,.5542-5.3652,19.634,19.634,0,0,0-.5542-5.4424,2.2633,2.2633,0,0,0-2.3354-1.7676,2.2961,2.2961,0,0,0-2.3569,1.7676,18.9441,18.9441,0,0,0-.5752,5.4424A19.1567,19.1567,0,0,0,738.6039,121.9008Z" fill="#fff"/><path d="M764.2616,109.5639a25.35,25.35,0,0,0-2.5015,3.1494,25.8775,25.8775,0,0,0-4.23,9.3076,19.1647,19.1647,0,0,0-.689,4.4883h-4.1519a24.4241,24.4241,0,0,1,3.5938-11.376,26.8651,26.8651,0,0,1,3.6924-5.1064H749.8417l.0562-3.5908h14.3638Z" fill="#fff"/><path d="M782.7851,108.0355a5.2587,5.2587,0,0,1,.9487,3.1553,4.6035,4.6035,0,0,1-.9575,3.0439,4.9363,4.9363,0,0,1-1.5771,1.1787,4.6088,4.6088,0,0,1,2.3887,1.8232,5.4731,5.4731,0,0,1,.8057,3.03,6.0471,6.0471,0,0,1-.9209,3.2969,5.6946,5.6946,0,0,1-3.8,2.665,14.3582,14.3582,0,0,1-2.9219.28H767.434V105.8324h9.9922Q781.2077,105.89,782.7851,108.0355Zm-11.2271,1.3887v4.5586h5.0254a4.16,4.16,0,0,0,2.1865-.5117,1.9538,1.9538,0,0,0,.84-1.8174,1.8514,1.8514,0,0,0-1.11-1.9072,7.7931,7.7931,0,0,0-2.4434-.3223Zm0,7.9814v5.5127h5.02a4.8776,4.8776,0,0,0,2.0938-.3652,2.6024,2.6024,0,0,0,1.3589-2.5811,2.22,2.22,0,0,0-1.3174-2.2158,5.21,5.21,0,0,0-2.0659-.3506Z" fill="#fff"/><rect y="358.5718" width="196" height="51.4282" fill="#fff" opacity="0.2"/><rect x="196" y="358.5718" width="196" height="51.4282" fill="#fff" opacity="0.4"/><rect x="392" y="358.5718" width="196" height="51.4282" fill="#fff" opacity="0.6"/><rect x="588" y="358.5718" width="196" height="51.4282" fill="#fff" opacity="0.8"/><rect x="784" y="358.5718" width="196" height="51.4282" fill="#fff"/></g></g></svg>