<?xml version="1.0" encoding="utf-8"?>
<!-- Generator: Adobe Illustrator 21.0.2, SVG Export Plug-In . SVG Version: 6.00 Build 0)  -->
<svg version="1.1" id="Layer_1" xmlns="http://www.w3.org/2000/svg" xmlns:xlink="http://www.w3.org/1999/xlink" x="0px" y="0px"
	 viewBox="0 0 402 401" style="enable-background:new 0 0 402 401;" xml:space="preserve">
<style type="text/css">
	.st0{fill:#3ACCB0;}
	.st1{opacity:0.2;fill:#FFFFFF;enable-background:new    ;}
	.st2{opacity:0.4;fill:#FFFFFF;enable-background:new    ;}
	.st3{opacity:0.6;fill:#FFFFFF;enable-background:new    ;}
	.st4{opacity:0.8;fill:#FFFFFF;enable-background:new    ;}
	.st5{fill:#FFFFFF;}
</style>
<path class="st0" d="M392.5,401H12c-5.5,0-10-4.5-10-10V10C2,4.5,6.5,0,12,0h380.5c5.5,0,10,4.5,10,10v381
	C402.5,396.5,398,401,392.5,401z"/>
<title>colour1_2</title>
<g id="Layer_2">
	<g id="Layer_1-2">
		<rect x="2" y="350.8" class="st1" width="80" height="50.2"/>
		<rect x="82" y="350.8" class="st2" width="80" height="50.2"/>
		<rect x="162" y="350.8" class="st3" width="80" height="50.2"/>
		<rect x="242" y="350.8" class="st4" width="80" height="50.2"/>
		<rect x="322" y="350.7" class="st5" width="80.5" height="50.5"/>
		<g>
			<path class="st5" d="M33.6,38.6v11.3h-6.3V20.4h8.6c4,0,7,0.7,8.9,2.2s2.9,3.7,2.9,6.7c0,1.7-0.5,3.3-1.4,4.6
				c-1,1.4-2.4,2.5-4.1,3.2L50.9,50H44l-7-11.3L33.6,38.6z M33.6,33.5h2c1.5,0.1,3.1-0.2,4.4-1c1-0.7,1.5-1.9,1.4-3.1
				c0.1-1.2-0.4-2.3-1.4-3c-1.4-0.7-2.9-1-4.5-0.9h-1.9V33.5z"/>
			<path class="st5" d="M38.5,95.3h11.7v15.3c-1.7,0.6-3.5,1-5.4,1.3c-1.7,0.3-3.4,0.4-5.1,0.4c-4.5,0-7.9-1.3-10.2-3.9
				S26,102,26,97.1c0-4.8,1.4-8.5,4.1-11.1s6.5-4,11.3-4c3,0,6,0.6,8.8,1.8l-2.1,5c-2.1-1.1-4.4-1.6-6.7-1.6
				c-2.5-0.1-4.8,0.9-6.5,2.7c-1.7,2-2.6,4.7-2.4,7.3c0,3.2,0.7,5.6,2,7.3c1.4,1.7,3.5,2.7,5.7,2.5c1.3,0,2.7-0.1,4-0.4v-6.2h-5.6
				L38.5,95.3L38.5,95.3z"/>
			<path class="st5" d="M27.3,144.4h9.2c4.2,0,7.2,0.6,9.1,1.8c1.9,1.2,3,3.4,2.8,5.7c0.1,1.5-0.4,3.1-1.2,4.3c-0.8,1.1-2,1.8-3.3,2
				v0.2c1.6,0.3,3,1.1,4,2.3c0.9,1.4,1.3,2.9,1.2,4.6c0.1,2.4-1,4.8-2.9,6.3c-2.3,1.6-5.1,2.4-7.9,2.3h-11
				C27.3,173.9,27.3,144.4,27.3,144.4z M33.6,156.1h3.6c1.3,0.1,2.6-0.2,3.7-0.8c0.8-0.6,1.2-1.6,1.1-2.6c0.1-1-0.4-1.9-1.2-2.4
				c-1.2-0.6-2.6-0.8-3.9-0.7h-3.3C33.6,149.6,33.6,156.1,33.6,156.1z M33.6,161.1v7.7h4.1c1.3,0.1,2.7-0.2,3.8-1
				c0.9-0.8,1.3-1.9,1.2-3c0-2.4-1.7-3.7-5.2-3.7H33.6z"/>
			<path class="st5" d="M79.9,31c1.2,0,2.4,0.2,3.5,0.6s2,1,2.8,1.7c0.8,0.8,1.5,1.7,1.9,2.8c0.5,1.2,0.7,2.5,0.7,3.9
				c0,1.5-0.2,2.9-0.7,4.3c-0.5,1.2-1.2,2.3-2.2,3.2s-2.3,1.6-3.6,2c-1.6,0.5-3.3,0.7-4.9,0.7c-0.7,0-1.5,0-2.2-0.1
				s-1.4-0.2-2.1-0.3c-0.6-0.1-1.3-0.3-1.9-0.5s-1.1-0.4-1.6-0.7v-5.4c0.5,0.3,1.1,0.5,1.6,0.8c0.6,0.2,1.3,0.4,1.9,0.6
				c0.7,0.2,1.3,0.3,2,0.4c0.6,0.1,1.3,0.1,1.9,0.2c1.5,0.1,2.9-0.3,4.1-1.1c1-0.9,1.5-2.2,1.4-3.6c0.1-1.3-0.4-2.5-1.4-3.3
				c-1.3-0.9-2.8-1.3-4.3-1.1c-0.4,0-0.7,0-1.1,0.1c-0.4,0-0.8,0.1-1.2,0.2c-0.4,0.1-0.8,0.1-1.1,0.2c-0.3,0.1-0.7,0.2-0.9,0.2
				L70,35.5l1.1-15h15.6v5.3h-10l-0.5,5.8c0.4-0.1,0.9-0.2,1.5-0.3C78.4,31.1,79.2,31,79.9,31z"/>
			<path class="st5" d="M106.1,20c1.2,0,2.3,0.1,3.5,0.4c1,0.3,2,0.7,2.9,1.3c0.8,0.6,1.5,1.3,2,2.2c0.5,1,0.8,2,0.7,3.1
				c0,0.8-0.1,1.6-0.4,2.4c-0.3,0.7-0.6,1.4-1.1,2s-1,1.1-1.7,1.6s-1.4,0.9-2.1,1.3c0.8,0.4,1.6,0.9,2.3,1.4c0.7,0.5,1.4,1.1,2,1.7
				c0.6,0.6,1,1.4,1.4,2.1c0.4,0.8,0.5,1.7,0.5,2.7c0,1.2-0.2,2.3-0.7,3.3s-1.2,1.9-2,2.5c-0.9,0.7-2,1.3-3.1,1.6
				c-1.3,0.4-2.7,0.6-4,0.6c-1.4,0-2.9-0.2-4.2-0.5c-1.1-0.3-2.2-0.8-3.1-1.6c-0.8-0.7-1.5-1.5-1.9-2.5c-0.5-1-0.7-2.2-0.7-3.3
				c0-1.8,0.6-3.5,1.7-4.9c0.5-0.7,1.1-1.2,1.8-1.7c0.7-0.5,1.4-0.9,2.2-1.3c-0.7-0.4-1.3-0.9-1.9-1.4s-1.1-1-1.5-1.6s-0.8-1.3-1-2
				c-0.3-0.8-0.4-1.6-0.4-2.4c-0.2-1,0-2,0.5-3c0.5-0.9,1.2-1.6,2-2.2c0.9-0.6,1.9-1.1,2.9-1.3C103.8,20.1,105,20,106.1,20z M102,42
				c0,0.5,0.1,1,0.3,1.5c0.2,0.4,0.4,0.8,0.8,1.2c0.4,0.3,0.8,0.6,1.3,0.8c0.6,0.2,1.2,0.3,1.8,0.3c1.1,0.1,2.3-0.3,3.2-1
				c0.7-0.7,1.1-1.6,1.1-2.6c0-0.5-0.1-1.1-0.4-1.5c-0.2-0.5-0.5-0.9-0.9-1.3c-0.4-0.4-0.8-0.8-1.3-1.1s-0.9-0.6-1.4-0.9l-0.6-0.4
				c-0.6,0.3-1.1,0.6-1.6,1c-0.5,0.3-0.9,0.7-1.2,1.1c-0.3,0.4-0.6,0.9-0.8,1.3C102.1,41,102,41.5,102,42z M106.1,24.6
				c-0.4,0-0.8,0.1-1.2,0.2c-0.4,0.1-0.7,0.3-1,0.6c-0.3,0.3-0.5,0.6-0.7,0.9c-0.1,0.4-0.2,0.8-0.2,1.3s0.1,1,0.3,1.5
				c0.2,0.4,0.4,0.8,0.7,1.1c0.3,0.3,0.6,0.6,1,0.8c0.4,0.2,0.8,0.5,1.2,0.7c0.4-0.2,0.8-0.4,1.2-0.7c0.4-0.2,0.7-0.5,1-0.9
				c0.2-0.3,0.5-0.7,0.6-1.1c0.2-0.5,0.3-0.9,0.3-1.4c0-0.4-0.1-0.9-0.2-1.3c-0.2-0.4-0.4-0.7-0.7-0.9c-0.3-0.3-0.6-0.5-1-0.6
				C107,24.6,106.5,24.6,106.1,24.6z"/>
			<path class="st5" d="M89.3,111.9H69.5v-4.3l6.9-7.5c0.9-0.9,1.7-1.8,2.4-2.6c0.7-0.7,1.3-1.5,1.8-2.3c0.5-0.7,0.9-1.5,1.2-2.3
				s0.4-1.7,0.4-2.5c0.1-0.9-0.3-1.7-0.9-2.3c-0.7-0.6-1.5-0.9-2.4-0.8c-1.1,0-2.1,0.3-3.1,0.8c-1.1,0.6-2.2,1.4-3.1,2.2l-3.4-4
				c0.6-0.6,1.2-1.1,1.9-1.6c1.4-1.1,3.1-1.9,4.8-2.3c1.1-0.2,2.1-0.4,3.2-0.4c1.3,0,2.6,0.2,3.8,0.6c1.1,0.4,2,0.9,2.9,1.7
				c0.8,0.7,1.4,1.6,1.8,2.6c0.4,1.1,0.7,2.3,0.6,3.5c0,1.1-0.2,2.3-0.6,3.3c-0.4,1.1-1,2.1-1.7,3.1c-0.7,1.1-1.6,2.1-2.4,3
				c-0.9,1-1.9,2-3,3.1l-3.6,3.6v0.3h12v5.1L89.3,111.9L89.3,111.9z"/>
			<path class="st5" d="M116.2,97.2c0,2.1-0.2,4.3-0.6,6.4c-0.3,1.7-0.9,3.3-1.8,4.8c-0.8,1.3-1.9,2.3-3.1,3c-1.4,0.7-3,1.1-4.7,1
				c-1.6,0-3.1-0.3-4.5-1c-1.3-0.7-2.4-1.7-3.1-3c-0.9-1.5-1.5-3.1-1.9-4.8c-0.4-2.1-0.6-4.2-0.6-6.4c0-2.1,0.2-4.3,0.6-6.4
				c0.3-1.7,0.9-3.3,1.8-4.8c0.8-1.3,1.8-2.3,3.1-3c1.4-0.7,3-1.1,4.6-1c1.5,0,3.1,0.3,4.4,1s2.4,1.7,3.2,3c0.9,1.5,1.6,3.1,1.9,4.8
				C116.1,92.9,116.3,95,116.2,97.2z M102.2,97.2c-0.1,2.6,0.2,5.1,0.9,7.6c0.6,1.7,1.6,2.5,3,2.5s2.4-0.8,3-2.5
				c0.7-2.5,1-5,0.9-7.6c0.1-2.6-0.2-5.1-0.9-7.6c-0.6-1.7-1.6-2.6-3-2.6c-0.7,0-1.3,0.2-1.8,0.6c-0.6,0.5-1,1.2-1.2,1.9
				c-0.3,1-0.6,2.1-0.7,3.2C102.3,94.2,102.2,95.7,102.2,97.2L102.2,97.2z"/>
			<path class="st5" d="M143.6,105.8H140v6.1h-6.1v-6.1h-12.2v-4.3l12.5-19.1h5.7V101h3.6L143.6,105.8z M133.9,101v-5
				c0-0.2,0-0.4,0-0.8s0-0.7,0-1.1s0-0.8,0.1-1.3c0-0.4,0-0.9,0.1-1.3c0-0.4,0-0.8,0.1-1.1c0-0.3,0-0.5,0.1-0.7H134
				c-0.2,0.6-0.5,1.2-0.8,1.8c-0.3,0.7-0.7,1.3-1,1.9l-4.9,7.5L133.9,101z"/>
			<path class="st5" d="M84.3,173.9h-6.2v-17.1c0-0.3,0-0.8,0-1.3s0-1,0-1.5s0-1.1,0.1-1.6s0-1,0-1.5c-0.1,0.1-0.2,0.2-0.3,0.4
				c-0.2,0.2-0.3,0.3-0.5,0.5s-0.4,0.4-0.6,0.6s-0.4,0.4-0.6,0.5l-3.4,2.7l-3-3.8l9.5-7.6h5.1L84.3,173.9z"/>
			<path class="st5" d="M98.9,173.9l10.5-24.2H95.9v-5.2h20.4v3.9L105.5,174h-6.6V173.9z"/>
			<path class="st5" d="M123.2,161.4c0-1.4,0.1-2.8,0.2-4.2s0.4-2.7,0.8-4s0.9-2.5,1.6-3.6s1.6-2.1,2.6-2.9c1.1-0.9,2.4-1.5,3.8-1.9
				c1.7-0.5,3.4-0.7,5.1-0.7c0.3,0,0.6,0,0.9,0s0.7,0,1,0.1c0.3,0,0.7,0.1,1,0.1s0.6,0.1,0.9,0.1v5c-0.5-0.1-1.1-0.2-1.6-0.3
				c-0.6-0.1-1.1-0.1-1.7-0.1c-1.5,0-3,0.2-4.5,0.7c-1.1,0.4-2,1-2.8,1.9c-0.7,0.8-1.2,1.8-1.5,2.9c-0.3,1.2-0.5,2.5-0.5,3.8h0.2
				c0.3-0.5,0.6-0.9,1-1.4c0.4-0.4,0.8-0.8,1.3-1.1s1.1-0.6,1.7-0.7c0.7-0.2,1.4-0.3,2.2-0.3c1.2,0,2.4,0.2,3.5,0.6
				c1,0.4,1.9,1,2.6,1.8c0.7,0.9,1.3,1.8,1.6,2.9c0.8,2.7,0.8,5.6-0.1,8.3c-0.4,1.2-1.1,2.3-1.9,3.2s-1.9,1.6-3,2
				c-1.3,0.5-2.6,0.7-4,0.7s-2.8-0.3-4.1-0.8s-2.4-1.3-3.3-2.4c-1-1.2-1.7-2.5-2.2-4C123.4,165.3,123.1,163.4,123.2,161.4z
				 M133.4,169.4c0.5,0,1-0.1,1.5-0.3s0.9-0.5,1.2-0.9c0.4-0.5,0.6-1,0.8-1.6c0.2-0.8,0.3-1.5,0.3-2.3c0.1-1.2-0.2-2.4-0.9-3.4
				c-0.6-0.8-1.7-1.3-2.7-1.2c-0.6,0-1.2,0.1-1.7,0.4c-1,0.5-1.7,1.3-2.2,2.3c-0.2,0.5-0.3,1-0.3,1.5c0,0.7,0.1,1.4,0.3,2
				s0.4,1.3,0.8,1.8c0.3,0.5,0.8,1,1.3,1.3C132.2,169.2,132.8,169.4,133.4,169.4L133.4,169.4z"/>
			<path class="st5" d="M199.1,49.9h-6.2V37.2h-11.7v12.7h-6.3V20.4h6.3V32h11.7V20.4h6.2V49.9z"/>
			<path class="st5" d="M227.7,49.9h-17V20.4h17v5.1H217V32h10v5.1h-10v7.6h10.7V49.9z"/>
			<path class="st5" d="M261.8,49.9h-7.1l-6.9-11.2L241,49.9h-6.7l9.8-15.2l-9.2-14.3h6.9l6.4,10.6l6.2-10.6h6.7L251.9,35
				L261.8,49.9z"/>
			<path class="st5" d="M191.8,96.4l-0.9,4.7h4.9v4.2H190l-1.3,6.6h-4.4l1.3-6.6h-3.9l-1.2,6.6h-4.3l1.2-6.6h-4.5v-4.2h5.3l0.9-4.7
				h-4.8v-4.2h5.6l1.2-6.4h4.4l-1.2,6.4h4l1.2-6.4h4.3l-1.2,6.4h4.6v4.2H191.8z M182.5,101.1h4l0.9-4.7h-4L182.5,101.1z"/>
			<path class="st5" d="M223.2,89c0,0.9-0.2,1.9-0.5,2.8c-0.3,0.8-0.8,1.5-1.4,2.1c-0.6,0.6-1.3,1.1-2,1.5c-0.8,0.4-1.6,0.7-2.5,0.9
				v0.1c2,0.1,3.9,0.9,5.4,2.2c1.3,1.2,1.9,2.9,1.8,4.7c0,1.2-0.2,2.4-0.7,3.6c-0.5,1.1-1.2,2.1-2.1,2.9c-1.1,0.9-2.3,1.5-3.6,1.9
				c-1.7,0.5-3.4,0.7-5.2,0.7c-1.5,0-3-0.1-4.5-0.4c-1.3-0.2-2.7-0.6-3.9-1.2v-5.3c0.6,0.3,1.3,0.6,1.9,0.8c0.7,0.2,1.3,0.4,2,0.6
				s1.3,0.3,2,0.4c0.6,0.1,1.2,0.1,1.8,0.1c1,0,1.9-0.1,2.9-0.3c0.7-0.2,1.3-0.5,1.8-0.9c0.4-0.4,0.8-0.9,1-1.4
				c0.2-0.6,0.3-1.2,0.3-1.8c0-0.6-0.1-1.1-0.4-1.6c-0.3-0.5-0.7-1-1.2-1.3c-0.7-0.4-1.4-0.7-2.2-0.8c-1.1-0.2-2.2-0.3-3.3-0.3h-2.1
				v-4.4h2.1c1,0,2.1-0.1,3.1-0.3c0.7-0.2,1.4-0.5,2-0.9c0.5-0.3,0.8-0.8,1-1.3s0.3-1.1,0.3-1.6c0.1-0.9-0.3-1.8-1-2.5
				c-0.9-0.7-2-1-3.1-0.9c-0.6,0-1.2,0.1-1.8,0.2c-1,0.2-2,0.6-2.9,1.1c-0.4,0.2-0.8,0.5-1.1,0.7l-3.1-4.2c0.6-0.4,1.2-0.8,1.8-1.2
				c0.7-0.4,1.4-0.7,2.2-0.9c0.8-0.3,1.7-0.5,2.5-0.6c1-0.2,1.9-0.2,2.9-0.2c1.3,0,2.7,0.1,4,0.5c1.1,0.3,2.1,0.7,3.1,1.4
				c0.8,0.6,1.5,1.3,2,2.2C222.9,86.9,223.2,88,223.2,89z"/>
			<path class="st5" d="M251.6,111.9l-2.1-7h-10.8l-2.1,7h-6.7l10.4-29.6h7.7l10.5,29.6H251.6z M247.9,99.6c-2-6.4-3.1-10-3.3-10.8
				s-0.4-1.5-0.5-2c-0.4,1.7-1.7,6-3.8,12.8H247.9z"/>
			<path class="st5" d="M278.3,87.2c-2.2-0.1-4.2,0.9-5.5,2.7c-1.3,1.8-1.9,4.2-1.9,7.4c0,6.6,2.5,9.9,7.4,9.9
				c2.6-0.1,5.1-0.6,7.5-1.6v5.2c-2.6,1-5.3,1.6-8.1,1.5c-4.3,0-7.6-1.3-9.9-3.9s-3.4-6.3-3.4-11.2c-0.1-2.8,0.5-5.5,1.7-8.1
				c1-2.2,2.7-4.1,4.8-5.3c2.2-1.3,4.8-1.9,7.4-1.8c3,0,6,0.7,8.6,2.1l-2,5.1c-1.1-0.5-2.2-1-3.3-1.4
				C280.5,87.4,279.4,87.2,278.3,87.2z"/>
			<path class="st5" d="M308.4,87.2c-2.2-0.1-4.2,0.9-5.5,2.7c-1.3,1.8-1.9,4.2-1.9,7.4c0,6.6,2.5,9.9,7.4,9.9
				c2.6-0.1,5.1-0.6,7.5-1.6v5.2c-2.6,1-5.3,1.6-8.1,1.5c-4.3,0-7.6-1.3-9.9-3.9s-3.4-6.3-3.4-11.2c-0.1-2.8,0.5-5.5,1.7-8.1
				c1-2.2,2.7-4.1,4.8-5.3c2.2-1.3,4.8-1.9,7.4-1.8c3,0,6,0.7,8.6,2.1l-2,5.1c-1.1-0.5-2.2-1-3.3-1.4
				C310.6,87.4,309.5,87.2,308.4,87.2z"/>
			<path class="st5" d="M326.3,82.4h9.2c4.2,0,7.2,0.6,9.1,1.8c1.9,1.2,3,3.4,2.8,5.7c0.1,1.5-0.4,3.1-1.2,4.3c-0.8,1.1-2,1.8-3.3,2
				v0.2c1.6,0.3,3,1.1,4,2.3c0.9,1.4,1.3,2.9,1.2,4.6c0.1,2.4-1,4.8-2.9,6.3c-2.3,1.6-5.1,2.4-7.9,2.3h-11L326.3,82.4L326.3,82.4z
				 M332.6,94.1h3.6c1.3,0.1,2.6-0.2,3.7-0.8c0.8-0.6,1.2-1.6,1.1-2.6c0.1-1-0.4-1.9-1.2-2.4c-1.2-0.6-2.6-0.8-3.9-0.7h-3.3
				L332.6,94.1L332.6,94.1z M332.6,99.1v7.7h4.1c1.3,0.1,2.7-0.2,3.8-1c0.9-0.8,1.3-1.9,1.2-3c0-2.4-1.7-3.7-5.2-3.7H332.6z"/>
			<path class="st5" d="M376,97.2c0,2.1-0.2,4.3-0.6,6.4c-0.3,1.7-0.9,3.3-1.8,4.8c-0.8,1.3-1.9,2.3-3.1,3c-1.4,0.7-3,1.1-4.7,1
				c-1.6,0-3.1-0.3-4.5-1c-1.3-0.7-2.4-1.7-3.1-3c-0.9-1.5-1.5-3.1-1.9-4.8c-0.4-2.1-0.6-4.2-0.6-6.4c0-2.1,0.2-4.3,0.6-6.4
				c0.3-1.7,0.9-3.3,1.8-4.8c0.8-1.3,1.8-2.3,3.1-3c1.4-0.7,3-1.1,4.6-1c1.5,0,3.1,0.3,4.4,1s2.4,1.7,3.2,3c0.9,1.5,1.6,3.1,1.9,4.8
				C375.8,92.9,376,95,376,97.2z M362,97.2c-0.1,2.6,0.2,5.1,0.9,7.6c0.6,1.7,1.6,2.5,3,2.5s2.4-0.8,3-2.5c0.7-2.5,1-5,0.9-7.6
				c0.1-2.6-0.2-5.1-0.9-7.6c-0.6-1.7-1.6-2.6-3-2.6c-0.7,0-1.3,0.2-1.8,0.6c-0.6,0.5-1,1.2-1.2,1.9c-0.3,1-0.6,2.1-0.7,3.2
				C362,94.2,362,95.7,362,97.2z"/>
		</g>
	</g>
</g>
</svg>
