<?xml version="1.0" encoding="utf-8"?>
<!-- Generator: Adobe Illustrator 21.0.2, SVG Export Plug-In . SVG Version: 6.00 Build 0)  -->
<svg version="1.1" id="Layer_1" xmlns="http://www.w3.org/2000/svg" xmlns:xlink="http://www.w3.org/1999/xlink" x="0px" y="0px"
	 viewBox="0 0 402 401" style="enable-background:new 0 0 402 401;" xml:space="preserve">
<style type="text/css">
	.st0{fill:#EDEDED;}
	.st1{opacity:0.2;fill:#FFFFFF;enable-background:new    ;}
	.st2{opacity:0.4;fill:#FFFFFF;enable-background:new    ;}
	.st3{opacity:0.6;fill:#FFFFFF;enable-background:new    ;}
	.st4{opacity:0.8;fill:#FFFFFF;enable-background:new    ;}
	.st5{fill:#FFFFFF;}
	.st6{fill:#1E1E1E;}
</style>
<title>colour3_2</title>
<g id="Layer_2">
	<g id="Layer_1-2">
		<path class="st0" d="M392.5,401H12c-5.5,0-10-4.5-10-10V10C2,4.5,6.5,0,12,0h380.5c5.5,0,10,4.5,10,10v381
			C402.5,396.5,398,401,392.5,401z"/>
		<rect x="2" y="350.8" class="st1" width="80" height="50.2"/>
		<rect x="82" y="350.8" class="st2" width="80" height="50.2"/>
		<rect x="162" y="350.8" class="st3" width="80" height="50.2"/>
		<rect x="242" y="350.8" class="st4" width="80" height="50.2"/>
		<rect x="322" y="350.8" class="st5" width="80.5" height="50.2"/>
		<g>
			<path class="st6" d="M33.4,38.2v11.1h-6.1V20.4h8.4c3.9,0,6.8,0.7,8.7,2.1s2.8,3.6,2.8,6.5c0,1.6-0.5,3.2-1.4,4.5
				c-1,1.4-2.4,2.5-4,3.1l8.5,12.6h-6.8l-6.9-11.1L33.4,38.2L33.4,38.2z M33.4,33.3h2c1.5,0.1,3-0.2,4.3-1c1-0.7,1.5-1.9,1.4-3
				c0.1-1.2-0.4-2.3-1.4-2.9c-1.4-0.7-2.9-1-4.4-0.9h-1.9C33.4,25.5,33.4,33.3,33.4,33.3z"/>
			<path class="st6" d="M38.3,93.9h11.5v15c-1.7,0.6-3.5,1-5.3,1.3c-1.7,0.2-3.4,0.4-5,0.4c-4.4,0-7.7-1.3-10-3.8S26,100.5,26,95.7
				c0-4.7,1.3-8.3,4-10.9s6.4-3.9,11.1-3.9c3,0,5.9,0.6,8.6,1.8l-2,4.9c-2-1-4.3-1.6-6.6-1.6c-2.4-0.1-4.8,0.9-6.4,2.7
				c-1.7,2-2.5,4.6-2.4,7.2c0,3.1,0.6,5.5,1.9,7.2c1.4,1.7,3.4,2.6,5.6,2.5c1.3,0,2.6-0.1,3.9-0.4v-6h-5.5L38.3,93.9z"/>
			<path class="st6" d="M27.3,142h9c4.1,0,7.1,0.6,8.9,1.8c1.9,1.2,2.9,3.3,2.8,5.6c0.1,1.5-0.4,3-1.2,4.3c-0.8,1.1-1.9,1.8-3.2,2
				v0.2c1.6,0.2,3,1.1,4,2.3c0.9,1.3,1.3,2.9,1.2,4.5c0.1,2.4-1,4.7-2.9,6.2c-2.3,1.6-5,2.4-7.8,2.2H27.3V142z M33.4,153.5H37
				c1.3,0.1,2.5-0.2,3.6-0.8c0.8-0.6,1.2-1.6,1.1-2.6c0.1-1-0.4-1.9-1.2-2.4c-1.2-0.6-2.5-0.8-3.9-0.7h-3.2
				C33.4,147,33.4,153.5,33.4,153.5z M33.4,158.4v7.5h4c1.3,0.1,2.6-0.2,3.7-1c0.8-0.7,1.3-1.8,1.2-3c0-2.4-1.7-3.6-5.1-3.6
				L33.4,158.4z"/>
			<path class="st6" d="M88.6,49.4H69.2v-4.3l6.8-7.3c0.9-0.9,1.6-1.8,2.3-2.6c0.7-0.7,1.3-1.5,1.8-2.3c0.5-0.7,0.9-1.5,1.2-2.3
				c0.3-0.8,0.4-1.6,0.4-2.5c0.1-0.9-0.3-1.7-0.9-2.3c-0.7-0.6-1.5-0.9-2.4-0.8c-1.1,0-2.1,0.3-3,0.8c-1.1,0.6-2.1,1.3-3,2.2
				l-3.3-3.9c0.6-0.5,1.2-1.1,1.9-1.6c1.4-1.1,3-1.8,4.7-2.2c1-0.2,2.1-0.4,3.1-0.3c1.3,0,2.5,0.2,3.7,0.6c1,0.3,2,0.9,2.8,1.6
				s1.4,1.6,1.8,2.6c0.4,1.1,0.6,2.2,0.6,3.4c0,1.1-0.2,2.2-0.6,3.3s-1,2.1-1.6,3c-0.7,1-1.5,2-2.4,3s-1.9,2-2.9,3L76.7,44v0.3h11.8
				L88.6,49.4L88.6,49.4z"/>
			<path class="st6" d="M113.9,26.9c0,0.9-0.2,1.8-0.5,2.7c-0.3,0.8-0.8,1.5-1.3,2.1c-0.6,0.6-1.2,1.1-2,1.5s-1.6,0.7-2.5,0.9v0.1
				c1.9,0.1,3.8,0.9,5.3,2.1c1.2,1.2,1.9,2.9,1.8,4.6c0,1.2-0.2,2.4-0.7,3.5s-1.2,2-2.1,2.8c-1.1,0.8-2.3,1.5-3.6,1.9
				c-1.6,0.5-3.3,0.7-5.1,0.7c-1.5,0-2.9-0.1-4.4-0.4c-1.3-0.2-2.6-0.6-3.8-1.2V43c0.6,0.3,1.2,0.6,1.9,0.8c0.6,0.2,1.3,0.4,2,0.6
				c0.6,0.2,1.3,0.3,1.9,0.4c0.6,0.1,1.2,0.1,1.8,0.1c1,0,1.9-0.1,2.8-0.3c0.7-0.2,1.3-0.5,1.8-0.9c0.4-0.4,0.8-0.8,1-1.4
				c0.2-0.6,0.3-1.2,0.3-1.8s-0.1-1.1-0.4-1.6s-0.7-0.9-1.2-1.2c-0.7-0.4-1.4-0.6-2.1-0.8c-1.1-0.2-2.2-0.3-3.3-0.3h-2.1v-4.3h2
				c1,0,2-0.1,3-0.3c0.7-0.2,1.4-0.5,1.9-0.9c0.5-0.3,0.8-0.8,1-1.3s0.3-1.1,0.3-1.6c0-0.9-0.3-1.8-1-2.4c-0.9-0.7-2-1-3-0.9
				c-0.6,0-1.2,0.1-1.8,0.2c-1,0.2-1.9,0.6-2.8,1.1c-0.4,0.2-0.7,0.5-1.1,0.7l-3.1-4.1c0.6-0.4,1.2-0.8,1.8-1.1
				c0.7-0.4,1.4-0.7,2.1-0.9c0.8-0.3,1.6-0.5,2.5-0.6c1.3-0.1,2.2-0.2,3.2-0.2c1.3,0,2.6,0.1,3.9,0.5c1.1,0.3,2.1,0.7,3,1.3
				c0.8,0.6,1.5,1.3,1.9,2.2C113.6,24.9,113.9,25.9,113.9,26.9z"/>
			<path class="st6" d="M124.4,49.4l10.3-23.8h-13.3v-5.1h20v3.8l-10.6,25.1H124.4z"/>
			<path class="st6" d="M88.6,110.2H69.2v-4.3l6.8-7.3c0.9-0.9,1.6-1.8,2.3-2.6c0.7-0.7,1.3-1.5,1.8-2.3c0.5-0.7,0.9-1.5,1.2-2.3
				c0.3-0.8,0.4-1.6,0.4-2.5c0.1-0.9-0.3-1.7-0.9-2.3c-0.7-0.6-1.5-0.9-2.4-0.8c-1.1,0-2.1,0.3-3,0.8c-1.1,0.6-2.1,1.3-3,2.2
				l-3.3-3.9c0.6-0.5,1.2-1.1,1.9-1.6c1.4-1.1,3-1.8,4.7-2.2c1-0.2,2.1-0.4,3.1-0.3c1.3,0,2.5,0.2,3.7,0.6c1,0.3,2,0.9,2.8,1.6
				s1.4,1.6,1.8,2.6c0.4,1.1,0.6,2.2,0.6,3.4c0,1.1-0.2,2.2-0.6,3.3c-0.4,1.1-1,2.1-1.6,3c-0.7,1-1.5,2-2.4,3s-1.9,2-2.9,3l-3.5,3.5
				v0.2h11.8L88.6,110.2L88.6,110.2z"/>
			<path class="st6" d="M113.9,87.7c0,0.9-0.2,1.8-0.5,2.7c-0.3,0.8-0.8,1.5-1.3,2.1c-0.6,0.6-1.2,1.1-2,1.5s-1.6,0.7-2.5,0.9V95
				c1.9,0.1,3.8,0.9,5.3,2.1c1.2,1.2,1.9,2.9,1.8,4.6c0,1.2-0.2,2.4-0.7,3.5s-1.2,2-2.1,2.8c-1.1,0.8-2.3,1.5-3.6,1.9
				c-1.6,0.5-3.3,0.7-5.1,0.7c-1.5,0-2.9-0.1-4.4-0.4c-1.3-0.2-2.6-0.6-3.8-1.2v-5.2c0.6,0.3,1.2,0.6,1.9,0.8c0.6,0.2,1.3,0.4,2,0.6
				c0.6,0.2,1.3,0.3,1.9,0.4s1.2,0.1,1.8,0.1c1,0,1.9-0.1,2.8-0.3c0.7-0.2,1.3-0.5,1.8-0.9c0.4-0.4,0.8-0.8,1-1.4s0.3-1.2,0.3-1.8
				c0-0.6-0.1-1.1-0.4-1.6s-0.7-0.9-1.2-1.2c-0.7-0.4-1.4-0.6-2.1-0.8c-1.1-0.2-2.2-0.3-3.3-0.3h-2.1v-4.3h2c1,0,2-0.1,3-0.3
				c0.7-0.2,1.4-0.5,1.9-0.9c0.5-0.3,0.8-0.8,1-1.3s0.3-1.1,0.3-1.6c0-0.9-0.3-1.8-1-2.4c-0.9-0.7-2-1-3-0.9c-0.6,0-1.2,0.1-1.8,0.2
				c-1,0.2-1.9,0.6-2.8,1.1c-0.4,0.2-0.7,0.5-1.1,0.7l-3.1-4.1c0.6-0.4,1.2-0.8,1.8-1.1c0.7-0.4,1.4-0.7,2.1-0.9
				c0.8-0.3,1.6-0.5,2.5-0.6s1.9-0.2,2.8-0.2c1.3,0,2.6,0.1,3.9,0.5c1.1,0.3,2.1,0.7,3,1.3c0.8,0.6,1.5,1.3,1.9,2.2
				C113.6,85.7,113.9,86.7,113.9,87.7z"/>
			<path class="st6" d="M124.4,110.2l10.3-23.8h-13.3v-5.1h20v3.8l-10.6,25.1H124.4z"/>
			<path class="st6" d="M88.6,171H69.2v-4.3l6.8-7.3c0.9-0.9,1.6-1.8,2.3-2.6c0.7-0.7,1.3-1.5,1.8-2.3c0.5-0.7,0.9-1.5,1.2-2.3
				c0.3-0.8,0.4-1.6,0.4-2.5c0.1-0.9-0.3-1.7-0.9-2.3c-0.7-0.6-1.5-0.9-2.4-0.8c-1.1,0-2.1,0.3-3,0.8c-1.1,0.6-2.1,1.3-3,2.2
				l-3.3-3.9c0.6-0.5,1.2-1.1,1.9-1.6c1.4-1.1,3-1.8,4.7-2.2c1-0.2,2.1-0.4,3.1-0.3c1.3,0,2.5,0.2,3.7,0.6c1,0.3,2,0.9,2.8,1.6
				c0.8,0.7,1.4,1.6,1.8,2.6c0.4,1.1,0.6,2.2,0.6,3.4c0,1.1-0.2,2.2-0.6,3.3s-1,2.1-1.6,3c-0.7,1-1.5,2-2.4,3s-1.9,2-2.9,3l-3.5,3.5
				v0.3h11.8L88.6,171L88.6,171z"/>
			<path class="st6" d="M113.9,148.5c0,0.9-0.2,1.8-0.5,2.7c-0.3,0.8-0.8,1.5-1.3,2.1c-0.6,0.6-1.2,1.1-2,1.5s-1.6,0.7-2.5,0.9v0.1
				c1.9,0.1,3.8,0.9,5.3,2.1c1.2,1.2,1.9,2.9,1.8,4.6c0,1.2-0.2,2.4-0.7,3.5s-1.2,2-2.1,2.8c-1.1,0.8-2.3,1.5-3.6,1.9
				c-1.6,0.5-3.3,0.7-5.1,0.7c-1.5,0-2.9-0.1-4.4-0.4c-1.3-0.2-2.6-0.6-3.8-1.2v-5.2c0.6,0.3,1.2,0.6,1.9,0.8c0.6,0.2,1.3,0.4,2,0.6
				c0.6,0.2,1.3,0.3,1.9,0.4c0.6,0.1,1.2,0.1,1.8,0.1c1,0,1.9-0.1,2.8-0.3c0.7-0.2,1.3-0.5,1.8-0.9c0.4-0.4,0.8-0.8,1-1.4
				c0.2-0.6,0.3-1.2,0.3-1.8s-0.1-1.1-0.4-1.6s-0.7-0.9-1.2-1.2c-0.7-0.4-1.4-0.6-2.1-0.8c-1.1-0.2-2.2-0.3-3.3-0.3h-2.1V154h2
				c1,0,2-0.1,3-0.3c0.7-0.2,1.4-0.5,1.9-0.9c0.5-0.3,0.8-0.8,1-1.3s0.3-1.1,0.3-1.6c0-0.9-0.3-1.8-1-2.4c-0.9-0.7-2-1-3-0.9
				c-0.6,0-1.2,0.1-1.8,0.2c-1,0.2-1.9,0.6-2.8,1.1c-0.4,0.2-0.7,0.5-1.1,0.7l-3.1-4.1c0.6-0.4,1.2-0.8,1.8-1.1
				c0.7-0.4,1.4-0.7,2.1-0.9c0.8-0.3,1.6-0.5,2.5-0.6s1.9-0.2,2.8-0.2c1.3,0,2.6,0.1,3.9,0.5c1.1,0.3,2.1,0.7,3,1.3
				c0.8,0.6,1.5,1.3,1.9,2.2C113.6,146.5,113.9,147.5,113.9,148.5z"/>
			<path class="st6" d="M124.4,171l10.3-23.8h-13.3v-5.1h20v3.8L130.8,171H124.4z"/>
			<path class="st6" d="M196.3,49.4h-6.1V36.9h-11.5v12.5h-6.1v-29h6.1v11.3h11.5V20.4h6.1V49.4z"/>
			<path class="st6" d="M224.3,49.4h-16.7v-29h16.7v5h-10.5v6.4h9.8v5h-9.8v7.5h10.5V49.4z"/>
			<path class="st6" d="M257.8,49.4h-7l-6.8-11l-6.7,10.9h-6.6l9.6-14.9l-9-14h6.8l6.2,10.4l6.1-10.4h6.6l-9,14.4L257.8,49.4z"/>
			<path class="st6" d="M189.1,95l-0.9,4.6h4.9v4.1h-5.6l-1.2,6.5h-4.4l1.2-6.5h-3.8l-1.2,6.5h-4.3l1.2-6.5h-4.4v-4.1h5.2l0.9-4.6
				H172v-4.1h5.4l1.2-6.3h4.3l-1.2,6.3h3.9l1.2-6.3h4.3l-1.2,6.3h4.5V95H189.1z M180,99.6h3.9l0.9-4.6h-3.9L180,99.6z"/>
			<path class="st6" d="M220.3,110.2h-16.7v-29h16.7v5h-10.5v6.4h9.8v5h-9.8v7.5h10.5V110.2z"/>
			<path class="st6" d="M254.4,95.4c0,4.8-1.4,8.4-4.1,10.9c-2.7,2.5-6.6,3.8-11.7,3.8h-8.2V81.2h9.1c4.7,0,8.4,1.2,11,3.7
				C253.1,87.5,254.4,90.9,254.4,95.4z M248,95.6c0-6.2-2.7-9.3-8.2-9.3h-3.3v18.8h2.6C245,105.1,248,101.9,248,95.6L248,95.6z"/>
			<path class="st6" d="M281.1,110.2h-16.7v-29h16.7v5h-10.5v6.4h9.8v5h-9.8v7.5h10.5V110.2z"/>
			<path class="st6" d="M315.2,95.4c0,4.8-1.4,8.4-4.1,10.9s-6.6,3.8-11.7,3.8h-8.2V81.2h9.1c4.7,0,8.4,1.2,11,3.7
				C313.9,87.5,315.2,90.9,315.2,95.4z M308.8,95.6c0-6.2-2.7-9.3-8.2-9.3h-3.3v18.8h2.6C305.9,105.1,308.8,101.9,308.8,95.6
				L308.8,95.6z"/>
			<path class="st6" d="M341.9,110.2h-16.7v-29h16.7v5h-10.5v6.4h9.8v5h-9.8v7.5h10.5V110.2z"/>
			<path class="st6" d="M376,95.4c0,4.8-1.4,8.4-4.1,10.9s-6.6,3.8-11.7,3.8H352V81.2h9.1c4.7,0,8.4,1.2,11,3.7
				C374.7,87.5,376,90.9,376,95.4z M369.6,95.6c0-6.2-2.7-9.3-8.2-9.3h-3.3v18.8h2.6C366.7,105.1,369.6,101.9,369.6,95.6L369.6,95.6
				z"/>
		</g>
	</g>
</g>
</svg>
