<svg xmlns="http://www.w3.org/2000/svg" width="980" height="410" viewBox="0 0 980 410"><title>colour1_1</title><g id="Layer_2" data-name="Layer 2"><g id="Layer_1-2" data-name="Layer 1"><rect width="980" height="410" fill="#3accb0"/><path d="M194.0766,61.58a8.3359,8.3359,0,0,1,6.2241-2.5q5.0544,0,7.3921,3.3516a7.3043,7.3043,0,0,1,1.3862,3.7773h-4.23a5.77,5.77,0,0,0-1.0366-2.1978,4.5934,4.5934,0,0,0-6.9165.543,9.0892,9.0892,0,0,0-1.3052,5.2676,7.976,7.976,0,0,0,1.3774,5.1025,4.3151,4.3151,0,0,0,3.5,1.6968,3.9649,3.9649,0,0,0,3.3188-1.4561,6.387,6.387,0,0,0,1.0479-2.3491h4.2031a9.12,9.12,0,0,1-2.7788,5.3848,8.0874,8.0874,0,0,1-5.7275,2.0737,8.5956,8.5956,0,0,1-6.7944-2.8018,11.2946,11.2946,0,0,1-2.4731-7.72Q191.2636,64.4513,194.0766,61.58Z" fill="#fff"/><path d="M205.5737,104.7875h6.0874v20.2466h-3.9419V111.3393q0-.59.0137-1.6548t.0137-1.6416L203.91,125.0341h-4.1113l-3.81-16.9912q0,.5771.0137,1.6416t.0137,1.6548v13.6948h-3.9419V104.7875H198.23l3.6855,15.92Z" fill="#fff"/><path d="M203.6947,150.1093h4.7935l-6.7715,12.6548v7.5918h-4.231v-7.5918l-7.0049-12.6548h4.9858l4.2031,8.8184Z" fill="#fff"/><path d="M192.2114,195.4315h4.1621v8.3423l7.8223-8.3423h5.4668l-8.3086,8.3267,8.7349,11.92h-5.44l-6.2378-8.8379-2.0376,2.0659v6.772h-4.1621Z" fill="#fff"/><path d="M255.0175,64.8085a1.9985,1.9985,0,0,0-.3706-1.0576,2.15,2.15,0,0,0-1.9092-.9341,2.8228,2.8228,0,0,0-2.72,2.1426,13.2838,13.2838,0,0,0-.6045,3.4893,4.391,4.391,0,0,1,1.6895-1.2637,6.1844,6.1844,0,0,1,6.5449,1.4009,6.4392,6.4392,0,0,1,1.6968,4.6016,7.7682,7.7682,0,0,1-1.6621,4.9175,6.1451,6.1451,0,0,1-5.1646,2.1289,5.9432,5.9432,0,0,1-5.5493-3.1455,12.8216,12.8216,0,0,1-1.3877-6.3462,28.8218,28.8218,0,0,1,.1924-3.7085,11.3463,11.3463,0,0,1,1.3325-4.23,6.8163,6.8163,0,0,1,2.2319-2.3213,6.0221,6.0221,0,0,1,3.3037-.8794,6.54,6.54,0,0,1,4.4229,1.4219,5.4088,5.4088,0,0,1,1.8545,3.7842Zm-4.6426,11.2222a2.7609,2.7609,0,0,0,2.1978,1.0166,2.4418,2.4418,0,0,0,2.0537-.9824,4.0874,4.0874,0,0,0,.7485-2.5479,3.8153,3.8153,0,0,0-.8516-2.6719,2.727,2.727,0,0,0-2.0879-.9268,2.7879,2.7879,0,0,0-1.772.604,3.421,3.421,0,0,0-1.1538,2.8848A3.9077,3.9077,0,0,0,250.3749,76.0307Z" fill="#fff"/><path d="M275.1425,75.4262H272.89v4.2856h-3.8325V75.4262h-7.8843v-3.42l7.3213-12.0879H272.89V72.3632h2.2524Zm-6.085-3.063V63.7846l-4.9712,8.5786Z" fill="#fff"/><path d="M285.5356,68.6132a5.1143,5.1143,0,1,1,1.4907-3.6123A4.9141,4.9141,0,0,1,285.5356,68.6132Zm-2.0737-2.0674a2.1879,2.1879,0,1,0-1.5454.6392A2.104,2.104,0,0,0,283.4618,66.5458Zm9.6216-6.751h2.08L284.07,80.2338h-2.126ZM298.88,78.6132A5.1072,5.1072,0,1,1,300.3774,75,4.9244,4.9244,0,0,1,298.88,78.6132Zm-2.0674-5.1582A2.1891,2.1891,0,1,0,297.4516,75,2.1051,2.1051,0,0,0,296.8129,73.455Z" fill="#fff"/><path d="M257.7856,107.6581a15.5,15.5,0,0,1,1.5313,7.61,15.4154,15.4154,0,0,1-1.5312,7.5957q-1.5322,2.6653-5.3364,2.665t-5.3364-2.665a15.4149,15.4149,0,0,1-1.5317-7.5957,15.5,15.5,0,0,1,1.5317-7.61q1.5315-2.6785,5.3364-2.6782T257.7856,107.6581Zm-7.644,12.8638a2.267,2.267,0,0,0,2.3076,1.82,2.2363,2.2363,0,0,0,2.2871-1.82,19.4538,19.4538,0,0,0,.5425-5.2539,19.24,19.24,0,0,0-.5425-5.33,2.2166,2.2166,0,0,0-2.2871-1.73,2.2484,2.2484,0,0,0-2.3076,1.73,18.55,18.55,0,0,0-.5635,5.33A18.7555,18.7555,0,0,0,250.1415,120.5219Z" fill="#fff"/><path d="M269.8061,113.9354a5.1143,5.1143,0,1,1,1.4907-3.6123A4.9141,4.9141,0,0,1,269.8061,113.9354Zm-2.0737-2.0674a2.1879,2.1879,0,1,0-1.5454.6392A2.104,2.104,0,0,0,267.7323,111.8681Zm9.6216-6.751h2.08L268.34,125.556h-2.126Zm5.7969,18.8184a5.1072,5.1072,0,1,1,1.4971-3.6128A4.9244,4.9244,0,0,1,283.1508,123.9354Zm-2.0674-5.1582a2.1891,2.1891,0,1,0,.6387,1.5454A2.1051,2.1051,0,0,0,281.0834,118.7772Z" fill="#fff"/><path d="M259.413,166.07h-2.2524v4.2856h-3.8325V166.07h-7.8843v-3.42l7.3213-12.0879h4.3955v12.4448h2.2524Zm-6.085-3.063v-8.5786l-4.9712,8.5786Z" fill="#fff"/><path d="M262.2309,166.4413a11.07,11.07,0,0,1,3.9561-4.2173,29.0259,29.0259,0,0,0,3.5024-2.7744,4.1,4.1,0,0,0,1.2227-2.8569,3.1641,3.1641,0,0,0-.7007-2.1016,2.8562,2.8562,0,0,0-4.4365.4941,6.6079,6.6079,0,0,0-.4395,2.4453H261.53a9.6053,9.6053,0,0,1,.9214-4.1069q1.5674-2.981,5.5688-2.981a7.0652,7.0652,0,0,1,5.0322,1.7515,6.0528,6.0528,0,0,1,1.87,4.6357,6.2687,6.2687,0,0,1-1.3213,3.9287,13.149,13.149,0,0,1-2.8486,2.541l-1.5688,1.1123q-1.4722,1.0444-2.0151,1.5112a4.4222,4.4222,0,0,0-.9131,1.085H274.95v3.4478H261.31A9.3607,9.3607,0,0,1,262.2309,166.4413Z" fill="#fff"/><path d="M285.5356,159.2572a5.1143,5.1143,0,1,1,1.4907-3.6123A4.9141,4.9141,0,0,1,285.5356,159.2572Zm-2.0737-2.0674a2.1879,2.1879,0,1,0-1.5454.6392A2.104,2.104,0,0,0,283.4618,157.19Zm9.6216-6.751h2.08L284.07,170.8778h-2.126Zm5.7969,18.8184a5.1072,5.1072,0,1,1,1.4971-3.6128A4.9244,4.9244,0,0,1,298.88,169.2572Zm-2.0674-5.1582a2.1891,2.1891,0,1,0,.6387,1.5454A2.1051,2.1051,0,0,0,296.8129,164.099Z" fill="#fff"/><path d="M257.7856,198.3021a19.64,19.64,0,0,1,0,15.2056q-1.5322,2.6653-5.3364,2.665t-5.3364-2.665a19.6341,19.6341,0,0,1,0-15.2056q1.5315-2.6785,5.3364-2.6782T257.7856,198.3021Zm-7.644,12.8638a2.267,2.267,0,0,0,2.3076,1.82,2.2363,2.2363,0,0,0,2.2871-1.82,19.4538,19.4538,0,0,0,.5425-5.2539,19.24,19.24,0,0,0-.5425-5.33,2.2166,2.2166,0,0,0-2.2871-1.73,2.2484,2.2484,0,0,0-2.3076,1.73,18.55,18.55,0,0,0-.5635,5.33A18.7555,18.7555,0,0,0,250.1415,211.1659Z" fill="#fff"/><path d="M269.8061,204.5795a5.1143,5.1143,0,1,1,1.4907-3.6123A4.9141,4.9141,0,0,1,269.8061,204.5795Zm-2.0737-2.0674a2.1879,2.1879,0,1,0-1.5454.6392A2.104,2.104,0,0,0,267.7323,202.5121Zm9.6216-6.751h2.08L268.34,216.2h-2.126Zm5.7969,18.8184a5.1072,5.1072,0,1,1,1.4971-3.6128A4.9244,4.9244,0,0,1,283.1508,214.5795Zm-2.0674-5.1582a2.1891,2.1891,0,1,0,.6387,1.5454A2.1051,2.1051,0,0,0,281.0834,209.4213Z" fill="#fff"/><path d="M463,59.9872a4.9993,4.9993,0,0,1,1.895,1.4146,6.3058,6.3058,0,0,1,1.0181,1.7036,5.6753,5.6753,0,0,1,.375,2.1289,6.07,6.07,0,0,1-.7275,2.8364,4.0715,4.0715,0,0,1-2.4038,1.9712,3.7819,3.7819,0,0,1,1.9849,1.6,6.669,6.669,0,0,1,.5835,3.166v1.36a10.2067,10.2067,0,0,0,.1118,1.8818,1.687,1.687,0,0,0,.7813,1.1538v.5083h-4.67q-.1926-.6731-.2749-1.085a9.94,9.94,0,0,1-.1782-1.7446L461.4677,75a3.8272,3.8272,0,0,0-.6694-2.5825,3.4124,3.4124,0,0,0-2.41-.6455h-4.1318v7.9395h-4.1348V59.4652h9.6846A8.8211,8.8211,0,0,1,463,59.9872Zm-8.7441,2.9946v5.439h4.5527a4.8465,4.8465,0,0,0,2.0352-.33,2.2776,2.2776,0,0,0,1.2-2.28,2.5557,2.5557,0,0,0-1.1611-2.4722,4.1913,4.1913,0,0,0-1.9565-.3569Z" fill="#fff"/><path d="M463.6376,111.1059a3.964,3.964,0,0,0-2.3486-2.8979,5.7689,5.7689,0,0,0-2.3213-.4536,5.0457,5.0457,0,0,0-4.0181,1.8442q-1.5725,1.8442-1.5728,5.5449,0,3.7295,1.7036,5.2783a5.5982,5.5982,0,0,0,3.8735,1.5493,5.0232,5.0232,0,0,0,3.4888-1.2217,5.2751,5.2751,0,0,0,1.6758-3.2012h-4.6841v-3.3794h8.4341v10.8652h-2.8022l-.4258-2.5273a9.7073,9.7073,0,0,1-2.1978,2.0239,7.7588,7.7588,0,0,1-4.1206,1.0254,8.5626,8.5626,0,0,1-6.5933-2.7866,10.6227,10.6227,0,0,1-2.6787-7.66,11.2361,11.2361,0,0,1,2.7061-7.8794,9.2244,9.2244,0,0,1,7.1563-2.9648,9.3524,9.3524,0,0,1,6.2017,1.9575,7.2771,7.2771,0,0,1,2.6855,4.8828Z" fill="#fff"/><path d="M465.1259,152.266a5.1478,5.1478,0,0,1,.9292,3.09,4.5067,4.5067,0,0,1-.9375,2.98,4.8354,4.8354,0,0,1-1.5444,1.1538,4.5128,4.5128,0,0,1,2.3389,1.7856,5.3586,5.3586,0,0,1,.7886,2.9673,5.921,5.921,0,0,1-.9014,3.228,5.5718,5.5718,0,0,1-3.7212,2.6094,13.9953,13.9953,0,0,1-2.8613.2749h-9.1226V150.1093h9.7847Q463.582,150.1642,465.1259,152.266Zm-10.9932,1.36V158.09h4.92a4.0662,4.0662,0,0,0,2.1411-.5015,1.9119,1.9119,0,0,0,.8228-1.7788,1.8131,1.8131,0,0,0-1.0874-1.8677,7.6159,7.6159,0,0,0-2.3926-.3159Zm0,7.8154v5.3979h4.915a4.7738,4.7738,0,0,0,2.05-.3569,2.5489,2.5489,0,0,0,1.3311-2.5273,2.1748,2.1748,0,0,0-1.29-2.17,5.12,5.12,0,0,0-2.0234-.3433Z" fill="#fff"/><path d="M507.2284,74.3822a3.7824,3.7824,0,0,0,.8906,1.9712,2.52,2.52,0,0,0,1.9185.6938,2.5875,2.5875,0,0,0,2.2134-1.0234,4.2005,4.2005,0,0,0,.76-2.5757,4.4808,4.4808,0,0,0-.7124-2.5752,2.4938,2.4938,0,0,0-2.22-1.0508A3.82,3.82,0,0,0,508.8456,70a2.4547,2.4547,0,0,0-1.3843,1.2227l-3.5093-.1646L505.35,60.056H516.308V63.38h-8.1338l-.7129,4.3545a8.202,8.202,0,0,1,1.4131-.7832,5.9776,5.9776,0,0,1,2.0713-.3159,6.0088,6.0088,0,0,1,6.145,6.4971,7.5888,7.5888,0,0,1-1.77,4.9312,6.4328,6.4328,0,0,1-5.2969,2.17,7.03,7.03,0,0,1-4.6655-1.5249,5.9241,5.9241,0,0,1-2.0308-4.3267Z" fill="#fff"/><path d="M519.8144,71.1542a4.8114,4.8114,0,0,1,2.2183-2.0464,4.6509,4.6509,0,0,1-1.8818-2.0811,5.81,5.81,0,0,1-.4346-2.0947,4.8846,4.8846,0,0,1,1.6382-3.7017,7.75,7.75,0,0,1,9.251,0,4.8846,4.8846,0,0,1,1.6382,3.7017,5.8366,5.8366,0,0,1-.4326,2.0947,4.0023,4.0023,0,0,1-1.875,1.9438,5.5348,5.5348,0,0,1,2.2217,2.1836,6.2154,6.2154,0,0,1,.7451,3.0356,5.6755,5.6755,0,0,1-1.8633,4.2788,7.2649,7.2649,0,0,1-5.2041,1.7651,6.7511,6.7511,0,0,1-5.06-1.7651,5.9059,5.9059,0,0,1-1.7187-4.2788A6.1338,6.1338,0,0,1,519.8144,71.1542Zm4.0708,5.0552a3.1489,3.1489,0,0,0,4.2168,0,3.8141,3.8141,0,0,0-.0137-4.5947,3.172,3.172,0,0,0-4.1895,0,3.816,3.816,0,0,0-.0137,4.5947Zm.249-9.0659a2.4644,2.4644,0,0,0,1.8525.687,2.4363,2.4363,0,0,0,1.8525-.687,2.4635,2.4635,0,0,0,.6543-1.772,2.5242,2.5242,0,0,0-.6543-1.8472,2.4784,2.4784,0,0,0-1.8525-.6665,2.3122,2.3122,0,0,0-2.5205,2.5137A2.4342,2.4342,0,0,0,524.1342,67.1434Z" fill="#fff"/><path d="M504.3852,121.12a11.07,11.07,0,0,1,3.9561-4.2173,29.0259,29.0259,0,0,0,3.5024-2.7744,4.1,4.1,0,0,0,1.2227-2.8569,3.1641,3.1641,0,0,0-.7007-2.1016,2.8562,2.8562,0,0,0-4.4365.4941,6.6079,6.6079,0,0,0-.4395,2.4453h-3.8052a9.6053,9.6053,0,0,1,.9214-4.1069q1.5674-2.981,5.5688-2.981a7.0652,7.0652,0,0,1,5.0322,1.7515,6.0528,6.0528,0,0,1,1.87,4.6357,6.2687,6.2687,0,0,1-1.3213,3.9287,13.149,13.149,0,0,1-2.8486,2.541l-1.5688,1.1123q-1.4722,1.0444-2.0151,1.5112a4.4222,4.4222,0,0,0-.9131,1.085h8.6943v3.4478h-13.64A9.3607,9.3607,0,0,1,504.3852,121.12Z" fill="#fff"/><path d="M531.3989,107.6581a15.5,15.5,0,0,1,1.5313,7.61,15.4154,15.4154,0,0,1-1.5312,7.5957q-1.5322,2.6653-5.3364,2.665t-5.3364-2.665a15.4149,15.4149,0,0,1-1.5317-7.5957,15.5,15.5,0,0,1,1.5317-7.61q1.5315-2.6785,5.3364-2.6782T531.3989,107.6581Zm-7.644,12.8638a2.267,2.267,0,0,0,2.3076,1.82,2.2363,2.2363,0,0,0,2.2871-1.82,19.4538,19.4538,0,0,0,.5425-5.2539,19.24,19.24,0,0,0-.5425-5.33,2.2166,2.2166,0,0,0-2.2871-1.73,2.2484,2.2484,0,0,0-2.3076,1.73,18.55,18.55,0,0,0-.5635,5.33A18.7555,18.7555,0,0,0,523.7548,120.5219Z" fill="#fff"/><path d="M548.7558,120.7484h-2.2524v4.2856h-3.8325v-4.2856h-7.8843v-3.42l7.3213-12.0879h4.3955v12.4448h2.2524Zm-6.085-3.063v-8.5786L537.7,117.6854Z" fill="#fff"/><path d="M504.5365,156.62v-2.6646a17.2882,17.2882,0,0,0,2.5894-.2476,3.6491,3.6491,0,0,0,1.918-1.0439,3.4415,3.4415,0,0,0,.7676-1.4282,3.3019,3.3019,0,0,0,.15-.7969h3.269v19.917H509.22V156.62Z" fill="#fff"/><path d="M533.15,153.7631a24.7669,24.7669,0,0,0-2.45,3.0835,25.37,25.37,0,0,0-4.1421,9.1138,18.7814,18.7814,0,0,0-.6743,4.3955h-4.0659a23.9221,23.9221,0,0,1,3.52-11.14,26.291,26.291,0,0,1,3.6152-5H519.03l.0547-3.5161H533.15Z" fill="#fff"/><path d="M544.36,155.4525a1.9985,1.9985,0,0,0-.3706-1.0576,2.15,2.15,0,0,0-1.9092-.9341,2.8228,2.8228,0,0,0-2.72,2.1426,13.2838,13.2838,0,0,0-.6045,3.4893,4.391,4.391,0,0,1,1.6895-1.2637,6.1844,6.1844,0,0,1,6.5449,1.4009,6.4392,6.4392,0,0,1,1.6968,4.6016,7.7682,7.7682,0,0,1-1.6621,4.9175,6.1451,6.1451,0,0,1-5.1646,2.1289,5.9432,5.9432,0,0,1-5.5493-3.1455,12.8216,12.8216,0,0,1-1.3877-6.3462,28.8218,28.8218,0,0,1,.1924-3.7085,11.3463,11.3463,0,0,1,1.3325-4.23,6.8163,6.8163,0,0,1,2.2319-2.3213,6.0221,6.0221,0,0,1,3.3037-.8794,6.54,6.54,0,0,1,4.4229,1.4219,5.4088,5.4088,0,0,1,1.8545,3.7842Zm-4.6426,11.2222a2.7609,2.7609,0,0,0,2.1978,1.0166,2.4418,2.4418,0,0,0,2.0537-.9824,4.0874,4.0874,0,0,0,.7485-2.5479,3.8153,3.8153,0,0,0-.8516-2.6719,2.727,2.727,0,0,0-2.0879-.9268,2.7879,2.7879,0,0,0-1.772.604,3.421,3.421,0,0,0-1.1538,2.8848A3.9077,3.9077,0,0,0,539.7177,166.6747Z" fill="#fff"/><path d="M663.3281,79.7118V59.4652h4.2031v7.72h7.8706v-7.72h4.2031V79.7118h-4.2031V70.6737h-7.8706v9.0381Z" fill="#fff"/><path d="M706.6274,63.05H695.9135V67.35h9.835v3.5166h-9.835v5.2056H707.122v3.64H691.7792V59.4652h14.8481Z" fill="#fff"/><path d="M721.6376,79.7118H716.72l6.5107-10.3154-6.1948-9.9312h5.0552l3.6108,6.5938,3.71-6.5937h4.89l-6.1948,9.7661,6.58,10.48H729.55l-3.8472-6.9033Z" fill="#fff"/><path d="M661.8271,117.246h2.78l1.0874-4.0249h-2.7905l.6143-2.2935h2.7959l1.5-5.5493h2.7319l-1.5,5.5493h2.248l1.4878-5.5493h2.73l-1.4883,5.5493h2.7925l-.6147,2.2935H673.41L672.33,117.246h2.7944l-.6138,2.2939h-2.7959l-1.4731,5.4941h-2.73l1.4731-5.4941h-2.2661l-1.4849,5.4941h-2.7314l1.4844-5.4941h-2.7744Zm7.7729,0,1.0791-4.0249h-2.2529l-1.0874,4.0249Z" fill="#fff"/><path d="M681.53,118.9218a4.4874,4.4874,0,0,0,.3838,1.978,2.627,2.627,0,0,0,2.59,1.4419,2.8665,2.8665,0,0,0,2.0073-.79,2.9388,2.9388,0,0,0,.8564-2.2734,2.5612,2.5612,0,0,0-1.5884-2.6235,8.0448,8.0448,0,0,0-2.8481-.3706v-2.8022a7.3583,7.3583,0,0,0,2.6558-.3711,2.2917,2.2917,0,0,0,1.3-2.335,2.6158,2.6158,0,0,0-.6646-1.8545,2.4283,2.4283,0,0,0-1.87-.7139,2.3635,2.3635,0,0,0-2.0342.8789,3.7364,3.7364,0,0,0-.6235,2.3486h-3.6538a9.8366,9.8366,0,0,1,.5078-2.8154,6.34,6.34,0,0,1,1.5093-2.1567,5.2584,5.2584,0,0,1,1.8247-1.0713,7.8833,7.8833,0,0,1,2.5938-.3711,6.9005,6.9005,0,0,1,4.6035,1.4766,4.9214,4.9214,0,0,1,1.749,3.9629,4.3806,4.3806,0,0,1-1.0439,2.9668,3.562,3.562,0,0,1-1.3735,1.03,2.8266,2.8266,0,0,1,1.5386.92,4.9147,4.9147,0,0,1,1.4971,3.791,6.3873,6.3873,0,0,1-1.75,4.4434,6.6645,6.6645,0,0,1-5.18,1.9165q-4.2261,0-5.873-2.7612a8.2,8.2,0,0,1-.96-3.8457Z" fill="#fff"/><path d="M700.6044,104.7875h4.7866l7.1636,20.2466h-4.5879l-1.3359-4.1621h-7.4561l-1.3726,4.1621h-4.4253Zm-.2788,12.5957h5.1851l-2.5576-7.9668Z" fill="#fff"/><path d="M717.1479,106.9027a8.3359,8.3359,0,0,1,6.2241-2.5q5.0544,0,7.3921,3.3516a7.3043,7.3043,0,0,1,1.3862,3.7773h-4.23a5.77,5.77,0,0,0-1.0366-2.1978,4.5934,4.5934,0,0,0-6.9165.543,9.0892,9.0892,0,0,0-1.3052,5.2676,7.976,7.976,0,0,0,1.3774,5.1025,4.3151,4.3151,0,0,0,3.5,1.6968,3.9649,3.9649,0,0,0,3.3188-1.4561,6.387,6.387,0,0,0,1.0479-2.3491h4.2031a9.12,9.12,0,0,1-2.7788,5.3848,8.0874,8.0874,0,0,1-5.7275,2.0737,8.5956,8.5956,0,0,1-6.7944-2.8018,11.2946,11.2946,0,0,1-2.4731-7.72Q714.3349,109.7736,717.1479,106.9027Z" fill="#fff"/><path d="M737.5478,106.9027a8.3359,8.3359,0,0,1,6.2241-2.5q5.0544,0,7.3921,3.3516a7.3043,7.3043,0,0,1,1.3862,3.7773h-4.23a5.77,5.77,0,0,0-1.0366-2.1978,4.5934,4.5934,0,0,0-6.9165.543,9.0892,9.0892,0,0,0-1.3052,5.2676,7.976,7.976,0,0,0,1.3774,5.1025,4.3151,4.3151,0,0,0,3.5,1.6968,3.9649,3.9649,0,0,0,3.3188-1.4561,6.387,6.387,0,0,0,1.0479-2.3491h4.2031a9.12,9.12,0,0,1-2.7788,5.3848,8.0874,8.0874,0,0,1-5.7275,2.0737,8.5956,8.5956,0,0,1-6.7944-2.8018,11.2946,11.2946,0,0,1-2.4731-7.72Q734.7348,109.7736,737.5478,106.9027Z" fill="#fff"/><path d="M771.1137,106.9442a5.1478,5.1478,0,0,1,.9292,3.09,4.5067,4.5067,0,0,1-.9375,2.98,4.8354,4.8354,0,0,1-1.5444,1.1538,4.5128,4.5128,0,0,1,2.3389,1.7856,5.3586,5.3586,0,0,1,.7886,2.9673,5.921,5.921,0,0,1-.9014,3.228,5.5718,5.5718,0,0,1-3.7212,2.6094,13.9953,13.9953,0,0,1-2.8613.2749H756.082V104.7875h9.7847Q769.57,104.8424,771.1137,106.9442Zm-10.9932,1.36v4.4639h4.92a4.0662,4.0662,0,0,0,2.1411-.5015,1.9119,1.9119,0,0,0,.8228-1.7788,1.8131,1.8131,0,0,0-1.0874-1.8677,7.6159,7.6159,0,0,0-2.3926-.3159Zm0,7.8154v5.3979h4.915a4.7738,4.7738,0,0,0,2.05-.3569,2.5489,2.5489,0,0,0,1.3311-2.5273,2.1748,2.1748,0,0,0-1.29-2.17,5.12,5.12,0,0,0-2.0234-.3433Z" fill="#fff"/><path d="M787.3539,107.6581a15.5,15.5,0,0,1,1.5313,7.61,15.4154,15.4154,0,0,1-1.5312,7.5957q-1.5322,2.6653-5.3364,2.665t-5.3364-2.665a15.4149,15.4149,0,0,1-1.5317-7.5957,15.5,15.5,0,0,1,1.5317-7.61q1.5315-2.6785,5.3364-2.6782T787.3539,107.6581Zm-7.644,12.8638a2.267,2.267,0,0,0,2.3076,1.82,2.2363,2.2363,0,0,0,2.2871-1.82,19.4538,19.4538,0,0,0,.5425-5.2539,19.24,19.24,0,0,0-.5425-5.33,2.2166,2.2166,0,0,0-2.2871-1.73,2.2484,2.2484,0,0,0-2.3076,1.73,18.55,18.55,0,0,0-.5635,5.33A18.7555,18.7555,0,0,0,779.71,120.5219Z" fill="#fff"/><rect y="358.5718" width="196" height="51.4282" fill="#fff" opacity="0.2"/><rect x="196" y="358.5718" width="196" height="51.4282" fill="#fff" opacity="0.4"/><rect x="392" y="358.5718" width="196" height="51.4282" fill="#fff" opacity="0.6"/><rect x="588" y="358.5718" width="196" height="51.4282" fill="#fff" opacity="0.8"/><rect x="784" y="358.5718" width="196" height="51.4282" fill="#fff"/></g></g></svg>