<?xml version="1.0" encoding="utf-8"?>
<!-- Generator: Adobe Illustrator 21.0.2, SVG Export Plug-In . SVG Version: 6.00 Build 0)  -->
<svg version="1.1" id="Layer_1" xmlns="http://www.w3.org/2000/svg" xmlns:xlink="http://www.w3.org/1999/xlink" x="0px" y="0px"
	 viewBox="0 0 402 401" style="enable-background:new 0 0 402 401;" xml:space="preserve">
<style type="text/css">
	.st0{fill:#7F507B;}
	.st1{opacity:0.2;fill:#FFFFFF;enable-background:new    ;}
	.st2{opacity:0.4;fill:#FFFFFF;enable-background:new    ;}
	.st3{opacity:0.6;fill:#FFFFFF;enable-background:new    ;}
	.st4{opacity:0.8;fill:#FFFFFF;enable-background:new    ;}
	.st5{fill:#FFFFFF;}
</style>
<title>colour2_2</title>
<g id="Layer_2">
	<path class="st0" d="M392.5,401H12c-5.5,0-10-4.5-10-10V10C2,4.5,6.5,0,12,0h380.5c5.5,0,10,4.5,10,10v381
		C402.5,396.5,398,401,392.5,401z"/>
	<g id="Layer_1-2">
		<rect x="2" y="350.8" class="st1" width="80" height="50.2"/>
		<rect x="82" y="350.8" class="st2" width="80" height="50.2"/>
		<rect x="162" y="350.8" class="st3" width="80" height="50.2"/>
		<rect x="242" y="350.8" class="st4" width="80" height="50.2"/>
		<rect x="322" y="350.7" class="st5" width="80.5" height="50.5"/>
		<g>
			<path class="st5" d="M33.9,39.3V51h-6.5V20.4h8.9c4.2,0,7.2,0.8,9.2,2.3s3,3.8,3,6.9c0,1.7-0.5,3.4-1.5,4.8
				c-1.1,1.5-2.5,2.6-4.2,3.3l9,13.3h-7.2l-7.3-11.7C37.3,39.3,33.9,39.3,33.9,39.3z M33.9,34H36c1.6,0.1,3.2-0.2,4.5-1
				c1-0.8,1.6-2,1.5-3.2c0.1-1.2-0.5-2.4-1.5-3.1c-1.4-0.7-3-1-4.6-0.9h-2V34z"/>
			<path class="st5" d="M39,98.2h12.1v15.9c-1.8,0.6-3.7,1.1-5.6,1.4c-1.8,0.3-3.5,0.4-5.3,0.4c-4.6,0-8.1-1.4-10.6-4.1
				C27.2,109,26,105.1,26,100c0-4.9,1.4-8.8,4.2-11.6S37,84.3,42,84.3c3.1,0,6.2,0.6,9.1,1.9l-2.2,5.2c-2.2-1.1-4.5-1.7-7-1.7
				c-2.6-0.1-5,0.9-6.7,2.8c-1.8,2.1-2.7,4.8-2.5,7.6c0,3.3,0.7,5.9,2,7.6c1.4,1.8,3.6,2.8,5.9,2.6c1.4,0,2.8-0.1,4.1-0.4v-6.4H39
				V98.2z"/>
			<path class="st5" d="M27.4,149.1h9.5c4.3,0,7.5,0.6,9.5,1.9c2,1.3,3.1,3.5,2.9,5.9c0.1,1.6-0.4,3.2-1.3,4.5
				c-0.8,1.1-2,1.9-3.4,2.1v0.2c1.7,0.3,3.1,1.1,4.2,2.4c0.9,1.4,1.4,3.1,1.3,4.7c0.1,2.5-1,5-3,6.5c-2,1.6-4.8,2.3-8.2,2.3H27.4
				V149.1z M33.9,161.2h3.8c1.3,0.1,2.7-0.2,3.8-0.8c0.8-0.6,1.3-1.7,1.2-2.7c0.1-1-0.4-2-1.3-2.5c-1.3-0.6-2.7-0.9-4.1-0.8h-3.4
				V161.2z M33.9,166.4v8h4.2c1.4,0.1,2.8-0.3,4-1c0.9-0.8,1.4-2,1.3-3.1c0-2.5-1.8-3.8-5.4-3.8L33.9,166.4L33.9,166.4z"/>
			<path class="st5" d="M87.1,51.1h-6.5V33.3c0-0.4,0-0.8,0-1.3s0-1,0-1.6s0-1.1,0.1-1.7c0-0.6,0-1.1,0.1-1.5
				c-0.1,0.1-0.2,0.2-0.4,0.4c-0.2,0.2-0.3,0.4-0.6,0.6c-0.2,0.2-0.4,0.4-0.6,0.6s-0.4,0.4-0.6,0.6L75,32.2l-3.1-3.9l9.9-7.9h5.3
				C87.1,20.4,87.1,51.1,87.1,51.1z"/>
			<path class="st5" d="M120.1,51.1H99.6v-4.5l7.2-7.8c0.9-1,1.7-1.9,2.5-2.7c0.7-0.8,1.3-1.6,1.9-2.4c0.5-0.7,0.9-1.5,1.2-2.4
				c0.3-0.8,0.4-1.7,0.4-2.6c0.1-0.9-0.3-1.8-0.9-2.4c-0.7-0.6-1.6-0.9-2.5-0.9c-1.1,0-2.2,0.3-3.2,0.8c-1.1,0.7-2.2,1.4-3.2,2.3
				l-3.5-4.2c0.6-0.6,1.3-1.1,2-1.6c1.5-1.1,3.2-1.9,5-2.4c1-0.2,2.2-0.3,3.3-0.3c1.3,0,2.7,0.2,3.9,0.6c1.1,0.4,2.1,1,3,1.7
				c0.8,0.8,1.5,1.7,1.9,2.7c0.5,1.1,0.7,2.4,0.7,3.6s-0.2,2.3-0.6,3.4s-1,2.2-1.7,3.2c-0.8,1.1-1.6,2.2-2.5,3.1c-1,1-2,2.1-3.1,3.2
				l-3.7,3.7v0.3h12.5v5.6C120.2,51.1,120.1,51.1,120.1,51.1z"/>
			<path class="st5" d="M130.1,51.1L141,25.9h-14.1v-5.4H148v4.1l-11.2,26.5H130.1z"/>
			<path class="st5" d="M81.8,84.4c1.2,0,2.4,0.1,3.6,0.5c1.1,0.3,2.1,0.7,3,1.4c0.8,0.6,1.5,1.4,2,2.3c0.5,1,0.8,2.1,0.8,3.2
				c0,0.9-0.1,1.7-0.4,2.5c-0.3,0.7-0.7,1.4-1.2,2s-1.1,1.2-1.7,1.6c-0.7,0.5-1.4,0.9-2.2,1.3c0.8,0.4,1.6,0.9,2.4,1.4
				s1.4,1.1,2.1,1.8c0.6,0.7,1.1,1.4,1.4,2.2c0.4,0.9,0.6,1.8,0.5,2.8c0,1.2-0.2,2.4-0.8,3.5c-0.5,1-1.2,1.9-2.1,2.6
				c-1,0.8-2.1,1.3-3.3,1.7c-1.4,0.4-2.8,0.6-4.2,0.6c-1.5,0-3-0.2-4.4-0.6c-1.2-0.3-2.3-0.9-3.2-1.6s-1.6-1.6-2-2.6
				c-0.5-1.1-0.7-2.3-0.7-3.4c0-1.8,0.6-3.6,1.7-5.1c0.5-0.7,1.2-1.3,1.9-1.8c0.7-0.5,1.5-1,2.3-1.4C76.7,99,76,98.5,75.4,98
				s-1.1-1.1-1.6-1.7c-0.4-0.6-0.8-1.3-1-2.1c-0.3-0.8-0.4-1.6-0.4-2.5c0-1.1,0.2-2.2,0.8-3.2c0.5-0.9,1.2-1.7,2.1-2.3
				c0.9-0.6,1.9-1.1,3-1.4S80.6,84.4,81.8,84.4z M77.5,107.2c0,0.5,0.1,1,0.3,1.5c0.2,0.5,0.4,0.9,0.8,1.2c0.4,0.4,0.8,0.6,1.3,0.8
				c0.6,0.2,1.2,0.3,1.8,0.3c1.2,0.1,2.4-0.3,3.3-1c0.7-0.7,1.1-1.7,1.1-2.7c0-0.5-0.1-1.1-0.4-1.6s-0.6-0.9-0.9-1.3
				c-0.4-0.4-0.8-0.8-1.3-1.1c-0.5-0.3-1-0.7-1.5-1l-0.5-0.3c-0.6,0.3-1.1,0.6-1.7,1c-0.5,0.3-0.9,0.7-1.3,1.2
				c-0.4,0.4-0.6,0.9-0.8,1.4C77.6,106.1,77.5,106.7,77.5,107.2z M81.8,89.1c-0.4,0-0.9,0.1-1.3,0.2s-0.7,0.3-1,0.6
				c-0.3,0.3-0.5,0.6-0.7,1s-0.3,0.9-0.3,1.3c0,0.5,0.1,1,0.3,1.5c0.2,0.4,0.4,0.8,0.7,1.1c0.3,0.3,0.7,0.6,1,0.9
				c0.4,0.3,0.8,0.5,1.3,0.8c0.4-0.2,0.8-0.5,1.2-0.7c0.4-0.3,0.7-0.6,1-0.9s0.5-0.7,0.7-1.2s0.3-1,0.3-1.5s-0.1-0.9-0.3-1.3
				c-0.2-0.4-0.4-0.7-0.7-1c-0.3-0.3-0.7-0.5-1-0.6C82.6,89.2,82.2,89.1,81.8,89.1z"/>
			<path class="st5" d="M120.2,100.1c0,2.2-0.2,4.4-0.6,6.6c-0.3,1.7-0.9,3.4-1.8,4.9c-0.8,1.3-1.9,2.4-3.3,3.1
				c-1.5,0.7-3.2,1.1-4.8,1.1c-1.6,0-3.2-0.3-4.6-1.1c-1.3-0.7-2.5-1.8-3.3-3.1c-0.9-1.5-1.6-3.2-1.9-4.9c-0.4-2.2-0.7-4.4-0.6-6.6
				c0-2.2,0.2-4.4,0.6-6.6c0.3-1.8,0.9-3.4,1.8-5c0.8-1.3,1.9-2.4,3.2-3.1c1.5-0.8,3.1-1.1,4.8-1.1c1.6,0,3.2,0.3,4.6,1.1
				c1.3,0.7,2.5,1.8,3.3,3.1c0.9,1.5,1.6,3.2,2,5C120,95.6,120.2,97.8,120.2,100.1z M105.6,100.1c-0.1,2.7,0.2,5.3,0.9,7.9
				c0.6,1.8,1.6,2.6,3.1,2.6s2.5-0.9,3.1-2.6c0.7-2.6,1.1-5.2,1-7.9c0.1-2.7-0.2-5.3-1-7.9c-0.6-1.8-1.7-2.6-3.1-2.6
				c-0.7,0-1.4,0.2-1.9,0.7c-0.6,0.5-1,1.2-1.2,2c-0.4,1.1-0.6,2.2-0.7,3.3C105.7,97,105.6,98.5,105.6,100.1z"/>
			<path class="st5" d="M87.1,179.7h-6.5V162c0-0.4,0-0.8,0-1.3s0-1,0-1.6s0-1.1,0.1-1.7c0-0.6,0-1.1,0.1-1.5
				c-0.1,0.1-0.2,0.2-0.4,0.4c-0.2,0.2-0.4,0.4-0.6,0.6c-0.2,0.2-0.4,0.4-0.6,0.6s-0.4,0.4-0.6,0.6l-3.5,2.8L72,157l9.9-7.9h5.3
				L87.1,179.7z"/>
			<path class="st5" d="M120.1,179.7H99.6v-4.5l7.2-7.8c0.9-1,1.7-1.9,2.5-2.7c0.7-0.8,1.3-1.6,1.9-2.4c0.5-0.7,0.9-1.5,1.2-2.4
				c0.3-0.8,0.4-1.7,0.4-2.6c0.1-0.9-0.3-1.8-0.9-2.4c-0.7-0.6-1.6-0.9-2.5-0.9c-1.1,0-2.2,0.3-3.2,0.8c-1.2,0.6-2.2,1.4-3.2,2.3
				l-3.5-4.2c0.6-0.6,1.3-1.1,2-1.6c1.5-1.1,3.2-1.9,5-2.4c1.1-0.3,2.2-0.4,3.3-0.4c1.3,0,2.7,0.2,3.9,0.6c1.1,0.4,2.1,1,3,1.7
				c0.8,0.8,1.5,1.7,1.9,2.7c0.5,1.1,0.7,2.4,0.7,3.6c0,1.2-0.2,2.3-0.6,3.4c-0.4,1.1-1,2.2-1.7,3.2c-0.8,1.1-1.6,2.2-2.5,3.1
				c-1,1-2,2.1-3.1,3.2l-3.7,3.7v0.3h12.5v5.7L120.1,179.7L120.1,179.7z"/>
			<path class="st5" d="M146.8,155.9c0,1-0.2,1.9-0.5,2.9c-0.3,0.8-0.8,1.6-1.4,2.2c-0.6,0.6-1.3,1.2-2.1,1.6
				c-0.8,0.4-1.7,0.8-2.6,1v0.1c2.1,0.1,4,0.9,5.6,2.3c1.3,1.3,2,3,1.9,4.8c0,1.3-0.2,2.5-0.7,3.7s-1.3,2.2-2.2,3
				c-1.1,0.9-2.4,1.6-3.8,2c-1.7,0.5-3.5,0.7-5.3,0.7c-1.6,0-3.1-0.1-4.6-0.4c-1.4-0.3-2.8-0.7-4.1-1.2V173c0.6,0.3,1.3,0.6,2,0.9
				c0.7,0.2,1.4,0.5,2.1,0.6c0.7,0.2,1.4,0.3,2.1,0.4c0.6,0.1,1.3,0.1,1.9,0.1c1,0,2-0.1,3-0.3c0.7-0.2,1.3-0.5,1.9-0.9
				c0.5-0.4,0.8-0.9,1-1.5s0.3-1.2,0.3-1.9c0-0.6-0.1-1.2-0.4-1.7s-0.7-1-1.3-1.3c-0.7-0.4-1.5-0.7-2.3-0.8
				c-1.1-0.2-2.3-0.3-3.5-0.3h-2.2v-4.5h2.1c1.1,0,2.2-0.1,3.2-0.3c0.7-0.2,1.4-0.5,2-0.9c0.5-0.4,0.9-0.8,1.1-1.4
				c0.2-0.5,0.3-1.1,0.3-1.7c0.1-1-0.3-1.9-1-2.6c-0.9-0.7-2.1-1-3.2-0.9c-0.6,0-1.3,0.1-1.9,0.2c-1,0.2-2,0.6-3,1.2
				c-0.4,0.2-0.8,0.5-1.1,0.7l-3.3-4.3c0.6-0.4,1.2-0.8,1.9-1.2s1.5-0.7,2.3-1c0.9-0.3,1.7-0.5,2.6-0.6c1-0.2,2-0.2,3-0.2
				c1.4,0,2.8,0.2,4.1,0.5c1.1,0.3,2.2,0.8,3.2,1.4c0.9,0.6,1.6,1.4,2,2.3C146.6,153.8,146.9,154.9,146.8,155.9z"/>
			<path class="st5" d="M206.1,51.1h-6.5V37.8h-12.1V51H181V20.4h6.5v12h12.1v-12h6.5V51.1z"/>
			<path class="st5" d="M235.8,51.1h-17.6V20.4h17.6v5.3h-11.1v6.7H235v5.3h-10.4v7.9h11.1L235.8,51.1L235.8,51.1z"/>
			<path class="st5" d="M271.2,51.1h-7.4l-7.1-11.6l-7.1,11.6h-7l10.2-15.8l-9.5-14.8h7.2l6.6,11l6.5-11h7L261,35.7L271.2,51.1z"/>
			<path class="st5" d="M198.5,99.3l-1,4.9h5.1v4.3h-5.9l-1.3,6.9h-4.6l1.3-6.9H188l-1.3,6.9h-4.5l1.2-6.9h-4.7v-4.3h5.5l1-4.9h-5
				v-4.4h5.8l1.3-6.7h4.6l-1.3,6.7h4.1l1.3-6.7h4.5l-1.3,6.7h4.8v4.4H198.5z M188.9,104.2h4.1l1-4.9h-4.1L188.9,104.2z"/>
			<path class="st5" d="M214.3,115.4l10.9-25.1h-14.1v-5.4h21.1V89L221,115.5L214.3,115.4L214.3,115.4z"/>
			<path class="st5" d="M248.1,115.4h-6.4V84.8h17.5v5.3H248V98h10.4v5.3H248L248.1,115.4L248.1,115.4z"/>
			<path class="st5" d="M278.3,95.8c1.2,0,2.5,0.2,3.7,0.6c1.1,0.4,2.1,1,3,1.8s1.5,1.8,2,2.9c0.5,1.3,0.7,2.6,0.7,4
				c0,1.5-0.2,3-0.8,4.5c-0.5,1.3-1.3,2.4-2.3,3.3c-1.1,1-2.4,1.7-3.7,2.1c-1.7,0.5-3.4,0.8-5.1,0.7c-0.8,0-1.5,0-2.3-0.1
				s-1.5-0.2-2.2-0.3c-0.7-0.1-1.3-0.3-2-0.5c-0.6-0.2-1.1-0.4-1.7-0.7v-5.6c0.5,0.3,1.1,0.6,1.7,0.8c0.7,0.2,1.3,0.5,2,0.6
				c0.7,0.2,1.4,0.3,2.1,0.4s1.3,0.2,2,0.2c1.5,0.1,3-0.3,4.3-1.2c1-0.9,1.6-2.3,1.5-3.7c0.1-1.3-0.4-2.6-1.4-3.4
				c-1.3-0.9-2.9-1.3-4.4-1.2c-0.4,0-0.8,0-1.2,0.1c-0.4,0-0.8,0.1-1.2,0.2s-0.8,0.1-1.1,0.2c-0.4,0.1-0.7,0.2-0.9,0.2l-2.6-1.4
				l1.2-15.6h16.2v5.5h-10.6l-0.5,6c0.4-0.1,1-0.2,1.6-0.3C276.7,95.9,277.5,95.8,278.3,95.8z"/>
			<path class="st5" d="M315.9,100.1c0,2.2-0.2,4.4-0.6,6.6c-0.3,1.7-0.9,3.4-1.8,4.9c-0.8,1.3-1.9,2.4-3.3,3.1
				c-1.5,0.7-3.2,1.1-4.8,1.1c-1.6,0-3.2-0.3-4.6-1.1c-1.3-0.7-2.5-1.8-3.3-3.1c-0.9-1.5-1.6-3.2-1.9-4.9c-0.4-2.2-0.7-4.4-0.6-6.6
				c0-2.2,0.2-4.4,0.6-6.6c0.3-1.8,0.9-3.4,1.8-5c0.8-1.3,1.9-2.4,3.2-3.1c1.5-0.8,3.1-1.1,4.8-1.1c1.6,0,3.2,0.3,4.6,1.1
				c1.3,0.7,2.5,1.8,3.3,3.1c0.9,1.5,1.6,3.2,2,5C315.7,95.6,316,97.8,315.9,100.1z M301.4,100.1c-0.1,2.7,0.2,5.3,0.9,7.9
				c0.6,1.8,1.6,2.6,3.1,2.6s2.5-0.9,3.1-2.6c0.7-2.6,1.1-5.2,1-7.9c0.1-2.7-0.2-5.3-1-7.9c-0.6-1.8-1.7-2.6-3.1-2.6
				c-0.7,0-1.4,0.2-1.9,0.7c-0.6,0.5-1,1.2-1.2,2c-0.4,1.1-0.6,2.2-0.7,3.3C301.5,97,301.4,98.5,301.4,100.1z"/>
			<path class="st5" d="M325.9,115.4l10.9-25.1h-14.1v-5.4h21.1V89l-11.2,26.5L325.9,115.4z"/>
			<path class="st5" d="M353.3,84.8h9.5c4.3,0,7.5,0.6,9.5,1.9s3.1,3.5,2.9,5.9c0.1,1.6-0.4,3.2-1.3,4.5c-0.8,1.1-2,1.9-3.4,2.1v0.2
				c1.7,0.3,3.1,1.1,4.2,2.4c0.9,1.4,1.4,3.1,1.3,4.7c0.1,2.5-1,5-3,6.5c-2,1.6-4.8,2.3-8.2,2.3h-11.5V84.8z M359.8,96.9h3.8
				c1.3,0.1,2.7-0.2,3.8-0.8c0.8-0.6,1.3-1.7,1.2-2.7c0.1-1-0.4-2-1.3-2.5c-1.3-0.6-2.7-0.9-4.1-0.8h-3.4V96.9z M359.8,102v8h4.2
				c1.4,0.1,2.8-0.3,4-1c0.9-0.8,1.4-2,1.3-3.1c0-2.5-1.8-3.8-5.4-3.8L359.8,102L359.8,102z"/>
		</g>
	</g>
</g>
</svg>
