<?xml version="1.0" encoding="utf-8"?>
<!-- Generator: Adobe Illustrator 21.0.2, SVG Export Plug-In . SVG Version: 6.00 Build 0)  -->
<svg version="1.1" id="Layer_1" xmlns="http://www.w3.org/2000/svg" xmlns:xlink="http://www.w3.org/1999/xlink" x="0px" y="0px"
	 viewBox="0 0 402 401" style="enable-background:new 0 0 402 401;" xml:space="preserve">
<style type="text/css">
	.st0{fill:#3ACCB0;}
	.st1{opacity:0.2;fill:#FFFFFF;enable-background:new    ;}
	.st2{opacity:0.4;fill:#FFFFFF;enable-background:new    ;}
	.st3{opacity:0.6;fill:#FFFFFF;enable-background:new    ;}
	.st4{opacity:0.8;fill:#FFFFFF;enable-background:new    ;}
	.st5{fill:#FFFFFF;}
</style>
<title>colour1_2</title>
<g id="Layer_2">
	<g id="Layer_1-2">
		<rect x="2" y="1" class="st0" width="400" height="400"/>
		<rect x="2" y="350.8" class="st1" width="80" height="50.2"/>
		<rect x="82" y="350.8" class="st2" width="80" height="50.2"/>
		<rect x="162" y="350.8" class="st3" width="80" height="50.2"/>
		<rect x="242" y="350.8" class="st4" width="80" height="50.2"/>
		<rect x="322" y="350.7" class="st5" width="80.5" height="50.5"/>
		<path class="st5" d="M7.6,18.6v11.3H1.3V0.4h8.6c4,0,7,0.7,8.9,2.2s2.9,3.7,2.9,6.7c0,1.7-0.5,3.3-1.4,4.6c-1,1.4-2.4,2.5-4.1,3.2
			l8.7,12.9h-6.9l-7-11.3L7.6,18.6z M7.6,13.5h2c1.5,0.1,3.1-0.2,4.4-1c1-0.7,1.5-1.9,1.4-3.1c0.1-1.2-0.4-2.3-1.4-3
			c-1.4-0.7-2.9-1-4.5-0.9H7.6V13.5z"/>
		<path class="st5" d="M12.5,75.3h11.7v15.3c-1.7,0.6-3.5,1-5.4,1.3c-1.7,0.3-3.4,0.4-5.1,0.4c-4.5,0-7.9-1.3-10.2-3.9S0,82,0,77.1
			c0-4.8,1.4-8.5,4.1-11.1s6.5-4,11.3-4c3,0,6,0.6,8.8,1.8l-2.1,5c-2.1-1.1-4.4-1.6-6.7-1.6c-2.5-0.1-4.8,0.9-6.5,2.7
			c-1.7,2-2.6,4.7-2.4,7.3c0,3.2,0.7,5.6,2,7.3c1.4,1.7,3.5,2.7,5.7,2.5c1.3,0,2.7-0.1,4-0.4v-6.2h-5.6V75.3z"/>
		<path class="st5" d="M1.3,124.4h9.2c4.2,0,7.2,0.6,9.1,1.8c1.9,1.2,3,3.4,2.8,5.7c0.1,1.5-0.4,3.1-1.2,4.3c-0.8,1.1-2,1.8-3.3,2
			v0.2c1.6,0.3,3,1.1,4,2.3c0.9,1.4,1.3,2.9,1.2,4.6c0.1,2.4-1,4.8-2.9,6.3c-2.3,1.6-5.1,2.4-7.9,2.3h-11V124.4z M7.6,136.1h3.6
			c1.3,0.1,2.6-0.2,3.7-0.8c0.8-0.6,1.2-1.6,1.1-2.6c0.1-1-0.4-1.9-1.2-2.4c-1.2-0.6-2.6-0.8-3.9-0.7H7.6V136.1z M7.6,141.1v7.7h4.1
			c1.3,0.1,2.7-0.2,3.8-1c0.9-0.8,1.3-1.9,1.2-3c0-2.4-1.7-3.7-5.2-3.7H7.6z"/>
		<path class="st5" d="M53.9,11c1.2,0,2.4,0.2,3.5,0.6c1.1,0.4,2,1,2.8,1.7c0.8,0.8,1.5,1.7,1.9,2.8c0.5,1.2,0.7,2.5,0.7,3.9
			c0,1.5-0.2,2.9-0.7,4.3c-0.5,1.2-1.2,2.3-2.2,3.2c-1,0.9-2.3,1.6-3.6,2c-1.6,0.5-3.3,0.7-4.9,0.7c-0.7,0-1.5,0-2.2-0.1
			c-0.7-0.1-1.4-0.2-2.1-0.3c-0.6-0.1-1.3-0.3-1.9-0.5c-0.6-0.2-1.1-0.4-1.6-0.7v-5.4c0.5,0.3,1.1,0.5,1.6,0.8
			c0.6,0.2,1.3,0.4,1.9,0.6c0.7,0.2,1.3,0.3,2,0.4c0.6,0.1,1.3,0.1,1.9,0.2c1.5,0.1,2.9-0.3,4.1-1.1c1-0.9,1.5-2.2,1.4-3.6
			c0.1-1.3-0.4-2.5-1.4-3.3c-1.3-0.9-2.8-1.3-4.3-1.1c-0.4,0-0.7,0-1.1,0.1c-0.4,0-0.8,0.1-1.2,0.2c-0.4,0.1-0.8,0.1-1.1,0.2
			c-0.3,0.1-0.7,0.2-0.9,0.2l-2.5-1.3l1.1-15h15.6v5.3H50.7l-0.5,5.8c0.4-0.1,0.9-0.2,1.5-0.3C52.4,11.1,53.2,11,53.9,11z"/>
		<path class="st5" d="M80.1,0c1.2,0,2.3,0.1,3.5,0.4c1,0.3,2,0.7,2.9,1.3c0.8,0.6,1.5,1.3,2,2.2c0.5,1,0.8,2,0.7,3.1
			c0,0.8-0.1,1.6-0.4,2.4c-0.3,0.7-0.6,1.4-1.1,2c-0.5,0.6-1,1.1-1.7,1.6c-0.7,0.5-1.4,0.9-2.1,1.3c0.8,0.4,1.6,0.9,2.3,1.4
			c0.7,0.5,1.4,1.1,2,1.7c0.6,0.6,1,1.4,1.4,2.1c0.4,0.8,0.5,1.7,0.5,2.7c0,1.2-0.2,2.3-0.7,3.3c-0.5,1-1.2,1.9-2,2.5
			c-0.9,0.7-2,1.3-3.1,1.6c-1.3,0.4-2.7,0.6-4,0.6c-1.4,0-2.9-0.2-4.2-0.5c-1.1-0.3-2.2-0.8-3.1-1.6c-0.8-0.7-1.5-1.5-1.9-2.5
			c-0.5-1-0.7-2.2-0.7-3.3c0-1.8,0.6-3.5,1.7-4.9c0.5-0.7,1.1-1.2,1.8-1.7c0.7-0.5,1.4-0.9,2.2-1.3c-0.7-0.4-1.3-0.9-1.9-1.4
			c-0.6-0.5-1.1-1-1.5-1.6c-0.4-0.6-0.8-1.3-1-2c-0.3-0.8-0.4-1.6-0.4-2.4C71.1,6,71.3,5,71.8,4c0.5-0.9,1.2-1.6,2-2.2
			c0.9-0.6,1.9-1.1,2.9-1.3C77.8,0.1,79,0,80.1,0z M76,22c0,0.5,0.1,1,0.3,1.5c0.2,0.4,0.4,0.8,0.8,1.2c0.4,0.3,0.8,0.6,1.3,0.8
			c0.6,0.2,1.2,0.3,1.8,0.3c1.1,0.1,2.3-0.3,3.2-1c0.7-0.7,1.1-1.6,1.1-2.6c0-0.5-0.1-1.1-0.4-1.5c-0.2-0.5-0.5-0.9-0.9-1.3
			c-0.4-0.4-0.8-0.8-1.3-1.1c-0.5-0.3-0.9-0.6-1.4-0.9L79.9,17c-0.6,0.3-1.1,0.6-1.6,1c-0.5,0.3-0.9,0.7-1.2,1.1
			c-0.3,0.4-0.6,0.9-0.8,1.3C76.1,21,76,21.5,76,22z M80.1,4.6c-0.4,0-0.8,0.1-1.2,0.2c-0.4,0.1-0.7,0.3-1,0.6
			c-0.3,0.3-0.5,0.6-0.7,0.9C77.1,6.7,77,7.1,77,7.6c0,0.5,0.1,1,0.3,1.5c0.2,0.4,0.4,0.8,0.7,1.1c0.3,0.3,0.6,0.6,1,0.8
			c0.4,0.2,0.8,0.5,1.2,0.7c0.4-0.2,0.8-0.4,1.2-0.7c0.4-0.2,0.7-0.5,1-0.9C82.6,9.8,82.9,9.4,83,9c0.2-0.5,0.3-0.9,0.3-1.4
			c0-0.4-0.1-0.9-0.2-1.3c-0.2-0.4-0.4-0.7-0.7-0.9c-0.3-0.3-0.6-0.5-1-0.6C81,4.6,80.5,4.6,80.1,4.6z"/>
		<path class="st5" d="M63.3,91.9H43.5v-4.3l6.9-7.5c0.9-0.9,1.7-1.8,2.4-2.6c0.7-0.7,1.3-1.5,1.8-2.3c0.5-0.7,0.9-1.5,1.2-2.3
			c0.3-0.8,0.4-1.7,0.4-2.5c0.1-0.9-0.3-1.7-0.9-2.3c-0.7-0.6-1.5-0.9-2.4-0.8c-1.1,0-2.1,0.3-3.1,0.8c-1.1,0.6-2.2,1.4-3.1,2.2
			l-3.4-4c0.6-0.6,1.2-1.1,1.9-1.6c1.4-1.1,3.1-1.9,4.8-2.3c1.1-0.2,2.1-0.4,3.2-0.4c1.3,0,2.6,0.2,3.8,0.6c1.1,0.4,2,0.9,2.9,1.7
			c0.8,0.7,1.4,1.6,1.8,2.6c0.4,1.1,0.7,2.3,0.6,3.5c0,1.1-0.2,2.3-0.6,3.3c-0.4,1.1-1,2.1-1.7,3.1c-0.7,1.1-1.6,2.1-2.4,3
			c-0.9,1-1.9,2-3,3.1l-3.6,3.6v0.3h12V91.9z"/>
		<path class="st5" d="M90.2,77.2c0,2.1-0.2,4.3-0.6,6.4c-0.3,1.7-0.9,3.3-1.8,4.8c-0.8,1.3-1.9,2.3-3.1,3c-1.4,0.7-3,1.1-4.7,1
			c-1.6,0-3.1-0.3-4.5-1c-1.3-0.7-2.4-1.7-3.1-3c-0.9-1.5-1.5-3.1-1.9-4.8c-0.4-2.1-0.6-4.2-0.6-6.4c0-2.1,0.2-4.3,0.6-6.4
			c0.3-1.7,0.9-3.3,1.8-4.8c0.8-1.3,1.8-2.3,3.1-3c1.4-0.7,3-1.1,4.6-1c1.5,0,3.1,0.3,4.4,1c1.3,0.7,2.4,1.7,3.2,3
			c0.9,1.5,1.6,3.1,1.9,4.8C90.1,72.9,90.3,75,90.2,77.2z M76.2,77.2c-0.1,2.6,0.2,5.1,0.9,7.6c0.6,1.7,1.6,2.5,3,2.5
			c1.4,0,2.4-0.8,3-2.5c0.7-2.5,1-5,0.9-7.6c0.1-2.6-0.2-5.1-0.9-7.6c-0.6-1.7-1.6-2.6-3-2.6c-0.7,0-1.3,0.2-1.8,0.6
			c-0.6,0.5-1,1.2-1.2,1.9c-0.3,1-0.6,2.1-0.7,3.2C76.3,74.2,76.2,75.7,76.2,77.2L76.2,77.2z"/>
		<path class="st5" d="M117.6,85.8H114v6.1h-6.1v-6.1H95.7v-4.3l12.5-19.1h5.7V81h3.6L117.6,85.8z M107.9,81v-5c0-0.2,0-0.4,0-0.8
			s0-0.7,0-1.1c0-0.4,0-0.8,0.1-1.3c0-0.4,0-0.9,0.1-1.3c0-0.4,0-0.8,0.1-1.1c0-0.3,0-0.5,0.1-0.7H108c-0.2,0.6-0.5,1.2-0.8,1.8
			c-0.3,0.7-0.7,1.3-1,1.9l-4.9,7.5L107.9,81z"/>
		<path class="st5" d="M58.3,153.9h-6.2v-17.1c0-0.3,0-0.8,0-1.3c0-0.5,0-1,0-1.5c0-0.5,0-1.1,0.1-1.6s0-1,0-1.5
			c-0.1,0.1-0.2,0.2-0.3,0.4c-0.2,0.2-0.3,0.3-0.5,0.5s-0.4,0.4-0.6,0.6s-0.4,0.4-0.6,0.5l-3.4,2.7l-3-3.8l9.5-7.6h5.1L58.3,153.9z"
			/>
		<path class="st5" d="M72.9,153.9l10.5-24.2H69.9v-5.2h20.4v3.9l-10.8,25.6H72.9z"/>
		<path class="st5" d="M97.2,141.4c0-1.4,0.1-2.8,0.2-4.2c0.1-1.4,0.4-2.7,0.8-4c0.4-1.3,0.9-2.5,1.6-3.6c0.7-1.1,1.6-2.1,2.6-2.9
			c1.1-0.9,2.4-1.5,3.8-1.9c1.7-0.5,3.4-0.7,5.1-0.7c0.3,0,0.6,0,0.9,0s0.7,0,1,0.1c0.3,0,0.7,0.1,1,0.1c0.3,0,0.6,0.1,0.9,0.1v5
			c-0.5-0.1-1.1-0.2-1.6-0.3c-0.6-0.1-1.1-0.1-1.7-0.1c-1.5,0-3,0.2-4.5,0.7c-1.1,0.4-2,1-2.8,1.9c-0.7,0.8-1.2,1.8-1.5,2.9
			c-0.3,1.2-0.5,2.5-0.5,3.8h0.2c0.3-0.5,0.6-0.9,1-1.4c0.4-0.4,0.8-0.8,1.3-1.1c0.5-0.3,1.1-0.6,1.7-0.7c0.7-0.2,1.4-0.3,2.2-0.3
			c1.2,0,2.4,0.2,3.5,0.6c1,0.4,1.9,1,2.6,1.8c0.7,0.9,1.3,1.8,1.6,2.9c0.8,2.7,0.8,5.6-0.1,8.3c-0.4,1.2-1.1,2.3-1.9,3.2
			c-0.8,0.9-1.9,1.6-3,2c-1.3,0.5-2.6,0.7-4,0.7c-1.4,0-2.8-0.3-4.1-0.8c-1.3-0.5-2.4-1.3-3.3-2.4c-1-1.2-1.7-2.5-2.2-4
			C97.4,145.3,97.1,143.4,97.2,141.4z M107.4,149.4c0.5,0,1-0.1,1.5-0.3c0.5-0.2,0.9-0.5,1.2-0.9c0.4-0.5,0.6-1,0.8-1.6
			c0.2-0.8,0.3-1.5,0.3-2.3c0.1-1.2-0.2-2.4-0.9-3.4c-0.6-0.8-1.7-1.3-2.7-1.2c-0.6,0-1.2,0.1-1.7,0.4c-1,0.5-1.7,1.3-2.2,2.3
			c-0.2,0.5-0.3,1-0.3,1.5c0,0.7,0.1,1.4,0.3,2c0.2,0.6,0.4,1.3,0.8,1.8c0.3,0.5,0.8,1,1.3,1.3C106.2,149.2,106.8,149.4,107.4,149.4
			L107.4,149.4z"/>
		<path class="st5" d="M173.1,29.9h-6.2V17.2h-11.7v12.7h-6.3V0.4h6.3V12h11.7V0.4h6.2L173.1,29.9z"/>
		<path class="st5" d="M201.7,29.9h-17V0.4h17v5.1H191V12h10v5.1h-10v7.6h10.7L201.7,29.9z"/>
		<path class="st5" d="M235.8,29.9h-7.1l-6.9-11.2L215,29.9h-6.7l9.8-15.2l-9.2-14.3h6.9l6.4,10.6l6.2-10.6h6.7L225.9,15L235.8,29.9
			z"/>
		<path class="st5" d="M165.8,76.4l-0.9,4.7h4.9v4.2H164l-1.3,6.6h-4.4l1.3-6.6h-3.9l-1.2,6.6h-4.3l1.2-6.6h-4.5v-4.2h5.3l0.9-4.7
			h-4.8v-4.2h5.6l1.2-6.4h4.4l-1.2,6.4h4l1.2-6.4h4.3l-1.2,6.4h4.6v4.2H165.8z M156.5,81.1h4l0.9-4.7h-4L156.5,81.1z"/>
		<path class="st5" d="M197.2,69c0,0.9-0.2,1.9-0.5,2.8c-0.3,0.8-0.8,1.5-1.4,2.1c-0.6,0.6-1.3,1.1-2,1.5c-0.8,0.4-1.6,0.7-2.5,0.9
			v0.1c2,0.1,3.9,0.9,5.4,2.2c1.3,1.2,1.9,2.9,1.8,4.7c0,1.2-0.2,2.4-0.7,3.6c-0.5,1.1-1.2,2.1-2.1,2.9c-1.1,0.9-2.3,1.5-3.6,1.9
			c-1.7,0.5-3.4,0.7-5.2,0.7c-1.5,0-3-0.1-4.5-0.4c-1.3-0.2-2.7-0.6-3.9-1.2v-5.3c0.6,0.3,1.3,0.6,1.9,0.8c0.7,0.2,1.3,0.4,2,0.6
			c0.7,0.2,1.3,0.3,2,0.4c0.6,0.1,1.2,0.1,1.8,0.1c1,0,1.9-0.1,2.9-0.3c0.7-0.2,1.3-0.5,1.8-0.9c0.4-0.4,0.8-0.9,1-1.4
			c0.2-0.6,0.3-1.2,0.3-1.8c0-0.6-0.1-1.1-0.4-1.6c-0.3-0.5-0.7-1-1.2-1.3c-0.7-0.4-1.4-0.7-2.2-0.8c-1.1-0.2-2.2-0.3-3.3-0.3h-2.1
			v-4.4h2.1c1,0,2.1-0.1,3.1-0.3c0.7-0.2,1.4-0.5,2-0.9c0.5-0.3,0.8-0.8,1-1.3c0.2-0.5,0.3-1.1,0.3-1.6c0.1-0.9-0.3-1.8-1-2.5
			c-0.9-0.7-2-1-3.1-0.9c-0.6,0-1.2,0.1-1.8,0.2c-1,0.2-2,0.6-2.9,1.1c-0.4,0.2-0.8,0.5-1.1,0.7l-3.1-4.2c0.6-0.4,1.2-0.8,1.8-1.2
			c0.7-0.4,1.4-0.7,2.2-0.9c0.8-0.3,1.7-0.5,2.5-0.6c1-0.2,1.9-0.2,2.9-0.2c1.3,0,2.7,0.1,4,0.5c1.1,0.3,2.1,0.7,3.1,1.4
			c0.8,0.6,1.5,1.3,2,2.2C196.9,66.9,197.2,68,197.2,69z"/>
		<path class="st5" d="M225.6,91.9l-2.1-7h-10.8l-2.1,7h-6.7l10.4-29.6h7.7l10.5,29.6H225.6z M221.9,79.6c-2-6.4-3.1-10-3.3-10.8
			s-0.4-1.5-0.5-2c-0.4,1.7-1.7,6-3.8,12.8L221.9,79.6z"/>
		<path class="st5" d="M252.3,67.2c-2.2-0.1-4.2,0.9-5.5,2.7c-1.3,1.8-1.9,4.2-1.9,7.4c0,6.6,2.5,9.9,7.4,9.9
			c2.6-0.1,5.1-0.6,7.5-1.6v5.2c-2.6,1-5.3,1.6-8.1,1.5c-4.3,0-7.6-1.3-9.9-3.9s-3.4-6.3-3.4-11.2c-0.1-2.8,0.5-5.5,1.7-8.1
			c1-2.2,2.7-4.1,4.8-5.3c2.2-1.3,4.8-1.9,7.4-1.8c3,0,6,0.7,8.6,2.1l-2,5.1c-1.1-0.5-2.2-1-3.3-1.4
			C254.5,67.4,253.4,67.2,252.3,67.2z"/>
		<path class="st5" d="M282.4,67.2c-2.2-0.1-4.2,0.9-5.5,2.7c-1.3,1.8-1.9,4.2-1.9,7.4c0,6.6,2.5,9.9,7.4,9.9
			c2.6-0.1,5.1-0.6,7.5-1.6v5.2c-2.6,1-5.3,1.6-8.1,1.5c-4.3,0-7.6-1.3-9.9-3.9s-3.4-6.3-3.4-11.2c-0.1-2.8,0.5-5.5,1.7-8.1
			c1-2.2,2.7-4.1,4.8-5.3c2.2-1.3,4.8-1.9,7.4-1.8c3,0,6,0.7,8.6,2.1l-2,5.1c-1.1-0.5-2.2-1-3.3-1.4
			C284.6,67.4,283.5,67.2,282.4,67.2z"/>
		<path class="st5" d="M300.3,62.4h9.2c4.2,0,7.2,0.6,9.1,1.8c1.9,1.2,3,3.4,2.8,5.7c0.1,1.5-0.4,3.1-1.2,4.3c-0.8,1.1-2,1.8-3.3,2
			v0.2c1.6,0.3,3,1.1,4,2.3c0.9,1.4,1.3,2.9,1.2,4.6c0.1,2.4-1,4.8-2.9,6.3c-2.3,1.6-5.1,2.4-7.9,2.3h-11V62.4z M306.6,74.1h3.6
			c1.3,0.1,2.6-0.2,3.7-0.8c0.8-0.6,1.2-1.6,1.1-2.6c0.1-1-0.4-1.9-1.2-2.4c-1.2-0.6-2.6-0.8-3.9-0.7h-3.3V74.1z M306.6,79.1v7.7
			h4.1c1.3,0.1,2.7-0.2,3.8-1c0.9-0.8,1.3-1.9,1.2-3c0-2.4-1.7-3.7-5.2-3.7H306.6z"/>
		<path class="st5" d="M350,77.2c0,2.1-0.2,4.3-0.6,6.4c-0.3,1.7-0.9,3.3-1.8,4.8c-0.8,1.3-1.9,2.3-3.1,3c-1.4,0.7-3,1.1-4.7,1
			c-1.6,0-3.1-0.3-4.5-1c-1.3-0.7-2.4-1.7-3.1-3c-0.9-1.5-1.5-3.1-1.9-4.8c-0.4-2.1-0.6-4.2-0.6-6.4c0-2.1,0.2-4.3,0.6-6.4
			c0.3-1.7,0.9-3.3,1.8-4.8c0.8-1.3,1.8-2.3,3.1-3c1.4-0.7,3-1.1,4.6-1c1.5,0,3.1,0.3,4.4,1c1.3,0.7,2.4,1.7,3.2,3
			c0.9,1.5,1.6,3.1,1.9,4.8C349.8,72.9,350,75,350,77.2z M336,77.2c-0.1,2.6,0.2,5.1,0.9,7.6c0.6,1.7,1.6,2.5,3,2.5
			c1.4,0,2.4-0.8,3-2.5c0.7-2.5,1-5,0.9-7.6c0.1-2.6-0.2-5.1-0.9-7.6c-0.6-1.7-1.6-2.6-3-2.6c-0.7,0-1.3,0.2-1.8,0.6
			c-0.6,0.5-1,1.2-1.2,1.9c-0.3,1-0.6,2.1-0.7,3.2C336,74.2,336,75.7,336,77.2z"/>
	</g>
</g>
</svg>
