<svg xmlns="http://www.w3.org/2000/svg" width="77.7177" height="77.7177" viewBox="0 0 77.7177 77.7177"><title>icon</title><g id="Layer_2" data-name="Layer 2"><g id="Layer_1-2" data-name="Layer 1"><rect width="77.7177" height="77.7177" rx="10" ry="10" fill="#4874ce"/><path d="M37.88,49.6867H33.4272v7.6655H25.8123V49.6867h-15.28V44.2475l15.7105-23.882h7.1848v23.25H37.88ZM25.8123,43.615V37.3409q0-.3286.0126-.9487t.0379-1.4041q.025-.784.0632-1.6191t.0759-1.5938q.0379-.759.0759-1.3282t.0632-.8222h-.2277q-.4554,1.0625-1.0246,2.2516a25.519,25.519,0,0,1-1.3029,2.3781L17.4131,43.615Z" fill="#45fad6"/><path d="M56.6534,26.7145a7.7733,7.7733,0,0,0-6.6689,3.236Q47.622,33.1871,47.622,38.97q0,12.0336,9.0314,12.0336a28.5455,28.5455,0,0,0,9.179-1.8949v6.3982A25.491,25.491,0,0,1,55.94,57.3523q-7.8506,0-12.009-4.7618T39.7719,38.92a22.3206,22.3206,0,0,1,2.0425-9.8311,14.7631,14.7631,0,0,1,5.8692-6.4721,17.3617,17.3617,0,0,1,8.97-2.2517A24.2122,24.2122,0,0,1,67.1859,22.9L64.725,29.1016a40.8384,40.8384,0,0,0-4.06-1.6734A12.1236,12.1236,0,0,0,56.6534,26.7145Z" fill="#ef6998"/><polyline points="21.618 20.365 10.532 20.365 10.532 37.218" fill="#f8ba69"/></g></g></svg>