<?xml version="1.0" encoding="utf-8"?>
<!-- Generator: Adobe Illustrator 21.0.2, SVG Export Plug-In . SVG Version: 6.00 Build 0)  -->
<svg version="1.1" id="Layer_1" xmlns="http://www.w3.org/2000/svg" xmlns:xlink="http://www.w3.org/1999/xlink" x="0px" y="0px"
	 viewBox="0 0 600 410" style="enable-background:new 0 0 600 410;" xml:space="preserve">
<style type="text/css">
	.st0{fill:#1E1E1E;}
	.st1{fill:#EDEDED;}
</style>
<title>noto-sans</title>
<g id="Layer_2">
	<g id="Layer_1-2">
		<g id="Layer_2-2">
			<g id="Layer_1-2-2">
				<path class="st0" d="M588,410H12c-6.6,0-12-5.4-12-12V12C0,5.4,5.4,0,12,0h576c6.6,0,12,5.4,12,12v386
					C600,404.6,594.6,410,588,410z"/>
				<path class="st1" d="M84.6,205.1l-6.9-17.7H55.1l-6.8,17.7H41l22.3-57.3h6.5l22.3,57.3L84.6,205.1z M75.6,181l-6.4-17.3
					l-2.7-8.6c-0.8,3.1-1.6,6-2.5,8.6L57.5,181H75.6z"/>
				<path class="st1" d="M129.5,205.1l-1.4-6.1h-0.3c-1.7,2.3-3.9,4.2-6.4,5.4c-2.5,1-5.3,1.5-8,1.4c-4.2,0-7.5-1.1-9.9-3.3
					c-2.4-2.2-3.6-5.3-3.6-9.4c0-8.7,6.9-13.3,20.6-13.7l7.3-0.3v-2.5c0-3.3-0.7-5.7-2.1-7.2s-3.7-2.3-6.8-2.3c-2.2,0-4.4,0.3-6.4,1
					c-1.9,0.6-3.8,1.4-5.7,2.3l-2.1-5.3c2.2-1.2,4.6-2.1,7.1-2.7c2.5-0.6,5-1,7.6-1c5.2,0,9,1.1,11.6,3.4c2.5,2.3,3.8,5.9,3.8,10.9
					v29.2L129.5,205.1z M115,200.2c3.9,0,7-1.1,9.3-3.2c2.3-2.1,3.4-5.1,3.4-9v-3.9l-6.3,0.3c-4.9,0.2-8.5,1-10.8,2.3
					c-2.3,1.4-3.6,3.9-3.4,6.5c-0.1,1.9,0.6,3.8,2.1,5.2C110.8,199.7,112.9,200.3,115,200.2L115,200.2z"/>
				<path class="st1" d="M200,148c5.6,0,9.8,1.1,12.7,3.3s4.3,5.5,4.3,9.8c0.1,3.4-1.1,6.7-3.3,9.3c-2.5,2.7-5.9,4.4-9.5,4.9v0.4
					c2.7,0.6,5.1,2.1,6.8,4.3c1.6,2.1,2.4,4.7,2.4,7.3c0,5.5-2,9.8-5.9,13s-9.3,4.8-16.1,4.8h-18.2l12.1-57.1L200,148z M181.5,199
					h10.1c4.5,0,8-1,10.5-3c2.5-2,3.7-4.9,3.7-8.7c0.2-2.6-0.9-5.1-2.8-6.8c-1.9-1.6-4.6-2.3-8.1-2.3h-8.9L181.5,199z M187.2,172.3
					h9.4c4,0,7.1-0.9,9.5-2.8c2.3-1.8,3.6-4.6,3.5-7.6c0.1-2.2-0.8-4.4-2.4-5.8c-1.6-1.4-4.3-2-8-2H191L187.2,172.3z"/>
				<path class="st1" d="M243.4,205.9c-2.3,0-4.6-0.6-6.6-1.9c-2-1.3-3.5-3.2-4.4-5.4H232l-2.6,6.6h-5.3l12.9-60.8h7l-3,14.4
					c-0.5,2.3-1,4.7-1.7,7.2c-0.3,1.5-0.8,2.9-1.2,4.3h0.3c2-2.7,4.5-5,7.3-6.8c2.1-1.2,4.4-1.9,6.8-1.9c3.3-0.2,6.5,1.2,8.7,3.8
					c2.1,2.5,3.1,6.1,3.1,10.8c0,5.1-0.9,10.2-2.7,15c-1.5,4.2-4.1,8-7.4,10.9C251.1,204.5,247.3,205.9,243.4,205.9z M250.2,167.3
					c-2.5,0-5,1.2-7.5,3.7c-2.6,2.6-4.6,5.8-5.9,9.3c-1.4,3.5-2.1,7.3-2.2,11.2c-0.1,2.3,0.6,4.6,2.1,6.3c1.6,1.6,3.8,2.4,6.1,2.3
					c2.7-0.1,5.3-1.2,7.1-3.2c2.4-2.5,4.2-5.6,5.2-8.9c1.3-3.9,1.9-7.9,1.9-12C257,170.2,254.8,167.3,250.2,167.3L250.2,167.3z"/>
				<path class="st1" d="M328.4,157.2c-4.2-0.2-8.2,1.7-10.6,5.1c-2.5,3.4-3.8,8.2-3.8,14.3c0,12.7,4.8,19.1,14.3,19.1
					c4,0,8.9-1,14.6-3v10.2c-5,2-10.3,3-15.7,2.9c-8.3,0-14.7-2.5-19.1-7.6c-4.4-5-6.6-12.3-6.6-21.7c-0.1-5.4,1-10.7,3.2-15.6
					c2-4.3,5.2-7.9,9.3-10.3c4.3-2.5,9.3-3.7,14.2-3.6c5.8,0.1,11.5,1.4,16.7,4l-3.9,9.8c-2.1-1-4.3-1.9-6.4-2.7
					C332.7,157.6,330.6,157.3,328.4,157.2z"/>
				<path class="st1" d="M375.9,205.9c-13.6,0-20.4-7.5-20.4-22.4c0-7.4,1.8-13.1,5.5-17c3.7-3.9,9-5.9,15.9-5.9
					c4.7-0.1,9.4,0.9,13.6,3l-3.5,9.2c-1.9-0.8-3.6-1.4-5.2-1.9c-1.6-0.5-3.2-0.7-4.8-0.7c-6.2,0-9.3,4.4-9.3,13.2
					c0,8.5,3.1,12.8,9.3,12.8c2.2,0,4.3-0.3,6.4-0.9c2.1-0.7,4.1-1.6,5.9-2.9v10.2c-1.8,1.2-3.8,2-5.8,2.5
					C380.9,205.7,378.4,205.9,375.9,205.9z"/>
				<path class="st1" d="M453.8,205.1h-12.1v-33c0-0.7,0-1.5,0-2.4c0-1,0-1.9,0.1-3c0-1,0.1-2.1,0.1-3.1c0-1,0.1-2,0.1-2.9
					c-0.1,0.2-0.4,0.4-0.7,0.7c-0.3,0.3-0.7,0.7-1.1,1c-0.4,0.4-0.8,0.8-1.2,1.2c-0.4,0.4-0.8,0.7-1.2,1.1l-6.6,5.3l-5.9-7.3
					l18.4-14.6h9.9L453.8,205.1z"/>
				<path class="st1" d="M511.4,205.1h-38.3v-8.4l13.4-14.5c1.7-1.8,3.2-3.5,4.6-5c1.3-1.4,2.5-2.9,3.6-4.5c1-1.4,1.7-2.9,2.3-4.5
					c0.6-1.6,0.8-3.2,0.8-4.9c0.1-1.7-0.5-3.3-1.7-4.5c-1.3-1.1-3-1.7-4.7-1.6c-2.1,0-4.1,0.5-5.9,1.5c-2.2,1.2-4.2,2.7-6,4.3
					l-6.6-7.8c1.2-1.1,2.4-2.1,3.7-3.1c2.8-2.1,5.9-3.6,9.3-4.4c2-0.5,4.1-0.7,6.2-0.7c2.5,0,5,0.3,7.4,1.1c2.1,0.7,3.9,1.8,5.6,3.2
					c1.5,1.4,2.7,3.1,3.5,5.1c0.8,2.1,1.3,4.4,1.2,6.7c0,2.2-0.4,4.4-1.2,6.4c-0.8,2.1-1.9,4.1-3.2,6c-1.4,2.1-3,4-4.7,5.9
					c-1.8,1.9-3.7,3.9-5.7,5.9l-6.9,6.9v0.5h23.3L511.4,205.1z"/>
				<path class="st1" d="M557.3,160.8c0,1.8-0.3,3.6-1,5.3c-0.6,1.5-1.5,2.9-2.6,4.1c-1.1,1.2-2.4,2.2-3.9,3
					c-1.5,0.8-3.2,1.4-4.9,1.8v0.2c4.6,0.6,8.1,2,10.5,4.2c2.4,2.4,3.7,5.6,3.6,9c0,2.4-0.4,4.7-1.3,6.9c-0.9,2.1-2.3,4-4.1,5.5
					c-2.1,1.7-4.5,2.9-7,3.7c-3.2,0.9-6.6,1.4-10,1.3c-2.9,0-5.8-0.2-8.7-0.8c-2.6-0.5-5.2-1.3-7.6-2.3v-10.3
					c1.2,0.6,2.4,1.2,3.7,1.6c1.3,0.5,2.6,0.9,3.9,1.2c1.3,0.3,2.6,0.6,3.8,0.7c1.2,0.2,2.4,0.2,3.6,0.2c1.9,0,3.8-0.2,5.6-0.6
					c1.3-0.3,2.5-0.9,3.6-1.8c0.9-0.7,1.5-1.7,1.9-2.7c0.4-1.1,0.6-2.3,0.6-3.5c0-1.1-0.2-2.2-0.7-3.2c-0.5-1-1.4-1.8-2.3-2.4
					c-1.3-0.8-2.7-1.3-4.2-1.5c-2.1-0.4-4.3-0.6-6.4-0.5H529v-8.5h4c2,0,4-0.2,6-0.6c1.4-0.3,2.7-0.9,3.8-1.8c0.9-0.7,1.6-1.6,2-2.6
					c0.4-1,0.6-2.1,0.6-3.2c0.1-1.8-0.6-3.5-1.9-4.8c-1.3-1.1-3.3-1.7-6-1.7c-1.2,0-2.3,0.1-3.5,0.4c-1,0.2-2,0.5-3,0.9
					c-0.9,0.4-1.7,0.8-2.5,1.2c-0.8,0.5-1.5,0.9-2.1,1.3l-6.1-8c1.1-0.8,2.3-1.6,3.6-2.2c1.4-0.7,2.8-1.3,4.2-1.8
					c1.6-0.5,3.2-0.9,4.9-1.2c1.8-0.3,3.7-0.4,5.6-0.4c2.6,0,5.2,0.3,7.7,0.9c2.1,0.5,4.1,1.4,5.9,2.7c1.6,1.1,2.9,2.6,3.8,4.3
					C556.8,156.8,557.3,158.8,557.3,160.8z"/>
				<path class="st1" d="M51.9,245.1l-1.7-4.4h-5.7l-1.7,4.4H41l5.6-14.3h1.6l5.6,14.3H51.9z M49.7,239.1l-1.6-4.3l-0.7-2.1
					c-0.2,0.8-0.4,1.5-0.6,2.1l-1.6,4.3H49.7z"/>
				<path class="st1" d="M58.8,230.8h4.1c1.4-0.1,2.9,0.2,4.1,0.9c0.9,0.6,1.4,1.6,1.3,2.7c0,0.8-0.2,1.5-0.7,2.1
					c-0.5,0.6-1.2,1-2,1.1v0.1c0.9,0.1,1.8,0.5,2.4,1.1c0.5,0.6,0.8,1.4,0.8,2.3c0.1,1.1-0.4,2.3-1.3,3c-1.1,0.8-2.3,1.2-3.7,1.1h-5
					L58.8,230.8z M60.6,236.9h2.6c0.8,0.1,1.7-0.1,2.4-0.5c0.5-0.4,0.8-1.1,0.8-1.8c0.1-0.7-0.3-1.3-0.8-1.7
					c-0.8-0.4-1.7-0.6-2.6-0.5h-2.4L60.6,236.9z M60.6,238.4v5.2h2.9c0.9,0.1,1.8-0.2,2.5-0.7c0.6-0.5,0.9-1.2,0.8-2
					c0.1-0.7-0.3-1.5-0.9-1.9c-0.8-0.5-1.7-0.7-2.6-0.6L60.6,238.4z"/>
				<path class="st1" d="M80.9,232.2c-1.4-0.1-2.7,0.5-3.6,1.5c-0.9,1.2-1.4,2.7-1.3,4.2c-0.1,1.5,0.4,3,1.3,4.3
					c0.9,1,2.3,1.6,3.6,1.5c1.2,0,2.3-0.2,3.4-0.6v1.6c-0.6,0.2-1.2,0.4-1.7,0.5c-0.6,0.1-1.3,0.1-1.9,0.1c-1.8,0.1-3.6-0.6-4.9-1.9
					c-1.2-1.5-1.8-3.5-1.7-5.4c0-1.3,0.2-2.7,0.8-3.9c0.5-1.1,1.3-2,2.4-2.6c1.1-0.6,2.4-0.9,3.7-0.9c1.4,0,2.7,0.3,3.9,0.8
					l-0.7,1.5C83.1,232.5,82,232.2,80.9,232.2z"/>
				<path class="st1" d="M101.8,237.8c0.1,2-0.6,3.9-1.9,5.4c-1.5,1.3-3.5,2-5.5,1.9h-4v-14.3h4.4c1.9-0.1,3.8,0.5,5.2,1.8
					C101.3,234,102,235.9,101.8,237.8z M99.9,237.9c0.1-1.5-0.4-3-1.3-4.1c-1.1-1-2.6-1.5-4.1-1.4h-2.3v11.2h1.9
					C98,243.6,99.9,241.7,99.9,237.9L99.9,237.9z"/>
				<path class="st1" d="M116,245.1h-8v-14.3h8v1.6h-6.2v4.5h5.8v1.6h-5.8v5.1h6.2V245.1z"/>
				<path class="st1" d="M123.9,245.1h-1.8v-14.3h8v1.6h-6.2v5.1h5.8v1.6h-5.8V245.1z"/>
				<path class="st1" d="M141.7,237.6h4.9v7c-0.8,0.2-1.5,0.4-2.3,0.5c-0.9,0.1-1.8,0.2-2.7,0.2c-1.9,0.1-3.7-0.6-5-1.9
					c-1.3-1.5-1.9-3.4-1.8-5.4c0-1.4,0.3-2.7,0.9-3.9c0.6-1.1,1.5-2,2.6-2.6c1.2-0.6,2.6-0.9,3.9-0.9c1.5,0,2.9,0.3,4.3,0.8
					l-0.7,1.6c-1.2-0.5-2.4-0.8-3.7-0.8c-1.5-0.1-2.9,0.5-4,1.5c-1,1.2-1.5,2.7-1.4,4.2c-0.1,1.6,0.4,3.1,1.4,4.3
					c1.1,1,2.5,1.6,4,1.5c0.9,0,1.9-0.1,2.8-0.3v-4.2h-3.1V237.6z"/>
				<path class="st1" d="M164,245.1h-1.8v-6.7h-7.3v6.7h-1.8v-14.3h1.8v6h7.3v-6h1.8V245.1z"/>
				<path class="st1" d="M174.9,245.1h-5.2v-1l1.7-0.4v-11.4l-1.7-0.4v-1h5.2v1l-1.7,0.4v11.4l1.7,0.4L174.9,245.1z"/>
				<path class="st1" d="M178.6,248.9c-0.5,0-1-0.1-1.5-0.3v-1.5c0.5,0.1,1,0.2,1.4,0.2c0.6,0,1.1-0.2,1.5-0.6
					c0.4-0.5,0.5-1.1,0.5-1.7v-14.2h1.8v14.1c0.1,1.1-0.3,2.1-1,3C180.7,248.6,179.7,249,178.6,248.9z"/>
				<path class="st1" d="M199.6,245.1h-2.1l-5.1-6.8l-1.5,1.3v5.5h-1.8v-14.3h1.8v7l1.2-1.4l5.1-5.7h2.1l-5.7,6.2L199.6,245.1z"/>
				<path class="st1" d="M204.5,245.1v-14.3h1.8v12.7h6.2v1.6H204.5z"/>
				<path class="st1" d="M224.3,245.1l-4.7-12.5h-0.1c0.1,1,0.1,2.3,0.1,3.9v8.7H218v-14.3h2.7l4.4,11.7h0.1l4.5-11.7h2.6v14.3h-1.8
					v-8.8c0-1,0-2.2,0.1-3.7h-0.1l-4.8,12.5H224.3z"/>
				<path class="st1" d="M250.4,245.1h-2.1l-7.6-11.9h-0.1l0,0.8c0.1,1.2,0.1,2.2,0.1,3.1v8h-1.7v-14.3h2.1l0.4,0.7l4.7,7.2l2.5,3.9
					h0.1c0-0.2,0-0.7-0.1-1.7s-0.1-1.7-0.1-2.1v-8.1h1.7L250.4,245.1z"/>
				<path class="st1" d="M269.8,237.9c0.1,1.9-0.5,3.9-1.7,5.4c-1.2,1.3-3,2.1-4.8,2c-1.8,0.1-3.6-0.6-4.9-1.9
					c-2.3-3.3-2.3-7.6,0-10.9c1.3-1.3,3.1-2,4.9-1.9c1.8-0.1,3.6,0.6,4.8,1.9C269.3,234.1,269.9,236,269.8,237.9z M258.5,237.9
					c-0.1,1.5,0.3,3.1,1.2,4.3c1.9,1.9,5,2,6.9,0.1c0,0,0.1-0.1,0.1-0.1c1.6-2.7,1.6-6,0-8.6c-0.9-1-2.2-1.5-3.5-1.4
					c-1.3-0.1-2.6,0.5-3.5,1.5C258.8,234.9,258.4,236.4,258.5,237.9L258.5,237.9z"/>
				<path class="st1" d="M285.1,235c0.1,1.3-0.5,2.5-1.5,3.4c-1.2,0.8-2.7,1.3-4.2,1.2h-1.6v5.6h-1.8v-14.3h3.8
					C283.3,230.8,285.1,232.2,285.1,235z M277.7,238h1.4c1.1,0.1,2.1-0.2,3.1-0.7c0.7-0.5,1-1.4,1-2.2c0.1-0.8-0.3-1.6-0.9-2.1
					c-0.8-0.5-1.8-0.8-2.8-0.7h-1.8L277.7,238z"/>
				<path class="st1" d="M303.5,237.9c0.1,1.6-0.3,3.1-1.1,4.5c-0.7,1.2-1.8,2.1-3.1,2.5l3.4,3.6h-2.6l-2.8-3.2l-0.5,0
					c-1.8,0.1-3.6-0.6-4.9-1.9c-2.3-3.3-2.3-7.6,0-10.9c1.3-1.3,3.1-2,4.9-1.9c1.8-0.1,3.6,0.6,4.8,1.9
					C303,234.1,303.6,236,303.5,237.9z M292.2,237.9c-0.1,1.5,0.3,3.1,1.2,4.3c1.9,1.9,5,2,6.9,0.1c0,0,0.1-0.1,0.1-0.1
					c1.6-2.7,1.6-6,0-8.6c-0.9-1-2.2-1.5-3.5-1.4c-1.3-0.1-2.6,0.5-3.5,1.5C292.5,234.9,292.1,236.4,292.2,237.9z"/>
				<path class="st1" d="M311.5,239.2v5.9h-1.8v-14.3h3.9c1.4-0.1,2.8,0.2,3.9,1c0.9,0.8,1.4,1.9,1.3,3c0.1,1.8-1.1,3.4-2.9,3.8
					l3.9,6.4h-2.1l-3.5-5.9L311.5,239.2z M311.5,237.7h2.1c0.9,0.1,1.8-0.2,2.5-0.7c0.6-0.5,0.9-1.3,0.8-2c0.1-0.7-0.2-1.5-0.8-2
					c-0.8-0.5-1.7-0.7-2.6-0.6h-2L311.5,237.7z"/>
				<path class="st1" d="M333.2,241.3c0,1.1-0.5,2.2-1.3,2.9c-1.1,0.8-2.4,1.2-3.8,1.1c-1.3,0.1-2.7-0.2-3.9-0.7v-1.7
					c0.6,0.3,1.3,0.5,2,0.6c0.7,0.1,1.3,0.2,2,0.2c0.8,0.1,1.7-0.2,2.4-0.6c0.5-0.4,0.8-1,0.8-1.7c0-0.4-0.1-0.8-0.3-1.2
					c-0.3-0.4-0.6-0.7-1-0.9c-0.7-0.4-1.4-0.7-2.1-0.9c-1.1-0.3-2-0.9-2.8-1.7c-0.6-0.7-0.9-1.6-0.9-2.5c0-1,0.4-2,1.3-2.7
					c1-0.7,2.1-1,3.3-1c1.4,0,2.7,0.3,3.9,0.8l-0.6,1.5c-1.1-0.5-2.2-0.7-3.4-0.8c-0.7,0-1.4,0.2-2,0.5c-0.5,0.4-0.7,0.9-0.7,1.5
					c0,0.4,0.1,0.8,0.3,1.2c0.2,0.3,0.5,0.6,0.9,0.8c0.6,0.3,1.3,0.6,1.9,0.9c0.8,0.3,1.6,0.7,2.4,1.1c0.5,0.3,0.9,0.8,1.2,1.3
					C333.1,240.1,333.2,240.7,333.2,241.3z"/>
				<path class="st1" d="M343.6,245.1h-1.8v-12.7h-4.5v-1.6H348v1.6h-4.4L343.6,245.1z"/>
				<path class="st1" d="M364.1,230.8v9.2c0.1,1.4-0.5,2.8-1.5,3.8c-1.1,1-2.6,1.5-4.1,1.4c-1.5,0.1-2.9-0.4-4-1.4
					c-1-1-1.5-2.4-1.4-3.9v-9.2h1.8v9.3c-0.1,1,0.3,2,0.9,2.7c0.8,0.7,1.8,1,2.8,1c1.8,0.2,3.5-1.1,3.7-2.9c0-0.3,0-0.5,0-0.8v-9.2
					L364.1,230.8z"/>
				<path class="st1" d="M368.9,230.8h1.9l3.2,9.2c0.4,1,0.7,2.1,0.9,3.1c0.2-1.1,0.5-2.1,0.9-3.2l3.2-9.1h1.9l-5.1,14.3H374
					L368.9,230.8z"/>
				<path class="st1" d="M398.4,245.1h-1.8l-2.8-9.4c-0.3-0.9-0.5-1.9-0.7-2.8c-0.2,1-0.4,1.9-0.7,2.9l-2.7,9.3h-1.8l-3.8-14.3h1.9
					l2.2,8.7c0.3,1.1,0.5,2.3,0.7,3.4c0.2-1.2,0.4-2.4,0.8-3.5l2.5-8.6h1.9l2.6,8.7c0.3,1.1,0.6,2.3,0.8,3.4
					c0.2-1.2,0.4-2.3,0.7-3.4l2.2-8.7h1.9L398.4,245.1z"/>
				<path class="st1" d="M417.1,245.1h-2l-3.8-6.2l-3.8,6.2h-1.9l4.7-7.4l-4.4-6.8h2l3.5,5.6l3.5-5.6h1.9l-4.4,6.8L417.1,245.1z"/>
				<path class="st1" d="M425.9,237.8l3.7-7h1.9l-4.8,8.7v5.5H425v-5.5l-4.8-8.8h2L425.9,237.8z"/>
				<path class="st1" d="M445.2,245.1h-9.9v-1.4l7.5-11.3h-7.3v-1.6h9.5v1.4l-7.5,11.3h7.7V245.1z"/>
				<path class="st1" d="M49.4,274.1l-0.3-1.5h-0.1c-0.4,0.6-1,1-1.6,1.4c-0.6,0.3-1.3,0.4-2,0.4c-0.9,0.1-1.8-0.2-2.5-0.8
					c-0.6-0.6-1-1.5-0.9-2.3c0-2.2,1.7-3.3,5.1-3.4l1.8-0.1V267c0.1-0.6-0.1-1.3-0.5-1.8c-0.5-0.4-1.1-0.6-1.7-0.6
					c-0.5,0-1.1,0.1-1.6,0.3c-0.5,0.2-1,0.4-1.4,0.6l-0.5-1.3c0.6-0.3,1.2-0.5,1.8-0.7c0.6-0.2,1.3-0.2,1.9-0.2
					c1-0.1,2.1,0.2,2.9,0.9c0.7,0.7,1,1.7,0.9,2.7v7.3L49.4,274.1z M45.7,272.9c0.8,0,1.7-0.2,2.3-0.8c0.6-0.6,0.9-1.4,0.8-2.3v-1
					l-1.6,0.1c-0.9,0-1.9,0.2-2.7,0.6c-0.6,0.3-0.9,1-0.8,1.6c0,0.5,0.2,1,0.5,1.3C44.7,272.7,45.2,272.9,45.7,272.9L45.7,272.9z"/>
				<path class="st1" d="M62,263.2c1.3-0.1,2.5,0.5,3.3,1.5c1.5,2.5,1.5,5.7,0,8.2c-0.8,1-2,1.5-3.3,1.5c-0.7,0-1.3-0.1-1.9-0.4
					c-0.6-0.3-1-0.7-1.4-1.2h-0.1c-0.2,0.8-0.3,1.2-0.4,1.4H57v-15.2h1.8v3.7c0,0.7,0,1.5-0.1,2.2h0.1
					C59.5,263.7,60.7,263.1,62,263.2z M61.7,264.7c-0.9-0.1-1.7,0.3-2.3,0.9c-0.6,0.9-0.8,2-0.7,3.1v0.1c-0.1,1.1,0.2,2.2,0.7,3.1
					c0.6,0.7,1.5,1,2.3,0.9c0.9,0.1,1.7-0.3,2.2-1.1c0.5-0.9,0.8-2,0.7-3.1c0.1-1.1-0.2-2.1-0.7-3C63.4,265,62.6,264.6,61.7,264.7
					L61.7,264.7z"/>
				<path class="st1" d="M76.6,274.3c-1.4,0.1-2.7-0.4-3.6-1.4c-0.9-1.1-1.4-2.6-1.3-4.1c-0.1-1.5,0.4-3,1.3-4.2
					c1-1,2.3-1.5,3.7-1.5c0.5,0,1,0.1,1.5,0.2c0.4,0.1,0.9,0.2,1.3,0.4l-0.5,1.5c-0.7-0.3-1.5-0.5-2.3-0.5c-0.9-0.1-1.8,0.3-2.4,1
					c-0.6,0.9-0.8,2-0.8,3c-0.1,1,0.2,2.1,0.8,3c0.5,0.7,1.4,1.1,2.3,1c1,0,1.9-0.2,2.8-0.6v1.6C78.5,274.1,77.5,274.3,76.6,274.3z"
					/>
				<path class="st1" d="M88.7,274.3c-1.2,0.1-2.5-0.5-3.2-1.4c-0.8-1.2-1.2-2.6-1.2-4.1c-0.1-1.5,0.3-2.9,1.2-4.1
					c1.6-1.8,4.3-2,6.1-0.4c0.2,0.2,0.4,0.3,0.5,0.5h0.1c0-0.1,0-0.4-0.1-0.8s0-0.7,0-0.8v-4.3h1.8v15.2h-1.4l-0.3-1.4H92
					C91.3,273.7,90,274.4,88.7,274.3z M88.9,272.8c0.9,0.1,1.7-0.2,2.3-0.9c0.6-0.8,0.8-1.9,0.7-2.9v-0.3c0.1-1.1-0.2-2.2-0.7-3.2
					c-0.6-0.7-1.5-1-2.3-1c-0.8,0-1.6,0.4-2.1,1.1c-0.5,0.9-0.8,2-0.7,3.1c-0.1,1.1,0.2,2.1,0.7,3C87.3,272.5,88.1,272.9,88.9,272.8
					L88.9,272.8z"/>
				<path class="st1" d="M104.7,274.3c-1.4,0.1-2.8-0.5-3.8-1.5c-1-1.1-1.5-2.6-1.4-4c-0.1-1.5,0.4-2.9,1.3-4.1
					c0.9-1,2.1-1.6,3.5-1.5c1.2-0.1,2.4,0.4,3.2,1.3c0.8,1,1.3,2.2,1.2,3.5v1.1h-7.3c0,1,0.3,2,0.9,2.8c0.7,0.7,1.6,1,2.5,0.9
					c0.5,0,1.1,0,1.6-0.2c0.6-0.1,1.2-0.3,1.8-0.6v1.5c-0.5,0.2-1.1,0.4-1.7,0.5C106,274.2,105.3,274.3,104.7,274.3z M104.3,264.6
					c-0.8,0-1.5,0.3-2,0.8c-0.5,0.6-0.8,1.4-0.9,2.3h5.5c0-0.8-0.2-1.6-0.7-2.3C105.7,264.9,105,264.6,104.3,264.6z"/>
				<path class="st1" d="M119.4,264.7h-2.7v9.4h-1.8v-9.4h-1.9v-0.8l1.9-0.6v-0.6c-0.1-1,0.2-2.1,0.9-2.9c0.7-0.7,1.7-1.1,2.6-1
					c0.7,0,1.4,0.1,2.1,0.4l-0.5,1.4c-0.5-0.2-1-0.3-1.6-0.3c-0.5,0-1,0.2-1.3,0.6c-0.3,0.6-0.5,1.2-0.4,1.9v0.7h2.7V264.7z"/>
				<path class="st1" d="M131.5,274l0.1-1.3h-0.1c-0.7,1.1-2,1.7-3.3,1.6c-1.3,0.1-2.5-0.5-3.2-1.5c-1.6-2.5-1.6-5.7,0-8.2
					c1.5-1.8,4.2-2,6-0.5c0.2,0.2,0.4,0.4,0.6,0.6h0.1l0.2-1.4h1.4v10.9c0.1,1.3-0.3,2.5-1.2,3.5c-1,0.9-2.3,1.3-3.6,1.2
					c-1.3,0-2.6-0.2-3.9-0.7v-1.6c1.2,0.6,2.6,0.9,4,0.8c0.8,0,1.6-0.2,2.2-0.8c0.6-0.6,0.8-1.4,0.8-2.2L131.5,274z M128.4,272.9
					c0.9,0.1,1.7-0.2,2.4-0.9c0.6-0.8,0.8-1.8,0.7-2.8v-0.4c0.1-1.1-0.2-2.2-0.7-3.1c-0.6-0.7-1.5-1.1-2.4-1c-0.8,0-1.6,0.4-2.1,1.1
					c-1,1.9-1,4.2,0,6.1C126.8,272.5,127.6,272.9,128.4,272.9z"/>
				<path class="st1" d="M146.9,274.1v-6.9c0.1-0.7-0.2-1.4-0.6-1.9c-0.5-0.5-1.2-0.7-1.8-0.6c-0.9-0.1-1.8,0.3-2.4,0.9
					c-0.6,0.9-0.9,1.9-0.8,3v5.5h-1.8v-15.2h1.8v4.5c0,0.5,0,1-0.1,1.5h0.1c0.3-0.5,0.8-1,1.4-1.2c0.6-0.3,1.3-0.5,2-0.4
					c1.1-0.1,2.1,0.3,2.9,0.9c0.7,0.8,1.1,1.9,1,3v7L146.9,274.1z"/>
				<path class="st1" d="M154.9,260.5c-0.1-0.5,0.3-1,0.8-1.1c0.1,0,0.1,0,0.2,0c0.5,0,1,0.4,1,0.9c0,0.1,0,0.1,0,0.2
					c0,0.3-0.1,0.6-0.3,0.9c-0.4,0.4-1.1,0.4-1.5,0C154.9,261.1,154.8,260.8,154.9,260.5z M156.8,274.1H155v-10.7h1.8V274.1z"/>
				<path class="st1" d="M161.9,278.9c-0.5,0-1-0.1-1.5-0.2v-1.4c0.4,0.1,0.9,0.2,1.3,0.2c0.4,0,0.8-0.1,1.1-0.4
					c0.3-0.4,0.4-0.8,0.4-1.3v-12.4h1.8v12.3c0.1,0.9-0.2,1.7-0.8,2.4C163.5,278.7,162.7,279,161.9,278.9z M163,260.5
					c-0.1-0.5,0.3-1,0.8-1.1c0.1,0,0.1,0,0.2,0c0.5,0,1,0.4,1,0.9c0,0.1,0,0.1,0,0.2c0,0.3-0.1,0.6-0.3,0.9c-0.4,0.4-1.1,0.4-1.5,0
					C163.1,261.1,163,260.8,163,260.5L163,260.5z"/>
				<path class="st1" d="M173.1,268.6l0.6-0.8l0.7-0.8l3.4-3.6h2.1l-4.3,4.6l4.6,6.1H178l-3.7-5l-1.2,1.1v3.9h-1.7v-15.2h1.7v7.9
					L173.1,268.6L173.1,268.6z"/>
				<path class="st1" d="M186.8,274.1H185v-15.2h1.8L186.8,274.1z"/>
				<path class="st1" d="M206.8,274.1v-6.9c0-1.7-0.7-2.5-2.2-2.5c-0.8-0.1-1.6,0.3-2.2,0.9c-0.5,0.8-0.8,1.7-0.7,2.7v5.9H200v-6.9
					c0.1-0.7-0.1-1.4-0.5-1.9c-0.4-0.5-1-0.7-1.7-0.6c-0.8-0.1-1.6,0.3-2.2,0.9c-0.5,0.9-0.8,1.9-0.7,3v5.6h-1.8v-10.7h1.4l0.3,1.5
					h0.1c0.3-0.5,0.8-0.9,1.3-1.2c0.6-0.3,1.2-0.4,1.9-0.4c1.7,0,2.8,0.6,3.3,1.8h0.1c0.3-0.6,0.8-1,1.4-1.3c0.6-0.3,1.3-0.5,2-0.5
					c1-0.1,2,0.3,2.7,0.9c0.7,0.8,1,1.9,0.9,3v7L206.8,274.1z"/>
				<path class="st1" d="M222.2,274.1v-6.9c0.1-0.7-0.2-1.4-0.6-1.9c-0.5-0.5-1.2-0.7-1.8-0.6c-0.9-0.1-1.8,0.3-2.4,0.9
					c-0.6,0.9-0.8,1.9-0.7,3v5.6h-1.8v-10.7h1.4l0.3,1.5h0.1c0.3-0.5,0.8-1,1.4-1.2c0.6-0.3,1.3-0.4,2-0.4c1.1-0.1,2.1,0.3,2.9,1
					c0.7,0.8,1,1.9,1,3v7H222.2z"/>
				<path class="st1" d="M239.5,268.7c0.1,1.5-0.4,3-1.3,4.1c-0.9,1-2.3,1.5-3.7,1.5c-0.9,0-1.8-0.2-2.6-0.7
					c-0.8-0.5-1.4-1.1-1.7-1.9c-0.4-0.9-0.6-1.9-0.6-2.9c-0.1-1.5,0.4-2.9,1.3-4.1c0.9-1,2.3-1.5,3.7-1.5c1.4-0.1,2.7,0.5,3.6,1.5
					C239.1,265.8,239.6,267.2,239.5,268.7z M231.4,268.7c-0.1,1.1,0.2,2.2,0.8,3.1c1.2,1.3,3.1,1.4,4.4,0.3c0.1-0.1,0.2-0.2,0.3-0.3
					c0.6-0.9,0.9-2,0.8-3.1c0.1-1.1-0.2-2.1-0.8-3c-0.6-0.7-1.5-1.1-2.4-1C232.5,264.7,231.4,266,231.4,268.7z"/>
				<path class="st1" d="M250.4,274.3c-1.3,0.1-2.5-0.5-3.3-1.6H247l0,0.4c0,0.5,0.1,0.9,0.1,1.4v4.4h-1.8v-15.5h1.4l0.2,1.5h0.1
					c0.4-0.5,0.9-1,1.4-1.3c0.6-0.3,1.2-0.4,1.9-0.4c1.3-0.1,2.5,0.5,3.2,1.5c0.8,1.2,1.2,2.6,1.2,4.1c0.1,1.5-0.3,2.9-1.2,4.1
					C252.9,273.8,251.7,274.4,250.4,274.3z M250.1,264.7c-0.9-0.1-1.7,0.3-2.3,0.9c-0.5,0.8-0.8,1.8-0.7,2.8v0.3
					c-0.1,1.1,0.2,2.2,0.7,3.1c0.6,0.7,1.5,1.1,2.3,1c0.8,0,1.6-0.4,2.1-1.1c0.6-0.9,0.8-2,0.8-3c0.1-1.1-0.2-2.1-0.8-3
					C251.8,265,250.9,264.6,250.1,264.7L250.1,264.7z"/>
				<path class="st1" d="M264.4,274.3c-1.2,0.1-2.4-0.5-3.2-1.5c-1.5-2.5-1.5-5.7,0-8.2c0.8-1,2-1.5,3.2-1.5
					c1.3-0.1,2.6,0.6,3.3,1.7h0.1l0.3-1.5h1.4v15.5h-1.8v-4.6c0-0.6,0-1.1,0.1-1.7h-0.1C267,273.8,265.7,274.4,264.4,274.3z
					 M264.7,272.8c0.9,0.1,1.7-0.2,2.3-0.9c0.6-0.8,0.8-1.8,0.8-2.8v-0.4c0.1-1.1-0.2-2.2-0.7-3.2c-0.6-0.7-1.5-1-2.4-1
					c-0.8,0-1.6,0.4-2.1,1.1c-0.5,0.9-0.8,2-0.7,3.1c-0.1,1.1,0.2,2.1,0.7,3C263.1,272.5,263.9,272.9,264.7,272.8L264.7,272.8z"/>
				<path class="st1" d="M280.9,263.2c0.4,0,0.8,0,1.3,0.1l-0.2,1.6c-0.4-0.1-0.8-0.1-1.2-0.1c-0.6,0-1.1,0.2-1.6,0.5
					c-0.5,0.3-0.9,0.8-1.1,1.3c-0.3,0.6-0.4,1.2-0.4,1.8v5.7h-1.8v-10.7h1.4l0.2,2h0.1c0.4-0.6,0.8-1.2,1.5-1.6
					C279.6,263.4,280.3,263.2,280.9,263.2z"/>
				<path class="st1" d="M294.2,271.1c0,0.9-0.4,1.8-1.1,2.3c-0.9,0.6-2,0.9-3.2,0.8c-1.2,0.1-2.3-0.2-3.4-0.7V272
					c1.1,0.5,2.2,0.8,3.4,0.9c0.7,0.1,1.3-0.1,1.9-0.4c0.4-0.3,0.6-0.7,0.6-1.2c0-0.4-0.2-0.8-0.6-1.1c-0.6-0.4-1.3-0.8-2.1-1
					c-0.7-0.3-1.5-0.6-2.1-1c-0.4-0.2-0.7-0.6-0.9-0.9c-0.2-0.4-0.3-0.8-0.3-1.3c0-0.8,0.4-1.6,1.1-2.1c0.9-0.6,1.9-0.8,2.9-0.8
					c1.2,0,2.3,0.2,3.4,0.7l-0.6,1.4c-0.9-0.4-1.9-0.7-2.9-0.7c-0.6,0-1.1,0.1-1.7,0.3c-0.4,0.2-0.6,0.6-0.6,1c0,0.4,0.2,0.7,0.5,1
					c0.7,0.4,1.5,0.8,2.3,1.1c0.7,0.2,1.4,0.5,2,0.9c0.4,0.2,0.7,0.6,0.9,1C294.1,270.2,294.2,270.7,294.2,271.1z"/>
				<path class="st1" d="M303.4,272.9c0.3,0,0.5,0,0.8-0.1c0.2,0,0.5-0.1,0.7-0.2v1.3c-0.2,0.1-0.5,0.2-0.8,0.2
					c-0.3,0.1-0.7,0.1-1,0.1c-2.1,0-3.1-1.1-3.1-3.3v-6.2h-1.5v-0.8l1.5-0.7l0.7-2.3h1v2.5h3.1v1.4h-3.1v6.2c0,0.5,0.1,1,0.4,1.4
					C302.4,272.7,302.9,272.9,303.4,272.9z"/>
				<path class="st1" d="M311.6,263.4v6.9c-0.1,0.7,0.2,1.4,0.6,1.9c0.5,0.5,1.1,0.7,1.8,0.6c0.9,0.1,1.8-0.3,2.4-0.9
					c0.6-0.9,0.8-1.9,0.8-3v-5.6h1.8v10.7h-1.4l-0.3-1.4h-0.1c-0.3,0.5-0.8,0.9-1.4,1.2c-0.6,0.3-1.3,0.4-2,0.4
					c-1.1,0.1-2.1-0.3-2.9-0.9c-0.7-0.8-1.1-1.9-1-3v-7L311.6,263.4z"/>
				<path class="st1" d="M327.7,274.1l-4.1-10.7h1.9l2.3,6.3c0.3,0.9,0.6,1.9,0.9,2.8h0.1c0-0.1,0-0.2,0.1-0.3s0.1-0.2,0.1-0.4
					s0.3-0.9,0.7-2.2l2.3-6.3h1.9l-4.1,10.7L327.7,274.1z"/>
				<path class="st1" d="M347.3,274.1l-1.8-6c-0.2-0.5-0.4-1.4-0.7-2.8h-0.1c-0.3,1.3-0.5,2.2-0.7,2.9l-1.9,6h-2l-2.9-10.7h1.8
					c0.7,2.6,1.2,4.6,1.5,6c0.3,1,0.5,1.9,0.6,2.9h0.1l0.1-0.6c0.2-0.9,0.4-1.7,0.6-2.3l1.9-6h1.9l1.8,6c0.1,0.2,0.1,0.5,0.2,0.7
					s0.1,0.5,0.2,0.8s0.1,0.5,0.2,0.7s0.1,0.5,0.1,0.6h0.1c0.2-1.1,0.4-2.1,0.7-3.2l1.5-5.7h1.8l-3,10.7L347.3,274.1z"/>
				<path class="st1" d="M359.8,268.6l-3.7-5.2h2l2.8,4l2.7-4h2l-3.7,5.2l3.9,5.5h-2l-2.9-4.3l-3,4.3h-2L359.8,268.6z"/>
				<path class="st1" d="M369.1,263.4h1.9l2.3,6.1c0.4,0.9,0.7,1.9,0.9,2.9h0.1c0.1-0.2,0.2-0.7,0.4-1.4c0.2-0.7,0.4-1.2,0.5-1.6
					l2.2-6.1h1.9l-4.6,12.2c-0.3,1-0.9,1.8-1.6,2.5c-0.6,0.5-1.5,0.8-2.3,0.8c-0.5,0-1-0.1-1.5-0.2v-1.4c0.4,0.1,0.8,0.1,1.2,0.1
					c0.5,0,1-0.1,1.4-0.5c0.4-0.4,0.8-0.9,1-1.4l0.6-1.4L369.1,263.4z"/>
				<path class="st1" d="M390.9,274.1h-7.8v-1.2l5.8-8.2h-5.4v-1.4h7.4v1.3l-5.7,8h5.8L390.9,274.1z"/>
				<path class="st1" d="M48,303.1h-1.7v-8.9c0-0.3,0-0.6,0-0.9c0-0.3,0-0.6,0-1c0-0.3,0-0.6,0-0.9c0-0.3,0-0.5,0-0.8
					c-0.1,0.1-0.2,0.2-0.3,0.3c-0.1,0.1-0.2,0.2-0.3,0.2s-0.2,0.2-0.3,0.2s-0.2,0.2-0.4,0.3l-1.4,1.2l-0.9-1.2l3.7-2.9H48L48,303.1z
					"/>
				<path class="st1" d="M64.9,303.1H56v-1.5l3.4-3.7c0.5-0.5,0.9-1,1.3-1.4c0.4-0.4,0.7-0.8,1-1.3c0.3-0.4,0.5-0.8,0.6-1.3
					c0.1-0.4,0.2-0.9,0.2-1.4c0-0.3,0-0.7-0.2-1c-0.1-0.3-0.3-0.5-0.5-0.7c-0.2-0.2-0.5-0.4-0.7-0.5c-0.3-0.1-0.6-0.2-0.9-0.2
					c-0.6,0-1.2,0.1-1.7,0.4c-0.5,0.3-1,0.6-1.4,1l-1-1.2c0.3-0.2,0.5-0.5,0.8-0.7c0.3-0.2,0.6-0.4,1-0.5c0.4-0.2,0.7-0.3,1.1-0.4
					c0.4-0.1,0.8-0.1,1.2-0.1c0.6,0,1.1,0.1,1.7,0.3c0.5,0.2,0.9,0.4,1.3,0.8c0.4,0.3,0.6,0.7,0.8,1.2c0.2,0.5,0.3,1.1,0.3,1.6
					c0,0.5-0.1,1.1-0.3,1.6c-0.2,0.5-0.4,1-0.7,1.5c-0.3,0.5-0.7,1-1.1,1.5c-0.4,0.5-0.9,1-1.4,1.5l-2.7,2.9v0.1h6.7L64.9,303.1z"/>
				<path class="st1" d="M78.5,292.2c0,0.4-0.1,0.9-0.2,1.3c-0.1,0.4-0.4,0.7-0.6,1c-0.3,0.3-0.6,0.5-1,0.7
					c-0.4,0.2-0.8,0.3-1.3,0.4v0.1c1,0.1,1.9,0.5,2.6,1.1c0.6,0.6,0.9,1.4,0.9,2.3c0,0.6-0.1,1.2-0.3,1.7c-0.2,0.5-0.5,1-1,1.3
					c-0.5,0.4-1,0.7-1.6,0.9c-0.8,0.2-1.5,0.3-2.3,0.3c-0.7,0-1.3-0.1-2-0.2c-0.6-0.1-1.2-0.3-1.8-0.6v-1.7c0.6,0.3,1.2,0.5,1.8,0.7
					c0.6,0.2,1.3,0.2,1.9,0.2c0.5,0,1-0.1,1.6-0.2c0.4-0.1,0.8-0.3,1.1-0.6c0.3-0.2,0.5-0.5,0.6-0.9c0.1-0.4,0.2-0.8,0.2-1.2
					c0-0.4-0.1-0.8-0.3-1.1c-0.2-0.3-0.4-0.6-0.7-0.8c-0.4-0.2-0.8-0.4-1.2-0.5c-0.5-0.1-1-0.2-1.6-0.1h-1.3V295h1.3
					c0.5,0,1-0.1,1.4-0.2c0.4-0.1,0.7-0.3,1-0.6c0.3-0.2,0.5-0.5,0.6-0.9c0.1-0.3,0.2-0.7,0.2-1.1c0-0.3-0.1-0.6-0.2-0.9
					c-0.1-0.3-0.3-0.5-0.5-0.7c-0.2-0.2-0.5-0.3-0.8-0.4c-0.3-0.1-0.7-0.2-1-0.1c-0.6,0-1.3,0.1-1.8,0.3c-0.5,0.2-1,0.5-1.5,0.9
					l-0.9-1.2c0.3-0.2,0.5-0.4,0.8-0.6c0.3-0.2,0.6-0.3,1-0.5c0.4-0.1,0.8-0.2,1.1-0.3c0.4-0.1,0.9-0.1,1.3-0.1
					c0.6,0,1.3,0.1,1.9,0.3c0.5,0.2,0.9,0.4,1.3,0.7c0.4,0.3,0.6,0.7,0.8,1.1C78.4,291.2,78.5,291.7,78.5,292.2z"/>
				<path class="st1" d="M93.7,299.9h-2.1v3.2h-1.7v-3.2h-6.6v-1.6l6.5-9.6h1.8v9.5h2.1V299.9z M89.9,298.3v-3.5c0-0.4,0-0.7,0-1.1
					s0-0.8,0-1.2c0-0.4,0-0.7,0-1.1s0-0.6,0-0.8h-0.1c0,0.1-0.1,0.3-0.2,0.4s-0.1,0.3-0.2,0.5s-0.2,0.3-0.2,0.5s-0.2,0.3-0.2,0.4
					l-4,5.9H89.9z"/>
				<path class="st1" d="M102.4,294.3c0.6,0,1.2,0.1,1.8,0.3c0.5,0.2,1,0.4,1.5,0.8c0.4,0.4,0.8,0.8,1,1.3c0.2,0.6,0.4,1.2,0.4,1.8
					c0,0.7-0.1,1.4-0.3,2c-0.2,0.6-0.5,1.1-1,1.5c-0.5,0.4-1,0.7-1.6,0.9c-0.7,0.2-1.5,0.3-2.2,0.3c-0.3,0-0.7,0-1,0
					c-0.3,0-0.6-0.1-0.9-0.1c-0.3-0.1-0.6-0.1-0.8-0.2c-0.3-0.1-0.5-0.2-0.7-0.3v-1.7c0.2,0.2,0.5,0.3,0.8,0.4
					c0.3,0.1,0.6,0.2,0.9,0.3c0.3,0.1,0.6,0.1,1,0.2c0.3,0,0.6,0.1,0.9,0.1c0.5,0,0.9-0.1,1.4-0.2c0.4-0.1,0.7-0.3,1-0.6
					c0.3-0.3,0.5-0.6,0.6-1c0.2-0.4,0.2-0.9,0.2-1.4c0.1-0.8-0.3-1.6-0.9-2.1c-0.7-0.5-1.6-0.8-2.5-0.7c-0.2,0-0.4,0-0.6,0
					c-0.2,0-0.4,0-0.6,0.1s-0.4,0.1-0.6,0.1s-0.3,0.1-0.5,0.1l-0.9-0.6l0.5-6.7h6.7v1.6h-5.2l-0.4,4.1c0.2,0,0.5-0.1,0.8-0.1
					C101.6,294.4,102,294.3,102.4,294.3z"/>
				<path class="st1" d="M112.2,297c0-0.7,0-1.4,0.1-2c0.1-0.7,0.2-1.3,0.4-1.9c0.2-0.6,0.4-1.2,0.7-1.7c0.3-0.5,0.7-1,1.1-1.4
					c0.5-0.4,1.1-0.7,1.7-0.9c0.7-0.2,1.5-0.4,2.3-0.3c0.1,0,0.3,0,0.4,0s0.3,0,0.5,0s0.3,0,0.4,0.1c0.1,0,0.3,0,0.4,0.1v1.5
					c-0.3-0.1-0.5-0.1-0.8-0.2c-0.3,0-0.6-0.1-0.8-0.1c-0.5,0-1,0.1-1.5,0.2c-0.4,0.1-0.8,0.3-1.2,0.6c-0.3,0.3-0.6,0.6-0.8,0.9
					c-0.2,0.4-0.4,0.8-0.5,1.2c-0.1,0.4-0.2,0.9-0.3,1.4c-0.1,0.5-0.1,1-0.1,1.5h0.1c0.1-0.2,0.3-0.5,0.5-0.7
					c0.2-0.2,0.4-0.4,0.6-0.5c0.3-0.2,0.5-0.3,0.8-0.3c0.3-0.1,0.7-0.1,1-0.1c0.6,0,1.1,0.1,1.7,0.3c0.5,0.2,0.9,0.5,1.3,0.8
					c0.4,0.4,0.6,0.9,0.8,1.4c0.2,0.6,0.3,1.2,0.3,1.8c0,0.7-0.1,1.4-0.3,2c-0.2,0.6-0.5,1.1-0.9,1.5c-0.4,0.4-0.8,0.7-1.4,1
					c-0.6,0.2-1.2,0.3-1.8,0.3c-0.6,0-1.3-0.1-1.8-0.4c-0.6-0.3-1.1-0.7-1.5-1.2c-0.5-0.6-0.8-1.3-1-2
					C112.3,298.9,112.2,297.9,112.2,297z M116.9,301.8c0.4,0,0.7-0.1,1.1-0.2c0.3-0.1,0.6-0.3,0.8-0.6c0.3-0.3,0.4-0.6,0.5-1
					c0.1-0.5,0.2-1,0.2-1.5c0-0.4,0-0.8-0.2-1.2c-0.1-0.3-0.3-0.7-0.5-0.9c-0.2-0.3-0.5-0.5-0.8-0.6c-0.4-0.1-0.7-0.2-1.1-0.2
					c-0.8,0-1.5,0.3-2.1,0.8c-0.2,0.2-0.4,0.5-0.6,0.8c-0.1,0.3-0.2,0.6-0.2,0.9c0,0.4,0.1,0.9,0.2,1.3c0.1,0.4,0.3,0.8,0.5,1.2
					c0.2,0.3,0.5,0.6,0.9,0.8C116,301.7,116.4,301.8,116.9,301.8L116.9,301.8z"/>
				<path class="st1" d="M127.9,303.1l5.5-12.7H126v-1.6h9.2v1.4l-5.4,12.9H127.9z"/>
				<path class="st1" d="M144.7,288.6c0.5,0,1,0.1,1.5,0.2c0.5,0.1,0.9,0.4,1.3,0.6c0.4,0.3,0.7,0.7,0.9,1.1
					c0.5,1.2,0.4,2.6-0.4,3.6c-0.2,0.3-0.5,0.5-0.8,0.8c-0.3,0.2-0.7,0.4-1,0.6c0.4,0.2,0.8,0.4,1.1,0.7c0.4,0.2,0.7,0.5,1,0.8
					c0.3,0.3,0.5,0.7,0.7,1c0.2,0.4,0.3,0.8,0.3,1.3c0,0.6-0.1,1.1-0.3,1.6c-0.2,0.5-0.5,0.9-0.9,1.2c-0.4,0.4-0.9,0.6-1.4,0.8
					c-0.6,0.2-1.2,0.3-1.8,0.3c-0.6,0-1.3-0.1-1.9-0.3c-0.5-0.2-1-0.4-1.4-0.8c-0.4-0.3-0.7-0.7-0.9-1.2c-0.2-0.5-0.3-1.1-0.3-1.6
					c0-0.4,0.1-0.9,0.2-1.3c0.1-0.4,0.3-0.7,0.6-1.1c0.3-0.3,0.5-0.6,0.9-0.8c0.3-0.2,0.7-0.5,1.1-0.6c-0.3-0.2-0.6-0.4-0.9-0.7
					c-0.3-0.2-0.5-0.5-0.7-0.8c-0.2-0.3-0.4-0.6-0.5-1c-0.1-0.4-0.2-0.8-0.2-1.2c0-0.5,0.1-1,0.3-1.5c0.2-0.4,0.5-0.8,0.9-1.1
					c0.4-0.3,0.8-0.5,1.3-0.6C143.6,288.7,144.2,288.6,144.7,288.6z M141.9,299.5c0,0.3,0,0.6,0.2,1c0.1,0.3,0.3,0.5,0.5,0.7
					c0.2,0.2,0.5,0.4,0.8,0.5c0.4,0.1,0.8,0.2,1.2,0.2c0.4,0,0.8-0.1,1.2-0.2c0.3-0.1,0.6-0.3,0.9-0.5c0.2-0.2,0.4-0.5,0.5-0.8
					c0.1-0.3,0.2-0.7,0.2-1c0-0.3-0.1-0.6-0.2-0.9c-0.1-0.3-0.3-0.5-0.5-0.8c-0.3-0.3-0.5-0.5-0.9-0.7c-0.4-0.2-0.7-0.4-1.1-0.6
					l-0.3-0.1c-0.7,0.3-1.3,0.8-1.9,1.3C142.1,298.2,141.9,298.8,141.9,299.5L141.9,299.5z M144.6,290.1c-0.6,0-1.2,0.2-1.6,0.5
					c-0.4,0.4-0.6,0.9-0.6,1.5c0,0.3,0.1,0.7,0.2,1c0.1,0.3,0.3,0.5,0.5,0.7c0.2,0.2,0.5,0.4,0.7,0.6c0.3,0.2,0.6,0.3,0.9,0.5
					c0.3-0.1,0.6-0.3,0.9-0.5c0.3-0.2,0.5-0.4,0.7-0.6c0.2-0.2,0.4-0.5,0.5-0.7c0.1-0.3,0.2-0.6,0.2-0.9c0-0.6-0.2-1.1-0.6-1.5
					C145.9,290.2,145.3,290,144.6,290.1L144.6,290.1z"/>
				<path class="st1" d="M163.2,294.9c0,0.7,0,1.4-0.1,2c-0.1,0.7-0.2,1.3-0.4,1.9c-0.2,0.6-0.4,1.2-0.7,1.7c-0.3,0.5-0.7,1-1.1,1.4
					c-0.5,0.4-1.1,0.7-1.7,0.9c-0.7,0.2-1.5,0.4-2.3,0.3c-0.1,0-0.3,0-0.4,0s-0.3,0-0.4,0s-0.3,0-0.4-0.1c-0.1,0-0.3,0-0.4-0.1v-1.5
					c0.2,0.1,0.5,0.2,0.8,0.2c0.3,0,0.6,0.1,0.9,0.1c0.7,0,1.5-0.1,2.2-0.5c0.6-0.3,1-0.7,1.3-1.2c0.3-0.6,0.6-1.2,0.7-1.8
					c0.1-0.7,0.2-1.5,0.3-2.2h-0.1c-0.1,0.2-0.3,0.5-0.5,0.7c-0.2,0.2-0.4,0.4-0.6,0.5c-0.3,0.2-0.5,0.3-0.8,0.4
					c-0.3,0.1-0.7,0.1-1,0.1c-0.6,0-1.1-0.1-1.7-0.3c-0.5-0.2-0.9-0.5-1.3-0.8c-0.4-0.4-0.6-0.9-0.8-1.4c-0.2-0.6-0.3-1.2-0.3-1.8
					c0-0.7,0.1-1.4,0.3-2c0.2-0.6,0.5-1.1,0.9-1.5c0.4-0.4,0.8-0.7,1.4-1c0.6-0.2,1.2-0.3,1.8-0.3c0.6,0,1.3,0.1,1.8,0.4
					c0.6,0.3,1.1,0.7,1.5,1.2c0.5,0.6,0.8,1.3,1,2C163.1,293,163.2,294,163.2,294.9z M158.6,290.1c-0.4,0-0.7,0.1-1.1,0.2
					c-0.3,0.1-0.6,0.3-0.8,0.6c-0.2,0.3-0.4,0.7-0.5,1c-0.1,0.5-0.2,1-0.2,1.5c0,0.4,0,0.8,0.2,1.2c0.1,0.3,0.3,0.7,0.5,0.9
					c0.2,0.3,0.5,0.5,0.8,0.6c0.4,0.1,0.7,0.2,1.1,0.2c0.8,0,1.5-0.3,2.1-0.8c0.2-0.2,0.4-0.5,0.6-0.8c0.1-0.3,0.2-0.6,0.2-0.9
					c0-0.4-0.1-0.9-0.2-1.3c-0.1-0.4-0.3-0.8-0.5-1.2c-0.2-0.3-0.5-0.6-0.9-0.8C159.4,290.2,159,290.1,158.6,290.1L158.6,290.1z"/>
				<path class="st1" d="M177.3,295.9c0,1-0.1,2.1-0.2,3.1c-0.1,0.8-0.4,1.6-0.8,2.3c-0.3,0.6-0.8,1.1-1.4,1.4
					c-0.6,0.3-1.4,0.5-2.1,0.5c-0.7,0-1.4-0.2-2-0.5c-0.6-0.4-1.1-0.8-1.4-1.4c-0.4-0.7-0.7-1.5-0.8-2.3c-0.2-1-0.3-2.1-0.3-3.1
					c0-1,0.1-2.1,0.2-3.1c0.1-0.8,0.4-1.6,0.8-2.3c0.3-0.6,0.8-1.1,1.4-1.4c0.6-0.3,1.4-0.5,2.1-0.5c1.4-0.1,2.8,0.7,3.4,1.9
					c0.4,0.7,0.7,1.5,0.9,2.3C177.2,293.9,177.3,294.9,177.3,295.9z M169.9,295.9c0,0.9,0,1.7,0.1,2.6c0.1,0.6,0.2,1.2,0.5,1.8
					c0.2,0.4,0.5,0.8,0.8,1.1c0.4,0.3,0.8,0.4,1.3,0.4c0.5,0,0.9-0.1,1.3-0.4c0.4-0.3,0.7-0.7,0.9-1.1c0.3-0.6,0.4-1.2,0.5-1.8
					c0.2-1.7,0.2-3.4,0-5.1c-0.1-0.6-0.2-1.2-0.5-1.8c-0.2-0.4-0.5-0.8-0.9-1.1c-0.4-0.2-0.8-0.4-1.3-0.4c-0.5,0-0.9,0.1-1.3,0.4
					c-0.4,0.3-0.7,0.7-0.8,1.1c-0.2,0.6-0.4,1.2-0.5,1.8C170,294.2,169.9,295.1,169.9,295.9z"/>
				<path class="st1" d="M184.1,302c0-0.2,0-0.4,0.1-0.6c0.1-0.2,0.1-0.3,0.3-0.4c0.1-0.1,0.2-0.2,0.4-0.2c0.3-0.1,0.7-0.1,1,0
					c0.1,0,0.3,0.1,0.4,0.2c0.1,0.1,0.2,0.3,0.3,0.4c0.1,0.2,0.1,0.4,0.1,0.6c0,0.2,0,0.4-0.1,0.6c-0.1,0.2-0.1,0.3-0.3,0.4
					c-0.1,0.1-0.2,0.2-0.4,0.2c-0.3,0.1-0.7,0.1-1,0c-0.1-0.1-0.3-0.1-0.4-0.2c-0.1-0.1-0.2-0.3-0.3-0.4
					C184.1,302.4,184.1,302.2,184.1,302z M186,299.1h-1.2l-0.5-10.2h2.2L186,299.1z"/>
				<path class="st1" d="M208.7,296c0,0.9-0.1,1.7-0.4,2.5c-0.2,0.7-0.7,1.3-1.2,1.8c-0.5,0.4-1.1,0.7-1.8,0.6c-1,0-1.9-0.7-2.1-1.7
					H203c-0.2,0.5-0.6,1-1.1,1.3c-0.5,0.3-1.1,0.5-1.7,0.5c-0.9,0-1.7-0.3-2.3-1c-0.6-0.8-0.9-1.7-0.9-2.7c0-0.8,0.2-1.6,0.5-2.3
					c0.3-0.7,0.9-1.2,1.5-1.6c0.7-0.4,1.4-0.6,2.2-0.6c0.5,0,1,0,1.5,0.1c0.5,0.1,1,0.2,1.5,0.4l-0.2,4.6v0.2c0,1.1,0.4,1.7,1.2,1.7
					c0.6,0,1.2-0.4,1.4-1c0.4-0.8,0.6-1.8,0.5-2.7c0-1.1-0.2-2.1-0.7-3.1c-0.5-0.9-1.2-1.6-2-2c-0.9-0.5-2-0.7-3-0.7
					c-1.3,0-2.6,0.3-3.7,0.9c-1.1,0.6-1.9,1.5-2.4,2.5c-0.6,1.2-0.9,2.5-0.9,3.9c-0.1,1.7,0.4,3.3,1.6,4.5c1.2,1.1,2.9,1.7,4.5,1.6
					c1.5,0,2.9-0.3,4.3-0.9v1.4c-1.4,0.6-2.8,0.8-4.3,0.8c-2,0.1-4-0.6-5.5-1.9c-1.4-1.5-2.1-3.4-2-5.4c0-1.6,0.3-3.1,1.1-4.5
					c0.7-1.3,1.7-2.4,3-3.1c1.4-0.7,2.9-1.1,4.4-1.1c1.3,0,2.6,0.3,3.7,0.9c1.1,0.6,2,1.4,2.5,2.5
					C208.4,293.4,208.7,294.7,208.7,296z M198.6,297.2c0,1.6,0.6,2.4,1.9,2.4c1.3,0,2.1-1,2.2-3l0.1-2.5c-0.5-0.1-1-0.2-1.5-0.2
					c-0.8,0-1.5,0.3-2,0.9C198.8,295.5,198.5,296.4,198.6,297.2z"/>
				<path class="st1" d="M222.4,295.2l-0.6,3h2.7v1.3h-2.9l-0.7,3.5h-1.4l0.7-3.5h-2.8l-0.7,3.5h-1.4l0.6-3.5h-2.5v-1.3h2.7l0.6-3
					h-2.6v-1.3h2.9l0.7-3.5h1.4l-0.7,3.5h2.8l0.7-3.5h1.4l-0.7,3.5h2.5v1.3H222.4z M217.7,298.2h2.8l0.6-3h-2.8L217.7,298.2z"/>
				<path class="st1" d="M239.1,298.7c0,0.9-0.3,1.7-1,2.2c-0.8,0.6-1.8,1-2.8,1.1v2.2H234v-2.1c-0.7,0-1.4-0.1-2.1-0.2
					c-0.6-0.1-1.1-0.2-1.7-0.5v-1.6c0.6,0.3,1.2,0.5,1.8,0.6c0.7,0.2,1.3,0.3,2,0.3v-4.2c-1-0.3-2-0.8-2.8-1.5
					c-0.6-0.6-0.9-1.4-0.8-2.2c0-0.8,0.3-1.6,1-2.1c0.8-0.6,1.7-1,2.7-1v-1.8h1.3v1.7c1.2,0,2.4,0.3,3.5,0.7l-0.5,1.4
					c-1-0.4-2-0.6-3-0.7v4.1c0.8,0.2,1.6,0.6,2.3,1c0.5,0.3,0.8,0.6,1.1,1.1C238.9,297.7,239.1,298.2,239.1,298.7z M232.1,292.8
					c0,0.4,0.1,0.8,0.4,1.2c0.4,0.4,0.9,0.7,1.5,0.8v-3.6c-0.5,0.1-1,0.3-1.4,0.6C232.2,292,232.1,292.4,232.1,292.8L232.1,292.8z
					 M237.3,298.8c0-0.4-0.1-0.8-0.5-1.1c-0.5-0.4-1-0.6-1.6-0.8v3.7C236.6,300.4,237.3,299.8,237.3,298.8L237.3,298.8z"/>
				<path class="st1" d="M250.3,294.1c0,0.5-0.1,1-0.2,1.5c-0.1,0.4-0.3,0.8-0.5,1.1c-0.2,0.3-0.6,0.6-0.9,0.7
					c-0.4,0.2-0.9,0.3-1.3,0.2c-0.4,0-0.9-0.1-1.2-0.2c-0.4-0.2-0.7-0.4-0.9-0.7c-0.3-0.3-0.4-0.7-0.6-1.1c-0.1-0.5-0.2-1-0.2-1.5
					c0-0.5,0-1,0.2-1.5c0.1-0.4,0.3-0.8,0.5-1.1c0.2-0.3,0.5-0.6,0.9-0.7c0.4-0.2,0.9-0.2,1.3-0.2c0.4,0,0.9,0.1,1.3,0.2
					c0.4,0.2,0.7,0.4,0.9,0.7c0.3,0.3,0.5,0.7,0.6,1.1C250.2,293,250.3,293.5,250.3,294.1z M245.9,294.1c0,0.6,0.1,1.2,0.3,1.8
					c0.2,0.4,0.7,0.6,1.1,0.6c1,0,1.5-0.8,1.5-2.3c0-1.6-0.5-2.3-1.5-2.3c-0.4,0-0.9,0.2-1.1,0.6C246,292.9,245.9,293.5,245.9,294.1
					L245.9,294.1z M256.3,290.7l-7.7,12.4H247l7.7-12.4H256.3z M258.7,299.7c0,0.5,0,1-0.2,1.5c-0.1,0.4-0.3,0.8-0.5,1.1
					c-0.2,0.3-0.6,0.6-0.9,0.7c-0.4,0.2-0.9,0.3-1.3,0.2c-0.4,0-0.9-0.1-1.3-0.2c-0.4-0.2-0.7-0.4-0.9-0.7c-0.3-0.3-0.4-0.7-0.5-1.1
					c-0.1-0.5-0.2-1-0.2-1.5c0-0.5,0.1-1,0.2-1.5c0.1-0.4,0.3-0.8,0.5-1.1c0.2-0.3,0.5-0.5,0.9-0.7c0.4-0.2,0.9-0.3,1.3-0.2
					c0.4,0,0.9,0.1,1.3,0.2c0.4,0.2,0.7,0.4,0.9,0.7c0.3,0.3,0.4,0.7,0.6,1.1C258.7,298.6,258.7,299.2,258.7,299.7L258.7,299.7z
					 M254.4,299.7c0,0.6,0.1,1.2,0.3,1.8c0.2,0.4,0.7,0.6,1.1,0.6c1,0,1.5-0.8,1.5-2.3c0-1.6-0.5-2.3-1.5-2.3
					c-0.4,0-0.9,0.2-1.1,0.6C254.4,298.5,254.3,299.1,254.4,299.7L254.4,299.7z"/>
				<path class="st1" d="M263.5,297.7l4.5-9h1l4.4,9h-1.6l-3.3-7.2l-3.4,7.2H263.5z"/>
				<path class="st1" d="M278,299.4c0-0.8,0.2-1.6,0.7-2.2c0.7-0.8,1.5-1.5,2.4-2c-0.4-0.4-0.7-0.9-1.1-1.3c-0.2-0.3-0.4-0.7-0.5-1
					c-0.1-0.4-0.2-0.7-0.2-1.1c0-0.9,0.3-1.7,1-2.3c0.8-0.6,1.7-0.9,2.7-0.8c0.9-0.1,1.8,0.2,2.5,0.8c0.6,0.6,1,1.4,0.9,2.3
					c0,0.7-0.2,1.4-0.7,2c-0.6,0.7-1.4,1.3-2.2,1.8l3.9,3.7c0.7-0.9,1.2-2,1.4-3.2h1.8c-0.3,1.6-1,3.1-2,4.3l2.9,2.8h-2.4l-1.7-1.7
					c-0.7,0.6-1.4,1.1-2.3,1.4c-0.8,0.3-1.7,0.5-2.6,0.4c-1.2,0.1-2.4-0.3-3.3-1C278.3,301.5,277.9,300.5,278,299.4z M282.5,301.7
					c1.4,0,2.7-0.5,3.7-1.4l-4.2-4c-0.7,0.4-1.3,0.9-1.8,1.5c-0.3,0.5-0.5,1-0.5,1.6c0,0.7,0.2,1.3,0.8,1.8
					C281.1,301.5,281.8,301.8,282.5,301.7z M281,291.7c0,0.4,0.1,0.9,0.3,1.3c0.3,0.5,0.7,1,1.1,1.4c0.6-0.3,1.2-0.8,1.7-1.3
					c0.3-0.4,0.5-0.9,0.5-1.4c0-0.5-0.2-0.9-0.5-1.2c-0.4-0.3-0.8-0.5-1.3-0.4c-0.5,0-1,0.1-1.4,0.5
					C281.2,290.8,281,291.2,281,291.7L281,291.7z"/>
				<path class="st1" d="M301.7,288.2l-0.4,3.8l3.9-1.1l0.3,1.9l-3.7,0.3l2.4,3.2l-1.7,0.9l-1.7-3.5l-1.5,3.5l-1.8-0.9l2.4-3.2
					l-3.7-0.3l0.3-1.9l3.8,1.1l-0.4-3.8H301.7z"/>
				<path class="st1" d="M311,296.3c0-0.9,0.1-1.8,0.2-2.7c0.1-0.9,0.3-1.7,0.5-2.6c0.2-0.8,0.5-1.6,0.9-2.4
					c0.4-0.8,0.8-1.5,1.3-2.2h1.6c-0.9,1.5-1.6,3-2.1,4.7c-0.2,0.8-0.4,1.7-0.5,2.6c-0.4,2.7-0.2,5.4,0.5,7.9
					c0.5,1.7,1.2,3.3,2.1,4.7h-1.6c-0.5-0.7-0.9-1.4-1.3-2.2c-0.4-0.8-0.7-1.6-0.9-2.5c-0.2-0.9-0.4-1.7-0.5-2.6
					C311.1,298.2,311,297.3,311,296.3z"/>
				<path class="st1" d="M325.5,296.5c0,0.9-0.1,1.8-0.2,2.7c-0.1,0.9-0.3,1.7-0.5,2.6c-0.2,0.8-0.5,1.6-0.9,2.4
					c-0.4,0.8-0.8,1.5-1.3,2.2h-1.6c0.9-1.5,1.6-3,2.1-4.7c0.2-0.8,0.4-1.7,0.5-2.6c0.4-2.7,0.2-5.4-0.5-7.9
					c-0.5-1.7-1.2-3.3-2.1-4.7h1.6c0.5,0.7,0.9,1.4,1.3,2.2c0.4,0.8,0.7,1.6,0.9,2.5c0.2,0.9,0.4,1.7,0.5,2.6
					C325.4,294.7,325.5,295.6,325.5,296.5z"/>
				<path class="st1" d="M54.3,118.1h-2.1l-7.6-11.9h-0.1l0,0.8c0.1,1.2,0.1,2.2,0.1,3.1v8H43v-14.3h2.1l0.4,0.7l4.7,7.2l2.5,3.9
					h0.1c0-0.2,0-0.7-0.1-1.7c0-1-0.1-1.7-0.1-2.1v-8.1h1.7L54.3,118.1z"/>
				<path class="st1" d="M70.3,112.7c0.1,1.5-0.4,3-1.3,4.1c-0.9,1-2.3,1.5-3.7,1.5c-0.9,0-1.8-0.2-2.6-0.7
					c-0.8-0.5-1.4-1.1-1.7-1.9c-0.4-0.9-0.6-1.9-0.6-2.9c-0.1-1.5,0.4-2.9,1.3-4.1c0.9-1,2.3-1.5,3.7-1.5c1.4-0.1,2.7,0.5,3.6,1.5
					C69.9,109.8,70.3,111.2,70.3,112.7z M62.2,112.7c-0.1,1.1,0.2,2.2,0.8,3.1c1.2,1.3,3.1,1.4,4.4,0.3c0.1-0.1,0.2-0.2,0.3-0.3
					c0.6-0.9,0.9-2,0.8-3.1c0.1-1.1-0.2-2.1-0.8-3c-0.6-0.7-1.5-1.1-2.4-1C63.2,108.7,62.2,110,62.2,112.7z"/>
				<path class="st1" d="M79.6,116.9c0.3,0,0.5,0,0.8-0.1c0.2,0,0.5-0.1,0.7-0.2v1.3c-0.2,0.1-0.5,0.2-0.8,0.2
					c-0.3,0.1-0.7,0.1-1,0.1c-2.1,0-3.1-1.1-3.1-3.3v-6.2h-1.5v-0.8l1.5-0.7l0.7-2.3h1v2.5H81v1.4h-3.1v6.2c0,0.5,0.1,1,0.4,1.4
					C78.7,116.7,79.2,116.9,79.6,116.9z"/>
				<path class="st1" d="M95.6,112.7c0.1,1.5-0.4,3-1.3,4.1c-0.9,1-2.3,1.5-3.7,1.5c-0.9,0-1.8-0.2-2.6-0.7
					c-0.8-0.5-1.4-1.1-1.7-1.9c-0.4-0.9-0.6-1.9-0.6-2.9c-0.1-1.5,0.4-2.9,1.3-4.1c0.9-1,2.3-1.5,3.7-1.5c1.4-0.1,2.7,0.5,3.6,1.5
					C95.2,109.8,95.6,111.2,95.6,112.7z M87.5,112.7c-0.1,1.1,0.2,2.2,0.8,3.1c1.2,1.3,3.1,1.4,4.4,0.3c0.1-0.1,0.2-0.2,0.3-0.3
					c0.6-0.9,0.9-2,0.8-3.1c0.1-1.1-0.2-2.1-0.8-3c-0.6-0.7-1.5-1.1-2.4-1C88.5,108.7,87.5,110,87.5,112.7z"/>
				<path class="st1" d="M117.9,114.3c0,1.1-0.5,2.2-1.3,2.9c-1.1,0.8-2.4,1.2-3.8,1.1c-1.3,0.1-2.7-0.2-3.9-0.7v-1.7
					c0.6,0.3,1.3,0.5,2,0.6c0.7,0.1,1.3,0.2,2,0.2c0.8,0.1,1.7-0.2,2.4-0.6c0.5-0.4,0.8-1,0.8-1.7c0-0.4-0.1-0.8-0.3-1.2
					c-0.3-0.4-0.6-0.7-1-0.9c-0.7-0.4-1.4-0.7-2.1-0.9c-1.1-0.3-2-0.9-2.8-1.7c-0.6-0.7-0.9-1.6-0.8-2.5c0-1,0.4-2,1.3-2.7
					c1-0.7,2.1-1,3.3-1c1.4,0,2.7,0.3,3.9,0.8L117,106c-1.1-0.5-2.2-0.7-3.4-0.8c-0.7,0-1.4,0.2-2,0.5c-0.5,0.4-0.7,0.9-0.7,1.5
					c0,0.4,0.1,0.8,0.3,1.2c0.2,0.3,0.5,0.6,0.9,0.8c0.6,0.3,1.3,0.6,1.9,0.9c0.8,0.3,1.6,0.7,2.4,1.1c0.5,0.3,0.9,0.8,1.2,1.3
					C117.8,113.1,117.9,113.7,117.9,114.3z"/>
				<path class="st1" d="M130.1,118.1l-0.3-1.5h-0.1c-0.4,0.6-1,1-1.6,1.4c-0.6,0.3-1.3,0.4-2,0.4c-0.9,0.1-1.8-0.2-2.5-0.8
					c-0.6-0.6-1-1.5-0.9-2.3c0-2.2,1.7-3.3,5.1-3.4l1.8-0.1V111c0.1-0.6-0.1-1.3-0.5-1.8c-0.5-0.4-1.1-0.6-1.7-0.6
					c-0.5,0-1.1,0.1-1.6,0.3c-0.5,0.2-1,0.4-1.4,0.6l-0.5-1.3c0.6-0.3,1.2-0.5,1.8-0.7c0.6-0.2,1.3-0.2,1.9-0.2
					c1-0.1,2.1,0.2,2.9,0.9c0.7,0.7,1,1.7,0.9,2.7v7.3L130.1,118.1z M126.5,116.9c0.8,0,1.7-0.2,2.3-0.8c0.6-0.6,0.9-1.4,0.8-2.3v-1
					l-1.6,0.1c-0.9,0-1.9,0.2-2.7,0.6c-0.6,0.3-0.9,1-0.8,1.6c0,0.5,0.2,1,0.5,1.3C125.5,116.7,126,116.9,126.5,116.9L126.5,116.9z"
					/>
				<path class="st1" d="M145,118.1v-6.9c0.1-0.7-0.2-1.4-0.6-1.9c-0.5-0.5-1.2-0.7-1.8-0.6c-0.9-0.1-1.8,0.3-2.4,0.9
					c-0.6,0.9-0.8,1.9-0.7,3v5.6h-1.8v-10.7h1.4l0.3,1.5h0.1c0.3-0.5,0.8-1,1.4-1.2c0.6-0.3,1.3-0.4,2-0.4c1.1-0.1,2.1,0.3,2.9,1
					c0.7,0.8,1,1.9,1,3v7L145,118.1z"/>
				<path class="st1" d="M160.1,115.1c0,0.9-0.4,1.8-1.1,2.3c-0.9,0.6-2,0.9-3.2,0.8c-1.2,0.1-2.3-0.2-3.4-0.7V116
					c1.1,0.5,2.2,0.8,3.4,0.9c0.7,0.1,1.3-0.1,1.9-0.4c0.4-0.3,0.6-0.7,0.6-1.2c0-0.4-0.2-0.8-0.6-1.1c-0.6-0.4-1.3-0.8-2.1-1
					c-0.7-0.3-1.5-0.6-2.1-1c-0.4-0.2-0.7-0.6-0.9-0.9c-0.2-0.4-0.3-0.8-0.3-1.3c0-0.8,0.4-1.6,1.1-2.1c0.9-0.6,1.9-0.8,2.9-0.8
					c1.2,0,2.3,0.2,3.4,0.7l-0.6,1.4c-0.9-0.4-1.9-0.7-2.9-0.7c-0.6,0-1.1,0.1-1.7,0.3c-0.4,0.2-0.6,0.6-0.6,1c0,0.4,0.2,0.7,0.5,1
					c0.7,0.4,1.5,0.8,2.3,1.1c0.7,0.2,1.4,0.5,2,0.9c0.4,0.2,0.7,0.6,0.9,1C160,114.2,160.1,114.7,160.1,115.1z"/>
			</g>
		</g>
	</g>
</g>
</svg>
