<svg xmlns="http://www.w3.org/2000/svg" width="600" height="410" viewBox="0 0 600 410"><title>noto-sans</title><g id="Layer_2" data-name="Layer 2"><g id="Layer_1-2" data-name="Layer 1"><g id="Layer_2-2" data-name="Layer 2"><g id="Layer_1-2-2" data-name="Layer 1-2"><rect width="600" height="410" fill="#1e1e1e"/><path d="M84.6338,205.0938l-6.875-17.6953H55.1025l-6.7969,17.6953H41.04L63.3447,147.75h6.4844l22.2656,57.3437ZM75.61,181.0313l-6.4062-17.3047-2.7344-8.5547q-1.1719,4.6875-2.4609,8.5547l-6.4844,17.3047Z" fill="#ededed"/><path d="M129.4541,205.0938,128.0869,199h-.3125a18.014,18.014,0,0,1-6.3867,5.4492,19.7008,19.7008,0,0,1-8.0273,1.4258q-6.3281,0-9.9219-3.32t-3.5937-9.375q0-13.0459,20.5859-13.6719l7.2656-.2734v-2.5391q0-4.8823-2.1094-7.207t-6.7578-2.3242a20.0765,20.0765,0,0,0-6.4258,1.0156,52.8762,52.8762,0,0,0-5.6836,2.2656l-2.1484-5.2734a31.8447,31.8447,0,0,1,7.07-2.6953,30.5962,30.5962,0,0,1,7.5781-.9766q7.7725,0,11.5625,3.4375,3.7881,3.438,3.7891,10.9375v29.2184Zm-14.4922-4.8828q5.8975,0,9.2773-3.1836,3.3779-3.1831,3.3789-9.043v-3.8672l-6.3281.2734q-7.3828.2739-10.7617,2.3438a7.0919,7.0919,0,0,0-3.3789,6.5234,6.4872,6.4872,0,0,0,2.0506,5.156,8.4576,8.4576,0,0,0,5.7619,1.7972Z" fill="#ededed"/><path d="M199.9931,147.9844q8.3979,0,12.6758,3.32t4.2773,9.8047a13.4863,13.4863,0,0,1-3.34,9.2773,16.3015,16.3015,0,0,1-9.5117,4.9414v.3906a12.6823,12.6823,0,0,1,6.8164,4.2773,11.5447,11.5447,0,0,1,2.3633,7.3242q0,8.2427-5.8594,13.0078T191.36,205.0938H173.1181l12.07-57.1094ZM181.5165,199h10.0781q6.7969,0,10.4883-3.0273t3.6914-8.6523a8.3284,8.3284,0,0,0-2.793-6.7578q-2.7935-2.3437-8.1055-2.3437h-8.9453Zm5.6641-26.7187h9.375q5.937,0,9.4531-2.7539a9.0765,9.0765,0,0,0,3.5156-7.5586,7.1731,7.1731,0,0,0-2.4219-5.82q-2.4228-2.03-7.9687-2.0312h-8.0859Z" fill="#ededed"/><path d="M243.3681,205.8751a11.6868,11.6868,0,0,1-6.6016-1.9141,11.8229,11.8229,0,0,1-4.375-5.43h-.3906l-2.6171,6.5628h-5.3125l12.8906-60.7812h7.0313l-3.0469,14.375q-.7031,3.4775-1.68,7.2266a39.771,39.771,0,0,1-1.25,4.2969h.3125a29.1069,29.1069,0,0,1,7.3242-6.7773,13.4539,13.4539,0,0,1,6.8164-1.9336,10.5451,10.5451,0,0,1,8.6523,3.8086q3.1055,3.8086,3.1055,10.7617a41.64,41.64,0,0,1-2.6562,15.02A25.4521,25.4521,0,0,1,254.13,201.95,16.5287,16.5287,0,0,1,243.3681,205.8751Zm6.875-38.5547q-3.7119,0-7.48,3.6914a25.8835,25.8835,0,0,0-5.9375,9.2578,30.5315,30.5315,0,0,0-2.168,11.1523,9.0545,9.0545,0,0,0,2.09,6.3477,7.817,7.817,0,0,0,6.0742,2.2852,10.0344,10.0344,0,0,0,7.1094-3.2031,21.9819,21.9819,0,0,0,5.1953-8.8867,37.2752,37.2752,0,0,0,1.9135-11.9728Q257.04,167.32,250.2431,167.32Z" fill="#ededed"/><path d="M328.3994,157.2422a12.34,12.34,0,0,0-10.5859,5.1367q-3.75,5.1372-3.75,14.3164,0,19.1016,14.3359,19.1016,6.0146,0,14.57-3.0078v10.1563a40.4632,40.4632,0,0,1-15.7031,2.93q-12.4614,0-19.0625-7.5586t-6.6016-21.6992a35.4262,35.4262,0,0,1,3.2422-15.6055,23.4309,23.4309,0,0,1,9.3164-10.2734,27.5573,27.5573,0,0,1,14.2383-3.5742,38.44,38.44,0,0,1,16.7188,4.0234l-3.9062,9.8438a64.8778,64.8778,0,0,0-6.4453-2.6563A19.24,19.24,0,0,0,328.3994,157.2422Z" fill="#ededed"/><path d="M375.915,205.8751q-20.3906,0-20.3906-22.3828,0-11.1328,5.5469-17.0117t15.8984-5.8789a30.32,30.32,0,0,1,13.5938,2.9688l-3.5156,9.2188q-2.8125-1.1323-5.2344-1.8555a16.8816,16.8816,0,0,0-4.8437-.7227q-9.2974,0-9.2969,13.2031,0,12.813,9.2969,12.8125a21.19,21.19,0,0,0,6.3672-.918,22.9464,22.9464,0,0,0,5.8594-2.8711v10.1953a19.196,19.196,0,0,1-5.84,2.5391A32.8491,32.8491,0,0,1,375.915,205.8751Z" fill="#ededed"/><path d="M453.7588,205.0938h-12.07V172.0469q0-1.0151.02-2.4414t.0781-2.9687q.0586-1.5425.1172-3.1055t.0977-2.8516q-.1963.2344-.6641.7031t-1.0547,1.0352q-.5859.5669-1.2109,1.1523t-1.2109,1.0547l-6.5625,5.2734-5.8594-7.2656,18.3984-14.6484H453.76Z" fill="#ededed"/><path d="M511.4306,205.0938H473.11v-8.3984l13.4375-14.4922q2.5386-2.7334,4.6094-5.0391a42.4319,42.4319,0,0,0,3.5547-4.4922,20.1579,20.1579,0,0,0,2.3047-4.4531,14.2324,14.2324,0,0,0,.82-4.8828,5.8067,5.8067,0,0,0-1.7383-4.4922,6.6213,6.6213,0,0,0-4.668-1.6016,12.4355,12.4355,0,0,0-5.9375,1.5234,30.8349,30.8349,0,0,0-5.9766,4.3359l-6.5625-7.7734q1.7578-1.6011,3.6719-3.0664a24.8713,24.8713,0,0,1,9.2969-4.4141,26.0217,26.0217,0,0,1,6.2109-.6836,22.3707,22.3707,0,0,1,7.3633,1.1328,16.0017,16.0017,0,0,1,5.5664,3.2227,13.9439,13.9439,0,0,1,3.5352,5.0586,17.3025,17.3025,0,0,1,1.23,6.68,17.8418,17.8418,0,0,1-1.1719,6.4258,28.6385,28.6385,0,0,1-3.2031,6.0156,53.6221,53.6221,0,0,1-4.707,5.8594q-2.6764,2.9106-5.7227,5.918l-6.875,6.9141v.5469h23.2813Z" fill="#ededed"/><path d="M557.2666,160.7579a14.1024,14.1024,0,0,1-.957,5.332,13.3394,13.3394,0,0,1-2.6172,4.1406,14.7556,14.7556,0,0,1-3.9062,2.9688,20.4466,20.4466,0,0,1-4.8633,1.8164v.2344q6.9142.86,10.4688,4.1992a11.7665,11.7665,0,0,1,3.5547,9.0039,17.6023,17.6023,0,0,1-1.3477,6.9336,14.57,14.57,0,0,1-4.1406,5.5273,19.9539,19.9539,0,0,1-7.0312,3.6523,33.9882,33.9882,0,0,1-9.98,1.3086,47.0335,47.0335,0,0,1-8.6719-.7617,34.0047,34.0047,0,0,1-7.5781-2.3242V192.5157a28.059,28.059,0,0,0,3.7109,1.6406,40.4258,40.4258,0,0,0,3.9063,1.1914,31.96,31.96,0,0,0,3.8477.7227,29.1727,29.1727,0,0,0,3.5742.2344,21.0407,21.0407,0,0,0,5.5859-.625,9.2556,9.2556,0,0,0,3.5547-1.7578,6.3309,6.3309,0,0,0,1.8945-2.7148,10.204,10.204,0,0,0,.5664-3.457,6.9458,6.9458,0,0,0-.7227-3.1836,6.13,6.13,0,0,0-2.3437-2.4219,13.355,13.355,0,0,0-4.2383-1.543,32.1709,32.1709,0,0,0-6.4453-.5469H529.025v-8.4766h3.9844a23.3374,23.3374,0,0,0,5.9766-.6445,10.69,10.69,0,0,0,3.8086-1.7578,6.16,6.16,0,0,0,2.0117-2.5977,8.5361,8.5361,0,0,0,.5859-3.1641,6.1105,6.1105,0,0,0-1.8945-4.7656q-1.8955-1.7183-5.9961-1.7187a15.6642,15.6642,0,0,0-3.4961.3711,19.4963,19.4963,0,0,0-3.0078.9375,19.265,19.265,0,0,0-2.5391,1.25q-1.1527.6841-2.09,1.3477l-6.0937-8.0469a27.82,27.82,0,0,1,3.5742-2.2266,28.6722,28.6722,0,0,1,4.1992-1.7773,31.1931,31.1931,0,0,1,4.8828-1.1914,34.5194,34.5194,0,0,1,5.5859-.43,29.9247,29.9247,0,0,1,7.6758.918,18.3258,18.3258,0,0,1,5.918,2.6563,12.2506,12.2506,0,0,1,3.8086,4.2578A12.0274,12.0274,0,0,1,557.2666,160.7579Z" fill="#ededed"/><path d="M51.9384,245.0938,50.22,240.67H44.5556l-1.6992,4.4238H41.04l5.5762-14.3359h1.6211l5.5664,14.3359Zm-2.2559-6.0156-1.6016-4.3262-.6836-2.1387q-.293,1.1719-.6152,2.1387l-1.6211,4.3262Z" fill="#ededed"/><path d="M58.7666,230.8165h4.0723a7.6744,7.6744,0,0,1,4.1455.8545,2.9968,2.9968,0,0,1,1.2744,2.6807,3.1426,3.1426,0,0,1-.6934,2.0947,3.32,3.32,0,0,1-2.0215,1.0693v.0977a4.0947,4.0947,0,0,1,2.4268,1.1426,3.2648,3.2648,0,0,1,.7764,2.2754,3.6515,3.6515,0,0,1-1.3086,2.9883,5.6041,5.6041,0,0,1-3.6524,1.0741h-5.02Zm1.7969,6.0742H63.2a4.3155,4.3155,0,0,0,2.4414-.5371,2.0449,2.0449,0,0,0,.7617-1.7969,1.8346,1.8346,0,0,0-.835-1.6895,5.1778,5.1778,0,0,0-2.6416-.5176H60.5632Zm0,1.5039V243.57h2.8809a4.0468,4.0468,0,0,0,2.5488-.6641,2.4211,2.4211,0,0,0,.83-2.0117,2.1426,2.1426,0,0,0-.8789-1.89,4.6378,4.6378,0,0,0-2.6367-.61Z" fill="#ededed"/><path d="M80.8779,232.1938a4.5139,4.5139,0,0,0-3.623,1.543,6.283,6.283,0,0,0-1.3184,4.2188,6.3773,6.3773,0,0,0,1.2793,4.2627,4.527,4.527,0,0,0,3.6426,1.499,12.1454,12.1454,0,0,0,3.4277-.5664v1.5625a8.7345,8.7345,0,0,1-1.748.4541,13.63,13.63,0,0,1-1.9336.1221,6.1564,6.1564,0,0,1-4.8584-1.9189,7.9148,7.9148,0,0,1-1.7041-5.4346,8.6718,8.6718,0,0,1,.8154-3.8672A5.8633,5.8633,0,0,1,77.23,231.51a7.2159,7.2159,0,0,1,3.667-.8984,8.7251,8.7251,0,0,1,3.9453.84l-.7227,1.5234A7.8151,7.8151,0,0,0,80.8779,232.1938Z" fill="#ededed"/><path d="M101.8369,237.8184a7.1887,7.1887,0,0,1-1.9287,5.4053,7.6261,7.6261,0,0,1-5.5322,1.87H90.4014V230.8165h4.3945a7.0639,7.0639,0,0,1,5.1855,1.8311A6.94,6.94,0,0,1,101.8369,237.8184Zm-1.8945.0586A5.7453,5.7453,0,0,0,98.6,233.751,5.3726,5.3726,0,0,0,94.542,232.35H92.1983v11.2012h1.9434q5.8006,0,5.8006-5.6738Z" fill="#ededed"/><path d="M115.9795,245.0938H108.001V230.8165h7.9785v1.582h-6.1816v4.4531h5.82v1.5622h-5.82v5.0977h6.1816Z" fill="#ededed"/><path d="M123.9209,245.0938H122.124V230.8165h7.9785v1.582h-6.1816v5.0586h5.8008v1.5723h-5.8008Z" fill="#ededed"/><path d="M141.706,237.5547h4.9316v7.002a15.6075,15.6075,0,0,1-2.3047.5469,17.503,17.503,0,0,1-2.7148.1855,6.5331,6.5331,0,0,1-5.0488-1.9336,7.6565,7.6565,0,0,1-1.7871-5.4,8.1971,8.1971,0,0,1,.8887-3.9062,6.0238,6.0238,0,0,1,2.5635-2.5537,8.3547,8.3547,0,0,1,3.95-.8838,10.76,10.76,0,0,1,4.2578.84l-.6836,1.5625a9.1886,9.1886,0,0,0-3.6816-.82,5.1755,5.1755,0,0,0-3.9844,1.543,5.949,5.949,0,0,0-1.4355,4.2188,6.0911,6.0911,0,0,0,1.377,4.3066,5.2112,5.2112,0,0,0,4.0039,1.4746,11.5289,11.5289,0,0,0,2.8027-.3418v-4.2383H141.706Z" fill="#ededed"/><path d="M163.9834,245.0938h-1.7969v-6.66h-7.3242v6.66h-1.7969V230.8165h1.7969v6.0352h7.3242v-6.0352h1.7969Z" fill="#ededed"/><path d="M174.9033,245.0938H169.747v-1.0352l1.68-.3809V232.252l-1.68-.4v-1.0352h5.1563v1.0352l-1.68.4v11.4258l1.68.3809Z" fill="#ededed"/><path d="M178.6455,248.8926a3.5451,3.5451,0,0,1-1.4844-.2637v-1.5137a5.3179,5.3179,0,0,0,1.4453.1953,1.7919,1.7919,0,0,0,1.4648-.5908,2.6111,2.6111,0,0,0,.4883-1.7041V230.8165h1.8066v14.0527a4.2408,4.2408,0,0,1-.9619,2.9785A3.5636,3.5636,0,0,1,178.6455,248.8926Z" fill="#ededed"/><path d="M199.5654,245.0938h-2.1191l-5.0684-6.8164-1.4551,1.2793v5.5371h-1.7969V230.8165h1.7969v7.041l1.23-1.3574,5.0879-5.6836h2.1l-5.6543,6.2207Z" fill="#ededed"/><path d="M204.5088,245.0938V230.8165h1.7969v12.6758h6.24v1.6015Z" fill="#ededed"/><path d="M224.2861,245.0938l-4.707-12.52h-.0781q.1465,1.563.1465,3.8574v8.6626h-1.66V230.8165h2.6563l4.4043,11.6992h.0781l4.4824-11.6992h2.6367v14.2773H230.468v-8.7793q0-1.4648.1367-3.7207h-.0781l-4.7659,12.5Z" fill="#ededed"/><path d="M250.45,245.0938h-2.1l-7.6465-11.8555h-.0781l.0488.791q.1172,1.7769.1172,3.0859v7.9786h-1.66V230.8165h2.08l.44.6934,4.6875,7.2461,2.49,3.877h.0781q-.02-.2344-.0781-1.6748t-.0586-2.085v-8.0566h1.68Z" fill="#ededed"/><path d="M269.788,237.9356a7.8593,7.8593,0,0,1-1.7334,5.3906,6.13,6.13,0,0,1-4.8486,1.9629,6.2,6.2,0,0,1-4.8779-1.9287,9.42,9.42,0,0,1-.01-10.85,6.2364,6.2364,0,0,1,4.9072-1.9189,6.1253,6.1253,0,0,1,4.834,1.9482A7.8487,7.8487,0,0,1,269.788,237.9356Zm-11.2891,0A6.7256,6.7256,0,0,0,259.7,242.252a4.8817,4.8817,0,0,0,6.9029.1088q.0452-.0438.0893-.0888a8.4712,8.4712,0,0,0,.01-8.6475,4.2221,4.2221,0,0,0-3.4766-1.45,4.2888,4.2888,0,0,0-3.5254,1.47,6.6437,6.6437,0,0,0-1.2013,4.2911Z" fill="#ededed"/><path d="M285.083,235.0157a4.0045,4.0045,0,0,1-1.4941,3.3545,6.6932,6.6932,0,0,1-4.209,1.167h-1.6406v5.5566h-1.7969V230.8165h3.7793Q285.083,230.8165,285.083,235.0157Zm-7.3438,2.9781h1.4355a5.38,5.38,0,0,0,3.0859-.6885,2.5375,2.5375,0,0,0,.957-2.2119,2.4376,2.4376,0,0,0-.8887-2.0605,4.5478,4.5478,0,0,0-2.7734-.6836h-1.8164Z" fill="#ededed"/><path d="M303.5029,237.9356a8.6374,8.6374,0,0,1-1.084,4.5117,5.6059,5.6059,0,0,1-3.0762,2.49l3.418,3.5547h-2.5781l-2.7637-3.2227-.498.02a6.2,6.2,0,0,1-4.8779-1.9287,9.42,9.42,0,0,1-.01-10.85,6.2364,6.2364,0,0,1,4.907-1.9188,6.1253,6.1253,0,0,1,4.834,1.9482A7.8488,7.8488,0,0,1,303.5029,237.9356Zm-11.2891,0a6.7256,6.7256,0,0,0,1.2012,4.3164,4.8817,4.8817,0,0,0,6.9029.1088q.0452-.0438.0893-.0888a8.4712,8.4712,0,0,0,.01-8.6475,4.2221,4.2221,0,0,0-3.4766-1.45,4.2888,4.2888,0,0,0-3.5254,1.47A6.6436,6.6436,0,0,0,292.2138,237.9356Z" fill="#ededed"/><path d="M311.4541,239.1954v5.8984h-1.7969V230.8165h3.9355a6.2843,6.2843,0,0,1,3.9307,1.0107,3.6462,3.6462,0,0,1,1.2744,3.042,3.78,3.78,0,0,1-2.8613,3.8281l3.916,6.3965h-2.1l-3.457-5.8984Zm0-1.5234h2.1387a3.8673,3.8673,0,0,0,2.5391-.6836,2.5238,2.5238,0,0,0,.8008-2.0312,2.3191,2.3191,0,0,0-.81-1.9678,4.3717,4.3717,0,0,0-2.627-.62h-2.041Z" fill="#ededed"/><path d="M333.1943,241.2754a3.5554,3.5554,0,0,1-1.3477,2.9395,5.8717,5.8717,0,0,1-3.75,1.0742,9.1926,9.1926,0,0,1-3.9258-.6738v-1.7187a10.3247,10.3247,0,0,0,1.9873.6152,9.95,9.95,0,0,0,2.0166.2246,3.9562,3.9562,0,0,0,2.4121-.6152,2.0048,2.0048,0,0,0,.81-1.6895,2.141,2.141,0,0,0-.293-1.1719,2.8044,2.8044,0,0,0-.9814-.8594,13.7931,13.7931,0,0,0-2.085-.9082,6.7694,6.7694,0,0,1-2.832-1.7041,3.7332,3.7332,0,0,1-.85-2.5342,3.2026,3.2026,0,0,1,1.2549-2.6562,5.1989,5.1989,0,0,1,3.3057-.9863,9.5528,9.5528,0,0,1,3.9355.8008l-.5566,1.543a8.9649,8.9649,0,0,0-3.418-.7617,3.2135,3.2135,0,0,0-1.9873.5469,1.8167,1.8167,0,0,0-.7178,1.5332,2.237,2.237,0,0,0,.2783,1.167,2.5983,2.5983,0,0,0,.8984.8447,11.6519,11.6519,0,0,0,1.9482.8691,10.652,10.652,0,0,1,2.373,1.1377,3.5871,3.5871,0,0,1,1.1523,1.27A3.687,3.687,0,0,1,333.1943,241.2754Z" fill="#ededed"/><path d="M343.5966,245.0938H341.79V232.3985h-4.4629v-1.582H348.03v1.582h-4.4336Z" fill="#ededed"/><path d="M364.0576,230.8165v9.2383a5.0317,5.0317,0,0,1-1.4746,3.8379,5.7137,5.7137,0,0,1-4.0918,1.3965,5.462,5.462,0,0,1-4.0137-1.4111,5.1879,5.1879,0,0,1-1.4258-3.8623v-9.1992h1.8066v9.2572a3.7156,3.7156,0,0,0,.9326,2.7051,3.7561,3.7561,0,0,0,2.8076.957,3.3175,3.3175,0,0,0,3.6719-3.6816V230.816Z" fill="#ededed"/><path d="M368.874,230.8165h1.8848l3.2129,9.16a23.9681,23.9681,0,0,1,.8984,3.1152,25.0419,25.0419,0,0,1,.9082-3.1543l3.1934-9.1211h1.9043l-5.0977,14.2775h-1.8066Z" fill="#ededed"/><path d="M398.417,245.0938h-1.8164l-2.7832-9.3555a25.7466,25.7466,0,0,1-.7227-2.8223,20.1379,20.1379,0,0,1-.6836,2.8809l-2.6953,9.2969h-1.8164L384.12,230.8165h1.875l2.2168,8.7207a29.1378,29.1378,0,0,1,.6836,3.3984,24.6673,24.6673,0,0,1,.7617-3.5059l2.52-8.6133h1.8555l2.627,8.6816a25.751,25.751,0,0,1,.7813,3.4375,26.1746,26.1746,0,0,1,.6934-3.418l2.207-8.7012h1.875Z" fill="#ededed"/><path d="M417.12,245.0938h-2.041L411.3,238.8926l-3.8378,6.2012h-1.9043l4.7461-7.4414-4.4434-6.8359h2.002l3.4961,5.5957,3.5254-5.5957h1.8945l-4.4141,6.7969Z" fill="#ededed"/><path d="M425.8623,237.8379l3.7207-7.0215h1.9336l-4.7559,8.74v5.5374h-1.8066v-5.459l-4.7559-8.8184h1.9629Z" fill="#ededed"/><path d="M445.1806,245.0938h-9.9023v-1.3574l7.52-11.3184h-7.2852v-1.6016h9.4629v1.3574l-7.52,11.3184h7.7246Z" fill="#ededed"/><path d="M49.36,274.0938l-.3418-1.5234H48.94a4.4944,4.4944,0,0,1-1.5967,1.3623,4.929,4.929,0,0,1-2.0068.3564,3.5141,3.5141,0,0,1-2.48-.83,3.0324,3.0324,0,0,1-.8984-2.3437q0-3.2622,5.1465-3.418l1.8164-.0684v-.6353a2.62,2.62,0,0,0-.5273-1.8018,2.1788,2.1788,0,0,0-1.6895-.5811,5.0254,5.0254,0,0,0-1.6064.2539,13.2075,13.2075,0,0,0-1.4209.5664l-.5369-1.3174a7.99,7.99,0,0,1,1.7676-.6738,7.627,7.627,0,0,1,1.8945-.2441,4.1891,4.1891,0,0,1,2.8906.8594A3.5262,3.5262,0,0,1,50.64,266.79v7.3041Zm-3.623-1.2207a3.2481,3.2481,0,0,0,2.3193-.7959,2.9561,2.9561,0,0,0,.8447-2.2607V268.85l-1.582.0684a5.7588,5.7588,0,0,0-2.69.5859,1.7729,1.7729,0,0,0-.8447,1.6309,1.6232,1.6232,0,0,0,.5127,1.2891,2.1131,2.1131,0,0,0,1.44.4491Z" fill="#ededed"/><path d="M62.038,263.1954a3.9249,3.9249,0,0,1,3.2715,1.46,7.7848,7.7848,0,0,1-.02,8.1836,3.9493,3.9493,0,0,1-3.252,1.45,4.574,4.574,0,0,1-1.9336-.3906,3.3832,3.3832,0,0,1-1.3867-1.1621H58.58q-.3025,1.1719-.3613,1.3574h-1.26V258.8985H58.717V262.59q0,1.103-.0977,2.207h.0977A3.734,3.734,0,0,1,62.038,263.1954Zm-.293,1.4551a2.7448,2.7448,0,0,0-2.3242.918,5.2244,5.2244,0,0,0-.7031,3.1055v.0781a5.28,5.28,0,0,0,.7178,3.14,2.7662,2.7662,0,0,0,2.3486.9424,2.4139,2.4139,0,0,0,2.1533-1.06,5.5061,5.5061,0,0,0,.708-3.0615,5.3171,5.3171,0,0,0-.7129-3.0469,2.4917,2.4917,0,0,0-2.1874-1.0157Z" fill="#ededed"/><path d="M76.5615,274.2891a4.618,4.618,0,0,1-3.6035-1.4209,5.8641,5.8641,0,0,1-1.2891-4.0771,6.0337,6.0337,0,0,1,1.3037-4.1553,4.7211,4.7211,0,0,1,3.7158-1.46,7.5037,7.5037,0,0,1,1.5479.1611,5.1484,5.1484,0,0,1,1.2646.415l-.5371,1.4648a6.81,6.81,0,0,0-2.3145-.5078,2.8051,2.8051,0,0,0-2.3926,1.0205,5.008,5.008,0,0,0-.7715,3.042,4.8985,4.8985,0,0,0,.7715,2.9736,2.6752,2.6752,0,0,0,2.2852,1.03,6.6287,6.6287,0,0,0,2.7832-.625v1.5625A5.974,5.974,0,0,1,76.5615,274.2891Z" fill="#ededed"/><path d="M88.663,274.2891a3.9093,3.9093,0,0,1-3.2422-1.4453,6.419,6.419,0,0,1-1.1523-4.0918,6.4925,6.4925,0,0,1,1.1572-4.1016,4.3039,4.3039,0,0,1,6.5771.1074h.127c-.02-.13-.0454-.3926-.0781-.7861s-.0488-.6592-.0488-.7959v-4.2773h1.7578v15.1953h-1.416l-.2637-1.4355h-.0781A3.79,3.79,0,0,1,88.663,274.2891Zm.2832-1.4551a2.8936,2.8936,0,0,0,2.3389-.874,4.44,4.44,0,0,0,.7373-2.8662v-.3223a5.2464,5.2464,0,0,0-.7471-3.1885,2.8012,2.8012,0,0,0-2.3486-.9521,2.3994,2.3994,0,0,0-2.1,1.0791,5.4075,5.4075,0,0,0-.7422,3.0811,5.1449,5.1449,0,0,0,.7373,3.0176,2.4562,2.4562,0,0,0,2.1245,1.0251Z" fill="#ededed"/><path d="M104.7295,274.2891a4.94,4.94,0,0,1-3.7842-1.46,5.6351,5.6351,0,0,1-1.3721-4.0186,6.1919,6.1919,0,0,1,1.2793-4.1064,4.2752,4.2752,0,0,1,3.457-1.5283,4.1694,4.1694,0,0,1,3.2227,1.3037,5.0073,5.0073,0,0,1,1.2012,3.53v1.0643H101.39a4.11,4.11,0,0,0,.9277,2.7734,3.2278,3.2278,0,0,0,2.49.9473,8.4869,8.4869,0,0,0,1.6309-.1514,9.3429,9.3429,0,0,0,1.8066-.5908v1.543a8.52,8.52,0,0,1-1.67.5371A9.5007,9.5007,0,0,1,104.7295,274.2891Zm-.4395-9.6777a2.5516,2.5516,0,0,0-1.9922.81,3.8024,3.8024,0,0,0-.8691,2.2559h5.459a3.48,3.48,0,0,0-.6934-2.2852A2.38,2.38,0,0,0,104.29,264.6114Z" fill="#ededed"/><path d="M119.39,264.7383h-2.7051v9.3555h-1.7578v-9.3555h-1.875v-.82l1.875-.6055v-.6152a4.3423,4.3423,0,0,1,.8545-2.93,3.3144,3.3144,0,0,1,2.6318-.9766,6.3816,6.3816,0,0,1,2.08.3613l-.4687,1.377a5.2872,5.2872,0,0,0-1.5918-.293,1.5273,1.5273,0,0,0-1.3184.5859,3.1684,3.1684,0,0,0-.43,1.8555v.6934H119.39Z" fill="#ededed"/><path d="M131.4912,273.9961l.0586-1.3184h-.0781a3.7256,3.7256,0,0,1-3.32,1.6113,3.9353,3.9353,0,0,1-3.2471-1.45,7.704,7.704,0,0,1,.01-8.1689,4.2525,4.2525,0,0,1,6.5771.127h.1074l.2344-1.4258H133.23V274.27a4.6945,4.6945,0,0,1-1.167,3.4668,4.9623,4.9623,0,0,1-3.6279,1.1621,9.4063,9.4063,0,0,1-3.8574-.6836v-1.6212a8.3013,8.3013,0,0,0,3.9551.84,2.9115,2.9115,0,0,0,2.1631-.8008,3.0059,3.0059,0,0,0,.7959-2.2168Zm-3.0762-1.1423a2.92,2.92,0,0,0,2.3584-.874,4.3275,4.3275,0,0,0,.7373-2.8076v-.42a5.208,5.208,0,0,0-.7422-3.125,2.8121,2.8121,0,0,0-2.3926-.9766,2.3855,2.3855,0,0,0-2.085,1.0693,6.7338,6.7338,0,0,0-.02,6.0889A2.43,2.43,0,0,0,128.415,272.8538Z" fill="#ededed"/><path d="M146.9423,274.0938v-6.8555a2.8231,2.8231,0,0,0-.5811-1.9482,2.3449,2.3449,0,0,0-1.8213-.64,2.9347,2.9347,0,0,0-2.3877.9082,4.6946,4.6946,0,0,0-.7568,2.998v5.5375h-1.7578V258.8985h1.7578v4.4531a9.9426,9.9426,0,0,1-.0977,1.5039h.1172a3.2584,3.2584,0,0,1,1.3574-1.2207,4.3712,4.3712,0,0,1,1.9824-.44,4.1311,4.1311,0,0,1,2.9395.9326,3.9448,3.9448,0,0,1,.9863,2.9834v6.9825Z" fill="#ededed"/><path d="M154.8642,260.4708a.978.978,0,0,1,1.0352-1.1133.989.989,0,0,1,1.0254,1.1133,1.0812,1.0812,0,0,1-.3076.85,1.0322,1.0322,0,0,1-1.753-.85Zm1.8946,13.623H155.001V263.3711h1.7578Z" fill="#ededed"/><path d="M161.8974,278.8985a4.2548,4.2548,0,0,1-1.543-.2441v-1.416a4.7675,4.7675,0,0,0,1.3281.1953,1.3974,1.3974,0,0,0,1.1182-.415,1.9023,1.9023,0,0,0,.3564-1.2646v-12.383h1.7578v12.3242a3.3539,3.3539,0,0,1-.7666,2.4023A2.9724,2.9724,0,0,1,161.8974,278.8985Zm1.123-18.4277a.978.978,0,0,1,1.0352-1.1133.989.989,0,0,1,1.0254,1.1133,1.0812,1.0812,0,0,1-.3076.85,1.0326,1.0326,0,0,1-1.7534-.85Z" fill="#ededed"/><path d="M173.0517,268.5762l.5957-.7617.6836-.82,3.4277-3.623H179.81l-4.3359,4.58,4.6382,6.1423h-2.1191l-3.7207-5-1.2207,1.0645v3.9355h-1.7383V258.8985h1.7383v7.94l-.0781,1.7383Z" fill="#ededed"/><path d="M186.7548,274.0938H184.997V258.8985h1.7578Z" fill="#ededed"/><path d="M206.7959,274.0938v-6.9043q0-2.5386-2.1777-2.5391a2.6606,2.6606,0,0,0-2.1973.8691,4.1765,4.1765,0,0,0-.7031,2.6563v5.918H199.97v-6.9043a2.9057,2.9057,0,0,0-.5322-1.9043,2.0535,2.0535,0,0,0-1.665-.6348,2.5507,2.5507,0,0,0-2.1729.9082,5.0062,5.0062,0,0,0-.6885,2.9785v5.5567h-1.7578V263.3711h1.416l.2637,1.4648h.0977a3.1891,3.1891,0,0,1,1.2939-1.2207,3.9536,3.9536,0,0,1,1.87-.44q2.52,0,3.2813,1.7969h.0977a3.53,3.53,0,0,1,1.4111-1.3281,4.2954,4.2954,0,0,1,2.0264-.4687,3.6129,3.6129,0,0,1,2.72.9375,4.2072,4.2072,0,0,1,.9033,2.998v6.9825Z" fill="#ededed"/><path d="M222.1591,274.0938v-6.8555a2.8231,2.8231,0,0,0-.5811-1.9482,2.3449,2.3449,0,0,0-1.8213-.64,2.9233,2.9233,0,0,0-2.3975.9131,4.7032,4.7032,0,0,0-.7471,2.9736v5.557h-1.7578V263.3711h1.416l.2637,1.4648h.0977a3.3111,3.3111,0,0,1,1.3965-1.2256,4.4885,4.4885,0,0,1,1.9824-.4346,3.99,3.99,0,0,1,2.93.957,4.0617,4.0617,0,0,1,.957,2.9785v6.9826Z" fill="#ededed"/><path d="M239.5341,268.7129a5.9121,5.9121,0,0,1-1.3281,4.1016,4.6885,4.6885,0,0,1-3.6719,1.4746,4.8878,4.8878,0,0,1-2.5781-.6787,4.4467,4.4467,0,0,1-1.7285-1.9482,6.7769,6.7769,0,0,1-.6055-2.9492,5.8945,5.8945,0,0,1,1.3086-4.0771,4.6751,4.6751,0,0,1,3.6719-1.46,4.5872,4.5872,0,0,1,3.5986,1.4893A5.8476,5.8476,0,0,1,239.5341,268.7129Zm-8.0957,0a5.0248,5.0248,0,0,0,.7959,3.0713,3.1357,3.1357,0,0,0,4.6826,0,5.004,5.004,0,0,0,.8008-3.0713,4.8473,4.8473,0,0,0-.8057-3.042,2.8234,2.8234,0,0,0-2.3584-1.0205Q231.4387,264.65,231.4384,268.7129Z" fill="#ededed"/><path d="M250.3955,274.2891a3.8989,3.8989,0,0,1-3.32-1.5527h-.1172l.0391.4a13.4032,13.4032,0,0,1,.0781,1.3574v4.4043h-1.7578v-15.527h1.4453l.2344,1.4648h.0781a3.7883,3.7883,0,0,1,1.4453-1.27,4.3533,4.3533,0,0,1,1.8945-.3906,3.9187,3.9187,0,0,1,3.2471,1.45,6.4023,6.4023,0,0,1,1.1572,4.0869,6.4721,6.4721,0,0,1-1.1621,4.1016A3.915,3.915,0,0,1,250.3955,274.2891Zm-.293-9.6387a2.7536,2.7536,0,0,0-2.3.8984,4.6319,4.6319,0,0,0-.7275,2.8223v.3418a5.3527,5.3527,0,0,0,.7227,3.1494,2.73,2.73,0,0,0,2.3438.9717,2.4172,2.4172,0,0,0,2.1045-1.0937,5.3,5.3,0,0,0,.7568-3.0469,5.0565,5.0565,0,0,0-.7568-3.0029A2.4945,2.4945,0,0,0,250.1025,264.65Z" fill="#ededed"/><path d="M264.3818,274.2891a3.84,3.84,0,0,1-3.2129-1.4648,7.801,7.801,0,0,1,.0244-8.1689,3.9031,3.9031,0,0,1,3.2467-1.48,3.7985,3.7985,0,0,1,3.34,1.66h.0781l.2637-1.4648h1.3965v15.5273H267.76v-4.58a10.7726,10.7726,0,0,1,.0977-1.66h-.1172A3.81,3.81,0,0,1,264.3818,274.2891Zm.3418-1.4551a2.8345,2.8345,0,0,0,2.2949-.8594,4.5663,4.5663,0,0,0,.7617-2.8418v-.3613a5.2824,5.2824,0,0,0-.7422-3.1787,2.7845,2.7845,0,0,0-2.3535-.9619,2.391,2.391,0,0,0-2.1094,1.084,5.4668,5.4668,0,0,0-.7324,3.0762,5.2129,5.2129,0,0,0,.7273,3.0027,2.4574,2.4574,0,0,0,2.1536,1.04Z" fill="#ededed"/><path d="M280.9267,263.1758a6.0575,6.0575,0,0,1,1.26.1172l-.2148,1.6211a5.2063,5.2063,0,0,0-1.1621-.1367,2.8561,2.8561,0,0,0-1.5771.4688,3.195,3.195,0,0,0-1.1377,1.2939,4.0547,4.0547,0,0,0-.41,1.8311v5.7226h-1.7578V263.3711h1.4453l.1953,1.9629h.0781a4.633,4.633,0,0,1,1.4551-1.6113A3.284,3.284,0,0,1,280.9267,263.1758Z" fill="#ededed"/><path d="M294.1709,271.1348a2.7206,2.7206,0,0,1-1.123,2.3291,5.2484,5.2484,0,0,1-3.1543.8252,7.13,7.13,0,0,1-3.3691-.6738v-1.6015a7.7784,7.7784,0,0,0,3.4082.8594,3.4021,3.4021,0,0,0,1.9336-.43,1.3439,1.3439,0,0,0,.6055-1.1523,1.3091,1.3091,0,0,0-.5811-1.0742,9.0893,9.0893,0,0,0-2.0654-1.0059,11.7736,11.7736,0,0,1-2.1289-1.001,2.7787,2.7787,0,0,1-.9033-.9326,2.5559,2.5559,0,0,1-.2881-1.26,2.4158,2.4158,0,0,1,1.0742-2.08,5.0208,5.0208,0,0,1,2.9492-.7617,8.1758,8.1758,0,0,1,3.418.7227l-.5957,1.3965a7.7039,7.7039,0,0,0-2.94-.6836,3.2154,3.2154,0,0,0-1.66.3467,1.0689,1.0689,0,0,0-.5664.9521,1.1883,1.1883,0,0,0,.4883.9717,10.4989,10.4989,0,0,0,2.2754,1.0693,9.9739,9.9739,0,0,1,1.9775.9277,2.906,2.906,0,0,1,.9424.9668A2.5891,2.5891,0,0,1,294.1709,271.1348Z" fill="#ededed"/><path d="M303.3525,272.8538a5.4825,5.4825,0,0,0,.8008-.0684,3.6357,3.6357,0,0,0,.6934-.1562v1.3477a3.9545,3.9545,0,0,1-.7568.21,5.2891,5.2891,0,0,1-1.04.1025q-3.1443,0-3.1445-3.31v-6.24h-1.5137v-.84l1.5332-.7031.7031-2.2852h1.0449v2.4609h3.0957v1.3672h-3.0957V270.93a2.0724,2.0724,0,0,0,.4443,1.4258A1.57,1.57,0,0,0,303.3525,272.8538Z" fill="#ededed"/><path d="M311.6455,263.3711v6.9043a2.7666,2.7666,0,0,0,.5811,1.9287,2.3388,2.3388,0,0,0,1.8018.63,2.9286,2.9286,0,0,0,2.4023-.918,4.6655,4.6655,0,0,0,.752-2.959v-5.5859H318.95v10.7226h-1.4453l-.2539-1.416h-.0879a3.151,3.151,0,0,1-1.3574,1.1914,4.6791,4.6791,0,0,1-2.041.42,4.099,4.099,0,0,1-2.915-.9277,3.9251,3.9251,0,0,1-.9814-2.9687v-7.0215Z" fill="#ededed"/><path d="M327.7119,274.0938l-4.0625-10.7227h1.8848l2.2754,6.3184a22.7391,22.7391,0,0,1,.8594,2.8418h.0781c.02-.085.0439-.1807.0732-.2881s.0635-.2246.1025-.3516.28-.8613.7227-2.2021l2.2852-6.3184h1.875l-4.0723,10.7227Z" fill="#ededed"/><path d="M347.2646,274.0938l-1.8359-6.0352q-.2542-.7515-.7422-2.8418h-.0781q-.41,1.9043-.7227,2.8613l-1.9238,6.0157H339.97l-2.94-10.7227h1.8164q1.0159,3.9551,1.5479,6.0156a25.0589,25.0589,0,0,1,.63,2.91h.0781l.1367-.6055q.3025-1.396.5859-2.2754l1.9043-6.0449h1.9141l1.8457,6.0449c.0649.2275.1353.4707.21.7275s.145.5107.21.7617.1235.4951.1758.7324.0913.4512.1172.64h.0879a32.3225,32.3225,0,0,1,.7129-3.1836l1.5039-5.7227h1.7969l-2.9785,10.7227Z" fill="#ededed"/><path d="M359.7666,268.6153l-3.7012-5.2441h2.002l2.7637,4.043,2.7344-4.043h1.9824l-3.7012,5.2441,3.9062,5.4785h-2.002l-2.92-4.2773-2.9589,4.2773H355.89Z" fill="#ededed"/><path d="M369.124,263.3711h1.8848l2.3145,6.1035a19.7349,19.7349,0,0,1,.8984,2.92H374.3q.0879-.3618.4-1.3525t.5273-1.5869l2.1777-6.084H379.3l-4.6191,12.207a6.0534,6.0534,0,0,1-1.6016,2.5488,3.4671,3.4671,0,0,1-2.2949.7715,6.4991,6.4991,0,0,1-1.4551-.166V277.336a5.0861,5.0861,0,0,0,1.1719.1172,2.2236,2.2236,0,0,0,1.4258-.4639,3.27,3.27,0,0,0,.957-1.4307l.5566-1.4258Z" fill="#ededed"/><path d="M390.9228,274.0938H383.081v-1.1621l5.7617-8.1934h-5.42v-1.3672h7.3535v1.3184l-5.6738,8.0469h5.82Z" fill="#ededed"/><path d="M47.9834,303.0938H46.2647v-8.916q0-.42.0049-.8984t.02-.9521q.015-.4731.0293-.9082c.0093-.29.0181-.5449.0244-.7666q-.1663.1758-.293.3027c-.0845.085-.1709.166-.2588.2441s-.1807.1611-.2783.249-.2148.19-.3516.3076l-1.4453,1.1816-.9375-1.2012,3.74-2.92h1.4648Z" fill="#ededed"/><path d="M64.8994,303.0938H55.9932V301.57l3.418-3.7207q.7324-.791,1.3086-1.4453a11.0008,11.0008,0,0,0,.9814-1.2793,5.69,5.69,0,0,0,.62-1.2549,4.2283,4.2283,0,0,0,.2148-1.3721,2.8615,2.8615,0,0,0-.166-1.0156,2.0822,2.0822,0,0,0-.4736-.7471,2.009,2.009,0,0,0-.7275-.4639,2.6632,2.6632,0,0,0-.9375-.1562,3.6684,3.6684,0,0,0-1.6748.376,6.8882,6.8882,0,0,0-1.4209.9619l-.9961-1.1621a8.0607,8.0607,0,0,1,.84-.6592,5.74,5.74,0,0,1,.9668-.5322,6.2612,6.2612,0,0,1,1.0936-.3565,5.4161,5.4161,0,0,1,1.2109-.1318,5.1263,5.1263,0,0,1,1.6943.2637,3.5689,3.5689,0,0,1,1.2842.7568,3.35,3.35,0,0,1,.8154,1.2012,4.2045,4.2045,0,0,1,.2881,1.5967,4.8287,4.8287,0,0,1-.2588,1.582,7.2571,7.2571,0,0,1-.7129,1.4795,11.941,11.941,0,0,1-1.084,1.46q-.63.7324-1.3623,1.5234l-2.7441,2.92v.0781h6.7285Z" fill="#ededed"/><path d="M78.456,292.1563a3.5971,3.5971,0,0,1-.2246,1.2988,3.0579,3.0579,0,0,1-.63,1.0156,3.3594,3.3594,0,0,1-.9717.708,4.5632,4.5632,0,0,1-1.26.3955v.0586a4.4137,4.4137,0,0,1,2.627,1.0986,3.0819,3.0819,0,0,1,.8984,2.3,4.5273,4.5273,0,0,1-.3174,1.7187,3.557,3.557,0,0,1-.9619,1.3477,4.4761,4.4761,0,0,1-1.6309.8789,7.7721,7.7721,0,0,1-2.334.3125,11.5977,11.5977,0,0,1-2.0068-.166,5.9691,5.9691,0,0,1-1.7725-.6055v-1.66a8.0314,8.0314,0,0,0,1.8408.6934,7.923,7.923,0,0,0,1.8994.2441,5.4724,5.4724,0,0,0,1.5527-.1953,2.9316,2.9316,0,0,0,1.0791-.5566,2.1492,2.1492,0,0,0,.625-.8887,3.31,3.31,0,0,0,.2-1.1816,2.3426,2.3426,0,0,0-.2588-1.1377,2.1441,2.1441,0,0,0-.7373-.7812,3.4811,3.4811,0,0,0-1.167-.4541,7.5181,7.5181,0,0,0-1.5576-.1465H72.05v-1.4746h1.2988a4.6555,4.6555,0,0,0,1.4063-.1953,2.8593,2.8593,0,0,0,1.03-.5566,2.3721,2.3721,0,0,0,.63-.8594,2.7341,2.7341,0,0,0,.2148-1.0937,2.2357,2.2357,0,0,0-.1758-.9082,1.8884,1.8884,0,0,0-.498-.6787,2.2166,2.2166,0,0,0-.7715-.4248,3.1988,3.1988,0,0,0-.9961-.1465,4.82,4.82,0,0,0-1.8408.3271,7.2266,7.2266,0,0,0-1.5186.8545l-.8984-1.2207a6.31,6.31,0,0,1,.8252-.5664,6.5075,6.5075,0,0,1,.9912-.4639,7.0984,7.0984,0,0,1,1.1475-.3174,6.8565,6.8565,0,0,1,1.2939-.1172,5.89,5.89,0,0,1,1.8506.2637,3.79,3.79,0,0,1,1.333.7373,3.0682,3.0682,0,0,1,.8105,1.123A3.6253,3.6253,0,0,1,78.456,292.1563Z" fill="#ededed"/><path d="M93.7021,299.8907h-2.08v3.2031H89.9034v-3.2031H83.3116V298.338l6.4746-9.6h1.8359v9.5313h2.08ZM89.9033,298.27V294.793q0-.5464.0146-1.1475t.0342-1.1719q.02-.5713.0439-1.0693t.0342-.83h-.0879c-.0454.13-.1025.2754-.1709.4346s-.1431.3193-.2246.4785-.1646.3145-.249.4639-.1626.2764-.2344.3809L85.05,298.27Z" fill="#ededed"/><path d="M102.4248,294.3338a5.8623,5.8623,0,0,1,1.8018.2686,4.2017,4.2017,0,0,1,1.4551.7959,3.6657,3.6657,0,0,1,.9717,1.3086,4.3624,4.3624,0,0,1,.3516,1.8066,5.6929,5.6929,0,0,1-.332,2.002,3.905,3.905,0,0,1-.9863,1.5039,4.3754,4.3754,0,0,1-1.6162.9424,6.8682,6.8682,0,0,1-2.2119.3271,9.766,9.766,0,0,1-.9814-.0488,8.9345,8.9345,0,0,1-.9277-.1416,6.0169,6.0169,0,0,1-.8447-.2393,4.1426,4.1426,0,0,1-.7227-.3418v-1.68a3.856,3.856,0,0,0,.7568.4,6.6505,6.6505,0,0,0,.9131.293,8.84,8.84,0,0,0,.9619.1807,6.9579,6.9579,0,0,0,.8936.0635,4.83,4.83,0,0,0,1.377-.1807,2.6062,2.6062,0,0,0,1.0254-.5615,2.4942,2.4942,0,0,0,.6445-.957,3.7552,3.7552,0,0,0,.2246-1.3672,2.6575,2.6575,0,0,0-.8594-2.1338,3.74,3.74,0,0,0-2.5-.7373q-.2637,0-.5713.0244c-.2051.0166-.41.0371-.6152.0635s-.4.0537-.5859.083-.3467.0566-.4834.083l-.8789-.5566.5371-6.7187h6.738v1.6211h-5.1953l-.3809,4.0918q.3127-.0586.8252-.127A9.2877,9.2877,0,0,1,102.4248,294.3338Z" fill="#ededed"/><path d="M112.2216,296.99a20.3009,20.3009,0,0,1,.1025-2.041,11.68,11.68,0,0,1,.3613-1.9482,7.7789,7.7789,0,0,1,.708-1.7334,5.06,5.06,0,0,1,1.1426-1.3916,5.1412,5.1412,0,0,1,1.66-.9277,6.8886,6.8886,0,0,1,2.2656-.3369c.1235,0,.26.0029.41.01s.3013.0176.4541.0342.2993.0361.4395.0586a3.11,3.11,0,0,1,.376.083v1.5137a4.0853,4.0853,0,0,0-.7715-.1758,6.2853,6.2853,0,0,0-.85-.0586,5.1848,5.1848,0,0,0-1.5479.21,3.6245,3.6245,0,0,0-1.1572.5908,3.4479,3.4479,0,0,0-.8154.9082,5.22,5.22,0,0,0-.5322,1.167,7.9355,7.9355,0,0,0-.3027,1.3623q-.0974.7222-.127,1.5039h.1172a3.5587,3.5587,0,0,1,.4736-.6592,2.7742,2.7742,0,0,1,.6494-.5273,3.4,3.4,0,0,1,.835-.3467,3.9248,3.9248,0,0,1,1.04-.127,4.656,4.656,0,0,1,1.68.2881,3.4237,3.4237,0,0,1,1.2793.8447,3.8193,3.8193,0,0,1,.8154,1.3623,5.4529,5.4529,0,0,1,.2881,1.8408,6.1929,6.1929,0,0,1-.3027,2.002,4.2181,4.2181,0,0,1-.8691,1.5088,3.8017,3.8017,0,0,1-1.3672.9521,4.6452,4.6452,0,0,1-1.7969.332,4.4474,4.4474,0,0,1-1.8311-.3809,3.9324,3.9324,0,0,1-1.48-1.1621,5.8379,5.8379,0,0,1-.9863-1.9629A9.6067,9.6067,0,0,1,112.2216,296.99Zm4.6387,4.8047a2.763,2.763,0,0,0,1.0693-.2,2.2156,2.2156,0,0,0,.835-.6055,2.7987,2.7987,0,0,0,.542-1.0254,5.0325,5.0325,0,0,0,.19-1.47,4.2982,4.2982,0,0,0-.1611-1.2256,2.52,2.52,0,0,0-.4834-.9229,2.1236,2.1236,0,0,0-.8057-.5859,2.8712,2.8712,0,0,0-1.1279-.2051,3.0376,3.0376,0,0,0-2.1191.8252,2.66,2.66,0,0,0-.5908.835,2.2741,2.2741,0,0,0-.21.9375,4.8344,4.8344,0,0,0,.1807,1.3037,3.867,3.867,0,0,0,.5371,1.167,2.9169,2.9169,0,0,0,.8936.8447,2.3579,2.3579,0,0,0,1.25.3273Z" fill="#ededed"/><path d="M127.8779,303.0938l5.498-12.6562h-7.3633v-1.6211h9.18v1.416l-5.42,12.8613Z" fill="#ededed"/><path d="M144.667,288.5918a5.427,5.427,0,0,1,1.5479.2148,3.8305,3.8305,0,0,1,1.2793.6445,3.0958,3.0958,0,0,1,.874,1.0742,3.55,3.55,0,0,1-.41,3.6377,4.12,4.12,0,0,1-.8105.7617,7.45,7.45,0,0,1-1.0156.61,12.0067,12.0067,0,0,1,1.1084.6738,5.547,5.547,0,0,1,.9668.835,3.8956,3.8956,0,0,1,.6836,1.04,3.1124,3.1124,0,0,1,.2588,1.2891,3.9208,3.9208,0,0,1-.3271,1.626,3.4988,3.4988,0,0,1-.918,1.2354,4.1431,4.1431,0,0,1-1.416.7813,5.7546,5.7546,0,0,1-1.8213.2734,6.3374,6.3374,0,0,1-1.9092-.2637,3.9294,3.9294,0,0,1-1.4062-.7568,3.2,3.2,0,0,1-.8691-1.2061,4.1444,4.1444,0,0,1-.2979-1.6113,3.733,3.733,0,0,1,.22-1.3184,3.8782,3.8782,0,0,1,.5908-1.0547,4.2877,4.2877,0,0,1,.8789-.83,7.3921,7.3921,0,0,1,1.0742-.6348,8.0549,8.0549,0,0,1-.8984-.6592,4.1987,4.1987,0,0,1-.7275-.7959,3.8421,3.8421,0,0,1-.4883-.9717,3.6371,3.6371,0,0,1-.1807-1.1768,3.2268,3.2268,0,0,1,.3271-1.4893,3.132,3.132,0,0,1,.8838-1.0693,3.8879,3.8879,0,0,1,1.2842-.6445A5.3219,5.3219,0,0,1,144.667,288.5918Zm-2.7344,10.8789a2.8023,2.8023,0,0,0,.1563.9521,1.8466,1.8466,0,0,0,.4883.7422,2.2958,2.2958,0,0,0,.84.4785,3.8012,3.8012,0,0,0,1.2109.1709,3.8706,3.8706,0,0,0,1.2061-.1709,2.3969,2.3969,0,0,0,.874-.4883,1.9991,1.9991,0,0,0,.5273-.7666,2.7148,2.7148,0,0,0,.1758-.9961,2.1532,2.1532,0,0,0-.19-.918,2.6171,2.6171,0,0,0-.5469-.7617,4.97,4.97,0,0,0-.8545-.6641,12.5541,12.5541,0,0,0-1.1133-.6152l-.293-.1367a5.3338,5.3338,0,0,0-1.8555,1.3428,2.7841,2.7841,0,0,0-.6255,1.8312Zm2.7148-9.3945a2.4627,2.4627,0,0,0-1.6455.5176,1.8624,1.8624,0,0,0-.61,1.5039,2.4314,2.4314,0,0,0,.1709.957,2.3312,2.3312,0,0,0,.4736.7129,3.4013,3.4013,0,0,0,.7275.5615q.4248.249.9229.4834a8.53,8.53,0,0,0,.8838-.4687,3.545,3.545,0,0,0,.7227-.5762,2.45,2.45,0,0,0,.4834-.7324,2.36,2.36,0,0,0,.1758-.9375,1.8547,1.8547,0,0,0-.6152-1.5039,2.5453,2.5453,0,0,0-1.69-.5176Z" fill="#ededed"/><path d="M163.2041,294.91a20.4534,20.4534,0,0,1-.1025,2.0459,11.5323,11.5323,0,0,1-.3613,1.9482,7.9138,7.9138,0,0,1-.708,1.7334,4.9759,4.9759,0,0,1-1.1426,1.3916,5.1869,5.1869,0,0,1-1.66.9229,6.8886,6.8886,0,0,1-2.2656.3369c-.1235,0-.26-.0029-.41-.01s-.2993-.0176-.4492-.0342-.2964-.0342-.4395-.0537a2.66,2.66,0,0,1-.3809-.0781V301.59a3.6021,3.6021,0,0,0,.7715.1855,6.2853,6.2853,0,0,0,.85.0586,4.539,4.539,0,0,0,2.168-.459,3.57,3.57,0,0,0,1.3477-1.2451,5.37,5.37,0,0,0,.708-1.8311,14.23,14.23,0,0,0,.2588-2.207h-.127a3.56,3.56,0,0,1-.4687.6543,2.8255,2.8255,0,0,1-.6445.5273,3.2819,3.2819,0,0,1-.84.3516,3.981,3.981,0,0,1-1.0449.127,4.656,4.656,0,0,1-1.68-.2881,3.4237,3.4237,0,0,1-1.2793-.8447,3.8193,3.8193,0,0,1-.8154-1.3623,5.4529,5.4529,0,0,1-.2881-1.8408,6.141,6.141,0,0,1,.3076-2.0068,4.31,4.31,0,0,1,.8691-1.5137,3.7477,3.7477,0,0,1,1.3672-.9521,4.6822,4.6822,0,0,1,1.8018-.332,4.4354,4.4354,0,0,1,1.8359.3809,3.9436,3.9436,0,0,1,1.4746,1.1621,5.8363,5.8363,0,0,1,.9863,1.9678A9.6184,9.6184,0,0,1,163.2041,294.91Zm-4.6387-4.7949a2.8357,2.8357,0,0,0-1.0693.1953,2.1445,2.1445,0,0,0-.835.6055,2.8458,2.8458,0,0,0-.542,1.03,5.0325,5.0325,0,0,0-.19,1.47,4.2982,4.2982,0,0,0,.1611,1.2256,2.52,2.52,0,0,0,.4834.9229,2.1235,2.1235,0,0,0,.8057.5859,2.8712,2.8712,0,0,0,1.1279.2051,3.014,3.014,0,0,0,2.1191-.8252,2.66,2.66,0,0,0,.5908-.835,2.2741,2.2741,0,0,0,.21-.9375,4.8344,4.8344,0,0,0-.1807-1.3037,3.94,3.94,0,0,0-.5371-1.1719,2.8375,2.8375,0,0,0-.8936-.8447,2.3825,2.3825,0,0,0-1.25-.3223Z" fill="#ededed"/><path d="M177.2588,295.9356a17.38,17.38,0,0,1-.249,3.0957,7.12,7.12,0,0,1-.8008,2.3144,3.8556,3.8556,0,0,1-1.4209,1.4453,4.18,4.18,0,0,1-2.1094.498,3.9149,3.9149,0,0,1-2.0068-.498,3.9689,3.9689,0,0,1-1.416-1.4453,7.4289,7.4289,0,0,1-.84-2.3144,15.5961,15.5961,0,0,1-.2783-3.0957,17.38,17.38,0,0,1,.249-3.0957,7.2078,7.2078,0,0,1,.791-2.31,3.8134,3.8134,0,0,1,1.4063-1.44,4.1308,4.1308,0,0,1,2.0947-.498,3.7816,3.7816,0,0,1,3.4473,1.9287,7.3741,7.3741,0,0,1,.85,2.31A15.3766,15.3766,0,0,1,177.2588,295.9356Zm-7.3145,0a19.5361,19.5361,0,0,0,.1465,2.5586,6.749,6.749,0,0,0,.4688,1.8213,2.556,2.556,0,0,0,.8447,1.0938,2.1636,2.1636,0,0,0,1.2744.3662,2.2059,2.2059,0,0,0,1.2793-.3613,2.6106,2.6106,0,0,0,.8643-1.084,6.42,6.42,0,0,0,.4883-1.8213,21.8231,21.8231,0,0,0,0-5.1318,6.41,6.41,0,0,0-.4883-1.8164,2.6106,2.6106,0,0,0-.8643-1.084,2.2059,2.2059,0,0,0-1.2793-.3613,2.1826,2.1826,0,0,0-1.2744.3613,2.5292,2.5292,0,0,0-.8447,1.084,6.6722,6.6722,0,0,0-.4687,1.8164A19.5375,19.5375,0,0,0,169.9443,295.9356Z" fill="#ededed"/><path d="M184.1162,302.01a1.797,1.797,0,0,1,.0977-.63,1.1239,1.1239,0,0,1,.2637-.42.9967.9967,0,0,1,.3906-.2344,1.648,1.648,0,0,1,.9717,0,.9946.9946,0,0,1,.3955.2344,1.1239,1.1239,0,0,1,.2637.42,1.797,1.797,0,0,1,.0977.63,1.7625,1.7625,0,0,1-.0977.62,1.1694,1.1694,0,0,1-.2637.4248,1.0148,1.0148,0,0,1-.3955.2441,1.55,1.55,0,0,1-.9717,0,1.0183,1.0183,0,0,1-.3906-.2441,1.17,1.17,0,0,1-.2637-.4248A1.7625,1.7625,0,0,1,184.1162,302.01Zm1.8457-2.959H184.78l-.498-10.2344h2.178Z" fill="#ededed"/><path d="M208.6787,295.9551a7.0918,7.0918,0,0,1-.4346,2.52,4.1724,4.1724,0,0,1-1.2158,1.7969,2.756,2.756,0,0,1-1.8066.6445,2.051,2.051,0,0,1-2.1-1.7383h-.0977a2.97,2.97,0,0,1-1.1133,1.2744,3.1231,3.1231,0,0,1-1.709.4639,2.91,2.91,0,0,1-2.334-.9912,4.06,4.06,0,0,1-.85-2.7295,5.0771,5.0771,0,0,1,.5225-2.3291,3.8118,3.8118,0,0,1,1.5-1.602,4.3262,4.3262,0,0,1,2.2266-.5713,11.1815,11.1815,0,0,1,1.5381.1221,7.7016,7.7016,0,0,1,1.5186.3564l-.2246,4.57v.2148q0,1.7183,1.24,1.7188a1.5948,1.5948,0,0,0,1.4063-1.0254,5.8691,5.8691,0,0,0,.5371-2.7148,6.3144,6.3144,0,0,0-.7178-3.0664,4.9153,4.9153,0,0,0-2.041-2.0264,6.3108,6.3108,0,0,0-3.0225-.708,7.545,7.545,0,0,0-3.7451.8936,5.9847,5.9847,0,0,0-2.4463,2.5488,8.3257,8.3257,0,0,0-.85,3.8525,6.2183,6.2183,0,0,0,1.5527,4.5361,6.0337,6.0337,0,0,0,4.5117,1.5869,11.9011,11.9011,0,0,0,4.2969-.8594V304.05a10.9878,10.9878,0,0,1-4.2969.82,7.5273,7.5273,0,0,1-5.5273-1.9482,7.2813,7.2813,0,0,1-1.9727-5.4248,9.5235,9.5235,0,0,1,1.05-4.5166,7.44,7.44,0,0,1,2.9834-3.0762,8.9024,8.9024,0,0,1,4.4434-1.0889,7.7513,7.7513,0,0,1,3.7451.8887,6.19,6.19,0,0,1,2.5391,2.52A7.6362,7.6362,0,0,1,208.6787,295.9551Zm-10.0977,1.2793q0,2.4419,1.8848,2.4414,2.0017,0,2.1777-3.0176l.1172-2.5a5.3059,5.3059,0,0,0-1.4746-.2051,2.4411,2.4411,0,0,0-1.9824.8691,3.6641,3.6641,0,0,0-.7227,2.4122Z" fill="#ededed"/><path d="M222.44,295.2129l-.5762,3.0371H224.52v1.3184H221.6l-.6733,3.5254H219.52l.6934-3.5254H217.43l-.6832,3.5254H215.37l.6445-3.5254h-2.49V298.25h2.7441l.6055-3.0371h-2.627v-1.3086h2.8613l.6641-3.457h1.4063l-.6543,3.457h2.8027l.6738-3.457h1.377l-.6738,3.457h2.51v1.3086Zm-4.7656,3.0371h2.793l.5859-3.0371H218.27Z" fill="#ededed"/><path d="M239.0537,298.709a2.837,2.837,0,0,1-.9912,2.2168,5.0958,5.0958,0,0,1-2.8271,1.1035v2.2266H233.956v-2.1387a14.3549,14.3549,0,0,1-2.1338-.19,6.8341,6.8341,0,0,1-1.6846-.4736V299.813a9.3337,9.3337,0,0,0,1.792.5908,9.7007,9.7007,0,0,0,2.0264.2686v-4.18a6.8673,6.8673,0,0,1-2.832-1.4893,3.0161,3.0161,0,0,1-.83-2.1924,2.647,2.647,0,0,1,.9863-2.1191,4.8873,4.8873,0,0,1,2.6758-1.0156v-1.7578h1.2793v1.7383a9.7855,9.7855,0,0,1,3.5254.7422l-.5469,1.377a10.1243,10.1243,0,0,0-2.9785-.7031v4.1212a12.1506,12.1506,0,0,1,2.3291.9961,3.2557,3.2557,0,0,1,1.1279,1.0693A2.7645,2.7645,0,0,1,239.0537,298.709Zm-6.9727-5.918a1.5988,1.5988,0,0,0,.42,1.1523,3.8166,3.8166,0,0,0,1.4551.81v-3.6426a2.6953,2.6953,0,0,0-1.3965.5957,1.4141,1.4141,0,0,0-.4786,1.0842Zm5.1953,6.0449a1.4318,1.4318,0,0,0-.459-1.1182,4.8052,4.8052,0,0,0-1.582-.8057v3.6618q2.0413-.3115,2.041-1.7378Z" fill="#ededed"/><path d="M250.3056,294.0606a6.2347,6.2347,0,0,1-.1709,1.5186,3.0934,3.0934,0,0,1-.5322,1.1475,2.3113,2.3113,0,0,1-.918.7129,3.2587,3.2587,0,0,1-1.3184.2441,2.99,2.99,0,0,1-1.25-.2441,2.4279,2.4279,0,0,1-.9082-.7129,3.1168,3.1168,0,0,1-.5518-1.1475,5.8981,5.8981,0,0,1-.1807-1.5186,6.3772,6.3772,0,0,1,.166-1.5234,3.035,3.035,0,0,1,.5225-1.1377,2.2579,2.2579,0,0,1,.9033-.7031,3.2291,3.2291,0,0,1,1.2988-.2393,3.1485,3.1485,0,0,1,1.27.2393,2.411,2.411,0,0,1,.9229.7031,3.0826,3.0826,0,0,1,.5615,1.1377A5.7512,5.7512,0,0,1,250.3056,294.0606Zm-4.3848,0a3.568,3.568,0,0,0,.3418,1.7578,1.1806,1.1806,0,0,0,1.1035.5859q1.4941,0,1.4941-2.3437t-1.4941-2.3437a1.1806,1.1806,0,0,0-1.1035.5859,3.5677,3.5677,0,0,0-.3417,1.7578Zm10.3418-3.4082-7.705,12.4414h-1.5625l7.7246-12.4414Zm2.48,9.0137a6.3185,6.3185,0,0,1-.166,1.5186,3.0385,3.0385,0,0,1-.5273,1.1377,2.3586,2.3586,0,0,1-.9131.7178,3.2,3.2,0,0,1-1.3232.249,2.9776,2.9776,0,0,1-1.2549-.249,2.3746,2.3746,0,0,1-.9033-.7178,3.2719,3.2719,0,0,1-.5469-1.1377,5.6976,5.6976,0,0,1-.1855-1.5186,6.22,6.22,0,0,1,.1709-1.5234,3.0829,3.0829,0,0,1,.5225-1.1328,2.288,2.288,0,0,1,.8984-.7031,3.1622,3.1622,0,0,1,1.2988-.2441,3.11,3.11,0,0,1,1.2793.2441,2.4082,2.4082,0,0,1,.9131.7031,3.1158,3.1158,0,0,1,.5518,1.1328,5.75,5.75,0,0,1,.1859,1.5234Zm-4.375,0a3.5393,3.5393,0,0,0,.3418,1.7529,1.1824,1.1824,0,0,0,1.1035.5811q1.4941,0,1.4941-2.334,0-2.3437-1.4941-2.3437a1.1824,1.1824,0,0,0-1.1035.5811,3.5635,3.5635,0,0,0-.3413,1.7626Z" fill="#ededed"/><path d="M263.4716,297.7325l4.4824-9.0234h.9961l4.3652,9.0234H271.743l-3.291-7.1777-3.4082,7.1777Z" fill="#ededed"/><path d="M277.9658,299.3731a3.8485,3.8485,0,0,1,.6543-2.2266,7.35,7.35,0,0,1,2.4219-1.9727,12.12,12.12,0,0,1-1.0693-1.3428,4.57,4.57,0,0,1-.4932-1.0156,3.4242,3.4242,0,0,1-.1758-1.0986,2.87,2.87,0,0,1,.9668-2.2852,4.01,4.01,0,0,1,2.7148-.84,3.6794,3.6794,0,0,1,2.5342.82,2.8746,2.8746,0,0,1,.9229,2.2656,3.1761,3.1761,0,0,1-.6689,1.9531,7.4655,7.4655,0,0,1-2.1924,1.7871l3.8574,3.7109a7.4742,7.4742,0,0,0,1.4063-3.1738h1.7773a9.73,9.73,0,0,1-2.041,4.2969l2.92,2.8418h-2.3828l-1.7383-1.68a7.243,7.243,0,0,1-2.3,1.4355,7.4991,7.4991,0,0,1-2.6221.44,4.9017,4.9017,0,0,1-3.2959-1.0254A3.6016,3.6016,0,0,1,277.9658,299.3731Zm4.5508,2.3633a5.27,5.27,0,0,0,3.74-1.4258l-4.16-4.0332a6.1843,6.1843,0,0,0-1.8213,1.4746,2.6193,2.6193,0,0,0-.4736,1.5625,2.2269,2.2269,0,0,0,.752,1.7627,2.87,2.87,0,0,0,1.9629.6592Zm-1.4941-10.0391a2.63,2.63,0,0,0,.3467,1.27,6.3783,6.3783,0,0,0,1.1279,1.4063,5.9224,5.9224,0,0,0,1.709-1.2891,2.1731,2.1731,0,0,0,.498-1.4062,1.5267,1.5267,0,0,0-.498-1.1914,1.85,1.85,0,0,0-1.2891-.4492,1.9965,1.9965,0,0,0-1.3818.459,1.5348,1.5348,0,0,0-.5128,1.2005Z" fill="#ededed"/><path d="M301.6884,288.2012l-.42,3.8379,3.877-1.084.2539,1.8848-3.6914.2734,2.3926,3.1836-1.7383.9375-1.7187-3.4961-1.543,3.4961-1.7969-.9375,2.3633-3.1836-3.6621-.2734.2832-1.8848,3.8184,1.084-.42-3.8379Z" fill="#ededed"/><path d="M311.0459,296.3458a21.59,21.59,0,0,1,.1709-2.7344,17.4755,17.4755,0,0,1,.5273-2.5879,15.6726,15.6726,0,0,1,.8984-2.3975,12.8353,12.8353,0,0,1,1.2939-2.1631h1.6211a17.8754,17.8754,0,0,0-2.09,4.6777,18.3031,18.3031,0,0,0-.5371,2.583,20.0068,20.0068,0,0,0,.5371,7.94,16.992,16.992,0,0,0,2.1094,4.7314h-1.6406a13.0376,13.0376,0,0,1-1.2939-2.2119,16.2746,16.2746,0,0,1-.8984-2.4609,18.5055,18.5055,0,0,1-.5273-2.6367A21.8554,21.8554,0,0,1,311.0459,296.3458Z" fill="#ededed"/><path d="M325.4521,296.5118a21.59,21.59,0,0,1-.1709,2.7344,17.4755,17.4755,0,0,1-.5273,2.5879,15.6726,15.6726,0,0,1-.8984,2.3975,12.8353,12.8353,0,0,1-1.2939,2.1631H320.94a17.8754,17.8754,0,0,0,2.09-4.6777,18.303,18.303,0,0,0,.5371-2.583,20.0068,20.0068,0,0,0-.5371-7.94,16.992,16.992,0,0,0-2.1094-4.7314h1.6406a13.0376,13.0376,0,0,1,1.2939,2.2119,16.2746,16.2746,0,0,1,.8984,2.4609,18.5055,18.5055,0,0,1,.5273,2.6367A21.85,21.85,0,0,1,325.4521,296.5118Z" fill="#ededed"/><path d="M54.3017,118.0938h-2.1l-7.6465-11.8555h-.0781l.0488.791q.1172,1.7769.1172,3.0859v7.9786h-1.66V103.8165h2.08l.4395.6934L50.19,111.756l2.49,3.877h.0781q-.02-.2344-.0781-1.6748t-.0586-2.085v-8.0566h1.68Z" fill="#ededed"/><path d="M70.2509,112.7129a5.9121,5.9121,0,0,1-1.3281,4.1016,4.6885,4.6885,0,0,1-3.6719,1.4746,4.8878,4.8878,0,0,1-2.5781-.6787,4.4468,4.4468,0,0,1-1.7285-1.9482,6.7765,6.7765,0,0,1-.6055-2.9492,5.8944,5.8944,0,0,1,1.3086-4.0771,4.6752,4.6752,0,0,1,3.6719-1.46,4.5872,4.5872,0,0,1,3.5986,1.4893A5.8475,5.8475,0,0,1,70.2509,112.7129Zm-8.0957,0a5.0247,5.0247,0,0,0,.7959,3.0713,3.1357,3.1357,0,0,0,4.6826,0,5.004,5.004,0,0,0,.8008-3.0713,4.8473,4.8473,0,0,0-.8057-3.042A2.8234,2.8234,0,0,0,65.27,108.65Q62.1555,108.65,62.1552,112.7129Z" fill="#ededed"/><path d="M79.6181,116.8538a5.4833,5.4833,0,0,0,.8008-.0684,3.6373,3.6373,0,0,0,.6934-.1562v1.3477a3.9548,3.9548,0,0,1-.7568.21,5.29,5.29,0,0,1-1.04.1025q-3.1443,0-3.1445-3.3105v-6.24H74.6573v-.84l1.5332-.7031.7031-2.2852h1.0449v2.4609h3.0957v1.3672H77.9385V114.93a2.0724,2.0724,0,0,0,.4443,1.4258A1.57,1.57,0,0,0,79.6181,116.8538Z" fill="#ededed"/><path d="M95.5673,112.7129a5.9121,5.9121,0,0,1-1.3281,4.1016,4.6885,4.6885,0,0,1-3.6719,1.4746,4.8878,4.8878,0,0,1-2.5781-.6787,4.4468,4.4468,0,0,1-1.7285-1.9482,6.7765,6.7765,0,0,1-.6055-2.9492,5.8944,5.8944,0,0,1,1.3086-4.0771,4.6752,4.6752,0,0,1,3.6719-1.46,4.5872,4.5872,0,0,1,3.5986,1.4893A5.8474,5.8474,0,0,1,95.5673,112.7129Zm-8.0957,0a5.0247,5.0247,0,0,0,.7959,3.0713,3.1357,3.1357,0,0,0,4.6826,0,5.004,5.004,0,0,0,.8008-3.0713,4.8473,4.8473,0,0,0-.8057-3.042,2.8234,2.8234,0,0,0-2.3584-1.0205Q87.4719,108.65,87.4716,112.7129Z" fill="#ededed"/><path d="M117.8857,114.2754a3.5554,3.5554,0,0,1-1.3477,2.9395,5.8716,5.8716,0,0,1-3.75,1.0742,9.1925,9.1925,0,0,1-3.9258-.6738v-1.7187a10.3238,10.3238,0,0,0,1.9873.6152,9.95,9.95,0,0,0,2.0166.2246,3.9561,3.9561,0,0,0,2.4121-.6152,2.0048,2.0048,0,0,0,.8105-1.6895,2.1409,2.1409,0,0,0-.293-1.1719,2.8045,2.8045,0,0,0-.9814-.8594,13.7912,13.7912,0,0,0-2.085-.9082,6.7694,6.7694,0,0,1-2.832-1.7041,3.7332,3.7332,0,0,1-.85-2.5342,3.2026,3.2026,0,0,1,1.2549-2.6562,5.1988,5.1988,0,0,1,3.3057-.9863,9.5528,9.5528,0,0,1,3.9355.8008l-.5566,1.543a8.9649,8.9649,0,0,0-3.418-.7617,3.2135,3.2135,0,0,0-1.9873.5469,1.8167,1.8167,0,0,0-.7178,1.5332,2.2371,2.2371,0,0,0,.2783,1.167,2.5982,2.5982,0,0,0,.8984.8447,11.6523,11.6523,0,0,0,1.9482.8691,10.6522,10.6522,0,0,1,2.373,1.1377,3.5871,3.5871,0,0,1,1.1523,1.27A3.6869,3.6869,0,0,1,117.8857,114.2754Z" fill="#ededed"/><path d="M130.1435,118.0938l-.3418-1.5234h-.0781a4.4943,4.4943,0,0,1-1.5967,1.3623,4.9293,4.9293,0,0,1-2.0068.3564,3.5141,3.5141,0,0,1-2.48-.83,3.0324,3.0324,0,0,1-.8984-2.3437q0-3.2622,5.1465-3.418l1.8164-.0684v-.6352a2.62,2.62,0,0,0-.5273-1.8018,2.1788,2.1788,0,0,0-1.6895-.5811,5.0256,5.0256,0,0,0-1.6064.2539,13.2091,13.2091,0,0,0-1.4209.5664l-.5371-1.3184a7.99,7.99,0,0,1,1.7676-.6738,7.6273,7.6273,0,0,1,1.8945-.2441,4.1891,4.1891,0,0,1,2.8906.8594,3.5262,3.5262,0,0,1,.9473,2.7344v7.3051Zm-3.623-1.2207a3.248,3.248,0,0,0,2.3193-.7959,2.9561,2.9561,0,0,0,.8447-2.2607V112.85l-1.582.0684a5.7588,5.7588,0,0,0-2.69.5859,1.7729,1.7729,0,0,0-.8447,1.6309,1.6232,1.6232,0,0,0,.5127,1.2891,2.1132,2.1132,0,0,0,1.4395.4491Z" fill="#ededed"/><path d="M145.0478,118.0938v-6.8555a2.8231,2.8231,0,0,0-.5811-1.9482,2.345,2.345,0,0,0-1.8213-.64,2.9234,2.9234,0,0,0-2.3975.9131,4.7031,4.7031,0,0,0-.7471,2.9736v5.557H137.743V107.3711h1.416l.2637,1.4648h.0977a3.3112,3.3112,0,0,1,1.3965-1.2256,4.4883,4.4883,0,0,1,1.9824-.4346,3.99,3.99,0,0,1,2.93.957,4.0617,4.0617,0,0,1,.957,2.9785v6.9826Z" fill="#ededed"/><path d="M160.0888,115.1348a2.7206,2.7206,0,0,1-1.123,2.3291,5.2485,5.2485,0,0,1-3.1543.8252,7.13,7.13,0,0,1-3.3691-.6738v-1.6015a7.7782,7.7782,0,0,0,3.4082.8594,3.402,3.402,0,0,0,1.9336-.43,1.3439,1.3439,0,0,0,.6055-1.1523,1.3091,1.3091,0,0,0-.5811-1.0742,9.0887,9.0887,0,0,0-2.0654-1.0059,11.7731,11.7731,0,0,1-2.1289-1.001,2.7789,2.7789,0,0,1-.9033-.9326,2.556,2.556,0,0,1-.2881-1.26,2.4158,2.4158,0,0,1,1.0742-2.08,5.021,5.021,0,0,1,2.9492-.7617,8.1756,8.1756,0,0,1,3.418.7227l-.5957,1.3965a7.704,7.704,0,0,0-2.9395-.6836,3.2154,3.2154,0,0,0-1.66.3467,1.0689,1.0689,0,0,0-.5664.9521,1.1883,1.1883,0,0,0,.4883.9717,10.5,10.5,0,0,0,2.2754,1.0693,9.9734,9.9734,0,0,1,1.9775.9277,2.9058,2.9058,0,0,1,.9424.9668A2.5892,2.5892,0,0,1,160.0888,115.1348Z" fill="#ededed"/></g></g></g></g></svg>