<svg xmlns="http://www.w3.org/2000/svg" width="980" height="410" viewBox="0 0 980 410"><title>noto-sans_1</title><g id="Layer_2" data-name="Layer 2"><g id="Layer_1-2" data-name="Layer 1"><rect width="980" height="410" fill="#1e1e1e"/><path d="M142.5938,205l-6.875-17.6953H113.0625L106.2656,205H99l22.3047-57.3437h6.4844L150.0547,205ZM133.57,180.9375l-6.4062-17.3047-2.7344-8.5547q-1.1719,4.6875-2.4609,8.5547l-6.4844,17.3047Z" fill="#ededed"/><path d="M187.4141,205l-1.3672-6.0937h-.3125a18.0141,18.0141,0,0,1-6.3867,5.4492,19.7009,19.7009,0,0,1-8.0273,1.4258q-6.3281,0-9.9219-3.32t-3.5937-9.375q0-13.0459,20.5859-13.6719l7.2656-.2734v-2.5391q0-4.8823-2.1094-7.207t-6.7578-2.3242a20.0762,20.0762,0,0,0-6.4258,1.0156,52.8776,52.8776,0,0,0-5.6836,2.2656l-2.1484-5.2734a31.8448,31.8448,0,0,1,7.07-2.6953,30.5958,30.5958,0,0,1,7.5781-.9766q7.7725,0,11.5625,3.4375,3.7881,3.438,3.7891,10.9375V205Zm-14.4922-4.8828q5.8975,0,9.2773-3.1836,3.3779-3.1831,3.3789-9.043v-3.8672l-6.3281.2734q-7.3828.2739-10.7617,2.3438a7.0919,7.0919,0,0,0-3.3789,6.5234A6.4872,6.4872,0,0,0,167.16,198.32,8.4576,8.4576,0,0,0,172.9219,200.1172Z" fill="#ededed"/><path d="M257.9531,147.8906q8.3979,0,12.6758,3.32t4.2773,9.8047a13.4863,13.4863,0,0,1-3.34,9.2773,16.3016,16.3016,0,0,1-9.5117,4.9414v.3906a12.6823,12.6823,0,0,1,6.8164,4.2773,11.5448,11.5448,0,0,1,2.3633,7.3242q0,8.2427-5.8594,13.0078T249.32,205H231.0781l12.07-57.1094Zm-18.4766,51.0156h10.0781q6.7969,0,10.4883-3.0273t3.6914-8.6523a8.3284,8.3284,0,0,0-2.793-6.7578q-2.7935-2.3437-8.1055-2.3437h-8.9453Zm5.6641-26.7187h9.375q5.937,0,9.4531-2.7539a9.0765,9.0765,0,0,0,3.5156-7.5586,7.173,7.173,0,0,0-2.4219-5.82q-2.4228-2.03-7.9687-2.0312h-8.0859Z" fill="#ededed"/><path d="M301.3281,205.7813a11.6868,11.6868,0,0,1-6.6016-1.9141,11.8229,11.8229,0,0,1-4.375-5.43h-.3906L287.3438,205h-5.3125l12.8906-60.7812h7.0313l-3.0469,14.375q-.7031,3.4775-1.68,7.2266a39.7656,39.7656,0,0,1-1.25,4.2969h.3125a29.107,29.107,0,0,1,7.3242-6.7773,13.4539,13.4539,0,0,1,6.8164-1.9336,10.5451,10.5451,0,0,1,8.6523,3.8086q3.1055,3.8086,3.1055,10.7617a41.64,41.64,0,0,1-2.6562,15.02,25.4521,25.4521,0,0,1-7.4414,10.8594A16.5287,16.5287,0,0,1,301.3281,205.7813Zm6.875-38.5547q-3.7119,0-7.48,3.6914a25.8833,25.8833,0,0,0-5.9375,9.2578,30.5317,30.5317,0,0,0-2.168,11.1523,9.0545,9.0545,0,0,0,2.09,6.3477,7.817,7.817,0,0,0,6.0742,2.2852,10.0344,10.0344,0,0,0,7.1094-3.2031,21.982,21.982,0,0,0,5.1953-8.8867A37.2755,37.2755,0,0,0,315,175.8984Q315,167.2266,308.2031,167.2266Z" fill="#ededed"/><path d="M386.3594,157.1484a12.34,12.34,0,0,0-10.5859,5.1367q-3.75,5.1372-3.75,14.3164,0,19.1016,14.3359,19.1016,6.0146,0,14.57-3.0078v10.1563a40.4631,40.4631,0,0,1-15.7031,2.93q-12.4614,0-19.0625-7.5586t-6.6016-21.6992a35.4264,35.4264,0,0,1,3.2422-15.6055,23.4309,23.4309,0,0,1,9.3164-10.2734,27.5572,27.5572,0,0,1,14.2383-3.5742,38.44,38.44,0,0,1,16.7188,4.0234l-3.9062,9.8438a64.878,64.878,0,0,0-6.4453-2.6563A19.24,19.24,0,0,0,386.3594,157.1484Z" fill="#ededed"/><path d="M433.875,205.7813q-20.3906,0-20.3906-22.3828,0-11.1328,5.5469-17.0117t15.8984-5.8789a30.32,30.32,0,0,1,13.5938,2.9688l-3.5156,9.2188q-2.8125-1.1323-5.2344-1.8555a16.8818,16.8818,0,0,0-4.8437-.7227q-9.2974,0-9.2969,13.2031,0,12.813,9.2969,12.8125a21.19,21.19,0,0,0,6.3672-.918,22.9465,22.9465,0,0,0,5.8594-2.8711v10.1953a19.1962,19.1962,0,0,1-5.84,2.5391A32.8486,32.8486,0,0,1,433.875,205.7813Z" fill="#ededed"/><path d="M511.7188,205h-12.07V171.9531q0-1.0151.02-2.4414t.0781-2.9687q.0586-1.5425.1172-3.1055t.0977-2.8516q-.1963.2344-.6641.7031t-1.0547,1.0352q-.5859.5669-1.2109,1.1523t-1.2109,1.0547l-6.5625,5.2734-5.8594-7.2656,18.3984-14.6484h9.9219Z" fill="#ededed"/><path d="M569.3906,205H531.07v-8.3984l13.4375-14.4922q2.5386-2.7334,4.6094-5.0391a42.4314,42.4314,0,0,0,3.5547-4.4922,20.1588,20.1588,0,0,0,2.3047-4.4531,14.2322,14.2322,0,0,0,.82-4.8828,5.8068,5.8068,0,0,0-1.7383-4.4922,6.6213,6.6213,0,0,0-4.668-1.6016,12.4353,12.4353,0,0,0-5.9375,1.5234,30.8344,30.8344,0,0,0-5.9766,4.3359l-6.5625-7.7734q1.7578-1.6011,3.6719-3.0664a24.8712,24.8712,0,0,1,9.2969-4.4141,26.0216,26.0216,0,0,1,6.2109-.6836,22.3708,22.3708,0,0,1,7.3633,1.1328,16.0015,16.0015,0,0,1,5.5664,3.2227,13.9441,13.9441,0,0,1,3.5352,5.0586,17.3021,17.3021,0,0,1,1.23,6.68,17.8429,17.8429,0,0,1-1.1719,6.4258,28.638,28.638,0,0,1-3.2031,6.0156,53.6255,53.6255,0,0,1-4.707,5.8594q-2.6763,2.9106-5.7227,5.918l-6.875,6.9141v.5469h23.2813Z" fill="#ededed"/><path d="M615.2266,160.6641a14.1024,14.1024,0,0,1-.957,5.332,13.3393,13.3393,0,0,1-2.6172,4.1406,14.7554,14.7554,0,0,1-3.9062,2.9688,20.4468,20.4468,0,0,1-4.8633,1.8164v.2344q6.9141.86,10.4688,4.1992a11.7664,11.7664,0,0,1,3.5547,9.0039,17.6027,17.6027,0,0,1-1.3477,6.9336,14.5705,14.5705,0,0,1-4.1406,5.5273,19.9539,19.9539,0,0,1-7.0312,3.6523,33.9885,33.9885,0,0,1-9.98,1.3086,47.0335,47.0335,0,0,1-8.6719-.7617,34.0048,34.0048,0,0,1-7.5781-2.3242V192.4219a28.0582,28.0582,0,0,0,3.7109,1.6406,40.43,40.43,0,0,0,3.9063,1.1914,31.9607,31.9607,0,0,0,3.8477.7227,29.1729,29.1729,0,0,0,3.5742.2344,21.0409,21.0409,0,0,0,5.5859-.625,9.2555,9.2555,0,0,0,3.5547-1.7578,6.3308,6.3308,0,0,0,1.8945-2.7148,10.2038,10.2038,0,0,0,.5664-3.457,6.9464,6.9464,0,0,0-.7227-3.1836,6.13,6.13,0,0,0-2.3437-2.4219,13.355,13.355,0,0,0-4.2383-1.543,32.1707,32.1707,0,0,0-6.4453-.5469h-4.0625v-8.4766h3.9844a23.3369,23.3369,0,0,0,5.9766-.6445,10.6894,10.6894,0,0,0,3.8086-1.7578,6.16,6.16,0,0,0,2.0117-2.5977,8.5362,8.5362,0,0,0,.5859-3.1641,6.1106,6.1106,0,0,0-1.8945-4.7656q-1.8955-1.7183-5.9961-1.7187a15.6637,15.6637,0,0,0-3.4961.3711,19.4974,19.4974,0,0,0-3.0078.9375,19.2647,19.2647,0,0,0-2.5391,1.25q-1.1528.6841-2.09,1.3477l-6.0937-8.0469a27.8233,27.8233,0,0,1,3.5742-2.2266,28.6715,28.6715,0,0,1,4.1992-1.7773,31.1927,31.1927,0,0,1,4.8828-1.1914,34.52,34.52,0,0,1,5.5859-.43,29.9248,29.9248,0,0,1,7.6758.918,18.3259,18.3259,0,0,1,5.918,2.6563,12.2507,12.2507,0,0,1,3.8086,4.2578A12.0269,12.0269,0,0,1,615.2266,160.6641Z" fill="#ededed"/><path d="M109.8984,245l-1.7187-4.4238h-5.6641L100.8164,245H99l5.5762-14.3359h1.6211L111.7637,245Zm-2.2559-6.0156-1.6016-4.3262-.6836-2.1387q-.293,1.1719-.6152,2.1387l-1.6211,4.3262Z" fill="#ededed"/><path d="M116.7266,230.7227h4.0723a7.6743,7.6743,0,0,1,4.1455.8545,2.9968,2.9968,0,0,1,1.2744,2.6807,3.1426,3.1426,0,0,1-.6934,2.0947,3.32,3.32,0,0,1-2.0215,1.0693v.0977a4.0948,4.0948,0,0,1,2.4268,1.1426,3.2648,3.2648,0,0,1,.7764,2.2754,3.6515,3.6515,0,0,1-1.3086,2.9883A5.6041,5.6041,0,0,1,121.7461,245h-5.02Zm1.7969,6.0742H121.16a4.3154,4.3154,0,0,0,2.4414-.5371,2.0449,2.0449,0,0,0,.7617-1.7969,1.8346,1.8346,0,0,0-.835-1.6895,5.1778,5.1778,0,0,0-2.6416-.5176h-2.3633Zm0,1.5039v5.1758h2.8809a4.0468,4.0468,0,0,0,2.5488-.6641,2.4211,2.4211,0,0,0,.83-2.0117,2.1426,2.1426,0,0,0-.8789-1.89,4.6379,4.6379,0,0,0-2.6367-.61Z" fill="#ededed"/><path d="M138.8379,232.1a4.5139,4.5139,0,0,0-3.623,1.543,6.283,6.283,0,0,0-1.3184,4.2188,6.3773,6.3773,0,0,0,1.2793,4.2627,4.527,4.527,0,0,0,3.6426,1.499,12.1453,12.1453,0,0,0,3.4277-.5664v1.5625a8.7339,8.7339,0,0,1-1.748.4541,13.6315,13.6315,0,0,1-1.9336.1221,6.1564,6.1564,0,0,1-4.8584-1.9189,7.9148,7.9148,0,0,1-1.7041-5.4346,8.6718,8.6718,0,0,1,.8154-3.8672,5.8632,5.8632,0,0,1,2.373-2.5586,7.2158,7.2158,0,0,1,3.667-.8984,8.725,8.725,0,0,1,3.9453.84l-.7227,1.5234A7.8152,7.8152,0,0,0,138.8379,232.1Z" fill="#ededed"/><path d="M159.7969,237.7246a7.1887,7.1887,0,0,1-1.9287,5.4053,7.6261,7.6261,0,0,1-5.5322,1.87h-3.9746V230.7227h4.3945a7.0639,7.0639,0,0,1,5.1855,1.8311A6.94,6.94,0,0,1,159.7969,237.7246Zm-1.8945.0586a5.7453,5.7453,0,0,0-1.3428-4.126,5.3725,5.3725,0,0,0-4.0576-1.4014h-2.3437V243.457h1.9434Q157.9023,243.457,157.9023,237.7832Z" fill="#ededed"/><path d="M173.9395,245h-7.9785V230.7227h7.9785v1.582h-6.1816v4.4531h5.82V238.32h-5.82v5.0977h6.1816Z" fill="#ededed"/><path d="M181.8809,245H180.084V230.7227h7.9785v1.582h-6.1816v5.0586h5.8008v1.5723h-5.8008Z" fill="#ededed"/><path d="M199.666,237.4609h4.9316v7.002a15.6081,15.6081,0,0,1-2.3047.5469,17.5041,17.5041,0,0,1-2.7148.1855,6.5331,6.5331,0,0,1-5.0488-1.9336,7.6565,7.6565,0,0,1-1.7871-5.4,8.1971,8.1971,0,0,1,.8887-3.9062,6.0238,6.0238,0,0,1,2.5635-2.5537,8.3547,8.3547,0,0,1,3.95-.8838,10.76,10.76,0,0,1,4.2578.84l-.6836,1.5625a9.1886,9.1886,0,0,0-3.6816-.82,5.1755,5.1755,0,0,0-3.9844,1.543,5.949,5.949,0,0,0-1.4355,4.2188,6.0911,6.0911,0,0,0,1.377,4.3066,5.2112,5.2112,0,0,0,4.0039,1.4746,11.5289,11.5289,0,0,0,2.8027-.3418v-4.2383H199.666Z" fill="#ededed"/><path d="M221.9434,245h-1.7969v-6.66h-7.3242V245h-1.7969V230.7227h1.7969v6.0352h7.3242v-6.0352h1.7969Z" fill="#ededed"/><path d="M232.8633,245H227.707v-1.0352l1.68-.3809V232.1582l-1.68-.4v-1.0352h5.1563v1.0352l-1.68.4V243.584l1.68.3809Z" fill="#ededed"/><path d="M236.6055,248.7988a3.5452,3.5452,0,0,1-1.4844-.2637v-1.5137a5.3179,5.3179,0,0,0,1.4453.1953,1.7919,1.7919,0,0,0,1.4648-.5908,2.611,2.611,0,0,0,.4883-1.7041V230.7227h1.8066v14.0527a4.2408,4.2408,0,0,1-.9619,2.9785A3.5636,3.5636,0,0,1,236.6055,248.7988Z" fill="#ededed"/><path d="M257.5254,245h-2.1191l-5.0684-6.8164-1.4551,1.2793V245h-1.7969V230.7227h1.7969v7.041l1.23-1.3574,5.0879-5.6836h2.1l-5.6543,6.2207Z" fill="#ededed"/><path d="M262.4688,245V230.7227h1.7969v12.6758h6.24V245Z" fill="#ededed"/><path d="M282.2461,245l-4.707-12.52h-.0781q.1465,1.563.1465,3.8574V245h-1.66V230.7227h2.6563l4.4043,11.6992h.0781l4.4824-11.6992h2.6367V245h-1.7773v-8.7793q0-1.4648.1367-3.7207h-.0781L283.7207,245Z" fill="#ededed"/><path d="M308.41,245h-2.1l-7.6465-11.8555h-.0781l.0488.791q.1172,1.7769.1172,3.0859V245h-1.66V230.7227h2.08l.4395.6934,4.6875,7.2461,2.49,3.877h.0781q-.02-.2344-.0781-1.6748t-.0586-2.085v-8.0566h1.68Z" fill="#ededed"/><path d="M327.748,237.8418a7.8593,7.8593,0,0,1-1.7334,5.3906,6.13,6.13,0,0,1-4.8486,1.9629,6.2,6.2,0,0,1-4.8779-1.9287,9.42,9.42,0,0,1-.01-10.85,6.2364,6.2364,0,0,1,4.9072-1.9189,6.1253,6.1253,0,0,1,4.834,1.9482A7.8487,7.8487,0,0,1,327.748,237.8418Zm-11.2891,0a6.7257,6.7257,0,0,0,1.2012,4.3164,4.8817,4.8817,0,0,0,6.9922.02,8.4712,8.4712,0,0,0,.01-8.6475,4.2221,4.2221,0,0,0-3.4766-1.45,4.2888,4.2888,0,0,0-3.5254,1.47A6.6436,6.6436,0,0,0,316.459,237.8418Z" fill="#ededed"/><path d="M343.043,234.9219a4.0045,4.0045,0,0,1-1.4941,3.3545,6.6932,6.6932,0,0,1-4.209,1.167h-1.6406V245h-1.7969V230.7227h3.7793Q343.043,230.7227,343.043,234.9219ZM335.6992,237.9h1.4355a5.38,5.38,0,0,0,3.0859-.6885,2.5376,2.5376,0,0,0,.957-2.2119,2.4376,2.4376,0,0,0-.8887-2.0605,4.5478,4.5478,0,0,0-2.7734-.6836h-1.8164Z" fill="#ededed"/><path d="M361.4629,237.8418a8.6374,8.6374,0,0,1-1.084,4.5117,5.6059,5.6059,0,0,1-3.0762,2.49l3.418,3.5547h-2.5781l-2.7637-3.2227-.498.02a6.2,6.2,0,0,1-4.8779-1.9287,9.42,9.42,0,0,1-.01-10.85A6.2364,6.2364,0,0,1,354.9,230.498a6.1253,6.1253,0,0,1,4.834,1.9482A7.8487,7.8487,0,0,1,361.4629,237.8418Zm-11.2891,0a6.7257,6.7257,0,0,0,1.2012,4.3164,4.8817,4.8817,0,0,0,6.9922.02,8.4712,8.4712,0,0,0,.01-8.6475,4.2221,4.2221,0,0,0-3.4766-1.45,4.2888,4.2888,0,0,0-3.5254,1.47A6.6436,6.6436,0,0,0,350.1738,237.8418Z" fill="#ededed"/><path d="M369.4141,239.1016V245h-1.7969V230.7227h3.9355a6.2844,6.2844,0,0,1,3.9307,1.0107,3.6463,3.6463,0,0,1,1.2744,3.042,3.78,3.78,0,0,1-2.8613,3.8281L377.8125,245h-2.1l-3.457-5.8984Zm0-1.5234h2.1387a3.8672,3.8672,0,0,0,2.5391-.6836,2.5238,2.5238,0,0,0,.8008-2.0312,2.3191,2.3191,0,0,0-.8105-1.9678,4.3717,4.3717,0,0,0-2.627-.62h-2.041Z" fill="#ededed"/><path d="M391.1543,241.1816a3.5554,3.5554,0,0,1-1.3477,2.9395,5.8716,5.8716,0,0,1-3.75,1.0742,9.1925,9.1925,0,0,1-3.9258-.6738v-1.7187a10.3235,10.3235,0,0,0,1.9873.6152,9.95,9.95,0,0,0,2.0166.2246,3.9561,3.9561,0,0,0,2.4121-.6152,2.0048,2.0048,0,0,0,.8105-1.6895,2.1408,2.1408,0,0,0-.293-1.1719,2.8045,2.8045,0,0,0-.9814-.8594,13.7923,13.7923,0,0,0-2.085-.9082,6.7694,6.7694,0,0,1-2.832-1.7041,3.7332,3.7332,0,0,1-.85-2.5342,3.2026,3.2026,0,0,1,1.2549-2.6562,5.1988,5.1988,0,0,1,3.3057-.9863,9.5527,9.5527,0,0,1,3.9355.8008l-.5566,1.543a8.9648,8.9648,0,0,0-3.418-.7617,3.2135,3.2135,0,0,0-1.9873.5469,1.8167,1.8167,0,0,0-.7178,1.5332,2.2371,2.2371,0,0,0,.2783,1.167,2.5981,2.5981,0,0,0,.8984.8447,11.6521,11.6521,0,0,0,1.9482.8691,10.6523,10.6523,0,0,1,2.373,1.1377,3.5871,3.5871,0,0,1,1.1523,1.27A3.6869,3.6869,0,0,1,391.1543,241.1816Z" fill="#ededed"/><path d="M401.5566,245H399.75V232.3047h-4.4629v-1.582H405.99v1.582h-4.4336Z" fill="#ededed"/><path d="M422.0176,230.7227v9.2383a5.0317,5.0317,0,0,1-1.4746,3.8379,5.7138,5.7138,0,0,1-4.0918,1.3965,5.462,5.462,0,0,1-4.0137-1.4111,5.188,5.188,0,0,1-1.4258-3.8623v-9.1992h1.8066V239.98a3.7156,3.7156,0,0,0,.9326,2.7051,3.7561,3.7561,0,0,0,2.8076.957,3.3175,3.3175,0,0,0,3.6719-3.6816v-9.2383Z" fill="#ededed"/><path d="M426.834,230.7227h1.8848l3.2129,9.16a23.9681,23.9681,0,0,1,.8984,3.1152,25.0437,25.0437,0,0,1,.9082-3.1543l3.1934-9.1211h1.9043L433.7383,245h-1.8066Z" fill="#ededed"/><path d="M456.377,245h-1.8164l-2.7832-9.3555a25.7464,25.7464,0,0,1-.7227-2.8223,20.1406,20.1406,0,0,1-.6836,2.8809L447.6758,245h-1.8164L442.08,230.7227h1.875l2.2168,8.7207a29.1419,29.1419,0,0,1,.6836,3.3984,24.6675,24.6675,0,0,1,.7617-3.5059l2.52-8.6133h1.8555l2.627,8.6816a25.755,25.755,0,0,1,.7813,3.4375,26.1736,26.1736,0,0,1,.6934-3.418l2.207-8.7012h1.875Z" fill="#ededed"/><path d="M475.08,245h-2.041l-3.7793-6.2012L465.4219,245h-1.9043l4.7461-7.4414-4.4434-6.8359h2.002l3.4961,5.5957,3.5254-5.5957h1.8945l-4.4141,6.7969Z" fill="#ededed"/><path d="M483.8223,237.7441l3.7207-7.0215h1.9336l-4.7559,8.74V245h-1.8066v-5.459l-4.7559-8.8184h1.9629Z" fill="#ededed"/><path d="M503.1406,245h-9.9023v-1.3574l7.52-11.3184h-7.2852v-1.6016h9.4629V232.08l-7.52,11.3184h7.7246Z" fill="#ededed"/><path d="M107.32,274l-.3418-1.5234H106.9a4.4944,4.4944,0,0,1-1.5967,1.3623,4.9293,4.9293,0,0,1-2.0068.3564,3.5141,3.5141,0,0,1-2.48-.83,3.0324,3.0324,0,0,1-.8984-2.3437q0-3.2622,5.1465-3.418l1.8164-.0684V266.9a2.62,2.62,0,0,0-.5273-1.8018,2.1788,2.1788,0,0,0-1.6895-.5811,5.0258,5.0258,0,0,0-1.6064.2539,13.2093,13.2093,0,0,0-1.4209.5664L101.1,264.02a7.99,7.99,0,0,1,1.7676-.6738,7.6274,7.6274,0,0,1,1.8945-.2441,4.1891,4.1891,0,0,1,2.8906.8594,3.5262,3.5262,0,0,1,.9473,2.7344V274Zm-3.623-1.2207a3.248,3.248,0,0,0,2.3193-.7959,2.9561,2.9561,0,0,0,.8447-2.2607v-.9668l-1.582.0684a5.7588,5.7588,0,0,0-2.69.5859,1.7729,1.7729,0,0,0-.8447,1.6309,1.6232,1.6232,0,0,0,.5127,1.2891A2.1132,2.1132,0,0,0,103.6973,272.7793Z" fill="#ededed"/><path d="M119.998,263.1016a3.9249,3.9249,0,0,1,3.2715,1.46,7.7848,7.7848,0,0,1-.02,8.1836,3.9493,3.9493,0,0,1-3.252,1.45,4.5743,4.5743,0,0,1-1.9336-.3906,3.383,3.383,0,0,1-1.3867-1.1621h-.1367q-.3025,1.1719-.3613,1.3574h-1.26V258.8047h1.7578v3.6914q0,1.103-.0977,2.207h.0977A3.734,3.734,0,0,1,119.998,263.1016Zm-.293,1.4551a2.7448,2.7448,0,0,0-2.3242.918,5.2244,5.2244,0,0,0-.7031,3.1055v.0781a5.28,5.28,0,0,0,.7178,3.14,2.7662,2.7662,0,0,0,2.3486.9424,2.4139,2.4139,0,0,0,2.1533-1.06,5.5061,5.5061,0,0,0,.708-3.0615,5.3171,5.3171,0,0,0-.7129-3.0469A2.4917,2.4917,0,0,0,119.7051,264.5566Z" fill="#ededed"/><path d="M134.5215,274.1953a4.618,4.618,0,0,1-3.6035-1.4209,5.8641,5.8641,0,0,1-1.2891-4.0771,6.0338,6.0338,0,0,1,1.3037-4.1553,4.7211,4.7211,0,0,1,3.7158-1.46,7.5049,7.5049,0,0,1,1.5479.1611,5.1493,5.1493,0,0,1,1.2646.415l-.5371,1.4648a6.81,6.81,0,0,0-2.3145-.5078,2.805,2.805,0,0,0-2.3926,1.0205,5.008,5.008,0,0,0-.7715,3.042,4.8984,4.8984,0,0,0,.7715,2.9736,2.6752,2.6752,0,0,0,2.2852,1.03,6.6287,6.6287,0,0,0,2.7832-.625v1.5625A5.974,5.974,0,0,1,134.5215,274.1953Z" fill="#ededed"/><path d="M146.623,274.1953a3.9093,3.9093,0,0,1-3.2422-1.4453,6.419,6.419,0,0,1-1.1523-4.0918,6.4925,6.4925,0,0,1,1.1572-4.1016,4.3038,4.3038,0,0,1,6.5771.1074h.127c-.02-.13-.0454-.3926-.0781-.7861s-.0488-.6592-.0488-.7959v-4.2773h1.7578V274h-1.416l-.2637-1.4355h-.0781A3.79,3.79,0,0,1,146.623,274.1953Zm.2832-1.4551a2.8936,2.8936,0,0,0,2.3389-.874A4.44,4.44,0,0,0,149.9824,269v-.3223a5.2464,5.2464,0,0,0-.7471-3.1885,2.8012,2.8012,0,0,0-2.3486-.9521,2.3994,2.3994,0,0,0-2.1,1.0791,5.4075,5.4075,0,0,0-.7422,3.0811,5.145,5.145,0,0,0,.7373,3.0176A2.4562,2.4562,0,0,0,146.9063,272.74Z" fill="#ededed"/><path d="M162.6895,274.1953a4.94,4.94,0,0,1-3.7842-1.46,5.6351,5.6351,0,0,1-1.3721-4.0186,6.1919,6.1919,0,0,1,1.2793-4.1064,4.2752,4.2752,0,0,1,3.457-1.5283,4.1694,4.1694,0,0,1,3.2227,1.3037,5.0073,5.0073,0,0,1,1.2012,3.53V268.98H159.35a4.11,4.11,0,0,0,.9277,2.7734,3.2278,3.2278,0,0,0,2.49.9473,8.4858,8.4858,0,0,0,1.6309-.1514,9.3422,9.3422,0,0,0,1.8066-.5908v1.543a8.5211,8.5211,0,0,1-1.67.5371A9.5019,9.5019,0,0,1,162.6895,274.1953Zm-.4395-9.6777a2.5516,2.5516,0,0,0-1.9922.8105,3.8025,3.8025,0,0,0-.8691,2.2559h5.459a3.48,3.48,0,0,0-.6934-2.2852A2.38,2.38,0,0,0,162.25,264.5176Z" fill="#ededed"/><path d="M177.35,264.6445h-2.7051V274h-1.7578v-9.3555h-1.875v-.82l1.875-.6055v-.6152a4.3423,4.3423,0,0,1,.8545-2.93,3.3144,3.3144,0,0,1,2.6318-.9766,6.3821,6.3821,0,0,1,2.08.3613l-.4687,1.377a5.2871,5.2871,0,0,0-1.5918-.293,1.5273,1.5273,0,0,0-1.3184.5859,3.1684,3.1684,0,0,0-.43,1.8555v.6934H177.35Z" fill="#ededed"/><path d="M189.4512,273.9023l.0586-1.3184h-.0781a3.7257,3.7257,0,0,1-3.32,1.6113,3.9353,3.9353,0,0,1-3.2471-1.45,7.704,7.704,0,0,1,.01-8.1689,4.2525,4.2525,0,0,1,6.5771.127h.1074l.2344-1.4258h1.3965v10.8984a4.6945,4.6945,0,0,1-1.167,3.4668,4.9623,4.9623,0,0,1-3.6279,1.1621,9.4059,9.4059,0,0,1-3.8574-.6836V276.5a8.3014,8.3014,0,0,0,3.9551.84,2.9115,2.9115,0,0,0,2.1631-.8008,3.0059,3.0059,0,0,0,.7959-2.2168ZM186.375,272.76a2.92,2.92,0,0,0,2.3584-.874,4.3275,4.3275,0,0,0,.7373-2.8076v-.42a5.208,5.208,0,0,0-.7422-3.125,2.8121,2.8121,0,0,0-2.3926-.9766,2.3855,2.3855,0,0,0-2.085,1.0693,6.7338,6.7338,0,0,0-.02,6.0889A2.43,2.43,0,0,0,186.375,272.76Z" fill="#ededed"/><path d="M204.9023,274v-6.8555a2.8231,2.8231,0,0,0-.5811-1.9482,2.345,2.345,0,0,0-1.8213-.64,2.9347,2.9347,0,0,0-2.3877.9082,4.6946,4.6946,0,0,0-.7568,2.998V274h-1.7578V258.8047h1.7578v4.4531a9.9418,9.9418,0,0,1-.0977,1.5039h.1172a3.2583,3.2583,0,0,1,1.3574-1.2207,4.3714,4.3714,0,0,1,1.9824-.4395,4.1312,4.1312,0,0,1,2.9395.9326,3.9448,3.9448,0,0,1,.9863,2.9834V274Z" fill="#ededed"/><path d="M212.8242,260.377a.978.978,0,0,1,1.0352-1.1133.989.989,0,0,1,1.0254,1.1133,1.0812,1.0812,0,0,1-.3076.85,1.1045,1.1045,0,0,1-1.4551,0A1.1006,1.1006,0,0,1,212.8242,260.377ZM214.7188,274h-1.7578V263.2773h1.7578Z" fill="#ededed"/><path d="M219.8574,278.8047a4.2544,4.2544,0,0,1-1.543-.2441v-1.416a4.7677,4.7677,0,0,0,1.3281.1953,1.3974,1.3974,0,0,0,1.1182-.415,1.9023,1.9023,0,0,0,.3564-1.2646V263.2773h1.7578v12.3242a3.3538,3.3538,0,0,1-.7666,2.4023A2.9723,2.9723,0,0,1,219.8574,278.8047Zm1.123-18.4277a.978.978,0,0,1,1.0352-1.1133.989.989,0,0,1,1.0254,1.1133,1.0812,1.0812,0,0,1-.3076.85,1.1045,1.1045,0,0,1-1.4551,0A1.1006,1.1006,0,0,1,220.98,260.377Z" fill="#ededed"/><path d="M231.0117,268.4824l.5957-.7617.6836-.82,3.4277-3.623H237.77l-4.3359,4.58L238.0723,274h-2.1191l-3.7207-5-1.2207,1.0645V274h-1.7383V258.8047h1.7383v7.9395l-.0781,1.7383Z" fill="#ededed"/><path d="M244.7148,274H242.957V258.8047h1.7578Z" fill="#ededed"/><path d="M264.7559,274v-6.9043q0-2.5386-2.1777-2.5391a2.6606,2.6606,0,0,0-2.1973.8691,4.1765,4.1765,0,0,0-.7031,2.6563V274H257.93v-6.9043a2.9058,2.9058,0,0,0-.5322-1.9043,2.0534,2.0534,0,0,0-1.665-.6348,2.5507,2.5507,0,0,0-2.1729.9082,5.0062,5.0062,0,0,0-.6885,2.9785V274h-1.7578V263.2773h1.416l.2637,1.4648h.0977a3.1892,3.1892,0,0,1,1.2939-1.2207,3.9536,3.9536,0,0,1,1.87-.4395q2.52,0,3.2813,1.7969h.0977a3.53,3.53,0,0,1,1.4111-1.3281,4.2955,4.2955,0,0,1,2.0264-.4687,3.6128,3.6128,0,0,1,2.72.9375,4.2072,4.2072,0,0,1,.9033,2.998V274Z" fill="#ededed"/><path d="M280.1191,274v-6.8555a2.8231,2.8231,0,0,0-.5811-1.9482,2.345,2.345,0,0,0-1.8213-.64,2.9234,2.9234,0,0,0-2.3975.9131,4.7031,4.7031,0,0,0-.7471,2.9736V274h-1.7578V263.2773h1.416l.2637,1.4648h.0977a3.3113,3.3113,0,0,1,1.3965-1.2256,4.4883,4.4883,0,0,1,1.9824-.4346,3.99,3.99,0,0,1,2.93.957,4.0617,4.0617,0,0,1,.957,2.9785V274Z" fill="#ededed"/><path d="M297.4941,268.6191a5.9121,5.9121,0,0,1-1.3281,4.1016,4.6885,4.6885,0,0,1-3.6719,1.4746,4.8878,4.8878,0,0,1-2.5781-.6787,4.4468,4.4468,0,0,1-1.7285-1.9482,6.7767,6.7767,0,0,1-.6055-2.9492,5.8944,5.8944,0,0,1,1.3086-4.0771,4.6751,4.6751,0,0,1,3.6719-1.46,4.5872,4.5872,0,0,1,3.5986,1.4893A5.8475,5.8475,0,0,1,297.4941,268.6191Zm-8.0957,0a5.0247,5.0247,0,0,0,.7959,3.0713,3.1357,3.1357,0,0,0,4.6826,0,5.004,5.004,0,0,0,.8008-3.0713,4.8473,4.8473,0,0,0-.8057-3.042,2.8234,2.8234,0,0,0-2.3584-1.0205Q289.3987,264.5566,289.3984,268.6191Z" fill="#ededed"/><path d="M308.3555,274.1953a3.8989,3.8989,0,0,1-3.32-1.5527h-.1172l.0391.4a13.4055,13.4055,0,0,1,.0781,1.3574v4.4043h-1.7578V263.2773h1.4453l.2344,1.4648h.0781a3.7884,3.7884,0,0,1,1.4453-1.27,4.3533,4.3533,0,0,1,1.8945-.3906,3.9187,3.9187,0,0,1,3.2471,1.45,6.4024,6.4024,0,0,1,1.1572,4.0869,6.472,6.472,0,0,1-1.1621,4.1016A3.915,3.915,0,0,1,308.3555,274.1953Zm-.293-9.6387a2.7536,2.7536,0,0,0-2.3.8984,4.6319,4.6319,0,0,0-.7275,2.8223v.3418a5.3527,5.3527,0,0,0,.7227,3.1494,2.73,2.73,0,0,0,2.3438.9717,2.4172,2.4172,0,0,0,2.1045-1.0937,5.3,5.3,0,0,0,.7568-3.0469,5.0566,5.0566,0,0,0-.7568-3.0029A2.4945,2.4945,0,0,0,308.0625,264.5566Z" fill="#ededed"/><path d="M322.3418,274.1953a3.84,3.84,0,0,1-3.2129-1.4648,7.801,7.801,0,0,1,.0244-8.1689A3.9031,3.9031,0,0,1,322.4,263.082a3.7986,3.7986,0,0,1,3.34,1.66h.0781l.2637-1.4648h1.3965v15.5273h-1.7578v-4.58a10.771,10.771,0,0,1,.0977-1.66h-.1172A3.81,3.81,0,0,1,322.3418,274.1953Zm.3418-1.4551a2.8346,2.8346,0,0,0,2.2949-.8594,4.5663,4.5663,0,0,0,.7617-2.8418v-.3613a5.2824,5.2824,0,0,0-.7422-3.1787,2.7845,2.7845,0,0,0-2.3535-.9619,2.391,2.391,0,0,0-2.1094,1.084,5.4668,5.4668,0,0,0-.7324,3.0762A5.2127,5.2127,0,0,0,320.53,271.7,2.4574,2.4574,0,0,0,322.6836,272.74Z" fill="#ededed"/><path d="M338.8867,263.082a6.0569,6.0569,0,0,1,1.26.1172l-.2148,1.6211a5.2058,5.2058,0,0,0-1.1621-.1367,2.8561,2.8561,0,0,0-1.5771.4688,3.195,3.195,0,0,0-1.1377,1.2939,4.0545,4.0545,0,0,0-.41,1.8311V274h-1.7578V263.2773h1.4453l.1953,1.9629h.0781a4.6329,4.6329,0,0,1,1.4551-1.6113A3.284,3.284,0,0,1,338.8867,263.082Z" fill="#ededed"/><path d="M352.1309,271.041a2.7206,2.7206,0,0,1-1.123,2.3291,5.2485,5.2485,0,0,1-3.1543.8252,7.13,7.13,0,0,1-3.3691-.6738V271.92a7.7782,7.7782,0,0,0,3.4082.8594,3.402,3.402,0,0,0,1.9336-.43,1.3439,1.3439,0,0,0,.6055-1.1523,1.3091,1.3091,0,0,0-.5811-1.0742,9.0887,9.0887,0,0,0-2.0654-1.0059,11.773,11.773,0,0,1-2.1289-1.001,2.7789,2.7789,0,0,1-.9033-.9326,2.556,2.556,0,0,1-.2881-1.26,2.4158,2.4158,0,0,1,1.0742-2.08,5.021,5.021,0,0,1,2.9492-.7617,8.1756,8.1756,0,0,1,3.418.7227l-.5957,1.3965a7.7041,7.7041,0,0,0-2.9395-.6836,3.2153,3.2153,0,0,0-1.66.3467,1.0689,1.0689,0,0,0-.5664.9521,1.1883,1.1883,0,0,0,.4883.9717,10.5,10.5,0,0,0,2.2754,1.0693,9.9734,9.9734,0,0,1,1.9775.9277,2.9058,2.9058,0,0,1,.9424.9668A2.5892,2.5892,0,0,1,352.1309,271.041Z" fill="#ededed"/><path d="M361.3125,272.76a5.4838,5.4838,0,0,0,.8008-.0684,3.6377,3.6377,0,0,0,.6934-.1562v1.3477a3.9544,3.9544,0,0,1-.7568.21,5.29,5.29,0,0,1-1.04.1025q-3.1443,0-3.1445-3.3105v-6.24h-1.5137v-.84l1.5332-.7031.7031-2.2852h1.0449v2.4609h3.0957v1.3672h-3.0957v6.1914a2.0724,2.0724,0,0,0,.4443,1.4258A1.57,1.57,0,0,0,361.3125,272.76Z" fill="#ededed"/><path d="M369.6055,263.2773v6.9043a2.7666,2.7666,0,0,0,.5811,1.9287,2.3389,2.3389,0,0,0,1.8018.63,2.9285,2.9285,0,0,0,2.4023-.918,4.6655,4.6655,0,0,0,.752-2.959v-5.5859H376.91V274h-1.4453l-.2539-1.416h-.0879a3.1511,3.1511,0,0,1-1.3574,1.1914,4.679,4.679,0,0,1-2.041.42,4.099,4.099,0,0,1-2.915-.9277,3.9251,3.9251,0,0,1-.9814-2.9687v-7.0215Z" fill="#ededed"/><path d="M385.6719,274l-4.0625-10.7227h1.8848l2.2754,6.3184a22.7393,22.7393,0,0,1,.8594,2.8418h.0781c.02-.085.0439-.1807.0732-.2881s.0635-.2246.1025-.3516.28-.8613.7227-2.2021l2.2852-6.3184h1.875L387.6934,274Z" fill="#ededed"/><path d="M405.2246,274l-1.8359-6.0352q-.2542-.7515-.7422-2.8418h-.0781q-.41,1.9043-.7227,2.8613L399.9219,274H397.93L394.99,263.2773h1.8164q1.0159,3.9551,1.5479,6.0156a25.0574,25.0574,0,0,1,.63,2.91h.0781l.1367-.6055q.3025-1.396.5859-2.2754l1.9043-6.0449h1.9141l1.8457,6.0449c.0649.2275.1353.4707.21.7275s.145.5107.21.7617.1235.4951.1758.7324.0913.4512.1172.64h.0879A32.3166,32.3166,0,0,1,406.9629,269l1.5039-5.7227h1.7969L407.2852,274Z" fill="#ededed"/><path d="M417.7266,268.5215l-3.7012-5.2441h2.002l2.7637,4.043,2.7344-4.043h1.9824l-3.7012,5.2441L423.7129,274h-2.002l-2.92-4.2773L415.832,274H413.85Z" fill="#ededed"/><path d="M427.084,263.2773h1.8848l2.3145,6.1035a19.7341,19.7341,0,0,1,.8984,2.92h.0781q.0879-.3618.4-1.3525t.5273-1.5869l2.1777-6.084H437.26l-4.6191,12.207a6.0534,6.0534,0,0,1-1.6016,2.5488,3.4671,3.4671,0,0,1-2.2949.7715,6.4989,6.4989,0,0,1-1.4551-.166v-1.3965a5.0864,5.0864,0,0,0,1.1719.1172,2.2236,2.2236,0,0,0,1.4258-.4639,3.27,3.27,0,0,0,.957-1.4307l.5566-1.4258Z" fill="#ededed"/><path d="M448.8828,274H441.041v-1.1621l5.7617-8.1934h-5.42v-1.3672h7.3535v1.3184l-5.6738,8.0469h5.82Z" fill="#ededed"/><path d="M105.9434,303h-1.7187v-8.916c0-.28.0015-.5791.0049-.8984s.01-.6367.02-.9521.02-.6182.0293-.9082.0181-.5449.0244-.7666q-.1663.1758-.293.3027c-.0845.085-.1709.166-.2588.2441s-.1807.1611-.2783.249-.2148.19-.3516.3076l-1.4453,1.1816-.9375-1.2012,3.74-2.92h1.4648Z" fill="#ededed"/><path d="M122.8594,303h-8.9062v-1.5234l3.418-3.7207q.7324-.791,1.3086-1.4453a11,11,0,0,0,.9814-1.2793,5.69,5.69,0,0,0,.62-1.2549,4.2281,4.2281,0,0,0,.2148-1.3721,2.8616,2.8616,0,0,0-.166-1.0156,2.0822,2.0822,0,0,0-.4736-.7471,2.009,2.009,0,0,0-.7275-.4639,2.663,2.663,0,0,0-.9375-.1562,3.6683,3.6683,0,0,0-1.6748.376,6.8873,6.8873,0,0,0-1.4209.9619l-.9961-1.1621a8.0642,8.0642,0,0,1,.84-.6592,5.7392,5.7392,0,0,1,.9668-.5322A6.2605,6.2605,0,0,1,117,288.6494a5.4147,5.4147,0,0,1,1.2109-.1318,5.1263,5.1263,0,0,1,1.6943.2637,3.5689,3.5689,0,0,1,1.2842.7568,3.35,3.35,0,0,1,.8154,1.2012,4.2046,4.2046,0,0,1,.2881,1.5967,4.8286,4.8286,0,0,1-.2588,1.582,7.2574,7.2574,0,0,1-.7129,1.4795,11.9425,11.9425,0,0,1-1.084,1.46q-.63.7324-1.3623,1.5234l-2.7441,2.92v.0781h6.7285Z" fill="#ededed"/><path d="M136.416,292.0625a3.5973,3.5973,0,0,1-.2246,1.2988,3.0581,3.0581,0,0,1-.63,1.0156,3.3592,3.3592,0,0,1-.9717.708,4.5629,4.5629,0,0,1-1.26.3955v.0586a4.4136,4.4136,0,0,1,2.627,1.0986,3.0819,3.0819,0,0,1,.8984,2.3,4.5272,4.5272,0,0,1-.3174,1.7187,3.5569,3.5569,0,0,1-.9619,1.3477,4.4765,4.4765,0,0,1-1.6309.8789,7.7726,7.7726,0,0,1-2.334.3125,11.6,11.6,0,0,1-2.0068-.166,5.9693,5.9693,0,0,1-1.7725-.6055v-1.66a8.0315,8.0315,0,0,0,1.8408.6934,7.9232,7.9232,0,0,0,1.8994.2441,5.4725,5.4725,0,0,0,1.5527-.1953,2.9317,2.9317,0,0,0,1.0791-.5566,2.1491,2.1491,0,0,0,.625-.8887,3.31,3.31,0,0,0,.2-1.1816,2.3425,2.3425,0,0,0-.2588-1.1377,2.1441,2.1441,0,0,0-.7373-.7812,3.4812,3.4812,0,0,0-1.167-.4541,7.5174,7.5174,0,0,0-1.5576-.1465H130.01v-1.4746h1.2988a4.6559,4.6559,0,0,0,1.4063-.1953,2.8592,2.8592,0,0,0,1.03-.5566,2.372,2.372,0,0,0,.63-.8594,2.734,2.734,0,0,0,.2148-1.0937,2.2357,2.2357,0,0,0-.1758-.9082,1.8884,1.8884,0,0,0-.498-.6787,2.2165,2.2165,0,0,0-.7715-.4248,3.199,3.199,0,0,0-.9961-.1465,4.82,4.82,0,0,0-1.8408.3271,7.2267,7.2267,0,0,0-1.5186.8545l-.8984-1.2207a6.3114,6.3114,0,0,1,.8252-.5664,6.5082,6.5082,0,0,1,.9912-.4639,7.0966,7.0966,0,0,1,1.1475-.3174,6.8558,6.8558,0,0,1,1.2939-.1172,5.89,5.89,0,0,1,1.8506.2637,3.79,3.79,0,0,1,1.333.7373,3.0682,3.0682,0,0,1,.8105,1.123A3.6254,3.6254,0,0,1,136.416,292.0625Z" fill="#ededed"/><path d="M151.6621,299.7969h-2.08V303h-1.7187v-3.2031h-6.5918v-1.5527l6.4746-9.6h1.8359v9.5313h2.08Zm-3.7988-1.6211v-3.4766q0-.5464.0146-1.1475t.0342-1.1719q.02-.5713.0439-1.0693t.0342-.83h-.0879c-.0454.13-.1025.2754-.1709.4346s-.1431.3193-.2246.4785-.1646.3145-.249.4639-.1626.2764-.2344.3809l-4.0137,5.9375Z" fill="#ededed"/><path d="M160.3848,294.24a5.8626,5.8626,0,0,1,1.8018.2686,4.2019,4.2019,0,0,1,1.4551.7959,3.6657,3.6657,0,0,1,.9717,1.3086,4.3625,4.3625,0,0,1,.3516,1.8066,5.693,5.693,0,0,1-.332,2.002,3.9051,3.9051,0,0,1-.9863,1.5039,4.3755,4.3755,0,0,1-1.6162.9424,6.8685,6.8685,0,0,1-2.2119.3271q-.498,0-.9814-.0488a8.9362,8.9362,0,0,1-.9277-.1416,6.0169,6.0169,0,0,1-.8447-.2393,4.1442,4.1442,0,0,1-.7227-.3418v-1.68a3.8574,3.8574,0,0,0,.7568.4,6.6507,6.6507,0,0,0,.9131.293,8.8424,8.8424,0,0,0,.9619.1807,6.9553,6.9553,0,0,0,.8936.0635,4.83,4.83,0,0,0,1.377-.1807,2.6062,2.6062,0,0,0,1.0254-.5615,2.4941,2.4941,0,0,0,.6445-.957,3.7551,3.7551,0,0,0,.2246-1.3672,2.6575,2.6575,0,0,0-.8594-2.1338,3.74,3.74,0,0,0-2.5-.7373q-.2637,0-.5713.0244c-.2051.0166-.41.0371-.6152.0635s-.4.0537-.5859.083-.3467.0566-.4834.083l-.8789-.5566.5371-6.7187H163.92v1.6211h-5.1953l-.3809,4.0918q.3127-.0586.8252-.127A9.29,9.29,0,0,1,160.3848,294.24Z" fill="#ededed"/><path d="M170.1816,296.8965a20.3008,20.3008,0,0,1,.1025-2.041,11.68,11.68,0,0,1,.3613-1.9482,7.7786,7.7786,0,0,1,.708-1.7334,5.06,5.06,0,0,1,1.1426-1.3916,5.1412,5.1412,0,0,1,1.66-.9277,6.889,6.889,0,0,1,2.2656-.3369c.1235,0,.26.0029.41.01s.3013.0176.4541.0342.2993.0361.4395.0586a3.112,3.112,0,0,1,.376.083v1.5137a4.0848,4.0848,0,0,0-.7715-.1758,6.2862,6.2862,0,0,0-.85-.0586,5.1856,5.1856,0,0,0-1.5479.21,3.6243,3.6243,0,0,0-1.1572.5908,3.4479,3.4479,0,0,0-.8154.9082,5.2208,5.2208,0,0,0-.5322,1.167,7.9355,7.9355,0,0,0-.3027,1.3623q-.0974.7222-.127,1.5039h.1172a3.5591,3.5591,0,0,1,.4736-.6592,2.7738,2.7738,0,0,1,.6494-.5273,3.4007,3.4007,0,0,1,.835-.3467,3.9253,3.9253,0,0,1,1.04-.127,4.656,4.656,0,0,1,1.68.2881,3.4235,3.4235,0,0,1,1.2793.8447,3.8191,3.8191,0,0,1,.8154,1.3623,5.4526,5.4526,0,0,1,.2881,1.8408,6.1928,6.1928,0,0,1-.3027,2.002,4.2178,4.2178,0,0,1-.8691,1.5088,3.8016,3.8016,0,0,1-1.3672.9521,4.6447,4.6447,0,0,1-1.7969.332,4.4474,4.4474,0,0,1-1.8311-.3809,3.9322,3.9322,0,0,1-1.4795-1.1621,5.8378,5.8378,0,0,1-.9863-1.9629A9.6067,9.6067,0,0,1,170.1816,296.8965Zm4.6387,4.8047a2.7628,2.7628,0,0,0,1.0693-.2,2.2154,2.2154,0,0,0,.835-.6055,2.7985,2.7985,0,0,0,.542-1.0254,5.0321,5.0321,0,0,0,.19-1.47,4.2978,4.2978,0,0,0-.1611-1.2256,2.52,2.52,0,0,0-.4834-.9229,2.1235,2.1235,0,0,0-.8057-.5859,2.8707,2.8707,0,0,0-1.1279-.2051,3.0376,3.0376,0,0,0-2.1191.8252,2.66,2.66,0,0,0-.5908.835,2.2742,2.2742,0,0,0-.21.9375,4.8342,4.8342,0,0,0,.1807,1.3037,3.8672,3.8672,0,0,0,.5371,1.167,2.9165,2.9165,0,0,0,.8936.8447A2.3579,2.3579,0,0,0,174.82,301.7012Z" fill="#ededed"/><path d="M185.8379,303l5.498-12.6562h-7.3633v-1.6211h9.18v1.416L187.7324,303Z" fill="#ededed"/><path d="M202.627,288.498a5.427,5.427,0,0,1,1.5479.2148,3.8309,3.8309,0,0,1,1.2793.6445,3.0956,3.0956,0,0,1,.874,1.0742,3.3216,3.3216,0,0,1,.3223,1.5039,3.2914,3.2914,0,0,1-.7324,2.1338,4.12,4.12,0,0,1-.8105.7617,7.45,7.45,0,0,1-1.0156.61,12.0041,12.0041,0,0,1,1.1084.6738,5.5477,5.5477,0,0,1,.9668.835,3.8958,3.8958,0,0,1,.6836,1.04,3.1124,3.1124,0,0,1,.2588,1.2891,3.9208,3.9208,0,0,1-.3271,1.626,3.4988,3.4988,0,0,1-.918,1.2354,4.1433,4.1433,0,0,1-1.416.7813,5.7553,5.7553,0,0,1-1.8213.2734,6.3378,6.3378,0,0,1-1.9092-.2637,3.9292,3.9292,0,0,1-1.4062-.7568,3.2,3.2,0,0,1-.8691-1.2061,4.1444,4.1444,0,0,1-.2979-1.6113,3.733,3.733,0,0,1,.22-1.3184,3.8783,3.8783,0,0,1,.5908-1.0547,4.2873,4.2873,0,0,1,.8789-.83,7.3934,7.3934,0,0,1,1.0742-.6348,8.0536,8.0536,0,0,1-.8984-.6592,4.1984,4.1984,0,0,1-.7275-.7959,3.8421,3.8421,0,0,1-.4883-.9717,3.6372,3.6372,0,0,1-.1807-1.1768,3.2269,3.2269,0,0,1,.3271-1.4893,3.1321,3.1321,0,0,1,.8838-1.0693,3.8881,3.8881,0,0,1,1.2842-.6445A5.3216,5.3216,0,0,1,202.627,288.498Zm-2.7344,10.8789a2.8022,2.8022,0,0,0,.1563.9521,1.8465,1.8465,0,0,0,.4883.7422,2.2959,2.2959,0,0,0,.84.4785,3.8018,3.8018,0,0,0,1.2109.1709,3.87,3.87,0,0,0,1.2061-.1709,2.3969,2.3969,0,0,0,.874-.4883,1.9992,1.9992,0,0,0,.5273-.7666,2.7148,2.7148,0,0,0,.1758-.9961,2.1531,2.1531,0,0,0-.19-.918,2.6173,2.6173,0,0,0-.5469-.7617,4.97,4.97,0,0,0-.8545-.6641,12.5557,12.5557,0,0,0-1.1133-.6152l-.293-.1367a5.3341,5.3341,0,0,0-1.8555,1.3428A2.7841,2.7841,0,0,0,199.8926,299.377Zm2.7148-9.3945a2.4626,2.4626,0,0,0-1.6455.5176,1.8624,1.8624,0,0,0-.61,1.5039,2.4313,2.4313,0,0,0,.1709.957,2.3314,2.3314,0,0,0,.4736.7129,3.4016,3.4016,0,0,0,.7275.5615q.4248.249.9229.4834a8.53,8.53,0,0,0,.8838-.4687,3.5446,3.5446,0,0,0,.7227-.5762,2.45,2.45,0,0,0,.4834-.7324,2.36,2.36,0,0,0,.1758-.9375,1.8547,1.8547,0,0,0-.6152-1.5039A2.5453,2.5453,0,0,0,202.6074,289.9824Z" fill="#ededed"/><path d="M221.1641,294.8164a20.4561,20.4561,0,0,1-.1025,2.0459,11.5331,11.5331,0,0,1-.3613,1.9482,7.9137,7.9137,0,0,1-.708,1.7334,4.9756,4.9756,0,0,1-1.1426,1.3916,5.1872,5.1872,0,0,1-1.66.9229,6.889,6.889,0,0,1-2.2656.3369c-.1235,0-.26-.0029-.41-.01s-.2993-.0176-.4492-.0342-.2964-.0342-.4395-.0537a2.6594,2.6594,0,0,1-.3809-.0781v-1.5234a3.6023,3.6023,0,0,0,.7715.1855,6.2862,6.2862,0,0,0,.85.0586,4.5388,4.5388,0,0,0,2.168-.459,3.57,3.57,0,0,0,1.3477-1.2451,5.37,5.37,0,0,0,.708-1.8311,14.23,14.23,0,0,0,.2588-2.207h-.127a3.5606,3.5606,0,0,1-.4687.6543,2.8254,2.8254,0,0,1-.6445.5273,3.2819,3.2819,0,0,1-.84.3516,3.9813,3.9813,0,0,1-1.0449.127,4.6559,4.6559,0,0,1-1.68-.2881,3.4235,3.4235,0,0,1-1.2793-.8447,3.8191,3.8191,0,0,1-.8154-1.3623,5.4526,5.4526,0,0,1-.2881-1.8408,6.1408,6.1408,0,0,1,.3076-2.0068,4.31,4.31,0,0,1,.8691-1.5137,3.7476,3.7476,0,0,1,1.3672-.9521,4.682,4.682,0,0,1,1.8018-.332,4.4356,4.4356,0,0,1,1.8359.3809,3.9437,3.9437,0,0,1,1.4746,1.1621,5.8364,5.8364,0,0,1,.9863,1.9678A9.6184,9.6184,0,0,1,221.1641,294.8164Zm-4.6387-4.7949a2.8361,2.8361,0,0,0-1.0693.1953,2.1443,2.1443,0,0,0-.835.6055,2.8457,2.8457,0,0,0-.542,1.03,5.0321,5.0321,0,0,0-.19,1.47,4.2978,4.2978,0,0,0,.1611,1.2256,2.52,2.52,0,0,0,.4834.9229,2.1235,2.1235,0,0,0,.8057.5859,2.8707,2.8707,0,0,0,1.1279.2051,3.014,3.014,0,0,0,2.1191-.8252,2.66,2.66,0,0,0,.5908-.835,2.2742,2.2742,0,0,0,.21-.9375,4.8342,4.8342,0,0,0-.1807-1.3037,3.94,3.94,0,0,0-.5371-1.1719,2.8377,2.8377,0,0,0-.8936-.8447A2.3825,2.3825,0,0,0,216.5254,290.0215Z" fill="#ededed"/><path d="M235.2188,295.8418a17.3784,17.3784,0,0,1-.249,3.0957,7.12,7.12,0,0,1-.8008,2.3144,3.8555,3.8555,0,0,1-1.4209,1.4453,4.18,4.18,0,0,1-2.1094.498,3.9149,3.9149,0,0,1-2.0068-.498,3.969,3.969,0,0,1-1.416-1.4453,7.429,7.429,0,0,1-.84-2.3144,15.5957,15.5957,0,0,1-.2783-3.0957,17.3784,17.3784,0,0,1,.249-3.0957,7.2077,7.2077,0,0,1,.791-2.31,3.8133,3.8133,0,0,1,1.4063-1.44,4.1308,4.1308,0,0,1,2.0947-.498,3.7816,3.7816,0,0,1,3.4473,1.9287,7.374,7.374,0,0,1,.85,2.31A15.3758,15.3758,0,0,1,235.2188,295.8418Zm-7.3145,0a19.5375,19.5375,0,0,0,.1465,2.5586,6.7492,6.7492,0,0,0,.4688,1.8213,2.5558,2.5558,0,0,0,.8447,1.0938,2.1637,2.1637,0,0,0,1.2744.3662,2.2058,2.2058,0,0,0,1.2793-.3613,2.6107,2.6107,0,0,0,.8643-1.084,6.42,6.42,0,0,0,.4883-1.8213,21.8237,21.8237,0,0,0,0-5.1318,6.4107,6.4107,0,0,0-.4883-1.8164,2.6107,2.6107,0,0,0-.8643-1.084,2.2058,2.2058,0,0,0-1.2793-.3613,2.1825,2.1825,0,0,0-1.2744.3613,2.5293,2.5293,0,0,0-.8447,1.084,6.6716,6.6716,0,0,0-.4687,1.8164A19.5375,19.5375,0,0,0,227.9043,295.8418Z" fill="#ededed"/><path d="M242.0762,301.916a1.797,1.797,0,0,1,.0977-.63,1.124,1.124,0,0,1,.2637-.42.9966.9966,0,0,1,.3906-.2344,1.648,1.648,0,0,1,.9717,0,.9944.9944,0,0,1,.3955.2344,1.1239,1.1239,0,0,1,.2637.42,1.797,1.797,0,0,1,.0977.63,1.7624,1.7624,0,0,1-.0977.62,1.1694,1.1694,0,0,1-.2637.4248,1.0147,1.0147,0,0,1-.3955.2441,1.55,1.55,0,0,1-.9717,0,1.0181,1.0181,0,0,1-.3906-.2441,1.17,1.17,0,0,1-.2637-.4248A1.7624,1.7624,0,0,1,242.0762,301.916Zm1.8457-2.959H242.74l-.498-10.2344H244.42Z" fill="#ededed"/><path d="M266.6387,295.8613a7.0917,7.0917,0,0,1-.4346,2.52,4.1725,4.1725,0,0,1-1.2158,1.7969,2.7561,2.7561,0,0,1-1.8066.6445,2.051,2.051,0,0,1-2.1-1.7383h-.0977a2.97,2.97,0,0,1-1.1133,1.2744,3.1231,3.1231,0,0,1-1.709.4639,2.91,2.91,0,0,1-2.334-.9912,4.06,4.06,0,0,1-.85-2.7295,5.0771,5.0771,0,0,1,.5225-2.3291A3.8117,3.8117,0,0,1,257,293.1709a4.3261,4.3261,0,0,1,2.2266-.5713,11.1815,11.1815,0,0,1,1.5381.1221,7.7017,7.7017,0,0,1,1.5186.3564l-.2246,4.57v.2148q0,1.7183,1.24,1.7188a1.5949,1.5949,0,0,0,1.4063-1.0254,5.869,5.869,0,0,0,.5371-2.7148,6.3142,6.3142,0,0,0-.7178-3.0664,4.9154,4.9154,0,0,0-2.041-2.0264,6.3109,6.3109,0,0,0-3.0225-.708,7.5449,7.5449,0,0,0-3.7451.8936,5.9848,5.9848,0,0,0-2.4463,2.5488,8.3256,8.3256,0,0,0-.85,3.8525,6.2183,6.2183,0,0,0,1.5527,4.5361,6.0337,6.0337,0,0,0,4.5117,1.5869,11.9013,11.9013,0,0,0,4.2969-.8594v1.3574a10.9881,10.9881,0,0,1-4.2969.82,7.5273,7.5273,0,0,1-5.5273-1.9482,7.2813,7.2813,0,0,1-1.9727-5.4248,9.5235,9.5235,0,0,1,1.05-4.5166,7.44,7.44,0,0,1,2.9834-3.0762,8.9022,8.9022,0,0,1,4.4434-1.0889,7.7514,7.7514,0,0,1,3.7451.8887,6.19,6.19,0,0,1,2.5391,2.52A7.6363,7.6363,0,0,1,266.6387,295.8613Zm-10.0977,1.2793q0,2.4419,1.8848,2.4414,2.0017,0,2.1777-3.0176l.1172-2.5a5.3064,5.3064,0,0,0-1.4746-.2051,2.4411,2.4411,0,0,0-1.9824.8691A3.664,3.664,0,0,0,256.541,297.1406Z" fill="#ededed"/><path d="M280.4,295.1191l-.5762,3.0371H282.48v1.3184h-2.92L278.8867,303H277.48l.6934-3.5254h-2.7832L274.707,303H273.33l.6445-3.5254h-2.49v-1.3184h2.7441l.6055-3.0371h-2.627v-1.3086h2.8613l.6641-3.457h1.4063l-.6543,3.457h2.8027l.6738-3.457h1.377l-.6738,3.457h2.51v1.3086Zm-4.7656,3.0371h2.793l.5859-3.0371H276.23Z" fill="#ededed"/><path d="M297.0137,298.6152a2.8369,2.8369,0,0,1-.9912,2.2168,5.0959,5.0959,0,0,1-2.8271,1.1035v2.2266H291.916v-2.1387a14.3559,14.3559,0,0,1-2.1338-.19,6.8333,6.8333,0,0,1-1.6846-.4736v-1.6406a9.3332,9.3332,0,0,0,1.792.5908,9.7008,9.7008,0,0,0,2.0264.2686v-4.18a6.8675,6.8675,0,0,1-2.832-1.4893,3.0162,3.0162,0,0,1-.83-2.1924,2.647,2.647,0,0,1,.9863-2.1191,4.8873,4.8873,0,0,1,2.6758-1.0156v-1.7578h1.2793v1.7383a9.7853,9.7853,0,0,1,3.5254.7422l-.5469,1.377a10.1245,10.1245,0,0,0-2.9785-.7031V295.1a12.1518,12.1518,0,0,1,2.3291.9961,3.2557,3.2557,0,0,1,1.1279,1.0693A2.7644,2.7644,0,0,1,297.0137,298.6152Zm-6.9727-5.918a1.5989,1.5989,0,0,0,.42,1.1523,3.8167,3.8167,0,0,0,1.4551.8105v-3.6426a2.6952,2.6952,0,0,0-1.3965.5957A1.4141,1.4141,0,0,0,290.041,292.6973Zm5.1953,6.0449a1.4319,1.4319,0,0,0-.459-1.1182,4.8056,4.8056,0,0,0-1.582-.8057V300.48Q295.2366,300.1685,295.2363,298.7422Z" fill="#ededed"/><path d="M308.2656,293.9668a6.2341,6.2341,0,0,1-.1709,1.5186,3.0931,3.0931,0,0,1-.5322,1.1475,2.3114,2.3114,0,0,1-.918.7129,3.2585,3.2585,0,0,1-1.3184.2441,2.99,2.99,0,0,1-1.25-.2441,2.428,2.428,0,0,1-.9082-.7129,3.1165,3.1165,0,0,1-.5518-1.1475,5.8984,5.8984,0,0,1-.1807-1.5186,6.3769,6.3769,0,0,1,.166-1.5234,3.0354,3.0354,0,0,1,.5225-1.1377,2.2579,2.2579,0,0,1,.9033-.7031,3.2293,3.2293,0,0,1,1.2988-.2393,3.1489,3.1489,0,0,1,1.27.2393,2.411,2.411,0,0,1,.9229.7031,3.0826,3.0826,0,0,1,.5615,1.1377A5.7508,5.7508,0,0,1,308.2656,293.9668Zm-4.3848,0a3.5678,3.5678,0,0,0,.3418,1.7578,1.1806,1.1806,0,0,0,1.1035.5859q1.4941,0,1.4941-2.3437t-1.4941-2.3437a1.1806,1.1806,0,0,0-1.1035.5859A3.5678,3.5678,0,0,0,303.8809,293.9668Zm10.3418-3.4082L306.5176,303h-1.5625l7.7246-12.4414Zm2.48,9.0137a6.3176,6.3176,0,0,1-.166,1.5186,3.0385,3.0385,0,0,1-.5273,1.1377,2.3585,2.3585,0,0,1-.9131.7178,3.2,3.2,0,0,1-1.3232.249,2.9778,2.9778,0,0,1-1.2549-.249,2.3745,2.3745,0,0,1-.9033-.7178,3.2721,3.2721,0,0,1-.5469-1.1377,5.6975,5.6975,0,0,1-.1855-1.5186,6.2187,6.2187,0,0,1,.1709-1.5234,3.0828,3.0828,0,0,1,.5225-1.1328,2.2882,2.2882,0,0,1,.8984-.7031,3.1619,3.1619,0,0,1,1.2988-.2441,3.11,3.11,0,0,1,1.2793.2441,2.408,2.408,0,0,1,.9131.7031,3.1156,3.1156,0,0,1,.5518,1.1328A5.7508,5.7508,0,0,1,316.7031,299.5723Zm-4.375,0a3.5391,3.5391,0,0,0,.3418,1.7529,1.1824,1.1824,0,0,0,1.1035.5811q1.4941,0,1.4941-2.334,0-2.3437-1.4941-2.3437a1.1824,1.1824,0,0,0-1.1035.5811A3.5635,3.5635,0,0,0,312.3281,299.5723Z" fill="#ededed"/><path d="M321.4316,297.6387l4.4824-9.0234h.9961l4.3652,9.0234h-1.5723l-3.291-7.1777-3.4082,7.1777Z" fill="#ededed"/><path d="M335.9258,299.2793a3.8487,3.8487,0,0,1,.6543-2.2266,7.35,7.35,0,0,1,2.4219-1.9727,12.1215,12.1215,0,0,1-1.0693-1.3428,4.57,4.57,0,0,1-.4932-1.0156,3.4249,3.4249,0,0,1-.1758-1.0986,2.87,2.87,0,0,1,.9668-2.2852,4.0105,4.0105,0,0,1,2.7148-.84,3.6794,3.6794,0,0,1,2.5342.82,2.8745,2.8745,0,0,1,.9229,2.2656,3.1762,3.1762,0,0,1-.6689,1.9531,7.4656,7.4656,0,0,1-2.1924,1.7871l3.8574,3.7109a7.4744,7.4744,0,0,0,1.4063-3.1738h1.7773a9.73,9.73,0,0,1-2.041,4.2969l2.92,2.8418h-2.3828l-1.7383-1.68a7.2428,7.2428,0,0,1-2.3,1.4355,7.4987,7.4987,0,0,1-2.6221.4395,4.9016,4.9016,0,0,1-3.2959-1.0254A3.6016,3.6016,0,0,1,335.9258,299.2793Zm4.5508,2.3633a5.27,5.27,0,0,0,3.74-1.4258l-4.16-4.0332a6.1848,6.1848,0,0,0-1.8213,1.4746,2.6194,2.6194,0,0,0-.4736,1.5625,2.2269,2.2269,0,0,0,.752,1.7627A2.87,2.87,0,0,0,340.4766,301.6426Zm-1.4941-10.0391a2.63,2.63,0,0,0,.3467,1.27,6.378,6.378,0,0,0,1.1279,1.4063,5.9224,5.9224,0,0,0,1.709-1.2891,2.173,2.173,0,0,0,.498-1.4062,1.5267,1.5267,0,0,0-.498-1.1914,1.85,1.85,0,0,0-1.2891-.4492,1.9964,1.9964,0,0,0-1.3818.459A1.5348,1.5348,0,0,0,338.9824,291.6035Z" fill="#ededed"/><path d="M359.6484,288.1074l-.42,3.8379,3.877-1.084.2539,1.8848-3.6914.2734,2.3926,3.1836-1.7383.9375-1.7187-3.4961-1.543,3.4961-1.7969-.9375,2.3633-3.1836-3.6621-.2734.2832-1.8848,3.8184,1.084-.42-3.8379Z" fill="#ededed"/><path d="M369.0059,296.252a21.592,21.592,0,0,1,.1709-2.7344,17.4758,17.4758,0,0,1,.5273-2.5879,15.67,15.67,0,0,1,.8984-2.3975,12.8362,12.8362,0,0,1,1.2939-2.1631h1.6211a17.8748,17.8748,0,0,0-2.09,4.6777,18.3052,18.3052,0,0,0-.5371,2.583,20.0071,20.0071,0,0,0,.5371,7.9395,16.9927,16.9927,0,0,0,2.1094,4.7314h-1.6406a13.0379,13.0379,0,0,1-1.2939-2.2119,16.2711,16.2711,0,0,1-.8984-2.4609,18.5029,18.5029,0,0,1-.5273-2.6367A21.8536,21.8536,0,0,1,369.0059,296.252Z" fill="#ededed"/><path d="M383.4121,296.418a21.592,21.592,0,0,1-.1709,2.7344,17.4758,17.4758,0,0,1-.5273,2.5879,15.67,15.67,0,0,1-.8984,2.3975,12.8362,12.8362,0,0,1-1.2939,2.1631H378.9a17.8748,17.8748,0,0,0,2.09-4.6777,18.3052,18.3052,0,0,0,.5371-2.583,20.0071,20.0071,0,0,0-.5371-7.9395,16.9927,16.9927,0,0,0-2.1094-4.7314h1.6406a13.0379,13.0379,0,0,1,1.2939,2.2119,16.2711,16.2711,0,0,1,.8984,2.4609,18.5029,18.5029,0,0,1,.5273,2.6367A21.8536,21.8536,0,0,1,383.4121,296.418Z" fill="#ededed"/><path d="M112.2617,118h-2.1l-7.6465-11.8555h-.0781l.0488.791q.1172,1.7769.1172,3.0859V118h-1.66V103.7227h2.08l.4395.6934,4.6875,7.2461,2.49,3.877h.0781q-.02-.2344-.0781-1.6748t-.0586-2.085v-8.0566h1.68Z" fill="#ededed"/><path d="M128.2109,112.6191a5.9121,5.9121,0,0,1-1.3281,4.1016,4.6885,4.6885,0,0,1-3.6719,1.4746,4.8878,4.8878,0,0,1-2.5781-.6787,4.4468,4.4468,0,0,1-1.7285-1.9482,6.7766,6.7766,0,0,1-.6055-2.9492,5.8944,5.8944,0,0,1,1.3086-4.0771,4.6752,4.6752,0,0,1,3.6719-1.46,4.5872,4.5872,0,0,1,3.5986,1.4893A5.8475,5.8475,0,0,1,128.2109,112.6191Zm-8.0957,0a5.0247,5.0247,0,0,0,.7959,3.0713,3.1357,3.1357,0,0,0,4.6826,0,5.004,5.004,0,0,0,.8008-3.0713,4.8473,4.8473,0,0,0-.8057-3.042,2.8234,2.8234,0,0,0-2.3584-1.0205Q120.1155,108.5566,120.1152,112.6191Z" fill="#ededed"/><path d="M137.5781,116.76a5.4838,5.4838,0,0,0,.8008-.0684,3.6377,3.6377,0,0,0,.6934-.1562v1.3477a3.9544,3.9544,0,0,1-.7568.21,5.29,5.29,0,0,1-1.04.1025q-3.1443,0-3.1445-3.3105v-6.24h-1.5137v-.84l1.5332-.7031.7031-2.2852h1.0449v2.4609h3.0957v1.3672h-3.0957v6.1914a2.0724,2.0724,0,0,0,.4443,1.4258A1.57,1.57,0,0,0,137.5781,116.76Z" fill="#ededed"/><path d="M153.5273,112.6191a5.9121,5.9121,0,0,1-1.3281,4.1016,4.6885,4.6885,0,0,1-3.6719,1.4746,4.8878,4.8878,0,0,1-2.5781-.6787,4.4468,4.4468,0,0,1-1.7285-1.9482,6.7766,6.7766,0,0,1-.6055-2.9492,5.8944,5.8944,0,0,1,1.3086-4.0771,4.6752,4.6752,0,0,1,3.6719-1.46,4.5872,4.5872,0,0,1,3.5986,1.4893A5.8475,5.8475,0,0,1,153.5273,112.6191Zm-8.0957,0a5.0247,5.0247,0,0,0,.7959,3.0713,3.1357,3.1357,0,0,0,4.6826,0,5.004,5.004,0,0,0,.8008-3.0713,4.8473,4.8473,0,0,0-.8057-3.042,2.8234,2.8234,0,0,0-2.3584-1.0205Q145.4319,108.5566,145.4316,112.6191Z" fill="#ededed"/><path d="M175.8457,114.1816a3.5554,3.5554,0,0,1-1.3477,2.9395,5.8716,5.8716,0,0,1-3.75,1.0742,9.1925,9.1925,0,0,1-3.9258-.6738v-1.7187a10.3236,10.3236,0,0,0,1.9873.6152,9.95,9.95,0,0,0,2.0166.2246,3.9561,3.9561,0,0,0,2.4121-.6152,2.0048,2.0048,0,0,0,.8105-1.6895,2.1408,2.1408,0,0,0-.293-1.1719,2.8045,2.8045,0,0,0-.9814-.8594,13.7923,13.7923,0,0,0-2.085-.9082,6.7694,6.7694,0,0,1-2.832-1.7041,3.7332,3.7332,0,0,1-.85-2.5342,3.2026,3.2026,0,0,1,1.2549-2.6562,5.1988,5.1988,0,0,1,3.3057-.9863,9.5528,9.5528,0,0,1,3.9355.8008l-.5566,1.543a8.9648,8.9648,0,0,0-3.418-.7617,3.2135,3.2135,0,0,0-1.9873.5469,1.8167,1.8167,0,0,0-.7178,1.5332,2.2371,2.2371,0,0,0,.2783,1.167,2.5981,2.5981,0,0,0,.8984.8447,11.6521,11.6521,0,0,0,1.9482.8691,10.6523,10.6523,0,0,1,2.373,1.1377,3.5871,3.5871,0,0,1,1.1523,1.27A3.6869,3.6869,0,0,1,175.8457,114.1816Z" fill="#ededed"/><path d="M188.1035,118l-.3418-1.5234h-.0781a4.4944,4.4944,0,0,1-1.5967,1.3623,4.9293,4.9293,0,0,1-2.0068.3564,3.5141,3.5141,0,0,1-2.48-.83,3.0324,3.0324,0,0,1-.8984-2.3437q0-3.2622,5.1465-3.418l1.8164-.0684V110.9a2.62,2.62,0,0,0-.5273-1.8018,2.1788,2.1788,0,0,0-1.6895-.5811,5.0258,5.0258,0,0,0-1.6064.2539,13.2093,13.2093,0,0,0-1.4209.5664l-.5371-1.3184a7.99,7.99,0,0,1,1.7676-.6738,7.6274,7.6274,0,0,1,1.8945-.2441,4.1891,4.1891,0,0,1,2.8906.8594,3.5262,3.5262,0,0,1,.9473,2.7344V118Zm-3.623-1.2207a3.248,3.248,0,0,0,2.3193-.7959,2.9561,2.9561,0,0,0,.8447-2.2607v-.9668l-1.582.0684a5.7588,5.7588,0,0,0-2.69.5859,1.7729,1.7729,0,0,0-.8447,1.6309,1.6232,1.6232,0,0,0,.5127,1.2891A2.1132,2.1132,0,0,0,184.48,116.7793Z" fill="#ededed"/><path d="M203.0078,118v-6.8555a2.8231,2.8231,0,0,0-.5811-1.9482,2.345,2.345,0,0,0-1.8213-.64,2.9234,2.9234,0,0,0-2.3975.9131,4.7031,4.7031,0,0,0-.7471,2.9736V118h-1.7578V107.2773h1.416l.2637,1.4648h.0977a3.3112,3.3112,0,0,1,1.3965-1.2256,4.4883,4.4883,0,0,1,1.9824-.4346,3.99,3.99,0,0,1,2.93.957,4.0617,4.0617,0,0,1,.957,2.9785V118Z" fill="#ededed"/><path d="M218.0488,115.041a2.7206,2.7206,0,0,1-1.123,2.3291,5.2485,5.2485,0,0,1-3.1543.8252,7.13,7.13,0,0,1-3.3691-.6738V115.92a7.7782,7.7782,0,0,0,3.4082.8594,3.402,3.402,0,0,0,1.9336-.43,1.3439,1.3439,0,0,0,.6055-1.1523,1.3091,1.3091,0,0,0-.5811-1.0742,9.0887,9.0887,0,0,0-2.0654-1.0059,11.773,11.773,0,0,1-2.1289-1.001,2.7789,2.7789,0,0,1-.9033-.9326,2.556,2.556,0,0,1-.2881-1.26,2.4158,2.4158,0,0,1,1.0742-2.08,5.021,5.021,0,0,1,2.9492-.7617,8.1756,8.1756,0,0,1,3.418.7227l-.5957,1.3965a7.7041,7.7041,0,0,0-2.9395-.6836,3.2153,3.2153,0,0,0-1.66.3467,1.0689,1.0689,0,0,0-.5664.9521,1.1883,1.1883,0,0,0,.4883.9717,10.5,10.5,0,0,0,2.2754,1.0693,9.9734,9.9734,0,0,1,1.9775.9277,2.9058,2.9058,0,0,1,.9424.9668A2.5892,2.5892,0,0,1,218.0488,115.041Z" fill="#ededed"/></g></g></svg>