<svg xmlns="http://www.w3.org/2000/svg" width="83.4437" height="83.4437" viewBox="0 0 83.4437 83.4437"><title>rain</title><g id="Layer_2" data-name="Layer 2"><g id="Layer_1-2" data-name="Layer 1"><rect width="83.4437" height="83.4437" rx="5" ry="5" fill="#3accb0"/><path d="M65.5437,48.7223c0,14.8134-9.0085,26.8221-23.8219,26.8221S17.9,63.5357,17.9,48.7223,41.7219,7.8994,41.7219,7.8994,65.5437,33.9089,65.5437,48.7223Z" fill="none" stroke="#fff" stroke-miterlimit="10" opacity="0.8"/><text transform="translate(35.7773 59.1294) scale(0.583)" font-size="10.3841" fill="#fff" font-family="NotoSans-Bold, Noto Sans" font-weight="700">mm</text><path d="M37.85,44.0282a17.7972,17.7972,0,0,1-.3,3.4388,7.6082,7.6082,0,0,1-.9563,2.5672,4.4639,4.4639,0,0,1-1.6969,1.61,5.2567,5.2567,0,0,1-2.5077.5555,4.96,4.96,0,0,1-2.4045-.5555,4.61,4.61,0,0,1-1.6969-1.61,7.8592,7.8592,0,0,1-1.0065-2.5672,16.1431,16.1431,0,0,1-.332-3.4388,17.972,17.972,0,0,1,.2989-3.4481A7.6988,7.6988,0,0,1,28.2,38.0023a4.4752,4.4752,0,0,1,1.6864-1.6163,5.19,5.19,0,0,1,2.5024-.5595,4.948,4.948,0,0,1,2.3926.5542,4.7061,4.7061,0,0,1,1.7088,1.611A7.801,7.801,0,0,1,37.5126,40.57,16.0788,16.0788,0,0,1,37.85,44.0282Zm-7.5509,0a13.451,13.451,0,0,0,.4682,4.0909,1.69,1.69,0,0,0,1.6215,1.37,1.7174,1.7174,0,0,0,1.6255-1.36,12.7207,12.7207,0,0,0,.496-4.1015,12.8258,12.8258,0,0,0-.496-4.1055q-.494-1.3769-1.6255-1.3769a1.4258,1.4258,0,0,0-.9735.3479,2.4621,2.4621,0,0,0-.6481,1.0343,7.2576,7.2576,0,0,0-.3584,1.7128A22.898,22.898,0,0,0,30.2989,44.0282Z" fill="#fff"/><path d="M39.8073,50.4258a2.2558,2.2558,0,0,1,.1468-.865,1.4542,1.4542,0,0,1,.4087-.5714,1.6077,1.6077,0,0,1,.6084-.3148,2.737,2.737,0,0,1,.7513-.0979,2.5907,2.5907,0,0,1,.7235.0979,1.6048,1.6048,0,0,1,.6031.3148,1.5055,1.5055,0,0,1,.414.5714,2.1781,2.1781,0,0,1,.1521.865,2.072,2.072,0,0,1-.1521.8372,1.5843,1.5843,0,0,1-1.0171.9086,2.4979,2.4979,0,0,1-.7235.1032,2.6378,2.6378,0,0,1-.7513-.1032,1.6038,1.6038,0,0,1-.6084-.332,1.5441,1.5441,0,0,1-.4087-.5767A2.1456,2.1456,0,0,1,39.8073,50.4258Z" fill="#fff"/><path d="M45.7142,45.2252a20.6987,20.6987,0,0,1,.1257-2.2736,11.6723,11.6723,0,0,1,.4457-2.17,8.418,8.418,0,0,1,.87-1.931,5.8591,5.8591,0,0,1,1.3927-1.55,6.4261,6.4261,0,0,1,2.0236-1.033,9.1179,9.1179,0,0,1,2.7577-.3756c.1521,0,.3188.004.5.0106s.365.0172.5489.0278.365.0278.5383.0489.3307.0476.4682.0767v2.6863a8.6266,8.6266,0,0,0-.8756-.1574,7.2685,7.2685,0,0,0-.93-.06,6.824,6.824,0,0,0-2.4151.3637,3.6359,3.6359,0,0,0-1.5012,1.0171,3.852,3.852,0,0,0-.79,1.5673,10.118,10.118,0,0,0-.287,2.0223h.13a4.0232,4.0232,0,0,1,.5277-.7341,3.1414,3.1414,0,0,1,.7235-.5872,3.7727,3.7727,0,0,1,.93-.3862,4.413,4.413,0,0,1,1.1586-.1415,4.89,4.89,0,0,1,1.8609.3373,3.742,3.742,0,0,1,1.398.9787,4.3955,4.3955,0,0,1,.8756,1.5779,7.6273,7.6273,0,0,1-.06,4.46,4.8575,4.8575,0,0,1-1.04,1.7353A4.4475,4.4475,0,0,1,53.46,51.8238a5.86,5.86,0,0,1-2.1532.3756,5.7515,5.7515,0,0,1-2.1982-.4193,4.7254,4.7254,0,0,1-1.7776-1.279,6.1164,6.1164,0,0,1-1.1864-2.17A9.9838,9.9838,0,0,1,45.7142,45.2252Zm5.526,4.2867a1.8894,1.8894,0,0,0,.8108-.1693,1.6864,1.6864,0,0,0,.6309-.5105,2.4843,2.4843,0,0,0,.414-.865,4.6188,4.6188,0,0,0,.1468-1.2406,3.0771,3.0771,0,0,0-.4841-1.8332,1.7,1.7,0,0,0-1.4747-.6679,2.106,2.106,0,0,0-.9139.1957,2.2885,2.2885,0,0,0-1.1586,1.2181,2.1164,2.1164,0,0,0-.1574.7936,4.55,4.55,0,0,0,.1362,1.1044,3.3852,3.3852,0,0,0,.414.9907,2.32,2.32,0,0,0,.6851.7116A1.6726,1.6726,0,0,0,51.24,49.5119Z" fill="#fff"/></g></g></svg>