<svg xmlns="http://www.w3.org/2000/svg" width="980" height="410" viewBox="0 0 980 410"><title>roboto_1</title><g id="Layer_2" data-name="Layer 2"><g id="Layer_1-2" data-name="Layer 1"><rect width="980" height="410" fill="#ededed"/><path d="M136.8906,189.0235H111.07L105.2109,205h-5.0391l21.5234-56.875h4.57L147.7891,205h-5Zm-24.3359-4.0625h22.8125l-11.4062-30.9766Z" fill="#1e1e1e"/><path d="M185.7344,205a22.09,22.09,0,0,1-.8984-5.8984,16.2917,16.2917,0,0,1-6.27,4.9414,19.2138,19.2138,0,0,1-8.0664,1.7383,14.1672,14.1672,0,0,1-9.8633-3.3984,11.0679,11.0679,0,0,1-3.77-8.5937,11.3124,11.3124,0,0,1,5.1367-9.7656Q167.14,180.43,176.32,180.43h8.4766v-4.8047a9.2623,9.2623,0,0,0-2.793-7.1289q-2.7935-2.5972-8.1445-2.5977a12.7476,12.7476,0,0,0-8.0859,2.5,7.4278,7.4278,0,0,0-3.2031,6.0156l-4.6875-.0391q0-5.0391,4.6875-8.73a18.0491,18.0491,0,0,1,11.5234-3.6914q7.0693,0,11.1523,3.5352,4.0811,3.5361,4.1992,9.8633v20q0,6.1333,1.2891,9.18V205Zm-14.6875-3.3594a15.69,15.69,0,0,0,8.3789-2.2656,13.3285,13.3285,0,0,0,5.3711-6.0547v-9.2969h-8.3594q-6.9932.0791-10.9375,2.5586a7.6785,7.6785,0,0,0-3.9453,6.8164,7.556,7.556,0,0,0,2.6367,5.8984A9.9333,9.9333,0,0,0,171.0469,201.6407Z" fill="#1e1e1e"/><path d="M225.2578,205l9.8828-56.875,16.68.0391q8.71,0,13.0469,3.9063t3.7891,10.8984q-.7031,8.165-10.2734,12.3047a10.5942,10.5942,0,0,1,5.7227,5.0781,14.1986,14.1986,0,0,1,1.543,7.93,16.5908,16.5908,0,0,1-6.1719,12.207Q253.89,205,245.0234,205Zm11.9531-26.6016-3.5547,20.43,11.6016.0391a13.9,13.9,0,0,0,8.9063-2.8457,11.09,11.09,0,0,0,4.18-7.6807q.5464-4.6011-1.6016-7.1738t-6.7578-2.7295Zm1.0547-6.0156,10.5859.0391a13.6335,13.6335,0,0,0,8.3789-2.5449,9.97,9.97,0,0,0,4.0039-7.0068q.5068-4.15-1.6211-6.2627-2.13-2.1152-7.0508-2.3105l-11.1719-.0391Z" fill="#1e1e1e"/><path d="M315.2344,184.0626a32.9453,32.9453,0,0,1-3.5547,11.68,19.9106,19.9106,0,0,1-6.7187,7.6953,15.2966,15.2966,0,0,1-8.75,2.3828q-7.6567-.1567-11.3672-5.7422L283.3984,205H276.875l10.43-60h7.07l-4.2578,22.4219a15.5373,15.5373,0,0,1,12.3438-5.4687,11.79,11.79,0,0,1,9.4922,4.4922q3.3984,4.3359,3.5938,11.9531a37.0344,37.0344,0,0,1-.2344,4.8438Zm-6.7187-4.0771q.1172-5.6968-1.9141-8.72a7.3253,7.3253,0,0,0-6.2109-3.18q-6.6021-.1553-11.1719,6.6328l-3.1641,18.375q2.3438,6.438,8.7891,6.5938a10.27,10.27,0,0,0,7.2461-2.458,16.0577,16.0577,0,0,0,4.707-7.3154A32.8972,32.8972,0,0,0,308.5156,179.9854Z" fill="#1e1e1e"/><path d="M395.93,186.4844q-.86,9.1025-6.7187,14.1992t-15.5859,5.0977a22.1777,22.1777,0,0,1-11.9727-3.2227,21.1452,21.1452,0,0,1-7.9883-9.16,33.055,33.055,0,0,1-2.93-13.7891v-5.3125a33.2926,33.2926,0,0,1,2.8516-14.18,21.4917,21.4917,0,0,1,8.1836-9.4531,22.8318,22.8318,0,0,1,12.3242-3.32q9.4131,0,15.1563,5.0977t6.68,14.4336h-9.8437q-.7031-6.1318-3.5742-8.8477t-8.418-2.7148q-6.4453,0-9.9023,4.7109t-3.5352,13.8223v5.043q0,9.2271,3.3008,14.0762a10.9515,10.9515,0,0,0,9.668,4.8477q5.82,0,8.75-2.6172t3.7109-8.7109Z" fill="#1e1e1e"/><path d="M425.2031,198.2032a8.58,8.58,0,0,0,5.8984-2.07,7.0735,7.0735,0,0,0,2.5-5.1172h8.9453a13.9455,13.9455,0,0,1-2.4609,7.3633,16.1436,16.1436,0,0,1-6.25,5.41,18.6273,18.6273,0,0,1-8.5156,1.9922q-8.8682,0-14.0625-5.7422T406.0625,184.18v-.9766q0-9.6475,5.1563-15.4492t14.0625-5.8008q7.5381,0,12.2852,4.3945a15.7413,15.7413,0,0,1,4.98,11.543h-8.9453a8.6966,8.6966,0,0,0-2.48-5.9766,7.9819,7.9819,0,0,0-5.918-2.3437,8.3521,8.3521,0,0,0-7.1094,3.34q-2.5,3.34-2.5391,10.1367V184.57q0,6.876,2.48,10.2539A8.3447,8.3447,0,0,0,425.2031,198.2032Z" fill="#1e1e1e"/><path d="M503.2813,205H491.9922V161.4249l-13.4766,4.1611v-9.1016l23.5547-8.4375h1.2109Z" fill="#1e1e1e"/><path d="M564.7422,205H525.7578v-7.7344l18.3984-19.6094a45.3835,45.3835,0,0,0,5.6055-7.2266,11.6064,11.6064,0,0,0,1.8164-5.8594,8.6919,8.6919,0,0,0-1.9141-5.957,6.9106,6.9106,0,0,0-5.4687-2.168,7.45,7.45,0,0,0-6.0352,2.6367,10.4433,10.4433,0,0,0-2.207,6.9336H524.625a18.6426,18.6426,0,0,1,2.48-9.4922,17.48,17.48,0,0,1,7.0117-6.7383,21.3182,21.3182,0,0,1,10.2734-2.4414q8.7891,0,13.6523,4.2188t4.8633,11.9141a19.1254,19.1254,0,0,1-2.1875,8.5938,47.786,47.786,0,0,1-7.5,10.1953l-12.93,13.6328h24.4531Z" fill="#1e1e1e"/><path d="M587.1406,171.5626h6.0156q4.2964,0,6.3672-2.1484a7.8723,7.8723,0,0,0,2.07-5.7031,6.9624,6.9624,0,0,0-2.0508-5.3516,7.9513,7.9513,0,0,0-5.6445-1.9141,8.3307,8.3307,0,0,0-5.43,1.7773,5.6829,5.6829,0,0,0-2.1875,4.6289H574.9922a13.8849,13.8849,0,0,1,2.4023-7.9883,16.0086,16.0086,0,0,1,6.7188-5.5273,22.42,22.42,0,0,1,9.5117-1.9922q9.0234,0,14.1406,4.3164t5.1172,11.8945a11.9712,11.9712,0,0,1-2.3828,7.1875,15.483,15.483,0,0,1-6.25,5.0391,14.1419,14.1419,0,0,1,7.168,5.1563,13.99,13.99,0,0,1,2.3633,8.125,14.9713,14.9713,0,0,1-5.5273,12.1484q-5.5283,4.57-14.6289,4.57-8.5166,0-13.9258-4.4922a14.668,14.668,0,0,1-5.41-11.875h11.2891a6.539,6.539,0,0,0,2.4023,5.2344,10.0216,10.0216,0,0,0,12.2266-.0977,7.3486,7.3486,0,0,0,2.2852-5.6445q0-8.5151-9.375-8.5156h-5.9766Z" fill="#1e1e1e"/><path d="M108.4727,241.0054h-6.4551L100.5527,245h-1.26l5.3809-14.2187h1.1426L111.1973,245h-1.25Zm-6.084-1.0156h5.7031l-2.8516-7.7441Z" fill="#1e1e1e"/><path d="M116.2871,245V230.7808h4.1992a5.4625,5.4625,0,0,1,3.4668.9434,3.3422,3.3422,0,0,1,1.1816,2.7793,3.1524,3.1524,0,0,1-.6006,1.9209,3.2774,3.2774,0,0,1-1.6455,1.167,3.4458,3.4458,0,0,1,2.7539,3.4063,3.6977,3.6977,0,0,1-1.2158,2.9434A4.9835,4.9835,0,0,1,121.043,245Zm1.2012-7.8418H120.77a3.6876,3.6876,0,0,0,2.3291-.709,2.42,2.42,0,0,0,.8252-1.9814,2.3765,2.3765,0,0,0-.8545-2.0205,4.2417,4.2417,0,0,0-2.583-.65h-2.998Zm0,1.0156v5.8105h3.6035a3.6,3.6,0,0,0,2.4463-.7852,2.7324,2.7324,0,0,0,.9033-2.1787,2.6379,2.6379,0,0,0-.8643-2.0811,3.4743,3.4743,0,0,0-2.3877-.7656Z" fill="#1e1e1e"/><path d="M141.6113,240.566a5.0953,5.0953,0,0,1-1.6064,3.4375,5.316,5.316,0,0,1-3.6279,1.1914,5.0153,5.0153,0,0,1-2.7979-.791,5.1589,5.1589,0,0,1-1.88-2.2412,7.98,7.98,0,0,1-.6738-3.3154v-1.8457a8.0556,8.0556,0,0,1,.6641-3.3594,5.1065,5.1065,0,0,1,1.9092-2.2607,5.2086,5.2086,0,0,1,2.8662-.7959,5.0907,5.0907,0,0,1,3.6084,1.23,5.1526,5.1526,0,0,1,1.5381,3.4082H140.4q-.449-3.6226-3.9355-3.623a3.7308,3.7308,0,0,0-3.0811,1.4463,6.2728,6.2728,0,0,0-1.1475,3.9971v1.74a6.3184,6.3184,0,0,0,1.1182,3.9287,3.6016,3.6016,0,0,0,3.0225,1.4658,3.9973,3.9973,0,0,0,2.8418-.9033,4.3309,4.3309,0,0,0,1.1816-2.71Z" fill="#1e1e1e"/><path d="M147.5313,245V230.7808h3.9746a6.1857,6.1857,0,0,1,3.1348.7959,5.5033,5.5033,0,0,1,2.1631,2.28,7.1817,7.1817,0,0,1,.7764,3.3789v1.3086a7.1847,7.1847,0,0,1-.7715,3.3789,5.4892,5.4892,0,0,1-2.1729,2.2754A6.3664,6.3664,0,0,1,151.418,245Zm1.2012-13.2031V243.984h2.6953a4.64,4.64,0,0,0,3.6035-1.49,5.7622,5.7622,0,0,0,1.3574-4.0322v-1.251a5.6266,5.6266,0,0,0-1.3379-3.9287,4.5629,4.5629,0,0,0-3.5254-1.4854Z" fill="#1e1e1e"/><path d="M171.4785,238.1832h-6.65v5.8008h7.6465V245H163.627V230.7808h8.7988v1.0156h-7.5977v5.3711h6.65Z" fill="#1e1e1e"/><path d="M185.8359,238.3492h-6.6309V245h-1.2012V230.7808h8.8086v1.0156h-7.6074v5.5371h6.6309Z" fill="#1e1e1e"/><path d="M202.5176,243.31a4.0218,4.0218,0,0,1-1.958,1.3867,8.4728,8.4728,0,0,1-2.9834.498,5.5374,5.5374,0,0,1-2.9687-.8008,5.3317,5.3317,0,0,1-2.0117-2.2656,7.6774,7.6774,0,0,1-.7227-3.3594v-1.7969a6.8674,6.8674,0,0,1,1.4941-4.6729,5.0558,5.0558,0,0,1,4.0137-1.7139,5.3339,5.3339,0,0,1,3.5352,1.1182,4.6144,4.6144,0,0,1,1.5918,3.0811h-1.2012a3.6848,3.6848,0,0,0-1.2744-2.375,4.1,4.1,0,0,0-2.6416-.8086,3.865,3.865,0,0,0-3.1543,1.417,6.1435,6.1435,0,0,0-1.1621,3.9971v1.6816a7.0274,7.0274,0,0,0,.5518,2.8682,4.3782,4.3782,0,0,0,1.582,1.9307,4.1819,4.1819,0,0,0,2.3682.6836,6.6148,6.6148,0,0,0,2.666-.4883,2.874,2.874,0,0,0,1.0742-.752v-3.6719H197.498v-1.0156h5.02Z" fill="#1e1e1e"/><path d="M219.4629,245H218.252v-6.8164h-8.125V245h-1.2012V230.7808h1.2012v6.3867h8.125v-6.3867h1.2109Z" fill="#1e1e1e"/><path d="M227.541,245H226.34V230.7808h1.2012Z" fill="#1e1e1e"/><path d="M240.6777,230.7808h1.2109v9.99a4.4279,4.4279,0,0,1-1.167,3.2227,4.1627,4.1627,0,0,1-3.13,1.2012,4.3771,4.3771,0,0,1-3.1836-1.084,4.03,4.03,0,0,1-1.1133-3.0273h1.2012a3.0683,3.0683,0,0,0,.8105,2.3193,3.1714,3.1714,0,0,0,2.2852.7764,2.917,2.917,0,0,0,2.2119-.8984,3.4642,3.4642,0,0,0,.874-2.4414Z" fill="#1e1e1e"/><path d="M251.6074,237.939l-2.002,1.9727V245h-1.2012V230.7808h1.2012v7.666l7.2852-7.666h1.5137l-5.957,6.3281L258.8633,245h-1.4648Z" fill="#1e1e1e"/><path d="M265.2324,243.984h7.0215V245h-8.2324V230.7808h1.2109Z" fill="#1e1e1e"/><path d="M279.15,230.7808l5.2441,12.5488,5.2637-12.5488H291.26V245h-1.2012v-6.1914l.0977-6.3477L284.8633,245h-.9277l-5.2734-12.49.0977,6.26V245h-1.2012V230.7808Z" fill="#1e1e1e"/><path d="M308.4492,245H307.248l-8.1738-12.168V245h-1.2109V230.7808h1.2109l8.1836,12.1777V230.7808h1.1914Z" fill="#1e1e1e"/><path d="M325.57,238.6617a8.2115,8.2115,0,0,1-.6787,3.4473,5.1839,5.1839,0,0,1-1.9385,2.2852,5.305,5.305,0,0,1-2.91.8008,5.05,5.05,0,0,1-4.0234-1.7822,7.1263,7.1263,0,0,1-1.5332-4.81v-1.4648a8.1627,8.1627,0,0,1,.6885-3.4424,5.1155,5.1155,0,0,1,4.8486-3.11,5.3136,5.3136,0,0,1,2.8955.791,5.1946,5.1946,0,0,1,1.9385,2.2363,8.0522,8.0522,0,0,1,.7129,3.35Zm-1.2012-1.543a6.2832,6.2832,0,0,0-1.1621-4.0234,4.179,4.179,0,0,0-6.3428.0049,6.3335,6.3335,0,0,0-1.1768,4.0771v1.4844a6.2834,6.2834,0,0,0,1.1719,4.0088,4.1829,4.1829,0,0,0,6.3672.02,6.4519,6.4519,0,0,0,1.1426-4.0674Z" fill="#1e1e1e"/><path d="M332.7988,239.2086V245h-1.2012V230.7808h4.8438a5.1069,5.1069,0,0,1,3.501,1.1328,4.452,4.452,0,0,1,.0488,6.2061,5.2542,5.2542,0,0,1-3.5791,1.0889Zm0-1.0156h3.6426a3.8454,3.8454,0,0,0,2.666-.8311,2.97,2.97,0,0,0,.918-2.3184,3.1072,3.1072,0,0,0-.9131-2.3525,3.6639,3.6639,0,0,0-2.5928-.8945h-3.7207Z" fill="#1e1e1e"/><path d="M357.3809,238.6617a8.16,8.16,0,0,1-.7178,3.54,5.0754,5.0754,0,0,1-2.0459,2.28l2.5879,2.2559-.83.7422-2.9-2.51a6.0236,6.0236,0,0,1-1.6309.2246A5.1661,5.1661,0,0,1,347,242.1236a7.9614,7.9614,0,0,1-.7031-3.3936v-1.5918a8.1627,8.1627,0,0,1,.6885-3.4424,5.1147,5.1147,0,0,1,4.8389-3.11,5.322,5.322,0,0,1,2.92.8008,5.2333,5.2333,0,0,1,1.9482,2.2949,8.1573,8.1573,0,0,1,.6885,3.4473Zm-1.2012-1.543a6.2832,6.2832,0,0,0-1.1621-4.0234,4.1789,4.1789,0,0,0-6.3428.0049,6.3335,6.3335,0,0,0-1.1768,4.0771v1.4844a6.3029,6.3029,0,0,0,1.167,4.0088,4.1821,4.1821,0,0,0,6.3623.0244,6.3912,6.3912,0,0,0,1.1523-4.0625Z" fill="#1e1e1e"/><path d="M368.76,239.0719h-4.1309V245H363.418V230.7808h4.6191a5.27,5.27,0,0,1,3.5547,1.1025,4.2069,4.2069,0,0,1,.4785,5.4912,4.0908,4.0908,0,0,1-2.1484,1.4434l3.5547,6.0547V245h-1.2793Zm-4.1309-1.0156h3.6816a3.4128,3.4128,0,0,0,2.4316-.86,3.2514,3.2514,0,0,0-.0391-4.5684,3.9685,3.9685,0,0,0-2.6855-.8311h-3.3887Z" fill="#1e1e1e"/><path d="M387.1895,241.5035a2.3016,2.3016,0,0,0-.83-1.87,8.7592,8.7592,0,0,0-3.0371-1.3086,10.64,10.64,0,0,1-3.2227-1.3525,3.2805,3.2805,0,0,1-.1025-5.3662,5.5123,5.5123,0,0,1,3.4326-1.0205,5.6991,5.6991,0,0,1,2.5342.5469,4.1416,4.1416,0,0,1,1.7334,1.5234,4.0024,4.0024,0,0,1,.6152,2.1777h-1.2109a2.9874,2.9874,0,0,0-.9961-2.3457,3.8786,3.8786,0,0,0-2.6758-.8867,4.2175,4.2175,0,0,0-2.5977.7285,2.2746,2.2746,0,0,0-.9668,1.9023,2.1514,2.1514,0,0,0,.8691,1.7705,8.0437,8.0437,0,0,0,2.7832,1.208,13.0918,13.0918,0,0,1,2.9,1.085,4.1325,4.1325,0,0,1,1.4844,1.3428,3.358,3.358,0,0,1,.498,1.8457,3.2135,3.2135,0,0,1-1.3428,2.6953,5.7206,5.7206,0,0,1-3.54,1.0156,6.9334,6.9334,0,0,1-2.7588-.5371,4.2178,4.2178,0,0,1-1.9043-1.5039,3.882,3.882,0,0,1-.6494-2.2168h1.2012a2.8382,2.8382,0,0,0,1.123,2.373,4.7547,4.7547,0,0,0,2.9883.8691,4.4288,4.4288,0,0,0,2.666-.7324A2.29,2.29,0,0,0,387.1895,241.5035Z" fill="#1e1e1e"/><path d="M403.6367,231.7965h-4.873V245h-1.2012V231.7965h-4.8633v-1.0156h10.9375Z" fill="#1e1e1e"/><path d="M418.7266,230.7808v9.707a4.9167,4.9167,0,0,1-.6348,2.5,4.1575,4.1575,0,0,1-1.7627,1.6357,5.7448,5.7448,0,0,1-2.6123.5713,5.1529,5.1529,0,0,1-3.5986-1.2256,4.4935,4.4935,0,0,1-1.4014-3.3936v-9.7949h1.1914V240.4a3.6972,3.6972,0,0,0,1.0254,2.7881,4.3878,4.3878,0,0,0,5.5615-.0049,3.6984,3.6984,0,0,0,1.0205-2.7734v-9.6289Z" fill="#1e1e1e"/><path d="M429.3633,243.2418l.0781.3027.0879-.3027,4.4727-12.4609H435.32L430.0273,245H428.875l-5.293-14.2187h1.3086Z" fill="#1e1e1e"/><path d="M443.0371,241.1617l.4395,2.207.5371-2.1094L447.1,230.7808h1.084l3.0469,10.4785.5273,2.1289.4688-2.2266,2.5684-10.3809h1.23L452.3828,245H451.23l-3.2227-11.123-.3613-1.4062-.3516,1.4063L443.9941,245h-1.1523l-3.6328-14.2187h1.23Z" fill="#1e1e1e"/><path d="M465.666,236.7965l4.0039-6.0156h1.4355l-4.707,7.0117L471.252,245h-1.4453l-4.1406-6.2109L461.5059,245H460.08l4.8633-7.207-4.7168-7.0117h1.4355Z" fill="#1e1e1e"/><path d="M480.7461,238.5347l4.3457-7.7539h1.3867l-5.1367,8.8672V245h-1.2012V239.648l-5.127-8.8672h1.4258Z" fill="#1e1e1e"/><path d="M492.0859,243.984h8.7793V245H490.6309v-.9082l8.4375-12.2949h-8.1836v-1.0156h9.668v.8516Z" fill="#1e1e1e"/><path d="M107.1934,274a5.5308,5.5308,0,0,1-.2246-1.4746,4.0752,4.0752,0,0,1-1.5674,1.2354,4.796,4.796,0,0,1-2.0166.4346,3.5422,3.5422,0,0,1-2.4658-.85,2.7666,2.7666,0,0,1-.9424-2.1484,2.8284,2.8284,0,0,1,1.2842-2.4414,6.173,6.173,0,0,1,3.5791-.8984h2.1191v-1.2012a2.3152,2.3152,0,0,0-.6982-1.7822,2.8872,2.8872,0,0,0-2.0361-.6494,3.184,3.184,0,0,0-2.0215.625,1.8579,1.8579,0,0,0-.8008,1.5039l-1.1719-.01a2.7174,2.7174,0,0,1,1.1719-2.1826,4.5127,4.5127,0,0,1,2.8809-.9229,4.1176,4.1176,0,0,1,2.7881.8838,3.1713,3.1713,0,0,1,1.05,2.4658v5a6.2,6.2,0,0,0,.3223,2.2949V274Zm-3.6719-.84a3.92,3.92,0,0,0,2.0947-.5664,3.332,3.332,0,0,0,1.3428-1.5137v-2.3242h-2.09a5.2364,5.2364,0,0,0-2.7344.64,1.9191,1.9191,0,0,0-.9863,1.7041,1.8887,1.8887,0,0,0,.6592,1.4746A2.4833,2.4833,0,0,0,103.5215,273.16Z" fill="#1e1e1e"/><path d="M122.7422,268.8238a6.3639,6.3639,0,0,1-1.0937,3.9209,3.4929,3.4929,0,0,1-2.9395,1.45,3.7977,3.7977,0,0,1-3.34-1.6406L115.32,274h-1.0937V259h1.1621v5.9668a3.6724,3.6724,0,0,1,3.3008-1.7285,3.5248,3.5248,0,0,1,2.9639,1.4307,6.4388,6.4388,0,0,1,1.0889,3.9795Zm-1.1719-.2051a5.5031,5.5031,0,0,0-.8105-3.2275,2.6421,2.6421,0,0,0-2.2852-1.1377,3.215,3.215,0,0,0-1.9043.5518,3.3546,3.3546,0,0,0-1.1816,1.6162v4.7656a3.1311,3.1311,0,0,0,3.1055,1.9922,2.6234,2.6234,0,0,0,2.2607-1.1426A5.8858,5.8858,0,0,0,121.57,268.6187Z" fill="#1e1e1e"/><path d="M132.2266,273.2086a3.0858,3.0858,0,0,0,2.0459-.6885,2.4213,2.4213,0,0,0,.8936-1.7822h1.123a3.3091,3.3091,0,0,1-.6055,1.7627,3.7987,3.7987,0,0,1-1.4795,1.2451,4.4544,4.4544,0,0,1-1.9775.4492,4.081,4.081,0,0,1-3.2959-1.4453,5.8429,5.8429,0,0,1-1.2158-3.8867v-.3516a6.6018,6.6018,0,0,1,.5469-2.7637,4.2182,4.2182,0,0,1,1.5674-1.8555,4.3233,4.3233,0,0,1,2.3877-.6543,4.0735,4.0735,0,0,1,2.8662,1.0352,3.7763,3.7763,0,0,1,1.2061,2.7246h-1.123a2.8278,2.8278,0,0,0-2.9492-2.7637,2.9135,2.9135,0,0,0-2.4561,1.1426,5.17,5.17,0,0,0-.874,3.2031v.3418a5.0547,5.0547,0,0,0,.874,3.1543A2.9346,2.9346,0,0,0,132.2266,273.2086Z" fill="#1e1e1e"/><path d="M141.1543,268.6187a6.37,6.37,0,0,1,1.0986-3.9209,3.5354,3.5354,0,0,1,2.9834-1.46,3.6749,3.6749,0,0,1,3.2617,1.6895V259H149.66v15h-1.0937l-.0488-1.4062a3.7745,3.7745,0,0,1-3.3008,1.6016,3.5245,3.5245,0,0,1-2.9443-1.47,6.3993,6.3993,0,0,1-1.1182-3.97Zm1.1816.2051a5.51,5.51,0,0,0,.8105,3.1885,2.6212,2.6212,0,0,0,2.2852,1.167,3.1452,3.1452,0,0,0,3.0664-1.9043V266.314a3.1214,3.1214,0,0,0-3.0469-2.0605,2.6532,2.6532,0,0,0-2.2949,1.1572A5.8883,5.8883,0,0,0,142.3359,268.8238Z" fill="#1e1e1e"/><path d="M159.8281,274.1949a4.59,4.59,0,0,1-2.4365-.6641,4.5236,4.5236,0,0,1-1.6943-1.8506,5.7666,5.7666,0,0,1-.6055-2.6611v-.42a6.2146,6.2146,0,0,1,.5908-2.7441,4.7059,4.7059,0,0,1,1.6455-1.9189,4.0569,4.0569,0,0,1,2.2852-.6982,3.814,3.814,0,0,1,3.0518,1.3135,5.329,5.329,0,0,1,1.1279,3.5889v.6543h-7.5391v.2246a4.4235,4.4235,0,0,0,1.03,2.9932,3.277,3.277,0,0,0,2.5928,1.1963,3.8123,3.8123,0,0,0,1.6553-.3418,3.6712,3.6712,0,0,0,1.3037-1.0937l.7324.5566A4.2641,4.2641,0,0,1,159.8281,274.1949Zm-.2148-9.9609a2.9212,2.9212,0,0,0-2.2217.9668,4.4693,4.4693,0,0,0-1.0986,2.5977h6.3379v-.127a3.878,3.878,0,0,0-.8691-2.48A2.6947,2.6947,0,0,0,159.6133,264.234Z" fill="#1e1e1e"/><path d="M169.9082,274V264.39H168.16v-.957h1.748v-1.2793a3.4764,3.4764,0,0,1,.8252-2.49,3.0209,3.0209,0,0,1,2.3-.8691,4.5117,4.5117,0,0,1,1.24.1641l-.0879.9688a4.5574,4.5574,0,0,0-1.0645-.1172,1.9109,1.9109,0,0,0-1.5039.6025,2.4815,2.4815,0,0,0-.5371,1.708v1.3125h2.52v.957h-2.52V274Z" fill="#1e1e1e"/><path d="M177.9863,268.6187a6.3612,6.3612,0,0,1,1.0986-3.9307,3.5445,3.5445,0,0,1,2.9834-1.45,3.6752,3.6752,0,0,1,3.2813,1.7188l.0586-1.5234h1.0938v10.3516a4.4751,4.4751,0,0,1-1.1426,3.2324,4.0886,4.0886,0,0,1-3.0957,1.1914,4.6977,4.6977,0,0,1-2.1045-.4932,4.0906,4.0906,0,0,1-1.5771-1.3135l.6543-.7031a3.7026,3.7026,0,0,0,2.9492,1.5234,3,3,0,0,0,2.2852-.8643,3.4427,3.4427,0,0,0,.85-2.3975v-1.3281a3.7758,3.7758,0,0,1-3.2715,1.5625A3.5233,3.5233,0,0,1,179.1,272.73a6.3825,6.3825,0,0,1-1.1133-3.9551Zm1.1816.2051a5.51,5.51,0,0,0,.8105,3.1885,2.6212,2.6212,0,0,0,2.2852,1.167,3.123,3.123,0,0,0,3.0566-1.9336v-4.9121a3.3341,3.3341,0,0,0-1.1816-1.5479,3.1887,3.1887,0,0,0-1.8555-.5322,2.6532,2.6532,0,0,0-2.2949,1.1572A5.8883,5.8883,0,0,0,179.168,268.8238Z" fill="#1e1e1e"/><path d="M193.7109,265.22a4.1207,4.1207,0,0,1,1.4746-1.4648,3.8677,3.8677,0,0,1,1.9629-.5176,3.17,3.17,0,0,1,2.5293.957,4.3151,4.3151,0,0,1,.84,2.8711V274h-1.1621v-6.9434a3.2251,3.2251,0,0,0-.6006-2.1094,2.3543,2.3543,0,0,0-1.89-.6934,2.9576,2.9576,0,0,0-1.9189.6787,3.9739,3.9739,0,0,0-1.2354,1.8311V274h-1.1621V259h1.1621Z" fill="#1e1e1e"/><path d="M206.457,260.3814a.7825.7825,0,0,1,.2148-.5576.765.765,0,0,1,.5859-.2285.7812.7812,0,0,1,.5908.2285.7723.7723,0,0,1,.22.5576.7562.7562,0,0,1-.22.5527.7891.7891,0,0,1-.5908.2236.752.752,0,0,1-.8008-.7764ZM207.834,274h-1.1719V263.4332h1.1719Z" fill="#1e1e1e"/><path d="M215.2676,263.4332v11.8262a3.2105,3.2105,0,0,1-.7031,2.2363,2.6594,2.6594,0,0,1-2.07.7715,2.95,2.95,0,0,1-1.0254-.1836l.02-.959a3.0761,3.0761,0,0,0,.8789.127q1.738,0,1.7383-2.0029V263.4332Zm-.5762-3.8379a.76.76,0,0,1,.8105.7861.7661.7661,0,0,1-.2148.5527.7857.7857,0,0,1-.5957.2236.7571.7571,0,0,1-.5811-.2236.7745.7745,0,0,1-.21-.5527.7912.7912,0,0,1,.21-.5576A.75.75,0,0,1,214.6914,259.5953Z" fill="#1e1e1e"/><path d="M224.0781,268.6773l-1.3379,1.2891V274h-1.1719V259H222.74v9.6l1.1035-1.1914,4.043-3.9746h1.4746l-4.4824,4.4531L229.752,274h-1.3965Z" fill="#1e1e1e"/><path d="M235.6719,274H234.5V259h1.1719Z" fill="#1e1e1e"/><path d="M242.91,263.4332l.0391,1.7188a3.9161,3.9161,0,0,1,1.4648-1.4355,4.0132,4.0132,0,0,1,1.9531-.4785,2.964,2.964,0,0,1,3.1738,2.0508,3.967,3.967,0,0,1,1.5137-1.5186,4.196,4.196,0,0,1,2.09-.5322q3.3984,0,3.4668,3.7109V274h-1.1719v-6.9629a3.1488,3.1488,0,0,0-.61-2.1,2.4838,2.4838,0,0,0-1.958-.6836,3.1125,3.1125,0,0,0-2.1289.8154,2.88,2.88,0,0,0-.9668,1.9385V274h-1.1719v-7.0508a2.8939,2.8939,0,0,0-.64-2.0264,2.544,2.544,0,0,0-1.9385-.6689,2.9474,2.9474,0,0,0-1.8945.63,3.6925,3.6925,0,0,0-1.1719,1.87V274h-1.1719V263.4332Z" fill="#1e1e1e"/><path d="M263.6836,263.4332l.0391,1.8066a4.1932,4.1932,0,0,1,1.4844-1.4893,3.8567,3.8567,0,0,1,1.9629-.5127,3.17,3.17,0,0,1,2.5293.957,4.3151,4.3151,0,0,1,.84,2.8711V274H269.377v-6.9434a3.2251,3.2251,0,0,0-.6006-2.1094,2.3543,2.3543,0,0,0-1.89-.6934,2.9576,2.9576,0,0,0-1.9189.6787,3.9739,3.9739,0,0,0-1.2354,1.8311V274H262.57V263.4332Z" fill="#1e1e1e"/><path d="M275.9121,268.56a6.2146,6.2146,0,0,1,.5908-2.7441,4.4383,4.4383,0,0,1,4.1162-2.5781,4.3469,4.3469,0,0,1,3.418,1.4795,5.7,5.7,0,0,1,1.3086,3.9209v.2441a6.27,6.27,0,0,1-.5908,2.7588,4.4077,4.4077,0,0,1-1.665,1.89,4.5688,4.5688,0,0,1-2.4512.6641,4.35,4.35,0,0,1-3.4131-1.4795,5.6879,5.6879,0,0,1-1.3135-3.9209Zm1.1719.3223a4.7952,4.7952,0,0,0,.9814,3.11,3.3207,3.3207,0,0,0,5.1367,0,4.9524,4.9524,0,0,0,.9814-3.208V268.56a5.3776,5.3776,0,0,0-.4492-2.2168,3.6072,3.6072,0,0,0-1.26-1.5576,3.2165,3.2165,0,0,0-1.8555-.5518A3.122,3.122,0,0,0,278.07,265.46a4.9606,4.9606,0,0,0-.9863,3.208Z" fill="#1e1e1e"/><path d="M299.2539,268.8238a6.3639,6.3639,0,0,1-1.0937,3.9209,3.4833,3.4833,0,0,1-2.93,1.45,3.911,3.911,0,0,1-3.32-1.5234v5.3906H290.748V263.4332h1.084l.0586,1.4941a3.75,3.75,0,0,1,3.3105-1.6895,3.5142,3.5142,0,0,1,2.9736,1.4355,6.5051,6.5051,0,0,1,1.0791,3.9844Zm-1.1719-.2051a5.4359,5.4359,0,0,0-.83-3.1934,2.6762,2.6762,0,0,0-2.3145-1.1719,3.0834,3.0834,0,0,0-3.0273,2.0215v5.0684a3.1027,3.1027,0,0,0,1.2012,1.3867,3.4617,3.4617,0,0,0,1.8457.4785,2.6529,2.6529,0,0,0,2.3-1.1768A5.9147,5.9147,0,0,0,298.082,268.6187Z" fill="#1e1e1e"/><path d="M304.373,268.6187a6.3612,6.3612,0,0,1,1.0986-3.9307,3.5636,3.5636,0,0,1,3.0029-1.45,3.69,3.69,0,0,1,3.252,1.6309l.0586-1.4355h1.0938v14.6289H311.707V272.691a3.8572,3.8572,0,0,1-3.252,1.5039,3.5425,3.5425,0,0,1-2.9687-1.4648,6.3825,6.3825,0,0,1-1.1133-3.9551Zm1.1816.2051a5.4926,5.4926,0,0,0,.8252,3.2178,2.6487,2.6487,0,0,0,2.29,1.167,3.1716,3.1716,0,0,0,3.0371-1.8262v-5.1758a3.4231,3.4231,0,0,0-1.2158-1.46,3.1942,3.1942,0,0,0-1.8018-.5127,2.67,2.67,0,0,0-2.3047,1.167A5.8845,5.8845,0,0,0,305.5547,268.8238Z" fill="#1e1e1e"/><path d="M323.877,264.4293a4.3383,4.3383,0,0,0-.791-.0684,2.852,2.852,0,0,0-1.8506.61,3.3464,3.3464,0,0,0-1.0791,1.7725V274h-1.1621V263.4332h1.1426l.02,1.68a3.1077,3.1077,0,0,1,2.9785-1.875,1.9162,1.9162,0,0,1,.7715.127Z" fill="#1e1e1e"/><path d="M335.0508,271.314a1.6659,1.6659,0,0,0-.6982-1.3965,5.3789,5.3789,0,0,0-2.1045-.8252,9.4946,9.4946,0,0,1-2.1826-.6836,2.9038,2.9038,0,0,1-1.1523-.9424,2.3523,2.3523,0,0,1-.376-1.3477,2.5145,2.5145,0,0,1,1.0449-2.0654,4.2187,4.2187,0,0,1,2.6758-.8154,4.3426,4.3426,0,0,1,2.8369.874,2.8056,2.8056,0,0,1,1.0693,2.28h-1.1719a1.8927,1.8927,0,0,0-.7764-1.543,3.5044,3.5044,0,0,0-3.8086-.1025,1.5825,1.5825,0,0,0-.6982,1.333,1.4419,1.4419,0,0,0,.5811,1.2256,6.1447,6.1447,0,0,0,2.1191.7959,9.9785,9.9785,0,0,1,2.3047.7715,2.9875,2.9875,0,0,1,1.1377.9863,2.7122,2.7122,0,0,1-.708,3.5352,4.608,4.608,0,0,1-2.8174.8008,4.7334,4.7334,0,0,1-2.9932-.8936,2.7507,2.7507,0,0,1-1.1475-2.2607h1.1719a2.0312,2.0312,0,0,0,.8643,1.5967,3.5327,3.5327,0,0,0,2.1045.5713,3.3183,3.3183,0,0,0,1.9727-.5371A1.612,1.612,0,0,0,335.0508,271.314Z" fill="#1e1e1e"/><path d="M343.666,260.7281v2.7051h2.1875v.957H343.666v7.0488a2.21,2.21,0,0,0,.3174,1.3105,1.2317,1.2317,0,0,0,1.06.43,7.2094,7.2094,0,0,0,.9473-.0977l.0488.9492a3.83,3.83,0,0,1-1.25.1641,2.0835,2.0835,0,0,1-1.748-.6982,3.2859,3.2859,0,0,1-.5469-2.0557V264.39h-1.9434v-.957h1.9434v-2.7051Z" fill="#1e1e1e"/><path d="M358.0723,272.6617a3.7972,3.7972,0,0,1-3.3691,1.5332,3.2689,3.2689,0,0,1-2.5684-.9814,4.3,4.3,0,0,1-.8984-2.9053v-6.875h1.1621v6.7285q0,3.0176,2.4414,3.0176a2.993,2.993,0,0,0,3.2129-2.1v-7.6465h1.1719V274h-1.1328Z" fill="#1e1e1e"/><path d="M368.5527,272.3883l3.2129-8.9551h1.2012L369.0215,274h-.9473l-3.9648-10.5664h1.2012Z" fill="#1e1e1e"/><path d="M380.41,271.5679l.1758.9082.2344-.957,2.5391-8.0859h.9961l2.51,8.0176.2734,1.1133.2246-1.0254,2.168-8.1055h1.2109L387.666,274H386.67l-2.7148-8.3789-.127-.5762-.127.5859L381.0352,274h-.9961l-3.0664-10.5664h1.2012Z" fill="#1e1e1e"/><path d="M399.2793,267.72l2.8516-4.2871h1.3867l-3.584,5.1855,3.74,5.3809h-1.377l-3.0078-4.4727L396.2813,274h-1.377l3.73-5.3809-3.584-5.1855h1.377Z" fill="#1e1e1e"/><path d="M412.0352,272.32l3.0859-8.8867h1.26l-4.5117,12.3633-.2344.5469a2.8384,2.8384,0,0,1-2.6855,1.9238,3.2905,3.2905,0,0,1-.8984-.1367l-.01-.9668.6055.0586a2.1644,2.1644,0,0,0,1.3916-.4248,3.2224,3.2224,0,0,0,.9033-1.46l.5176-1.4258-3.9844-10.4785h1.2793Z" fill="#1e1e1e"/><path d="M421.959,273.0133h6.8652V274h-8.3105V273.14l6.4063-8.6914H420.709v-1.0156h7.6855v.8779Z" fill="#1e1e1e"/><path d="M105.7773,303h-1.1719V290.1871l-3.8672,1.4355v-1.0937l4.8438-1.7969h.1953Z" fill="#1e1e1e"/><path d="M123.3281,303h-8.9062v-.8984l4.873-5.5273a12.7855,12.7855,0,0,0,1.68-2.3047,3.8415,3.8415,0,0,0,.4688-1.7676,2.8737,2.8737,0,0,0-.791-2.1338,2.9524,2.9524,0,0,0-2.1777-.7861,3.0721,3.0721,0,0,0-2.3193.918,3.2923,3.2923,0,0,0-.8838,2.3828h-1.1621a4.4654,4.4654,0,0,1,.542-2.1875,3.8984,3.8984,0,0,1,1.543-1.5479,4.5835,4.5835,0,0,1,2.28-.5615,4.2988,4.2988,0,0,1,3.0518,1.0254,3.6343,3.6343,0,0,1,1.0986,2.793,4.7389,4.7389,0,0,1-.62,2.1777,16.2027,16.2027,0,0,1-2.1826,2.9492l-3.9648,4.4824h7.4707Z" fill="#1e1e1e"/><path d="M131.1035,295.2554h1.2109a4.0693,4.0693,0,0,0,1.7578-.3564,2.679,2.679,0,0,0,1.1475-.9766,2.6026,2.6026,0,0,0,.3955-1.4307,2.8921,2.8921,0,0,0-.7715-2.1387,2.9991,2.9991,0,0,0-2.2168-.7715,3.1765,3.1765,0,0,0-2.2412.8057,2.7526,2.7526,0,0,0-.874,2.124H128.34a3.8,3.8,0,0,1,.5566-2.0166,3.7417,3.7417,0,0,1,1.543-1.4111,4.7837,4.7837,0,0,1,2.1875-.498,4.25,4.25,0,0,1,3.0469,1.0547,3.7915,3.7915,0,0,1,1.1133,2.8906,3.0767,3.0767,0,0,1-.6494,1.89,3.8891,3.8891,0,0,1-1.7822,1.2939,3.6546,3.6546,0,0,1,2.0117,1.2744,3.4682,3.4682,0,0,1,.6836,2.1533,3.8329,3.8329,0,0,1-1.1914,2.9395,4.4757,4.4757,0,0,1-3.1836,1.1133,5.315,5.315,0,0,1-2.3291-.5078,3.76,3.76,0,0,1-2.2217-3.5449h1.1719a2.841,2.841,0,0,0,.9473,2.2119,3.4928,3.4928,0,0,0,2.4316.8545,3.3551,3.3551,0,0,0,2.3584-.7764,2.9049,2.9049,0,0,0,.8447-2.251,2.6587,2.6587,0,0,0-.9131-2.1777,4.1506,4.1506,0,0,0-2.69-.752h-1.1719Z" fill="#1e1e1e"/><path d="M149.7676,298.42h2.2168v.9863h-2.2168V303h-1.1719v-3.5937h-6.6895v-.6641l6.582-9.9609h1.2793Zm-6.4258,0h5.2539v-8.125l-.5176.8984Z" fill="#1e1e1e"/><path d="M157.4648,295.7144l.6934-6.9336h7.1094v1.084h-6.1035l-.498,4.8047a4.6274,4.6274,0,0,1,2.6758-.7812,3.9523,3.9523,0,0,1,3.0664,1.25,4.7437,4.7437,0,0,1,1.1426,3.33,5.04,5.04,0,0,1-1.1133,3.4863,3.9938,3.9938,0,0,1-3.1348,1.24,4.3285,4.3285,0,0,1-3.0078-1.0352,4.2349,4.2349,0,0,1-1.3184-2.9H158.1a3.3772,3.3772,0,0,0,.9863,2.2021,3.1665,3.1665,0,0,0,2.2168.7471,2.7738,2.7738,0,0,0,2.3-.9668,4.3012,4.3012,0,0,0,.7764-2.7539,3.7111,3.7111,0,0,0-.8691-2.5488,3.002,3.002,0,0,0-2.373-.9863,4.4909,4.4909,0,0,0-1.4453.21,3.9441,3.9441,0,0,0-1.2988.8154Z" fill="#1e1e1e"/><path d="M177.6523,288.6734v1.0156h-.1367a5.349,5.349,0,0,0-4.0137,1.502,6.2735,6.2735,0,0,0-1.6211,4.1719,3.9642,3.9642,0,0,1,1.4941-1.2549,4.5653,4.5653,0,0,1,2.0313-.4443,3.7282,3.7282,0,0,1,2.9834,1.2939,5.0194,5.0194,0,0,1,1.1084,3.3838,5.8572,5.8572,0,0,1-.5176,2.5,3.9419,3.9419,0,0,1-3.6914,2.3535,4.1836,4.1836,0,0,1-3.32-1.4795,5.6354,5.6354,0,0,1-1.2793-3.8232V296.72a9.0139,9.0139,0,0,1,1.7383-5.9131,6.1547,6.1547,0,0,1,4.9316-2.1338Zm-2.4316,6.0059a3.6061,3.6061,0,0,0-2.0752.6582,3.164,3.164,0,0,0-1.2842,1.6729v.9951a4.638,4.638,0,0,0,.9521,3.0234,3.0412,3.0412,0,0,0,2.4756,1.17,2.6729,2.6729,0,0,0,2.2119-1.083,4.3056,4.3056,0,0,0,.8447-2.73,4.07,4.07,0,0,0-.8447-2.6914A2.8116,2.8116,0,0,0,175.2207,294.6793Z" fill="#1e1e1e"/><path d="M193.6016,289.4547,187.5273,303h-1.2207l6.0352-13.2227h-8.0859v-.9961h9.3457Z" fill="#1e1e1e"/><path d="M207.3047,292.4429a3.25,3.25,0,0,1-.6445,1.9775,3.7485,3.7485,0,0,1-1.6992,1.2842,4.1645,4.1645,0,0,1,1.9727,1.3574,3.3943,3.3943,0,0,1,.7422,2.168,3.6263,3.6263,0,0,1-1.24,2.8955,5.6017,5.6017,0,0,1-6.5771.0049,3.63,3.63,0,0,1-1.2354-2.9,3.4963,3.4963,0,0,1,.7129-2.1582,3.9587,3.9587,0,0,1,1.9531-1.3672,3.626,3.626,0,0,1-1.68-1.2842,3.319,3.319,0,0,1-.625-1.9775,3.6319,3.6319,0,0,1,1.1377-2.8125,4.8618,4.8618,0,0,1,6.0352.01A3.624,3.624,0,0,1,207.3047,292.4429Zm-.8008,6.7969a2.808,2.808,0,0,0-.9473-2.1826,3.8715,3.8715,0,0,0-4.834-.0146,2.8093,2.8093,0,0,0-.9375,2.1973,2.7466,2.7466,0,0,0,.9082,2.1631,4.1268,4.1268,0,0,0,4.8926.0049A2.7313,2.7313,0,0,0,206.5039,299.24Zm-.3711-6.8066a2.7153,2.7153,0,0,0-.8447-2.0361,3.2957,3.2957,0,0,0-4.3066-.0293,2.7219,2.7219,0,0,0-.8252,2.0654,2.6078,2.6078,0,0,0,.8252,2.0117,3.43,3.43,0,0,0,4.3164-.0049A2.5957,2.5957,0,0,0,206.1328,292.4332Z" fill="#1e1e1e"/><path d="M220.3047,296.4176a4.3926,4.3926,0,0,1-1.5527,1.4209,4.1585,4.1585,0,0,1-2.0117.5029,3.7355,3.7355,0,0,1-2.1387-.625,4.0929,4.0929,0,0,1-1.4355-1.7285,5.7025,5.7025,0,0,1-.5078-2.4121,5.9379,5.9379,0,0,1,.542-2.5586,4.2531,4.2531,0,0,1,1.5137-1.792,4.37,4.37,0,0,1,5.5713.8594,6.6862,6.6862,0,0,1,1.1914,4.2529v1.0547q0,3.8481-1.6406,5.7813a6.2068,6.2068,0,0,1-5.01,1.9336h-.2148l.01-1.0156h.41a5.1978,5.1978,0,0,0,3.877-1.4453A6.1852,6.1852,0,0,0,220.3047,296.4176Zm-3.418.9082a3.4309,3.4309,0,0,0,2.1045-.6963,3.7634,3.7634,0,0,0,1.3232-1.8076V294.15a5.4615,5.4615,0,0,0-.9033-3.3555,2.8963,2.8963,0,0,0-2.4365-1.1934,2.7836,2.7836,0,0,0-2.2754,1.1152,4.3713,4.3713,0,0,0-.8887,2.8105,4.2535,4.2535,0,0,0,.8545,2.7129A2.6973,2.6973,0,0,0,216.8867,297.3258Z" fill="#1e1e1e"/><path d="M235.668,297.0719a7.8681,7.8681,0,0,1-1.1035,4.5654,4.1779,4.1779,0,0,1-6.4844.0293,7.579,7.579,0,0,1-1.1523-4.4482V294.67a7.7226,7.7226,0,0,1,1.1133-4.541,4.2147,4.2147,0,0,1,6.4746-.0537,7.4427,7.4427,0,0,1,1.1523,4.39Zm-1.1719-2.5488a6.9375,6.9375,0,0,0-.7959-3.6914,2.9395,2.9395,0,0,0-4.79-.0293,6.7174,6.7174,0,0,0-.82,3.6035v2.793a6.9266,6.9266,0,0,0,.8252,3.7207,2.6738,2.6738,0,0,0,2.3975,1.2891,2.6345,2.6345,0,0,0,2.3682-1.26,6.9547,6.9547,0,0,0,.8154-3.6914Z" fill="#1e1e1e"/><path d="M241.334,302.3111a.7972.7972,0,0,1,.2148-.5645.76.76,0,0,1,.5859-.2314.7759.7759,0,0,1,.5908.2314.7867.7867,0,0,1,.22.5645.7437.7437,0,0,1-.22.5459.7949.7949,0,0,1-.5908.2207.7782.7782,0,0,1-.5859-.2207A.7533.7533,0,0,1,241.334,302.3111Zm1.2793-3.2764h-1.084l-.0586-10.2539h1.2109Z" fill="#1e1e1e"/><path d="M264.48,297.99a8.0235,8.0235,0,0,1-.5273,2.6611,4.3053,4.3053,0,0,1-1.3232,1.8848,3.0923,3.0923,0,0,1-1.958.6592,2.3247,2.3247,0,0,1-1.543-.498,2.4262,2.4262,0,0,1-.791-1.3965,3.2249,3.2249,0,0,1-2.91,1.8945,2.2,2.2,0,0,1-2.041-1.1816,5.437,5.437,0,0,1-.498-3.1836,8.51,8.51,0,0,1,.7275-2.8369,5.016,5.016,0,0,1,1.5137-1.9434,3.269,3.269,0,0,1,1.9971-.6982,3.7914,3.7914,0,0,1,1.3184.21,4.7315,4.7315,0,0,1,1.3184.8457l-.498,5.5723a2.8736,2.8736,0,0,0,.2881,1.76,1.3411,1.3411,0,0,0,1.2354.626,2.2362,2.2362,0,0,0,1.9482-1.1777,6.4531,6.4531,0,0,0,.835-3.1914q.1853-3.958-1.5039-5.9561a6.3247,6.3247,0,0,0-5.1172-1.999,6.8912,6.8912,0,0,0-3.7158,1.03,7.1566,7.1566,0,0,0-2.6123,2.915,10.609,10.609,0,0,0-1.0742,4.3457,10.065,10.065,0,0,0,.6494,4.3311,6.0649,6.0649,0,0,0,2.3145,2.876,6.6125,6.6125,0,0,0,3.6865,1.0059,7.3226,7.3226,0,0,0,1.7676-.2148,5.543,5.543,0,0,0,1.4551-.5566l.3027.7813a5.0418,5.0418,0,0,1-1.5527.62,8.2635,8.2635,0,0,1-2.0117.249,7.7629,7.7629,0,0,1-4.1992-1.0986,6.6844,6.6844,0,0,1-2.6318-3.1641,11.0919,11.0919,0,0,1-.7568-4.8291,11.4624,11.4624,0,0,1,1.1963-4.81,8.4084,8.4084,0,0,1,11.44-3.35,6.2045,6.2045,0,0,1,2.5586,3.042A11.1832,11.1832,0,0,1,264.48,297.99Zm-10.5566,2.2217a2.8252,2.8252,0,0,0,.5469,1.5127,1.4311,1.4311,0,0,0,1.1621.5332q1.8069,0,2.666-2.4961l.4395-5.0518a2.5414,2.5414,0,0,0-1.543-.4795,2.4746,2.4746,0,0,0-1.88.8662,5.3357,5.3357,0,0,0-1.167,2.3887A7.6665,7.6665,0,0,0,253.9238,300.2115Z" fill="#1e1e1e"/><path d="M275.9668,298.9957H272.9L272.1484,303h-.9668l.752-4.0039h-2.49v-.9082H272.1l.8105-4.3066h-2.7246v-.9375h2.9l.7715-4.0625h.9668l-.7715,4.0625h3.0762l.7715-4.0625h.9766l-.7715,4.0625h2.2363v.9375H277.93l-.8105,4.3066h2.49v.9082h-2.666L276.1914,303h-.9766Zm-2.9-.9082h3.0762l.8105-4.3066H273.877Z" fill="#1e1e1e"/><path d="M292.043,299.4937a2.3724,2.3724,0,0,0-.7031-1.7725,6.8408,6.8408,0,0,0-2.48-1.3037,7.2,7.2,0,0,1-3.0957-1.6455,3.47,3.47,0,0,1-.8887-2.4658,3.5232,3.5232,0,0,1,.9766-2.583,4.042,4.042,0,0,1,2.6563-1.1279v-1.9727h.9961v1.9727a3.7412,3.7412,0,0,1,2.6611,1.2832,4.6458,4.6458,0,0,1,.9424,3.0723h-1.1621a3.5532,3.5532,0,0,0-.7959-2.4365,2.7464,2.7464,0,0,0-2.1729-.9033,3.0393,3.0393,0,0,0-2.1631.7285,2.5371,2.5371,0,0,0-.7764,1.9414,2.3759,2.3759,0,0,0,.7129,1.834,6.9521,6.9521,0,0,0,2.4268,1.2422,10.7884,10.7884,0,0,1,2.49,1.1143,3.5451,3.5451,0,0,1,1.1621,1.26,3.6753,3.6753,0,0,1,.3857,1.7432,3.455,3.455,0,0,1-1.001,2.583,4.2549,4.2549,0,0,1-2.749,1.1182v1.8555h-.9863v-1.8457a4.4576,4.4576,0,0,1-3.0371-1.2354,4.1729,4.1729,0,0,1-1.0742-3.0322h1.1719a3.1769,3.1769,0,0,0,.8887,2.3877,3.4085,3.4085,0,0,0,2.48.8643,3.37,3.37,0,0,0,2.2607-.7422A2.4177,2.4177,0,0,0,292.043,299.4937Z" fill="#1e1e1e"/><path d="M298.3926,291.5152a2.9491,2.9491,0,0,1,.7861-2.1045,2.8058,2.8058,0,0,1,3.9941,0,3.0278,3.0278,0,0,1,.7861,2.1631v.6934a2.9447,2.9447,0,0,1-.7764,2.085,2.5933,2.5933,0,0,1-1.9873.835,2.6825,2.6825,0,0,1-2.002-.82,2.9713,2.9713,0,0,1-.8008-2.168Zm.9473.748a2.22,2.22,0,0,0,.5029,1.4971,1.69,1.69,0,0,0,1.3525.5869,1.6341,1.6341,0,0,0,1.3232-.5918,2.3134,2.3134,0,0,0,.4932-1.5312v-.7148a2.2262,2.2262,0,0,0-.5078-1.502,1.7857,1.7857,0,0,0-2.6514-.0049,2.2954,2.2954,0,0,0-.5127,1.5654Zm2.2266,9.5547-.7324-.4687,6.9434-11.1133.7324.4688Zm3.9844-2.3047a2.9324,2.9324,0,0,1,.7861-2.1,2.6186,2.6186,0,0,1,1.9873-.83,2.66,2.66,0,0,1,1.9971.8252,2.9969,2.9969,0,0,1,.7959,2.1729v.6934a2.9324,2.9324,0,0,1-.7861,2.1,2.6186,2.6186,0,0,1-1.9873.83,2.66,2.66,0,0,1-1.9971-.8252,2.97,2.97,0,0,1-.7959-2.1533Zm.9375.7578a2.2338,2.2338,0,0,0,.5029,1.5068,1.69,1.69,0,0,0,1.3525.5869,1.6443,1.6443,0,0,0,1.333-.5918,2.3446,2.3446,0,0,0,.4932-1.5508v-.7148a2.2071,2.2071,0,0,0-.5029-1.5117,1.8389,1.8389,0,0,0-2.6709.0049,2.2575,2.2575,0,0,0-.5078,1.5459Z" fill="#1e1e1e"/><path d="M319.2148,290.3238l-2.2266,5.5566h-1.1328l2.92-7.1h.8789l2.91,7.1h-1.1328Z" fill="#1e1e1e"/><path d="M330.3691,295.2457a9.2708,9.2708,0,0,1-1.2354-1.8311,3.6719,3.6719,0,0,1-.3857-1.5967,3.154,3.154,0,0,1,.8887-2.3633,3.262,3.262,0,0,1,2.3828-.8691,3.0846,3.0846,0,0,1,2.1973.7861,2.6159,2.6159,0,0,1,.84,1.9971,3.7379,3.7379,0,0,1-1.6211,2.7637l-1.5625,1.2109,3.9063,4.5508a6.0528,6.0528,0,0,0,.8887-3.252h1.084a6.6337,6.6337,0,0,1-1.25,4.0918L338.4453,303h-1.4062l-1.23-1.4258a5.662,5.662,0,0,1-1.7822,1.1914,5.404,5.404,0,0,1-2.1338.43,4.73,4.73,0,0,1-3.2227-1.04,3.672,3.672,0,0,1-.5811-4.7363,9.2213,9.2213,0,0,1,2.1436-2.0752Zm1.5234,6.9629a4.1508,4.1508,0,0,0,1.7236-.376,4.7967,4.7967,0,0,0,1.499-1.0693l-3.9746-4.6094-.1367-.1465-.4492.3418q-1.9138,1.563-1.9141,3.0273a2.6092,2.6092,0,0,0,.8789,2.0557A3.456,3.456,0,0,0,331.8926,302.2086Zm-1.9727-10.43a4.7927,4.7927,0,0,0,1.3184,2.8125l1.2793-.9766a4.6493,4.6493,0,0,0,1.0254-.9863,2.05,2.05,0,0,0,.4-1.26,1.7055,1.7055,0,0,0-.5273-1.2744,1.9312,1.9312,0,0,0-1.4062-.5127,1.9694,1.9694,0,0,0-1.5234.6152A2.2449,2.2449,0,0,0,329.92,291.7789Z" fill="#1e1e1e"/><path d="M345.2539,293.2291l-3.2422-1.0537.3125-.9854,3.2422,1.2-.0391-3.6094h1.0156l-.0781,3.6387,3.1641-1.2393.3223.9854-3.252,1.1221,2.1777,2.8711-.83.6152-2.09-2.9785-1.9922,2.959-.83-.5957Z" fill="#1e1e1e"/><path d="M354.582,297.2574a15.6544,15.6544,0,0,1,.5469-4.1357A13.4082,13.4082,0,0,1,356.73,289.45a7.1465,7.1465,0,0,1,2.2656-2.3877l.2832.791A5.7608,5.7608,0,0,0,358,289.191a10.1433,10.1433,0,0,0-1.1328,2.09,15.0733,15.0733,0,0,0-.8057,2.72,17.2228,17.2228,0,0,0-.3076,3.4229,16.3815,16.3815,0,0,0,.4639,3.9258,13.1514,13.1514,0,0,0,1.2744,3.3252,6.7625,6.7625,0,0,0,1.7871,2.1631l-.2832.752a7.2506,7.2506,0,0,1-2.2949-2.3975,12.9814,12.9814,0,0,1-1.5869-3.6426A16.5412,16.5412,0,0,1,354.582,297.2574Z" fill="#1e1e1e"/><path d="M367.6113,297.4039a15.9116,15.9116,0,0,1-.5322,4.1357,13.078,13.078,0,0,1-1.5771,3.6377,7.29,7.29,0,0,1-2.3047,2.4121l-.2832-.752a6.4812,6.4812,0,0,0,1.7725-2.1191,13.0547,13.0547,0,0,0,1.2842-3.3447,17.3576,17.3576,0,0,0,.4688-4.1455,16.0637,16.0637,0,0,0-.4687-3.9014,13.64,13.64,0,0,0-1.2939-3.3594,6.4974,6.4974,0,0,0-1.7627-2.1533l.2832-.752a7.3192,7.3192,0,0,1,2.2754,2.4023,13.35,13.35,0,0,1,1.5918,3.6621A16.2332,16.2332,0,0,1,367.6113,297.4039Z" fill="#1e1e1e"/><path d="M106.1094,112.0719h-4.1309V118h-1.2109V103.7808h4.6191a5.27,5.27,0,0,1,3.5547,1.1025,4.2069,4.2069,0,0,1,.4785,5.4912,4.0908,4.0908,0,0,1-2.1484,1.4434l3.5547,6.0547V118h-1.2793Zm-4.1309-1.0156H105.66a3.4128,3.4128,0,0,0,2.4316-.86,3.2514,3.2514,0,0,0-.0391-4.5684,3.9685,3.9685,0,0,0-2.6855-.8311h-3.3887Z" fill="#1e1e1e"/><path d="M115.5742,112.56a6.2146,6.2146,0,0,1,.5908-2.7441,4.4383,4.4383,0,0,1,4.1162-2.5781,4.3469,4.3469,0,0,1,3.418,1.4795,5.7,5.7,0,0,1,1.3086,3.9209v.2441a6.27,6.27,0,0,1-.5908,2.7588,4.4077,4.4077,0,0,1-1.665,1.89,4.5688,4.5688,0,0,1-2.4512.6641,4.35,4.35,0,0,1-3.4131-1.4795,5.6879,5.6879,0,0,1-1.3135-3.9209Zm1.1719.3223a4.7952,4.7952,0,0,0,.9814,3.11,3.3207,3.3207,0,0,0,5.1367,0,4.9524,4.9524,0,0,0,.9814-3.208V112.56a5.3776,5.3776,0,0,0-.4492-2.2168,3.6072,3.6072,0,0,0-1.26-1.5576,3.2165,3.2165,0,0,0-1.8555-.5518,3.122,3.122,0,0,0-2.5488,1.2256,4.9606,4.9606,0,0,0-.9863,3.208Z" fill="#1e1e1e"/><path d="M138.9258,112.8238a6.3639,6.3639,0,0,1-1.0937,3.9209,3.4929,3.4929,0,0,1-2.9395,1.45,3.7977,3.7977,0,0,1-3.34-1.6406L131.5039,118H130.41V103h1.1621v5.9668a3.6724,3.6724,0,0,1,3.3008-1.7285,3.5248,3.5248,0,0,1,2.9639,1.4307,6.4388,6.4388,0,0,1,1.0889,3.9795Zm-1.1719-.2051a5.5031,5.5031,0,0,0-.8105-3.2275,2.6421,2.6421,0,0,0-2.2852-1.1377,3.215,3.215,0,0,0-1.9043.5518,3.3546,3.3546,0,0,0-1.1816,1.6162v4.7656a3.1311,3.1311,0,0,0,3.1055,1.9922,2.6234,2.6234,0,0,0,2.2607-1.1426A5.8858,5.8858,0,0,0,137.7539,112.6187Z" fill="#1e1e1e"/><path d="M143.8594,112.56a6.2146,6.2146,0,0,1,.5908-2.7441,4.4383,4.4383,0,0,1,4.1162-2.5781,4.3469,4.3469,0,0,1,3.418,1.4795,5.7,5.7,0,0,1,1.3086,3.9209v.2441a6.27,6.27,0,0,1-.5908,2.7588,4.4077,4.4077,0,0,1-1.665,1.89,4.5688,4.5688,0,0,1-2.4512.6641,4.35,4.35,0,0,1-3.4131-1.4795,5.6879,5.6879,0,0,1-1.3135-3.9209Zm1.1719.3223a4.7952,4.7952,0,0,0,.9814,3.11,3.3207,3.3207,0,0,0,5.1367,0,4.9524,4.9524,0,0,0,.9814-3.208V112.56a5.3776,5.3776,0,0,0-.4492-2.2168,3.6072,3.6072,0,0,0-1.26-1.5576,3.2165,3.2165,0,0,0-1.8555-.5518,3.122,3.122,0,0,0-2.5488,1.2256,4.9606,4.9606,0,0,0-.9863,3.208Z" fill="#1e1e1e"/><path d="M160.5215,104.7281v2.7051h2.1875v.957h-2.1875v7.0488a2.21,2.21,0,0,0,.3174,1.3105,1.2317,1.2317,0,0,0,1.06.43,7.2094,7.2094,0,0,0,.9473-.0977l.0488.9492a3.83,3.83,0,0,1-1.25.1641,2.0835,2.0835,0,0,1-1.748-.6982,3.2859,3.2859,0,0,1-.5469-2.0557V108.39h-1.9434v-.957H159.35v-2.7051Z" fill="#1e1e1e"/><path d="M167.291,112.56a6.2146,6.2146,0,0,1,.5908-2.7441,4.4383,4.4383,0,0,1,4.1162-2.5781,4.3469,4.3469,0,0,1,3.418,1.4795,5.7,5.7,0,0,1,1.3086,3.9209v.2441a6.27,6.27,0,0,1-.5908,2.7588,4.4077,4.4077,0,0,1-1.665,1.89,4.5688,4.5688,0,0,1-2.4512.6641,4.35,4.35,0,0,1-3.4131-1.4795,5.6879,5.6879,0,0,1-1.3135-3.9209Zm1.1719.3223a4.7952,4.7952,0,0,0,.9814,3.11,3.3207,3.3207,0,0,0,5.1367,0,4.9524,4.9524,0,0,0,.9814-3.208V112.56a5.3776,5.3776,0,0,0-.4492-2.2168,3.6072,3.6072,0,0,0-1.26-1.5576,3.2165,3.2165,0,0,0-1.8555-.5518,3.122,3.122,0,0,0-2.5488,1.2256,4.9606,4.9606,0,0,0-.9863,3.208Z" fill="#1e1e1e"/></g></g></svg>