<?xml version="1.0" encoding="utf-8"?>
<!-- Generator: Adobe Illustrator 21.0.2, SVG Export Plug-In . SVG Version: 6.00 Build 0)  -->
<svg version="1.1" id="Layer_1" xmlns="http://www.w3.org/2000/svg" xmlns:xlink="http://www.w3.org/1999/xlink" x="0px" y="0px"
	 viewBox="0 0 600 410" style="enable-background:new 0 0 600 410;" xml:space="preserve">
<style type="text/css">
	.st0{fill:#EDEDED;}
	.st1{fill:#1E1E1E;}
</style>
<title>roboto</title>
<g id="Layer_2">
	<g id="Layer_1-2">
		<g id="Layer_2-2">
			<g id="Layer_1-2-2">
				<path class="st0" d="M590,410H10c-5.5,0-10-4.5-10-10V10C0,4.5,4.5,0,10,0h580c5.5,0,10,4.5,10,10v390
					C600,405.5,595.5,410,590,410z"/>
				<path class="st1" d="M80.3,189H54.5l-5.9,16h-5l21.5-56.9h4.6L91.2,205h-5L80.3,189z M56,185h22.8l-11.4-31L56,185z"/>
				<path class="st1" d="M129.2,205c-0.6-1.9-0.9-3.9-0.9-5.9c-1.6,2.1-3.8,3.8-6.3,4.9c-2.5,1.2-5.3,1.7-8.1,1.7
					c-3.6,0.2-7.1-1.1-9.9-3.4c-2.5-2.2-3.9-5.3-3.8-8.6c-0.1-3.9,1.8-7.6,5.1-9.8c3.4-2.4,8.2-3.6,14.3-3.6h8.5v-4.8
					c0.1-2.7-0.9-5.3-2.8-7.1c-1.9-1.7-4.6-2.6-8.1-2.6c-2.9-0.1-5.8,0.8-8.1,2.5c-2,1.4-3.2,3.6-3.2,6l-4.7,0
					c0-3.4,1.6-6.3,4.7-8.7c3.3-2.5,7.4-3.8,11.5-3.7c4.7,0,8.4,1.2,11.2,3.5c2.7,2.4,4.1,5.6,4.2,9.9v20c0,4.1,0.4,7.1,1.3,9.2v0.5
					H129.2z M114.5,201.6c3,0,5.9-0.7,8.4-2.3c2.4-1.4,4.3-3.5,5.4-6.1V184h-8.4c-4.7,0.1-8.3,0.9-10.9,2.6c-2.5,1.4-4,4-3.9,6.8
					c0,2.3,0.9,4.4,2.6,5.9C109.6,200.9,112,201.8,114.5,201.6L114.5,201.6z"/>
				<path class="st1" d="M168.7,205l9.9-56.9l16.7,0c5.8,0,10.2,1.3,13,3.9c2.9,2.6,4.2,6.2,3.8,10.9c-0.5,5.4-3.9,9.5-10.3,12.3
					c2.5,0.9,4.5,2.7,5.7,5.1c1.3,2.4,1.8,5.2,1.5,7.9c-0.2,4.8-2.5,9.2-6.2,12.2c-3.7,3-8.5,4.5-14.5,4.5H168.7z M180.7,178.4
					l-3.6,20.4l11.6,0c3.2,0.1,6.4-0.9,8.9-2.8c2.4-1.9,3.9-4.7,4.2-7.7c0.4-3.1-0.2-5.5-1.6-7.2c-1.4-1.7-3.7-2.6-6.8-2.7
					L180.7,178.4z M181.7,172.4l10.6,0c3,0.1,5.9-0.8,8.4-2.5c2.3-1.7,3.7-4.2,4-7c0.3-2.8-0.2-4.9-1.6-6.3
					c-1.4-1.4-3.8-2.2-7.1-2.3l-11.2,0L181.7,172.4z"/>
				<path class="st1" d="M258.7,184.1c-0.4,4.1-1.7,8-3.6,11.7c-1.5,3.1-3.8,5.8-6.7,7.7c-2.6,1.7-5.7,2.5-8.8,2.4
					c-5.1-0.1-8.9-2-11.4-5.7l-1.4,4.9h-6.5l10.4-60h7.1l-4.3,22.4c3.1-3.6,7.6-5.6,12.3-5.5c3.7-0.1,7.2,1.6,9.5,4.5
					c2.3,2.9,3.5,6.9,3.6,12c0,1.6-0.1,3.2-0.2,4.8L258.7,184.1z M252,180c0.1-3.8-0.6-6.7-1.9-8.7c-1.4-2-3.7-3.2-6.2-3.2
					c-4.4-0.1-8.1,2.1-11.2,6.6l-3.2,18.4c1.6,4.3,4.5,6.5,8.8,6.6c2.6,0.1,5.2-0.7,7.2-2.5c2.2-2,3.8-4.5,4.7-7.3
					C251.3,186.7,251.9,183.4,252,180L252,180z"/>
				<path class="st1" d="M339.4,186.5c-0.6,6.1-2.8,10.8-6.7,14.2c-3.9,3.4-9.1,5.1-15.6,5.1c-4.2,0.1-8.4-1-12-3.2
					c-3.5-2.2-6.3-5.4-8-9.2c-2-4.3-3-9-2.9-13.8v-5.3c-0.1-4.9,0.9-9.7,2.9-14.2c1.7-3.9,4.6-7.2,8.2-9.5c3.7-2.3,8-3.4,12.3-3.3
					c6.3,0,11.3,1.7,15.2,5.1s6.1,8.2,6.7,14.4h-9.8c-0.5-4.1-1.7-7-3.6-8.8s-4.7-2.7-8.4-2.7c-4.3,0-7.6,1.6-9.9,4.7
					c-2.3,3.1-3.5,7.7-3.5,13.8v5c0,6.2,1.1,10.8,3.3,14.1c2.1,3.2,5.8,5,9.7,4.8c3.9,0,6.8-0.9,8.8-2.6c2-1.7,3.2-4.6,3.7-8.7
					L339.4,186.5z"/>
				<path class="st1" d="M368.7,198.2c2.2,0.1,4.3-0.7,5.9-2.1c1.5-1.3,2.4-3.1,2.5-5.1h8.9c-0.1,2.6-1,5.2-2.5,7.4
					c-1.6,2.3-3.7,4.2-6.2,5.4c-2.6,1.3-5.6,2-8.5,2c-5.9,0-10.6-1.9-14.1-5.7c-3.5-3.8-5.2-9.1-5.2-15.9v-1
					c0-6.4,1.7-11.6,5.2-15.4c3.4-3.9,8.1-5.8,14.1-5.8c5,0,9.1,1.5,12.3,4.4c3.2,3,5,7.2,5,11.5h-8.9c0-2.2-0.9-4.4-2.5-6
					c-1.6-1.6-3.7-2.4-5.9-2.3c-2.8-0.1-5.4,1.1-7.1,3.3c-1.7,2.2-2.5,5.6-2.5,10.1v1.5c0,4.6,0.8,8,2.5,10.3
					C363.2,197.1,365.9,198.4,368.7,198.2z"/>
				<path class="st1" d="M446.7,205h-11.3v-43.6l-13.5,4.2v-9.1l23.6-8.4h1.2V205z"/>
				<path class="st1" d="M508.2,205h-39v-7.7l18.4-19.6c2.1-2.2,4-4.6,5.6-7.2c1.1-1.8,1.7-3.8,1.8-5.9c0.1-2.2-0.6-4.3-1.9-6
					c-1.4-1.5-3.4-2.3-5.5-2.2c-2.3-0.1-4.5,0.9-6,2.6c-1.5,2-2.3,4.4-2.2,6.9h-11.3c0-3.3,0.8-6.6,2.5-9.5c1.7-2.9,4.1-5.2,7-6.7
					c3.2-1.7,6.7-2.5,10.3-2.4c5.9,0,10.4,1.4,13.7,4.2c3.2,2.8,4.9,6.8,4.9,11.9c0,3-0.8,5.9-2.2,8.6c-2,3.7-4.6,7.1-7.5,10.2
					l-12.9,13.6h24.5L508.2,205z"/>
				<path class="st1" d="M530.6,171.6h6c2.9,0,5-0.7,6.4-2.1c1.4-1.5,2.2-3.6,2.1-5.7c0.1-2-0.6-3.9-2.1-5.4c-1.6-1.3-3.6-2-5.6-1.9
					c-2-0.1-3.9,0.6-5.4,1.8c-1.4,1.1-2.2,2.8-2.2,4.6h-11.3c0-2.8,0.8-5.6,2.4-8c1.7-2.4,4-4.3,6.7-5.5c3-1.4,6.2-2,9.5-2
					c6,0,10.7,1.4,14.1,4.3c3.4,2.9,5.1,6.8,5.1,11.9c0,2.6-0.8,5.1-2.4,7.2c-1.6,2.2-3.8,3.9-6.2,5c2.9,0.9,5.4,2.7,7.2,5.2
					c1.6,2.4,2.4,5.2,2.4,8.1c0.2,4.7-1.9,9.2-5.5,12.1c-3.7,3-8.6,4.6-14.6,4.6c-5.7,0-10.3-1.5-13.9-4.5
					c-3.6-2.9-5.6-7.3-5.4-11.9H529c-0.1,2,0.8,4,2.4,5.2c3.6,2.7,8.6,2.7,12.2-0.1c1.5-1.5,2.4-3.5,2.3-5.6c0-5.7-3.1-8.5-9.4-8.5
					h-6L530.6,171.6z"/>
				<path class="st1" d="M51.9,241h-6.5l-1.5,4h-1.3l5.4-14.2h1.1l5.4,14.2h-1.2L51.9,241z M45.8,240h5.7l-2.9-7.7L45.8,240z"/>
				<path class="st1" d="M59.7,245v-14.2h4.2c1.2-0.1,2.5,0.2,3.5,0.9c0.8,0.7,1.3,1.7,1.2,2.8c0,0.7-0.2,1.4-0.6,1.9
					c-0.4,0.6-1,1-1.6,1.2c1.6,0.3,2.8,1.8,2.8,3.4c0.1,1.1-0.4,2.2-1.2,2.9c-1,0.8-2.2,1.1-3.4,1.1H59.7z M60.9,237.2h3.3
					c0.8,0,1.7-0.2,2.3-0.7c0.6-0.5,0.9-1.2,0.8-2c0.1-0.8-0.3-1.5-0.9-2c-0.8-0.5-1.7-0.7-2.6-0.6h-3L60.9,237.2z M60.9,238.2v5.8
					h3.6c0.9,0,1.8-0.2,2.4-0.8c0.6-0.6,0.9-1.4,0.9-2.2c0-0.8-0.3-1.6-0.9-2.1c-0.7-0.5-1.5-0.8-2.4-0.8L60.9,238.2z"/>
				<path class="st1" d="M85.1,240.6c-0.1,1.3-0.6,2.5-1.6,3.4c-1,0.8-2.3,1.3-3.6,1.2c-1,0-2-0.3-2.8-0.8c-0.8-0.6-1.5-1.3-1.9-2.2
					c-0.5-1-0.7-2.2-0.7-3.3V237c0-1.2,0.2-2.3,0.7-3.4c0.4-0.9,1.1-1.7,1.9-2.3c0.9-0.5,1.9-0.8,2.9-0.8c1.3-0.1,2.6,0.4,3.6,1.2
					c0.9,0.9,1.5,2.1,1.5,3.4h-1.2c-0.3-2.4-1.6-3.6-3.9-3.6c-1.2,0-2.3,0.5-3.1,1.4c-0.8,1.2-1.2,2.6-1.1,4v1.7
					c-0.1,1.4,0.3,2.8,1.1,3.9c0.7,1,1.8,1.5,3,1.5c1,0.1,2-0.2,2.8-0.9c0.7-0.7,1.1-1.7,1.2-2.7L85.1,240.6z"/>
				<path class="st1" d="M91,245v-14.2h4c1.1,0,2.2,0.3,3.1,0.8c0.9,0.5,1.7,1.3,2.2,2.3c0.5,1,0.8,2.2,0.8,3.4v1.3
					c0,1.2-0.2,2.3-0.8,3.4c-0.5,1-1.2,1.7-2.2,2.3c-1,0.5-2.1,0.8-3.2,0.8H91z M92.2,231.8V244h2.7c1.4,0.1,2.7-0.5,3.6-1.5
					c1-1.1,1.4-2.6,1.4-4v-1.3c0.1-1.4-0.4-2.8-1.3-3.9c-0.9-1-2.2-1.5-3.5-1.5L92.2,231.8z"/>
				<path class="st1" d="M114.9,238.2h-6.7v5.8h7.6v1h-8.8v-14.2h8.8v1h-7.6v5.4h6.7L114.9,238.2z"/>
				<path class="st1" d="M129.3,238.3h-6.6v6.7h-1.2v-14.2h8.8v1h-7.6v5.5h6.6V238.3z"/>
				<path class="st1" d="M146,243.3c-0.5,0.7-1.2,1.1-2,1.4c-1,0.3-2,0.5-3,0.5c-1,0-2.1-0.3-3-0.8c-0.9-0.5-1.6-1.3-2-2.3
					c-0.5-1.1-0.7-2.2-0.7-3.4V237c-0.1-1.7,0.4-3.4,1.5-4.7c1-1.1,2.5-1.8,4-1.7c1.3-0.1,2.5,0.3,3.5,1.1c0.9,0.8,1.5,1.9,1.6,3.1
					h-1.2c-0.1-0.9-0.6-1.8-1.3-2.4c-0.8-0.6-1.7-0.9-2.6-0.8c-1.2-0.1-2.4,0.5-3.2,1.4c-0.8,1.2-1.3,2.6-1.2,4v1.7
					c0,1,0.2,2,0.6,2.9c0.3,0.8,0.9,1.5,1.6,1.9c0.7,0.5,1.5,0.7,2.4,0.7c0.9,0,1.8-0.1,2.7-0.5c0.4-0.2,0.8-0.4,1.1-0.8v-3.7H141
					v-1h5L146,243.3z"/>
				<path class="st1" d="M162.9,245h-1.2v-6.8h-8.1v6.8h-1.2v-14.2h1.2v6.4h8.1v-6.4h1.2L162.9,245z"/>
				<path class="st1" d="M171,245h-1.2v-14.2h1.2L171,245z"/>
				<path class="st1" d="M184.1,230.8h1.2v10c0.1,1.2-0.4,2.3-1.2,3.2c-0.8,0.8-2,1.3-3.1,1.2c-1.2,0.1-2.3-0.3-3.2-1.1
					c-0.8-0.8-1.2-1.9-1.1-3h1.2c-0.1,0.9,0.2,1.7,0.8,2.3c0.6,0.5,1.5,0.8,2.3,0.8c0.8,0,1.6-0.3,2.2-0.9c0.6-0.7,0.9-1.5,0.9-2.4
					L184.1,230.8z"/>
				<path class="st1" d="M195.1,237.9l-2,2v5.1h-1.2v-14.2h1.2v7.7l7.3-7.7h1.5l-6,6.3l6.4,7.9h-1.5L195.1,237.9z"/>
				<path class="st1" d="M208.7,244h7v1h-8.2v-14.2h1.2L208.7,244z"/>
				<path class="st1" d="M222.6,230.8l5.2,12.5l5.3-12.5h1.6V245h-1.2v-6.2l0.1-6.3l-5.3,12.5h-0.9l-5.3-12.5l0.1,6.3v6.2H221v-14.2
					H222.6z"/>
				<path class="st1" d="M251.9,245h-1.2l-8.2-12.2V245h-1.2v-14.2h1.2l8.2,12.2v-12.2h1.2V245z"/>
				<path class="st1" d="M269,238.7c0,1.2-0.2,2.4-0.7,3.4c-0.4,0.9-1.1,1.7-1.9,2.3c-0.9,0.5-1.9,0.8-2.9,0.8c-1.5,0.1-3-0.6-4-1.8
					c-1.1-1.4-1.6-3.1-1.5-4.8v-1.5c0-1.2,0.2-2.4,0.7-3.4c0.8-1.9,2.7-3.2,4.8-3.1c1,0,2,0.3,2.9,0.8c0.8,0.5,1.5,1.3,1.9,2.2
					c0.5,1.1,0.7,2.2,0.7,3.4L269,238.7z M267.8,237.1c0.1-1.4-0.3-2.9-1.2-4c-1.5-1.8-4.1-1.9-5.9-0.4c-0.2,0.1-0.3,0.3-0.4,0.5
					c-0.8,1.2-1.3,2.6-1.2,4.1v1.5c-0.1,1.4,0.3,2.8,1.2,4c1.5,1.8,4.1,2,5.9,0.5c0.2-0.1,0.3-0.3,0.5-0.5c0.8-1.2,1.2-2.6,1.1-4.1
					V237.1z"/>
				<path class="st1" d="M276.3,239.2v5.8h-1.2v-14.2h4.8c1.3-0.1,2.5,0.3,3.5,1.1c1.7,1.7,1.7,4.5,0,6.2c-1,0.8-2.3,1.2-3.6,1.1
					H276.3z M276.3,238.2h3.6c1,0.1,1.9-0.2,2.7-0.8c0.6-0.6,1-1.4,0.9-2.3c0-0.9-0.3-1.7-0.9-2.4c-0.7-0.6-1.6-0.9-2.6-0.9h-3.7
					L276.3,238.2z"/>
				<path class="st1" d="M300.8,238.7c0,1.2-0.2,2.4-0.7,3.5c-0.4,1-1.1,1.7-2,2.3l2.6,2.3l-0.8,0.7l-2.9-2.5
					c-0.5,0.1-1.1,0.2-1.6,0.2c-2.1,0-4-1.2-4.8-3.1c-0.5-1.1-0.7-2.2-0.7-3.4v-1.6c0-1.2,0.2-2.4,0.7-3.4c0.8-1.9,2.7-3.2,4.8-3.1
					c1,0,2,0.3,2.9,0.8c0.9,0.6,1.5,1.4,1.9,2.3c0.5,1.1,0.7,2.3,0.7,3.4L300.8,238.7z M299.6,237.1c0.1-1.4-0.3-2.9-1.2-4
					c-1.5-1.8-4.1-1.9-5.9-0.4c-0.2,0.1-0.3,0.3-0.4,0.5c-0.8,1.2-1.3,2.6-1.2,4.1v1.5c-0.1,1.4,0.3,2.8,1.2,4
					c1.5,1.8,4.1,2,5.9,0.5c0.2-0.1,0.3-0.3,0.5-0.5c0.8-1.2,1.2-2.6,1.2-4.1L299.6,237.1z"/>
				<path class="st1" d="M312.2,239.1h-4.1v5.9h-1.2v-14.2h4.6c1.3-0.1,2.5,0.3,3.6,1.1c1.5,1.5,1.7,3.8,0.5,5.5
					c-0.5,0.7-1.3,1.2-2.1,1.4l3.6,6.1v0.1h-1.3L312.2,239.1z M308.1,238.1h3.7c0.9,0,1.8-0.3,2.4-0.9c1.2-1.3,1.2-3.3,0-4.6
					c-0.8-0.6-1.7-0.9-2.7-0.8h-3.4L308.1,238.1z"/>
				<path class="st1" d="M330.6,241.5c0-0.7-0.3-1.4-0.8-1.9c-0.9-0.6-2-1.1-3-1.3c-1.1-0.3-2.2-0.7-3.2-1.4c-1.5-1-1.9-3.1-0.9-4.6
					c0.2-0.3,0.5-0.6,0.8-0.8c1-0.7,2.2-1.1,3.4-1c0.9,0,1.7,0.2,2.5,0.5c0.7,0.3,1.3,0.9,1.7,1.5c0.4,0.7,0.6,1.4,0.6,2.2h-1.2
					c0-0.9-0.3-1.8-1-2.3c-0.7-0.6-1.7-0.9-2.7-0.9c-0.9,0-1.8,0.2-2.6,0.7c-0.6,0.4-1,1.1-1,1.9c0,0.7,0.3,1.4,0.9,1.8
					c0.8,0.6,1.8,1,2.8,1.2c1,0.2,2,0.6,2.9,1.1c0.6,0.3,1.1,0.8,1.5,1.3c0.3,0.6,0.5,1.2,0.5,1.8c0,1.1-0.5,2.1-1.3,2.7
					c-1,0.7-2.3,1.1-3.5,1c-0.9,0-1.9-0.2-2.8-0.5c-0.8-0.3-1.4-0.8-1.9-1.5c-0.4-0.7-0.7-1.4-0.6-2.2h1.2c0,0.9,0.4,1.8,1.1,2.4
					c0.9,0.6,1.9,0.9,3,0.9c0.9,0,1.9-0.2,2.7-0.7C330.3,243,330.7,242.3,330.6,241.5z"/>
				<path class="st1" d="M347.1,231.8h-4.9V245H341v-13.2h-4.9v-1h10.9V231.8z"/>
				<path class="st1" d="M362.2,230.8v9.7c0,0.9-0.2,1.7-0.6,2.5c-0.4,0.7-1,1.3-1.8,1.6c-0.8,0.4-1.7,0.6-2.6,0.6
					c-1.3,0.1-2.6-0.4-3.6-1.2c-0.9-0.9-1.4-2.1-1.4-3.4v-9.8h1.2v9.6c-0.1,1,0.3,2,1,2.8c1.6,1.3,3.9,1.3,5.6,0
					c0.7-0.7,1.1-1.7,1-2.8v-9.6L362.2,230.8z"/>
				<path class="st1" d="M372.8,243.2l0.1,0.3l0.1-0.3l4.5-12.5h1.3l-5.3,14.2h-1.2l-5.3-14.2h1.3L372.8,243.2z"/>
				<path class="st1" d="M386.5,241.2l0.4,2.2l0.5-2.1l3.1-10.5h1.1l3,10.5l0.5,2.1l0.5-2.2l2.6-10.4h1.2l-3.6,14.2h-1.2l-3.2-11.1
					l-0.4-1.4l-0.4,1.4l-3.3,11.1h-1.2l-3.6-14.2h1.2L386.5,241.2z"/>
				<path class="st1" d="M409.1,236.8l4-6h1.4l-4.7,7l4.9,7.2h-1.4l-4.1-6.2L405,245h-1.4l4.9-7.2l-4.7-7h1.4L409.1,236.8z"/>
				<path class="st1" d="M424.2,238.5l4.3-7.8h1.4l-5.1,8.9v5.4h-1.2v-5.4l-5.1-8.9h1.4L424.2,238.5z"/>
				<path class="st1" d="M435.5,244h8.8v1h-10.2v-0.9l8.4-12.3h-8.2v-1h9.7v0.9L435.5,244z"/>
				<path class="st1" d="M50.7,274c-0.1-0.5-0.2-1-0.2-1.5c-0.4,0.5-1,1-1.6,1.2c-0.6,0.3-1.3,0.4-2,0.4c-0.9,0-1.8-0.3-2.5-0.9
					c-0.6-0.5-1-1.3-0.9-2.1c0-1,0.5-1.9,1.3-2.4c1.1-0.7,2.3-1,3.6-0.9h2.1v-1.2c0-0.7-0.2-1.3-0.7-1.8c-0.6-0.5-1.3-0.7-2-0.6
					c-0.7,0-1.4,0.2-2,0.6c-0.5,0.3-0.8,0.9-0.8,1.5l-1.2,0c0-0.9,0.5-1.7,1.2-2.2c0.8-0.6,1.8-1,2.9-0.9c1-0.1,2,0.3,2.8,0.9
					c0.7,0.6,1.1,1.5,1,2.5v5c0,0.8,0.1,1.6,0.3,2.3v0.1H50.7z M47,273.2c0.7,0,1.5-0.2,2.1-0.6c0.6-0.4,1.1-0.9,1.3-1.5v-2.3h-2.1
					c-1,0-1.9,0.2-2.7,0.6c-0.6,0.3-1,1-1,1.7c0,0.6,0.2,1.1,0.7,1.5C45.7,273,46.4,273.2,47,273.2L47,273.2z"/>
				<path class="st1" d="M66.2,268.8c0.1,1.4-0.3,2.8-1.1,3.9c-0.7,0.9-1.8,1.5-2.9,1.5c-1.3,0.1-2.6-0.5-3.3-1.6l0,1.4h-1.1v-15
					h1.2v6c0.7-1.1,2-1.8,3.3-1.7c1.2,0,2.3,0.5,3,1.4c0.8,1.2,1.2,2.6,1.1,4L66.2,268.8z M65,268.6c0.1-1.1-0.2-2.3-0.8-3.2
					c-0.5-0.7-1.4-1.2-2.3-1.1c-0.7,0-1.3,0.2-1.9,0.6c-0.5,0.4-1,1-1.2,1.6v4.8c0.5,1.3,1.7,2.1,3.1,2c0.9,0,1.8-0.4,2.3-1.1
					C64.8,271,65.1,269.8,65,268.6L65,268.6z"/>
				<path class="st1" d="M75.7,273.2c0.7,0,1.5-0.2,2-0.7c0.5-0.4,0.9-1.1,0.9-1.8h1.1c0,0.6-0.2,1.2-0.6,1.8
					c-0.4,0.5-0.9,1-1.5,1.2c-0.6,0.3-1.3,0.5-2,0.4c-1.3,0.1-2.5-0.5-3.3-1.4c-0.9-1.1-1.3-2.5-1.2-3.9v-0.4c0-0.9,0.2-1.9,0.5-2.8
					c0.3-0.8,0.9-1.4,1.6-1.9c0.7-0.4,1.5-0.7,2.4-0.7c1.1,0,2.1,0.3,2.9,1c0.8,0.7,1.2,1.7,1.2,2.7h-1.1c0-1.6-1.3-2.8-2.9-2.8
					c0,0,0,0,0,0l-0.1,0c-1,0-1.9,0.4-2.5,1.1c-0.6,0.9-0.9,2.1-0.9,3.2v0.3c-0.1,1.1,0.2,2.2,0.9,3.2
					C73.8,272.8,74.7,273.3,75.7,273.2z"/>
				<path class="st1" d="M84.6,268.6c-0.1-1.4,0.3-2.8,1.1-3.9c0.7-1,1.8-1.5,3-1.5c1.3-0.1,2.6,0.6,3.3,1.7V259h1.2v15H92l0-1.4
					c-0.7,1.1-2,1.7-3.3,1.6c-1.2,0-2.3-0.5-2.9-1.5c-0.8-1.2-1.2-2.6-1.1-4L84.6,268.6z M85.8,268.8c-0.1,1.1,0.2,2.2,0.8,3.2
					c0.5,0.8,1.4,1.2,2.3,1.2c1.3,0.1,2.5-0.7,3.1-1.9v-5c-0.5-1.3-1.7-2.1-3-2.1c-0.9,0-1.8,0.4-2.3,1.2
					C86,266.4,85.7,267.6,85.8,268.8L85.8,268.8z"/>
				<path class="st1" d="M103.3,274.2c-0.9,0-1.7-0.2-2.4-0.7c-0.7-0.4-1.3-1.1-1.7-1.9c-0.4-0.8-0.6-1.7-0.6-2.7v-0.4
					c0-0.9,0.2-1.9,0.6-2.7c0.4-0.8,0.9-1.4,1.6-1.9c0.7-0.5,1.5-0.7,2.3-0.7c1.2-0.1,2.3,0.4,3.1,1.3c0.8,1,1.2,2.3,1.1,3.6v0.7
					h-7.5v0.2c0,1.1,0.3,2.2,1,3c0.6,0.8,1.6,1.2,2.6,1.2c0.6,0,1.1-0.1,1.7-0.3c0.5-0.3,1-0.6,1.3-1.1l0.7,0.6
					C106.2,273.6,104.8,274.3,103.3,274.2z M103.1,264.2c-0.8,0-1.7,0.3-2.2,1c-0.6,0.7-1,1.6-1.1,2.6h6.3v-0.1
					c0-0.9-0.3-1.8-0.9-2.5C104.7,264.6,103.9,264.2,103.1,264.2L103.1,264.2z"/>
				<path class="st1" d="M113.4,274v-9.6h-1.7v-1h1.7v-1.3c-0.1-0.9,0.2-1.8,0.8-2.5c0.6-0.6,1.4-0.9,2.3-0.9c0.4,0,0.8,0.1,1.2,0.2
					l-0.1,1c-0.3-0.1-0.7-0.1-1.1-0.1c-0.6,0-1.1,0.2-1.5,0.6c-0.4,0.5-0.6,1.1-0.5,1.7v1.3h2.5v1h-2.5v9.6H113.4z"/>
				<path class="st1" d="M121.4,268.6c-0.1-1.4,0.3-2.8,1.1-3.9c0.7-0.9,1.8-1.5,3-1.5c1.3-0.1,2.6,0.6,3.3,1.7l0.1-1.5h1.1v10.4
					c0.1,1.2-0.3,2.3-1.1,3.2c-0.8,0.8-1.9,1.2-3.1,1.2c-0.7,0-1.5-0.2-2.1-0.5c-0.6-0.3-1.2-0.7-1.6-1.3l0.7-0.7
					c0.7,0.9,1.8,1.5,2.9,1.5c0.8,0,1.7-0.3,2.3-0.9c0.6-0.7,0.9-1.5,0.8-2.4v-1.3c-0.8,1-2,1.6-3.3,1.6c-1.2,0-2.3-0.5-2.9-1.5
					c-0.8-1.2-1.2-2.6-1.1-4L121.4,268.6z M122.6,268.8c-0.1,1.1,0.2,2.2,0.8,3.2c0.5,0.8,1.4,1.2,2.3,1.2c1.3,0.1,2.6-0.7,3.1-1.9
					v-4.9c-0.2-0.6-0.6-1.2-1.2-1.5c-0.5-0.4-1.2-0.6-1.9-0.5c-0.9,0-1.8,0.4-2.3,1.2C122.8,266.4,122.5,267.6,122.6,268.8
					L122.6,268.8z"/>
				<path class="st1" d="M137.2,265.2c0.4-0.6,0.9-1.1,1.5-1.5c0.6-0.3,1.3-0.5,2-0.5c0.9-0.1,1.9,0.3,2.5,1
					c0.6,0.8,0.9,1.8,0.8,2.9v6.9h-1.2v-6.9c0.1-0.8-0.2-1.5-0.6-2.1c-0.5-0.5-1.2-0.8-1.9-0.7c-0.7,0-1.4,0.2-1.9,0.7
					c-0.6,0.5-1,1.1-1.2,1.8v7.2H136v-15h1.2L137.2,265.2z"/>
				<path class="st1" d="M149.9,260.4c0-0.2,0.1-0.4,0.2-0.6c0.2-0.2,0.4-0.2,0.6-0.2c0.2,0,0.4,0.1,0.6,0.2
					c0.1,0.1,0.2,0.3,0.2,0.6c0,0.2-0.1,0.4-0.2,0.6c-0.2,0.2-0.4,0.2-0.6,0.2C150.3,261.2,149.9,260.9,149.9,260.4
					C149.9,260.5,149.9,260.5,149.9,260.4C149.9,260.4,149.9,260.4,149.9,260.4L149.9,260.4z M151.3,274h-1.2v-10.6h1.2L151.3,274z"
					/>
				<path class="st1" d="M158.7,263.4v11.8c0.1,0.8-0.2,1.6-0.7,2.2c-0.5,0.5-1.3,0.8-2.1,0.8c-0.3,0-0.7-0.1-1-0.2l0-1
					c0.3,0.1,0.6,0.1,0.9,0.1c1.2,0,1.7-0.7,1.7-2v-11.8H158.7z M158.1,259.6c0.4,0,0.8,0.3,0.8,0.8c0,0.2-0.1,0.4-0.2,0.6
					c-0.2,0.2-0.4,0.2-0.6,0.2c-0.2,0-0.4-0.1-0.6-0.2c-0.1-0.1-0.2-0.3-0.2-0.6c0-0.2,0.1-0.4,0.2-0.6
					C157.7,259.7,157.9,259.6,158.1,259.6L158.1,259.6z"/>
				<path class="st1" d="M167.5,268.7l-1.3,1.3v4H165v-15h1.2v9.6l1.1-1.2l4-4h1.5l-4.5,4.5l4.9,6.1h-1.4L167.5,268.7z"/>
				<path class="st1" d="M179.1,274H178v-15h1.2V274z"/>
				<path class="st1" d="M186.4,263.4l0,1.7c0.4-0.6,0.9-1.1,1.5-1.4c0.6-0.3,1.3-0.5,2-0.5c1.4-0.2,2.7,0.7,3.2,2.1
					c0.4-0.6,0.9-1.2,1.5-1.5c0.6-0.4,1.4-0.5,2.1-0.5c2.3,0,3.4,1.2,3.5,3.7v7.1h-1.2v-7c0.1-0.8-0.2-1.5-0.6-2.1
					c-0.5-0.5-1.2-0.8-2-0.7c-0.8,0-1.5,0.3-2.1,0.8c-0.6,0.5-0.9,1.2-1,1.9v7h-1.2v-7.1c0.1-0.7-0.2-1.5-0.6-2
					c-0.5-0.5-1.2-0.7-1.9-0.7c-0.7,0-1.4,0.2-1.9,0.6c-0.6,0.5-1,1.1-1.2,1.9v7.2h-1.2v-10.6H186.4z"/>
				<path class="st1" d="M207.1,263.4l0,1.8c0.4-0.6,0.9-1.1,1.5-1.5c0.6-0.3,1.3-0.5,2-0.5c0.9-0.1,1.9,0.3,2.5,1
					c0.6,0.8,0.9,1.8,0.8,2.9v6.9h-1.2v-6.9c0.1-0.8-0.2-1.5-0.6-2.1c-0.5-0.5-1.2-0.8-1.9-0.7c-0.7,0-1.4,0.2-1.9,0.7
					c-0.6,0.5-1,1.1-1.2,1.8v7.2H206v-10.6H207.1z"/>
				<path class="st1" d="M219.4,268.6c0-0.9,0.2-1.9,0.6-2.7c0.7-1.6,2.4-2.6,4.1-2.6c1.3,0,2.6,0.5,3.4,1.5
					c0.9,1.1,1.4,2.5,1.3,3.9v0.2c0,1-0.2,1.9-0.6,2.8c-0.4,0.8-0.9,1.4-1.7,1.9c-0.7,0.4-1.6,0.7-2.5,0.7c-1.3,0-2.6-0.5-3.4-1.5
					c-0.9-1.1-1.4-2.5-1.3-3.9L219.4,268.6z M220.5,268.9c0,1.1,0.3,2.2,1,3.1c1.2,1.4,3.3,1.6,4.7,0.5c0.2-0.1,0.3-0.3,0.5-0.5
					c0.7-0.9,1-2.1,1-3.2v-0.2c0-0.8-0.1-1.5-0.4-2.2c-0.3-0.6-0.7-1.2-1.3-1.6c-0.5-0.4-1.2-0.6-1.9-0.6c-1,0-1.9,0.4-2.5,1.2
					c-0.7,0.9-1,2.1-1,3.2L220.5,268.9z"/>
				<path class="st1" d="M242.7,268.8c0.1,1.4-0.3,2.8-1.1,3.9c-0.7,0.9-1.8,1.5-2.9,1.5c-1.3,0.1-2.5-0.5-3.3-1.5v5.4h-1.2v-14.6
					h1.1l0.1,1.5c0.7-1.1,2-1.8,3.3-1.7c1.2,0,2.3,0.5,3,1.4c0.8,1.2,1.2,2.6,1.1,4L242.7,268.8z M241.5,268.6
					c0.1-1.1-0.2-2.2-0.8-3.2c-0.5-0.8-1.4-1.2-2.3-1.2c-1.3-0.1-2.6,0.8-3,2v5.1c0.3,0.6,0.7,1.1,1.2,1.4c0.6,0.3,1.2,0.5,1.8,0.5
					c0.9,0,1.8-0.4,2.3-1.2C241.3,271,241.6,269.8,241.5,268.6L241.5,268.6z"/>
				<path class="st1" d="M247.8,268.6c-0.1-1.4,0.3-2.8,1.1-3.9c0.7-1,1.8-1.5,3-1.5c1.3-0.1,2.5,0.6,3.3,1.6l0.1-1.4h1.1v14.6h-1.2
					v-5.4c-0.8,1-2,1.6-3.3,1.5c-1.2,0-2.3-0.5-3-1.5c-0.8-1.2-1.2-2.6-1.1-4V268.6z M249,268.8c-0.1,1.1,0.2,2.3,0.8,3.2
					c0.5,0.8,1.4,1.2,2.3,1.2c1.3,0.1,2.5-0.7,3-1.8v-5.2c-0.3-0.6-0.7-1.1-1.2-1.5c-0.5-0.3-1.2-0.5-1.8-0.5
					c-0.9,0-1.8,0.4-2.3,1.2C249.2,266.4,248.9,267.6,249,268.8L249,268.8z"/>
				<path class="st1" d="M267.3,264.4c-0.3,0-0.5-0.1-0.8-0.1c-0.7,0-1.3,0.2-1.9,0.6c-0.5,0.5-0.9,1.1-1.1,1.8v7.3h-1.2v-10.6h1.1
					l0,1.7c0.5-1.2,1.7-1.9,3-1.9c0.3,0,0.5,0,0.8,0.1L267.3,264.4z"/>
				<path class="st1" d="M278.5,271.3c0-0.6-0.2-1.1-0.7-1.4c-0.6-0.4-1.4-0.7-2.1-0.8c-0.8-0.1-1.5-0.4-2.2-0.7
					c-0.5-0.2-0.9-0.5-1.2-0.9c-0.3-0.4-0.4-0.9-0.4-1.3c0-0.8,0.4-1.6,1-2.1c0.8-0.6,1.7-0.9,2.7-0.8c1-0.1,2,0.3,2.8,0.9
					c0.7,0.5,1.1,1.4,1.1,2.3h-1.2c0-0.6-0.3-1.2-0.8-1.5c-1.1-0.8-2.6-0.8-3.8-0.1c-0.4,0.3-0.7,0.8-0.7,1.3c0,0.5,0.2,0.9,0.6,1.2
					c0.7,0.4,1.4,0.7,2.1,0.8c0.8,0.2,1.6,0.4,2.3,0.8c0.5,0.2,0.8,0.6,1.1,1c0.7,1.2,0.4,2.7-0.7,3.5c-0.8,0.6-1.8,0.8-2.8,0.8
					c-1.1,0-2.1-0.3-3-0.9c-0.7-0.5-1.2-1.4-1.1-2.3h1.2c0,0.6,0.3,1.2,0.9,1.6c0.6,0.4,1.4,0.6,2.1,0.6c0.7,0,1.4-0.2,2-0.5
					C278.2,272.4,278.5,271.9,278.5,271.3z"/>
				<path class="st1" d="M287.1,260.7v2.7h2.2v1h-2.2v7c0,0.5,0.1,0.9,0.3,1.3c0.3,0.3,0.7,0.5,1.1,0.4c0.3,0,0.6,0,0.9-0.1l0,0.9
					c-0.4,0.1-0.8,0.2-1.2,0.2c-0.7,0.1-1.3-0.2-1.7-0.7c-0.4-0.6-0.6-1.3-0.5-2.1v-7.1H284v-1h1.9v-2.7L287.1,260.7z"/>
				<path class="st1" d="M301.5,272.7c-0.8,1.1-2.1,1.6-3.4,1.5c-1,0.1-1.9-0.3-2.6-1c-0.6-0.8-1-1.9-0.9-2.9v-6.9h1.2v6.7
					c0,2,0.8,3,2.4,3c1.4,0.2,2.8-0.7,3.2-2.1v-7.6h1.2V274h-1.1L301.5,272.7z"/>
				<path class="st1" d="M312,272.4l3.2-9h1.2l-3.9,10.6h-0.9l-4-10.6h1.2L312,272.4z"/>
				<path class="st1" d="M323.9,271.6l0.2,0.9l0.2-1l2.5-8.1h1l2.5,8l0.3,1.1l0.2-1l2.2-8.1h1.2l-3.1,10.6h-1l-2.7-8.4l-0.1-0.6
					l-0.1,0.6l-2.7,8.4h-1l-3.1-10.6h1.2L323.9,271.6z"/>
				<path class="st1" d="M342.7,267.7l2.9-4.3h1.4l-3.6,5.2l3.7,5.4h-1.4l-3-4.5l-3,4.5h-1.4l3.7-5.4l-3.6-5.2h1.4L342.7,267.7z"/>
				<path class="st1" d="M355.5,272.3l3.1-8.9h1.3l-4.5,12.4l-0.2,0.5c-0.4,1.1-1.5,1.9-2.7,1.9c-0.3,0-0.6,0-0.9-0.1l0-1l0.6,0.1
					c0.5,0,1-0.1,1.4-0.4c0.4-0.4,0.7-0.9,0.9-1.5l0.5-1.4l-4-10.5h1.3L355.5,272.3z"/>
				<path class="st1" d="M365.4,273h6.9v1H364v-0.9l6.4-8.7h-6.2v-1h7.7v0.9L365.4,273z"/>
				<path class="st1" d="M49.2,303h-1.2v-12.8l-3.9,1.4v-1.1l4.8-1.8h0.2L49.2,303z"/>
				<path class="st1" d="M66.8,303h-8.9v-0.9l4.9-5.5c0.6-0.7,1.2-1.5,1.7-2.3c0.3-0.5,0.5-1.1,0.5-1.8c0-0.8-0.2-1.6-0.8-2.1
					c-0.6-0.5-1.4-0.8-2.2-0.8c-0.9,0-1.7,0.3-2.3,0.9c-0.6,0.6-0.9,1.5-0.9,2.4h-1.2c0-0.8,0.2-1.5,0.5-2.2
					c0.4-0.7,0.9-1.2,1.5-1.5c0.7-0.4,1.5-0.6,2.3-0.6c1.1-0.1,2.2,0.3,3.1,1c0.8,0.7,1.2,1.7,1.1,2.8c0,0.8-0.2,1.5-0.6,2.2
					c-0.6,1.1-1.3,2.1-2.2,2.9l-4,4.5h7.5L66.8,303z"/>
				<path class="st1" d="M74.6,295.3h1.2c0.6,0,1.2-0.1,1.8-0.4c0.5-0.2,0.9-0.5,1.1-1c0.3-0.4,0.4-0.9,0.4-1.4
					c0-0.8-0.2-1.6-0.8-2.1c-0.6-0.5-1.4-0.8-2.2-0.8c-0.8,0-1.6,0.3-2.2,0.8c-0.6,0.5-0.9,1.3-0.9,2.1h-1.2c0-0.7,0.2-1.4,0.6-2
					c0.4-0.6,0.9-1.1,1.5-1.4c0.7-0.3,1.4-0.5,2.2-0.5c1.1-0.1,2.2,0.3,3,1.1c0.8,0.8,1.2,1.8,1.1,2.9c0,0.7-0.2,1.3-0.6,1.9
					c-0.5,0.6-1.1,1-1.8,1.3c0.8,0.2,1.5,0.6,2,1.3c0.5,0.6,0.7,1.4,0.7,2.2c0,1.1-0.4,2.2-1.2,2.9c-0.9,0.8-2,1.2-3.2,1.1
					c-0.8,0-1.6-0.2-2.3-0.5c-1.4-0.6-2.3-2-2.2-3.5h1.2c0,0.8,0.3,1.7,0.9,2.2c0.7,0.6,1.5,0.9,2.4,0.9c0.9,0.1,1.7-0.2,2.4-0.8
					c0.6-0.6,0.9-1.4,0.8-2.3c0.1-0.8-0.3-1.6-0.9-2.2c-0.8-0.6-1.7-0.8-2.7-0.8h-1.2L74.6,295.3z"/>
				<path class="st1" d="M93.2,298.4h2.2v1h-2.2v3.6h-1.2v-3.6h-6.7v-0.7l6.6-10h1.3L93.2,298.4z M86.8,298.4h5.3v-8.1l-0.5,0.9
					L86.8,298.4z"/>
				<path class="st1" d="M100.9,295.7l0.7-6.9h7.1v1.1h-6.1l-0.5,4.8c0.8-0.5,1.7-0.8,2.7-0.8c1.2-0.1,2.3,0.4,3.1,1.2
					c0.8,0.9,1.2,2.1,1.1,3.3c0.1,1.3-0.3,2.5-1.1,3.5c-0.8,0.9-2,1.3-3.1,1.2c-1.1,0-2.2-0.3-3-1c-0.8-0.8-1.3-1.8-1.3-2.9h1.1
					c0,0.8,0.4,1.6,1,2.2c0.6,0.5,1.4,0.8,2.2,0.7c0.9,0.1,1.7-0.3,2.3-1c0.6-0.8,0.8-1.8,0.8-2.8c0-0.9-0.3-1.8-0.9-2.5
					c-0.6-0.7-1.5-1-2.4-1c-0.5,0-1,0.1-1.4,0.2c-0.5,0.2-0.9,0.5-1.3,0.8L100.9,295.7z"/>
				<path class="st1" d="M121.1,288.7v1H121c-1.5-0.1-2.9,0.5-4,1.5c-1,1.1-1.6,2.6-1.6,4.2c0.4-0.5,0.9-1,1.5-1.3
					c0.6-0.3,1.3-0.5,2-0.4c1.1,0,2.2,0.4,3,1.3c0.8,1,1.2,2.2,1.1,3.4c0,0.9-0.2,1.7-0.5,2.5c-0.6,1.5-2.1,2.4-3.7,2.4
					c-1.3,0-2.5-0.5-3.3-1.5c-0.9-1.1-1.3-2.4-1.3-3.8v-1.2c-0.1-2.1,0.5-4.2,1.7-5.9c1.2-1.4,3-2.2,4.9-2.1L121.1,288.7z
					 M118.7,294.7c-0.7,0-1.5,0.2-2.1,0.7c-0.6,0.4-1.1,1-1.3,1.7v1c0,1.1,0.3,2.2,1,3c0.6,0.8,1.5,1.2,2.5,1.2
					c0.9,0,1.7-0.4,2.2-1.1c0.6-0.8,0.9-1.8,0.8-2.7c0-1-0.3-1.9-0.8-2.7C120.4,295,119.6,294.6,118.7,294.7z"/>
				<path class="st1" d="M137.1,289.5L131,303h-1.2l6-13.2h-8.1v-1h9.3V289.5z"/>
				<path class="st1" d="M150.8,292.4c0,0.7-0.2,1.4-0.6,2c-0.4,0.6-1,1-1.7,1.3c0.8,0.2,1.5,0.7,2,1.4c0.5,0.6,0.8,1.4,0.7,2.2
					c0,1.1-0.4,2.2-1.2,2.9c-2,1.4-4.6,1.4-6.6,0c-0.8-0.7-1.3-1.8-1.2-2.9c0-0.8,0.2-1.5,0.7-2.2c0.5-0.6,1.2-1.1,2-1.4
					c-0.7-0.3-1.3-0.7-1.7-1.3c-0.4-0.6-0.6-1.3-0.6-2c0-1.1,0.4-2.1,1.1-2.8c1.8-1.4,4.3-1.4,6,0
					C150.4,290.4,150.8,291.4,150.8,292.4z M150,299.2c0-0.8-0.3-1.6-0.9-2.2c-1.4-1.1-3.4-1.1-4.8,0c-0.6,0.6-1,1.4-0.9,2.2
					c0,0.8,0.3,1.6,0.9,2.2c1.5,1.1,3.4,1.1,4.9,0C149.7,300.9,150,300.1,150,299.2L150,299.2z M149.6,292.4c0-0.8-0.3-1.5-0.8-2
					c-1.2-1.1-3.1-1.1-4.3,0c-0.6,0.5-0.9,1.3-0.8,2.1c0,0.8,0.3,1.5,0.8,2c1.3,1,3.1,1,4.3,0C149.3,293.9,149.6,293.2,149.6,292.4
					L149.6,292.4z"/>
				<path class="st1" d="M163.8,296.4c-0.4,0.6-0.9,1.1-1.6,1.4c-0.6,0.3-1.3,0.5-2,0.5c-0.8,0-1.5-0.2-2.1-0.6
					c-0.6-0.4-1.1-1-1.4-1.7c-0.3-0.8-0.5-1.6-0.5-2.4c0-0.9,0.2-1.8,0.5-2.6c0.3-0.7,0.9-1.3,1.5-1.8c1.8-1.1,4.2-0.7,5.6,0.9
					c0.9,1.2,1.3,2.7,1.2,4.3v1.1c0,2.6-0.5,4.5-1.6,5.8c-1.3,1.4-3.1,2.1-5,1.9h-0.2l0-1h0.4c1.4,0.1,2.8-0.4,3.9-1.4
					C163.3,299.5,163.8,298,163.8,296.4z M160.3,297.3c0.8,0,1.5-0.2,2.1-0.7c0.6-0.5,1.1-1.1,1.3-1.8v-0.7c0.1-1.2-0.2-2.4-0.9-3.4
					c-0.6-0.8-1.5-1.2-2.4-1.2c-0.9,0-1.7,0.4-2.3,1.1c-0.6,0.8-0.9,1.8-0.9,2.8c0,1,0.3,1.9,0.9,2.7
					C158.6,296.9,159.5,297.3,160.3,297.3L160.3,297.3z"/>
				<path class="st1" d="M179.1,297.1c0.1,1.6-0.3,3.2-1.1,4.6c-1.4,1.8-4.1,2.1-5.9,0.6c-0.2-0.2-0.4-0.4-0.6-0.6
					c-0.8-1.3-1.2-2.9-1.2-4.4v-2.5c-0.1-1.6,0.3-3.2,1.1-4.5c1.5-1.8,4.1-2.1,5.9-0.6c0.2,0.2,0.4,0.3,0.5,0.5
					c0.8,1.3,1.2,2.8,1.2,4.4L179.1,297.1z M178,294.5c0.1-1.3-0.2-2.6-0.8-3.7c-0.9-1.3-2.8-1.6-4.1-0.7c-0.3,0.2-0.5,0.4-0.7,0.7
					c-0.6,1.1-0.9,2.3-0.8,3.6v2.8c-0.1,1.3,0.2,2.6,0.8,3.7c0.5,0.8,1.4,1.3,2.4,1.3c1,0,1.9-0.4,2.4-1.3c0.6-1.1,0.9-2.4,0.8-3.7
					L178,294.5z"/>
				<path class="st1" d="M184.8,302.3c0-0.2,0.1-0.4,0.2-0.6c0.2-0.2,0.4-0.2,0.6-0.2c0.2,0,0.4,0.1,0.6,0.2
					c0.1,0.2,0.2,0.4,0.2,0.6c0,0.2-0.1,0.4-0.2,0.5c-0.2,0.2-0.4,0.2-0.6,0.2c-0.2,0-0.4-0.1-0.6-0.2
					C184.9,302.7,184.8,302.5,184.8,302.3z M186.1,299H185l-0.1-10.3h1.2L186.1,299z"/>
				<path class="st1" d="M207.9,298c0,0.9-0.2,1.8-0.5,2.7c-0.3,0.7-0.7,1.4-1.3,1.9c-0.6,0.4-1.2,0.7-2,0.7c-0.6,0-1.1-0.2-1.5-0.5
					c-0.4-0.4-0.7-0.9-0.8-1.4c-0.5,1.1-1.7,1.9-2.9,1.9c-0.9,0-1.6-0.4-2-1.2c-0.5-1-0.7-2.1-0.5-3.2c0.1-1,0.3-1.9,0.7-2.8
					c0.3-0.8,0.9-1.4,1.5-1.9c0.6-0.4,1.3-0.7,2-0.7c0.4,0,0.9,0.1,1.3,0.2c0.5,0.2,0.9,0.5,1.3,0.8l-0.5,5.6
					c-0.1,0.6,0,1.2,0.3,1.8c0.3,0.4,0.7,0.7,1.2,0.6c0.8,0,1.6-0.5,1.9-1.2c0.6-1,0.8-2.1,0.8-3.2c0.1-2.6-0.4-4.6-1.5-6
					c-1.3-1.4-3.2-2.1-5.1-2c-1.3,0-2.6,0.3-3.7,1c-1.1,0.7-2,1.7-2.6,2.9c-0.7,1.4-1,2.8-1.1,4.3c-0.1,1.5,0.1,3,0.6,4.3
					c0.5,1.2,1.3,2.2,2.3,2.9c1.1,0.7,2.4,1,3.7,1c0.6,0,1.2-0.1,1.8-0.2c0.5-0.1,1-0.3,1.5-0.6l0.3,0.8c-0.5,0.3-1,0.5-1.6,0.6
					c-0.7,0.2-1.3,0.2-2,0.2c-1.5,0-2.9-0.3-4.2-1.1c-1.2-0.8-2.1-1.9-2.6-3.2c-0.6-1.5-0.9-3.2-0.8-4.8c0-1.7,0.5-3.3,1.2-4.8
					c2.2-4.1,7.3-5.6,11.4-3.4c0,0,0,0,0,0l0,0c1.2,0.7,2.1,1.8,2.6,3C207.8,294.7,208.1,296.4,207.9,298z M197.4,300.2
					c0,0.5,0.2,1.1,0.5,1.5c0.3,0.4,0.7,0.5,1.2,0.5c1.2,0,2.1-0.8,2.7-2.5l0.4-5.1c-0.4-0.3-1-0.5-1.5-0.5c-0.7,0-1.4,0.3-1.9,0.9
					c-0.6,0.7-1,1.5-1.2,2.4C197.4,298.4,197.3,299.3,197.4,300.2L197.4,300.2z"/>
				<path class="st1" d="M219.4,299h-3.1l-0.8,4h-1l0.8-4h-2.5v-0.9h2.7l0.8-4.3h-2.7v-0.9h2.9l0.8-4.1h1l-0.8,4.1h3.1l0.8-4.1h1
					l-0.8,4.1h2.2v0.9h-2.4l-0.8,4.3h2.5v0.9h-2.7l-0.8,4h-1L219.4,299z M216.5,298.1h3.1l0.8-4.3h-3.1L216.5,298.1z"/>
				<path class="st1" d="M235.5,299.5c0-0.7-0.2-1.3-0.7-1.8c-0.7-0.6-1.6-1-2.5-1.3c-1.2-0.3-2.2-0.9-3.1-1.6
					c-0.6-0.7-0.9-1.6-0.9-2.5c0-1,0.3-1.9,1-2.6c0.7-0.7,1.7-1.1,2.7-1.1v-2h1v2c1,0,2,0.5,2.7,1.3c0.7,0.9,1,2,0.9,3.1h-1.2
					c0-0.9-0.2-1.8-0.8-2.4c-0.6-0.6-1.3-0.9-2.2-0.9c-0.8,0-1.6,0.2-2.2,0.7c-0.5,0.5-0.8,1.2-0.8,1.9c0,0.7,0.2,1.4,0.7,1.8
					c0.7,0.6,1.5,1,2.4,1.2c0.9,0.3,1.7,0.6,2.5,1.1c0.5,0.3,0.9,0.8,1.2,1.3c0.3,0.5,0.4,1.1,0.4,1.7c0,1-0.3,1.9-1,2.6
					c-0.8,0.7-1.7,1.1-2.7,1.1v1.9h-1v-1.8c-1.1,0-2.2-0.5-3-1.2c-0.7-0.8-1.1-1.9-1.1-3h1.2c0,0.9,0.3,1.8,0.9,2.4
					c0.7,0.6,1.6,0.9,2.5,0.9c0.8,0,1.6-0.2,2.3-0.7C235.2,301,235.5,300.2,235.5,299.5z"/>
				<path class="st1" d="M241.9,291.5c0-0.8,0.3-1.5,0.8-2.1c1.1-1.1,2.9-1.1,4,0l0,0c0.5,0.6,0.8,1.4,0.8,2.2v0.7
					c0,0.8-0.3,1.5-0.8,2.1c-0.5,0.6-1.2,0.9-2,0.8c-0.8,0-1.5-0.3-2-0.8c-0.5-0.6-0.8-1.4-0.8-2.2L241.9,291.5z M242.8,292.3
					c0,0.5,0.2,1.1,0.5,1.5c0.3,0.4,0.8,0.6,1.4,0.6c0.5,0,1-0.2,1.3-0.6c0.3-0.4,0.5-1,0.5-1.5v-0.7c0-0.5-0.2-1.1-0.5-1.5
					c-0.7-0.7-1.8-0.8-2.5-0.1c0,0-0.1,0.1-0.1,0.1c-0.4,0.4-0.5,1-0.5,1.6L242.8,292.3z M245,301.8l-0.7-0.5l6.9-11.1l0.7,0.5
					L245,301.8z M249,299.5c0-0.8,0.3-1.5,0.8-2.1c0.5-0.5,1.2-0.9,2-0.8c0.8,0,1.5,0.3,2,0.8c0.5,0.6,0.8,1.4,0.8,2.2v0.7
					c0,0.8-0.3,1.5-0.8,2.1c-0.5,0.5-1.2,0.9-2,0.8c-0.8,0-1.5-0.3-2-0.8c-0.5-0.6-0.8-1.4-0.8-2.2V299.5z M249.9,300.3
					c0,0.5,0.2,1.1,0.5,1.5c0.3,0.4,0.8,0.6,1.4,0.6c0.5,0,1-0.2,1.3-0.6c0.3-0.4,0.5-1,0.5-1.6v-0.7c0-0.5-0.2-1.1-0.5-1.5
					c-0.7-0.7-1.9-0.8-2.6-0.1c0,0,0,0,0,0c0,0,0,0-0.1,0.1c-0.4,0.4-0.5,1-0.5,1.5L249.9,300.3z"/>
				<path class="st1" d="M262.7,290.3l-2.2,5.6h-1.1l2.9-7.1h0.9l2.9,7.1h-1.1L262.7,290.3z"/>
				<path class="st1" d="M273.8,295.2c-0.5-0.6-0.9-1.2-1.2-1.8c-0.2-0.5-0.4-1-0.4-1.6c0-0.9,0.3-1.7,0.9-2.4
					c0.6-0.6,1.5-0.9,2.4-0.9c0.8,0,1.6,0.2,2.2,0.8c0.6,0.5,0.9,1.2,0.8,2c-0.1,1.1-0.7,2.1-1.6,2.8l-1.6,1.2l3.9,4.6
					c0.6-1,0.9-2.1,0.9-3.3h1.1c0,1.5-0.4,2.9-1.2,4.1l1.9,2.3h-1.4l-1.2-1.4c-0.5,0.5-1.1,0.9-1.8,1.2c-0.7,0.3-1.4,0.4-2.1,0.4
					c-1.2,0.1-2.3-0.3-3.2-1c-1.3-1.2-1.6-3.2-0.6-4.7c0.6-0.8,1.3-1.5,2.1-2.1L273.8,295.2z M275.4,302.2c0.6,0,1.2-0.1,1.7-0.4
					c0.6-0.3,1.1-0.6,1.5-1.1l-4-4.6l-0.1-0.1l-0.4,0.3c-1.3,1-1.9,2.1-1.9,3c0,0.8,0.3,1.5,0.9,2.1
					C273.6,302,274.5,302.3,275.4,302.2L275.4,302.2z M273.4,291.8c0.1,1.1,0.6,2,1.3,2.8l1.3-1c0.4-0.3,0.7-0.6,1-1
					c0.3-0.4,0.4-0.8,0.4-1.3c0-0.5-0.2-0.9-0.5-1.3c-0.4-0.4-0.9-0.5-1.4-0.5c-0.6,0-1.1,0.2-1.5,0.6
					C273.6,290.6,273.4,291.2,273.4,291.8L273.4,291.8z"/>
				<path class="st1" d="M288.7,293.2l-3.2-1.1l0.3-1l3.2,1.2l0-3.6h1l-0.1,3.6l3.2-1.2l0.3,1l-3.3,1.1l2.2,2.9l-0.8,0.6l-2.1-3
					l-2,3l-0.8-0.6L288.7,293.2z"/>
				<path class="st1" d="M298,297.3c0-1.4,0.2-2.8,0.5-4.1c0.3-1.3,0.9-2.5,1.6-3.7c0.6-1,1.3-1.8,2.3-2.4l0.3,0.8
					c-0.5,0.4-0.9,0.8-1.3,1.3c-0.5,0.6-0.8,1.4-1.1,2.1c-0.4,0.9-0.6,1.8-0.8,2.7c-0.2,1.1-0.3,2.3-0.3,3.4c0,1.3,0.2,2.6,0.5,3.9
					c0.3,1.2,0.7,2.3,1.3,3.3c0.4,0.8,1,1.6,1.8,2.2l-0.3,0.8c-0.9-0.6-1.7-1.4-2.3-2.4c-0.7-1.1-1.2-2.4-1.6-3.6
					C298.2,300.1,298,298.7,298,297.3z"/>
				<path class="st1" d="M311.1,297.4c0,1.4-0.2,2.8-0.5,4.1c-0.3,1.3-0.9,2.5-1.6,3.6c-0.6,1-1.4,1.8-2.3,2.4l-0.3-0.8
					c0.7-0.6,1.3-1.3,1.8-2.1c0.6-1.1,1-2.2,1.3-3.3c0.3-1.4,0.5-2.7,0.5-4.1c0-1.3-0.2-2.6-0.5-3.9c-0.3-1.2-0.7-2.3-1.3-3.4
					c-0.4-0.8-1-1.6-1.8-2.2l0.3-0.8c0.9,0.6,1.7,1.4,2.3,2.4c0.7,1.1,1.2,2.4,1.6,3.7C310.9,294.5,311.1,296,311.1,297.4z"/>
				<path class="st1" d="M53,113h-6.8v9.7h-2V99.4h7.6c2.1-0.1,4.2,0.5,5.8,1.8c2.5,2.4,2.8,6.2,0.8,9c-0.9,1.2-2.1,2-3.5,2.4
					l5.8,10v0.2h-2.1L53,113z M46.2,111.3h6.1c1.5,0.1,2.9-0.4,4-1.4c2-2.1,2-5.4-0.1-7.5c-1.3-1-2.8-1.5-4.4-1.4h-5.6L46.2,111.3z"
					/>
				<path class="st1" d="M68.6,113.8c0-1.6,0.3-3.1,1-4.5c1.2-2.6,3.9-4.3,6.8-4.2c2.1-0.1,4.2,0.8,5.6,2.4c1.5,1.8,2.3,4.1,2.2,6.4
					v0.4c0,1.6-0.3,3.1-1,4.5c-0.6,1.3-1.5,2.4-2.7,3.1c-1.2,0.7-2.6,1.1-4,1.1c-2.1,0.1-4.2-0.8-5.6-2.4c-1.5-1.8-2.3-4.1-2.2-6.4
					L68.6,113.8z M70.5,114.4c-0.1,1.8,0.5,3.7,1.6,5.1c1.9,2.3,5.4,2.7,7.7,0.8c0.3-0.2,0.5-0.5,0.8-0.8c1.1-1.5,1.7-3.4,1.6-5.3
					v-0.4c0-1.3-0.2-2.5-0.7-3.6c-0.4-1-1.2-1.9-2.1-2.6c-0.9-0.6-2-0.9-3.1-0.9c-1.6,0-3.2,0.7-4.2,2c-1.1,1.5-1.7,3.4-1.6,5.3
					L70.5,114.4z"/>
				<path class="st1" d="M107,114.3c0.1,2.3-0.5,4.6-1.8,6.4c-1.1,1.5-2.9,2.4-4.8,2.4c-2.2,0.1-4.3-0.9-5.5-2.7l-0.1,2.4H93V98.1
					h1.9v9.8c1.2-1.9,3.2-3,5.4-2.8c1.9-0.1,3.7,0.8,4.9,2.4c1.3,1.9,1.9,4.2,1.8,6.5L107,114.3z M105,113.9
					c0.1-1.9-0.4-3.7-1.3-5.3c-0.8-1.2-2.3-1.9-3.8-1.9c-1.1,0-2.2,0.3-3.1,0.9c-0.9,0.7-1.6,1.6-1.9,2.7v7.8
					c0.8,2.1,2.9,3.4,5.1,3.3c1.5,0.1,2.9-0.7,3.7-1.9C104.7,117.8,105.2,115.9,105,113.9z"/>
				<path class="st1" d="M115.1,113.8c0-1.6,0.3-3.1,1-4.5c1.2-2.6,3.9-4.3,6.8-4.2c2.1-0.1,4.2,0.8,5.6,2.4
					c1.5,1.8,2.3,4.1,2.2,6.4v0.4c0,1.6-0.3,3.1-1,4.5c-0.6,1.3-1.5,2.4-2.7,3.1c-1.2,0.7-2.6,1.1-4,1.1c-2.1,0.1-4.2-0.8-5.6-2.4
					c-1.5-1.8-2.3-4.1-2.2-6.4V113.8z M117,114.4c-0.1,1.8,0.5,3.7,1.6,5.1c1.9,2.3,5.4,2.7,7.7,0.8c0.3-0.2,0.5-0.5,0.8-0.8
					c1.1-1.5,1.7-3.4,1.6-5.3v-0.4c0-1.3-0.2-2.5-0.7-3.6c-0.4-1-1.2-1.9-2.1-2.6c-0.9-0.6-2-0.9-3.1-0.9c-1.6,0-3.2,0.7-4.2,2
					c-1.1,1.5-1.7,3.4-1.6,5.3L117,114.4z"/>
				<path class="st1" d="M142.5,100.9v4.4h3.6v1.6h-3.6v11.6c-0.1,0.8,0.1,1.5,0.5,2.2c0.4,0.5,1.1,0.8,1.7,0.7c0.5,0,1-0.1,1.6-0.2
					l0.1,1.6c-0.7,0.2-1.4,0.3-2.1,0.3c-1.1,0.1-2.2-0.3-2.9-1.1c-0.7-1-1-2.2-0.9-3.4V107h-3.2v-1.6h3.2v-4.4L142.5,100.9z"/>
				<path class="st1" d="M153.6,113.8c0-1.6,0.3-3.1,1-4.5c1.2-2.6,3.9-4.3,6.8-4.2c2.1-0.1,4.2,0.8,5.6,2.4
					c1.5,1.8,2.3,4.1,2.2,6.4v0.4c0,1.6-0.3,3.1-1,4.5c-0.6,1.3-1.5,2.4-2.7,3.1c-1.2,0.7-2.6,1.1-4,1.1c-2.1,0.1-4.2-0.8-5.6-2.4
					c-1.5-1.8-2.3-4.1-2.2-6.4V113.8z M155.5,114.4c-0.1,1.8,0.5,3.7,1.6,5.1c1.9,2.3,5.4,2.7,7.7,0.8c0.3-0.2,0.5-0.5,0.8-0.8
					c1.1-1.5,1.7-3.4,1.6-5.3v-0.4c0-1.3-0.2-2.5-0.7-3.6c-0.4-1-1.2-1.9-2.1-2.6c-0.9-0.6-2-0.9-3.1-0.9c-1.6,0-3.2,0.7-4.2,2
					c-1.1,1.5-1.7,3.4-1.6,5.3L155.5,114.4z"/>
			</g>
		</g>
	</g>
</g>
</svg>
