<svg xmlns="http://www.w3.org/2000/svg" width="280" height="150" viewBox="0 0 280 150"><title>temp</title><g id="Layer_2" data-name="Layer 2"><g id="Layer_1-2" data-name="Layer 1"><rect width="280" height="150" rx="5" ry="5" fill="#7f507b"/><path d="M67.4634,112.7578H52.3755V71.4492q0-1.2686.0244-3.0518.0242-1.7812.0977-3.7109.0732-1.9277.1465-3.8818t.1221-3.5645q-.2446.293-.83.8789t-1.3184,1.2939q-.7324.709-1.5137,1.44T47.59,62.1719l-8.2031,6.5918-7.3242-9.082L55.061,41.3711H67.4634Z" fill="#fff"/><path d="M92.7563,112.7578,118.147,54.1641H85.3345V41.4688h49.2188v9.4727l-26.0254,61.8164Z" fill="#fff"/><path d="M140.3462,47.0908a9.66,9.66,0,0,1,1.31-4.8955,9.7766,9.7766,0,0,1,3.5869-3.6152,9.5971,9.5971,0,0,1,4.9531-1.3379,9.7456,9.7456,0,0,1,4.91,1.3086,9.5926,9.5926,0,0,1,3.6152,3.6162,9.8453,9.8453,0,0,1,0,9.8633,9.4328,9.4328,0,0,1-3.6006,3.5723,9.8769,9.8769,0,0,1-4.9248,1.2813,9.5532,9.5532,0,0,1-6.9883-2.832A9.416,9.416,0,0,1,140.3462,47.0908Zm5.4375,0a4.4264,4.4264,0,0,0,8.8525,0,4.36,4.36,0,0,0-1.2949-3.1309,4.3657,4.3657,0,0,0-6.2627-.0283A4.3293,4.3293,0,0,0,145.7837,47.0908Z" fill="#fff"/><g opacity="0.8"><path d="M219.7368,68.7155H202.9722V65.0417l5.8789-6.3408q1.11-1.1953,2.0166-2.2041a18.5472,18.5472,0,0,0,1.5547-1.9658,8.78,8.78,0,0,0,1.0088-1.9482,6.227,6.227,0,0,0,.3584-2.1367,2.5428,2.5428,0,0,0-.76-1.9648,2.8993,2.8993,0,0,0-2.043-.7012,5.4423,5.4423,0,0,0-2.5977.667,13.4811,13.4811,0,0,0-2.6143,1.8975l-2.8711-3.4014q.769-.7,1.6064-1.3418a11.0713,11.0713,0,0,1,1.8457-1.1357,10.9081,10.9081,0,0,1,2.2217-.7949,11.375,11.375,0,0,1,2.7178-.2988,9.7907,9.7907,0,0,1,3.2207.4951,6.9994,6.9994,0,0,1,2.4355,1.41,6.1089,6.1089,0,0,1,1.5469,2.2129,7.5791,7.5791,0,0,1,.5381,2.9229,7.8021,7.8021,0,0,1-.5127,2.8105,12.4875,12.4875,0,0,1-1.4014,2.6318,23.4948,23.4948,0,0,1-2.06,2.5635q-1.17,1.2744-2.5039,2.59l-3.0078,3.0244v.2393h10.1855Z" fill="#fff"/><path d="M238.0405,49.319a6.16,6.16,0,0,1-.4189,2.332,5.8205,5.8205,0,0,1-1.1445,1.8115,6.4528,6.4528,0,0,1-1.709,1.2988,8.9571,8.9571,0,0,1-2.1279.7949v.1025a7.9637,7.9637,0,0,1,4.58,1.8369,5.1512,5.1512,0,0,1,1.5557,3.9395,7.7064,7.7064,0,0,1-.59,3.0332,6.3917,6.3917,0,0,1-1.8115,2.4189,8.7462,8.7462,0,0,1-3.0762,1.5977,14.9,14.9,0,0,1-4.3662.5723,20.6281,20.6281,0,0,1-3.7949-.333,14.9456,14.9456,0,0,1-3.3145-1.0166V63.2126a12.1913,12.1913,0,0,0,1.623.7178,17.728,17.728,0,0,0,1.709.5215,14.01,14.01,0,0,0,1.6836.3164,12.7516,12.7516,0,0,0,1.5635.1016,9.2077,9.2077,0,0,0,2.4443-.2734,4.0447,4.0447,0,0,0,1.5547-.7686A2.7719,2.7719,0,0,0,233.23,62.64a4.4646,4.4646,0,0,0,.2471-1.5127,3.0458,3.0458,0,0,0-.3154-1.3926,2.6883,2.6883,0,0,0-1.0254-1.06,5.8186,5.8186,0,0,0-1.8545-.6748,14.01,14.01,0,0,0-2.82-.24h-1.7773v-3.708h1.7441a10.19,10.19,0,0,0,2.6143-.2822,4.6772,4.6772,0,0,0,1.666-.7686,2.6854,2.6854,0,0,0,.88-1.1367,3.715,3.715,0,0,0,.2568-1.3838,2.6752,2.6752,0,0,0-.8291-2.0859,3.8287,3.8287,0,0,0-2.623-.752,6.8325,6.8325,0,0,0-1.5293.1631,8.5245,8.5245,0,0,0-1.3164.41,8.3354,8.3354,0,0,0-1.11.5469q-.5054.2988-.915.5889l-2.666-3.52a12.1237,12.1237,0,0,1,1.5645-.9746,12.4764,12.4764,0,0,1,1.8369-.7773,13.6383,13.6383,0,0,1,2.1357-.5215,15.1348,15.1348,0,0,1,2.4443-.1875,13.0917,13.0917,0,0,1,3.3584.4014,8.0119,8.0119,0,0,1,2.5889,1.1621,5.3542,5.3542,0,0,1,1.666,1.8623A5.2584,5.2584,0,0,1,238.0405,49.319Z" fill="#fff"/><path d="M241.0415,45.7321a3.38,3.38,0,0,1,.459-1.7139,3.4168,3.4168,0,0,1,1.2559-1.2656,3.3667,3.3667,0,0,1,1.7324-.4678,3.4047,3.4047,0,0,1,1.7188.458,3.3511,3.3511,0,0,1,1.2656,1.2656,3.4433,3.4433,0,0,1,0,3.4521,3.302,3.302,0,0,1-1.26,1.25,3.4606,3.4606,0,0,1-1.7246.4482,3.3431,3.3431,0,0,1-2.4453-.9912A3.2917,3.2917,0,0,1,241.0415,45.7321Zm1.9043,0a1.5489,1.5489,0,0,0,3.0977,0,1.5246,1.5246,0,0,0-.4531-1.0967,1.5283,1.5283,0,0,0-2.1914-.01A1.5147,1.5147,0,0,0,242.9458,45.7321Z" fill="#fff"/></g><g opacity="0.8"><path d="M215.5337,107.7152h-5.2812V93.2572c0-.2959.002-.6523.0088-1.0684q.0073-.6226.0342-1.2988.0249-.6738.0508-1.3584.0264-.6826.043-1.248c-.0566.0684-.1543.1719-.291.3086s-.29.2871-.4609.4521-.3477.333-.5293.5049c-.1836.17-.3594.3242-.53.4609l-2.8711,2.3066-2.5635-3.1777,8.0488-6.4092h4.3418Z" fill="#fff"/><path d="M239.0142,107.7152H222.25v-3.6738l5.8789-6.3408q1.11-1.1953,2.0166-2.2041A18.5472,18.5472,0,0,0,231.7,93.5306a8.78,8.78,0,0,0,1.0088-1.9482,6.227,6.227,0,0,0,.3584-2.1367,2.5428,2.5428,0,0,0-.76-1.9648,2.8993,2.8993,0,0,0-2.043-.7012,5.4423,5.4423,0,0,0-2.5977.667,13.4811,13.4811,0,0,0-2.6143,1.8975l-2.8711-3.4014q.769-.7,1.6064-1.3418a11.0713,11.0713,0,0,1,1.8457-1.1357,10.9081,10.9081,0,0,1,2.2217-.7949,11.375,11.375,0,0,1,2.7178-.2988,9.7907,9.7907,0,0,1,3.2207.4951,6.9994,6.9994,0,0,1,2.4355,1.41,6.1089,6.1089,0,0,1,1.5469,2.2129,7.5791,7.5791,0,0,1,.5381,2.9229,7.8021,7.8021,0,0,1-.5127,2.8105A12.4875,12.4875,0,0,1,236.4,94.8548a23.4948,23.4948,0,0,1-2.06,2.5635q-1.17,1.2744-2.5039,2.59l-3.0078,3.0244v.2393h10.1855Z" fill="#fff"/><path d="M241.0415,84.7318a3.38,3.38,0,0,1,.459-1.7139,3.4168,3.4168,0,0,1,1.2559-1.2656,3.3667,3.3667,0,0,1,1.7324-.4678,3.4047,3.4047,0,0,1,1.7188.458,3.3511,3.3511,0,0,1,1.2656,1.2656,3.4433,3.4433,0,0,1,0,3.4521,3.302,3.302,0,0,1-1.26,1.25,3.4606,3.4606,0,0,1-1.7246.4482,3.3431,3.3431,0,0,1-2.4453-.9912A3.2917,3.2917,0,0,1,241.0415,84.7318Zm1.9043,0a1.5489,1.5489,0,0,0,3.0977,0,1.5246,1.5246,0,0,0-.4531-1.0967,1.5283,1.5283,0,0,0-2.1914-.01A1.5147,1.5147,0,0,0,242.9458,84.7318Z" fill="#fff"/></g></g></g></svg>