<svg xmlns="http://www.w3.org/2000/svg" width="83.4437" height="83.4437" viewBox="0 0 83.4437 83.4437"><title>wind_1</title><g id="Layer_2" data-name="Layer 2"><g id="Layer_1-2" data-name="Layer 1"><rect width="83.4437" height="83.4437" rx="5" ry="5" fill="#3accb0"/><circle cx="41.7219" cy="41.7219" r="26.8221" fill="none" stroke="#fff" stroke-miterlimit="10" opacity="0.8"/><polyline points="56.618 57.566 60.692 68.544 61.988 62.95" fill="#fff"/><polyline points="61.988 62.95 67.58 61.664 56.618 57.566" fill="#fff"/><path d="M40.9288,47.2745H30.0481V44.89l3.8154-4.1152q.7206-.7758,1.3088-1.43a12.0834,12.0834,0,0,0,1.0093-1.2758,5.7238,5.7238,0,0,0,.6544-1.2644,4.0414,4.0414,0,0,0,.2329-1.3867,1.6493,1.6493,0,0,0-.4934-1.2752,1.8814,1.8814,0,0,0-1.3256-.4551,3.5311,3.5311,0,0,0-1.6859.4329,8.7506,8.7506,0,0,0-1.697,1.2315l-1.8634-2.2075q.4991-.4544,1.0426-.8708a7.16,7.16,0,0,1,1.1979-.7371,7.0863,7.0863,0,0,1,1.4419-.5159,7.3835,7.3835,0,0,1,1.7635-.1939,6.3535,6.3535,0,0,1,2.0906.3213,4.5455,4.5455,0,0,1,1.5807.9152,3.9647,3.9647,0,0,1,1.0039,1.4362,4.9189,4.9189,0,0,1,.3492,1.897,5.0636,5.0636,0,0,1-.3327,1.8241,8.1191,8.1191,0,0,1-.9095,1.7081,15.2483,15.2483,0,0,1-1.3367,1.6637q-.76.8271-1.6247,1.6808l-1.9521,1.9629v.1553h6.61Z" fill="#fff"/><path d="M53.44,47.2745H42.5593V44.89l3.8154-4.1152q.7206-.7758,1.3088-1.43a12.0834,12.0834,0,0,0,1.0093-1.2758,5.7238,5.7238,0,0,0,.6544-1.2644,4.0414,4.0414,0,0,0,.2329-1.3867,1.6493,1.6493,0,0,0-.4934-1.2752,1.8814,1.8814,0,0,0-1.3256-.4551,3.5311,3.5311,0,0,0-1.6859.4329,8.7506,8.7506,0,0,0-1.697,1.2315l-1.8634-2.2075q.4991-.4544,1.0426-.8708a7.16,7.16,0,0,1,1.1979-.7371,7.0863,7.0863,0,0,1,1.4419-.5159,7.3835,7.3835,0,0,1,1.7635-.1939,6.3535,6.3535,0,0,1,2.0906.3213,4.5455,4.5455,0,0,1,1.5807.9152A3.9647,3.9647,0,0,1,52.636,33.499a4.9189,4.9189,0,0,1,.3492,1.897,5.0636,5.0636,0,0,1-.3327,1.8241,8.1191,8.1191,0,0,1-.9095,1.7081,15.2483,15.2483,0,0,1-1.3367,1.6637q-.76.8271-1.6247,1.6808l-1.9521,1.9629v.1553h6.61Z" fill="#fff"/><path d="M34.7939,52.3322l.3936-.5029.9248-1.0049H37.13L35.8174,52.258l1.3916,1.8711h-1.04L35.2168,52.79l-.3867.3105v1.0283h-.9023v-4.6H34.83v2.0518l-.0479.751Z" fill="#fff"/><path d="M40.6406,54.1291h-.9014V52.1984a.9685.9685,0,0,0-.12-.5361.4194.4194,0,0,0-.376-.1787.5465.5465,0,0,0-.5029.2539,1.6693,1.6693,0,0,0-.1562.8369v1.5547h-.9023V50.8244h.6895l.1211.4229h.05a.9138.9138,0,0,1,.3848-.3564,1.2426,1.2426,0,0,1,.5762-.1289,1.0391,1.0391,0,0,1,1.0049.4854h.08a.8908.8908,0,0,1,.3916-.3584,1.3154,1.3154,0,0,1,.584-.127,1.1558,1.1558,0,0,1,.85.2881,1.2649,1.2649,0,0,1,.2881.9238v2.1553h-.9043V52.1984a.9685.9685,0,0,0-.12-.5361.42.42,0,0,0-.377-.1787.5632.5632,0,0,0-.4951.2363,1.3417,1.3417,0,0,0-.1641.751Z" fill="#fff"/><path d="M45.7959,49.0891l-1.6553,6.042h-.7744l1.6553-6.042Z" fill="#fff"/><path d="M49.5322,54.1291h-.9014V52.1984q0-.7148-.5322-.7148a.6064.6064,0,0,0-.5469.2568,1.573,1.573,0,0,0-.168.834v1.5547h-.9023v-4.6h.9023v.9375c0,.0723-.0078.2441-.0215.5137l-.0205.2666H47.39a1.0426,1.0426,0,0,1,.957-.4854,1.1686,1.1686,0,0,1,.8838.3135,1.2447,1.2447,0,0,1,.3018.8984Z" fill="#fff"/></g></g></svg>