<svg xmlns="http://www.w3.org/2000/svg" width="83.4437" height="83.4437" viewBox="0 0 83.4437 83.4437"><title>wind</title><g id="Layer_2" data-name="Layer 2"><g id="Layer_1-2" data-name="Layer 1"><rect width="83.4437" height="83.4437" rx="5" ry="5" fill="#3accb0"/><circle cx="41.7219" cy="41.7219" r="26.8221" fill="none" stroke="#fff" stroke-miterlimit="10" opacity="0.8"/><polyline points="56.618 57.566 60.692 68.544 61.988 62.95" fill="#fff"/><polyline points="61.988 62.95 67.58 61.664 56.618 57.566" fill="#fff"/><path d="M40.9288,47.2745H30.0481V44.89l3.8154-4.1152q.7206-.7758,1.3088-1.43a12.0834,12.0834,0,0,0,1.0093-1.2758,5.7238,5.7238,0,0,0,.6544-1.2644,4.0414,4.0414,0,0,0,.2329-1.3867,1.6493,1.6493,0,0,0-.4934-1.2752,1.8814,1.8814,0,0,0-1.3256-.4551,3.5311,3.5311,0,0,0-1.6859.4329,8.7506,8.7506,0,0,0-1.697,1.2315l-1.8634-2.2075q.4991-.4544,1.0426-.8708a7.16,7.16,0,0,1,1.1979-.7371,7.0863,7.0863,0,0,1,1.4419-.5159,7.3835,7.3835,0,0,1,1.7635-.1939,6.3535,6.3535,0,0,1,2.0906.3213,4.5455,4.5455,0,0,1,1.5807.9152,3.9647,3.9647,0,0,1,1.0039,1.4362,4.9189,4.9189,0,0,1,.3492,1.897,5.0636,5.0636,0,0,1-.3327,1.8241,8.1191,8.1191,0,0,1-.9095,1.7081,15.2483,15.2483,0,0,1-1.3367,1.6637q-.76.8271-1.6247,1.6808l-1.9521,1.9629v.1553h6.61Z" fill="#fff"/><path d="M53.44,47.2745H42.5593V44.89l3.8154-4.1152q.7206-.7758,1.3088-1.43a12.0834,12.0834,0,0,0,1.0093-1.2758,5.7238,5.7238,0,0,0,.6544-1.2644,4.0414,4.0414,0,0,0,.2329-1.3867,1.6493,1.6493,0,0,0-.4934-1.2752,1.8814,1.8814,0,0,0-1.3256-.4551,3.5311,3.5311,0,0,0-1.6859.4329,8.7506,8.7506,0,0,0-1.697,1.2315l-1.8634-2.2075q.4991-.4544,1.0426-.8708a7.16,7.16,0,0,1,1.1979-.7371,7.0863,7.0863,0,0,1,1.4419-.5159,7.3835,7.3835,0,0,1,1.7635-.1939,6.3535,6.3535,0,0,1,2.0906.3213,4.5455,4.5455,0,0,1,1.5807.9152A3.9647,3.9647,0,0,1,52.636,33.499a4.9189,4.9189,0,0,1,.3492,1.897,5.0636,5.0636,0,0,1-.3327,1.8241,8.1191,8.1191,0,0,1-.9095,1.7081,15.2483,15.2483,0,0,1-1.3367,1.6637q-.76.8271-1.6247,1.6808l-1.9521,1.9629v.1553h6.61Z" fill="#fff"/><text transform="translate(33.4551 54.1291) scale(0.583)" font-size="10.3841" fill="#fff" font-family="NotoSans-Bold, Noto Sans" font-weight="700">km/h</text></g></g></svg>